<svg width="18" height="18" viewBox="0 0 18 18" fill="none" xmlns="http://www.w3.org/2000/svg">
<path d="M3.50795 2.46094V5.15936H2.96826V6.23873H4.58732V3.54031H13.2223V14.334H4.58732V12.715H3.50795V15.4134H14.3016V2.46094H3.50795ZM8.9048 5.69905C7.71749 5.69905 6.74606 6.67048 6.74606 7.85779C6.74606 8.45846 7.00349 9.0003 7.40393 9.39265C7.03671 9.64068 6.73566 9.97467 6.52694 10.3656C6.31823 10.7565 6.20818 11.1925 6.20637 11.6356H7.28574C7.28574 11.2062 7.45632 10.7944 7.75995 10.4907C8.06358 10.1871 8.4754 10.0165 8.9048 10.0165C9.3342 10.0165 9.74601 10.1871 10.0496 10.4907C10.3533 10.7944 10.5239 11.2062 10.5239 11.6356H11.6032C11.6014 11.1925 11.4914 10.7565 11.2826 10.3656C11.0739 9.97467 10.7729 9.64068 10.4057 9.39265C10.8061 9.0003 11.0635 8.459 11.0635 7.85779C11.0635 6.67048 10.0921 5.69905 8.9048 5.69905ZM3.50795 6.77842V7.85779H2.96826V8.93716H4.58732V6.77842H3.50795ZM8.9048 6.77842C9.50762 6.77842 9.98417 7.25496 9.98417 7.85779C9.98417 8.46062 9.50762 8.93716 8.9048 8.93716C8.30197 8.93716 7.82543 8.46062 7.82543 7.85779C7.82543 7.25496 8.30197 6.77842 8.9048 6.77842ZM3.50795 9.47684V10.5562H2.96826V11.6356H4.58732V9.47684H3.50795Z" fill="white"/>
</svg>
