<svg width="18" height="19" viewBox="0 0 18 19" fill="none" xmlns="http://www.w3.org/2000/svg">
<g clip-path="url(#clip0_508_3069)">
<path d="M13.9419 5.79395C13.1503 5.79395 12.5027 6.44157 12.5027 7.23311V8.67226C12.5027 9.4638 13.1503 10.1114 13.9419 10.1114H15.381V11.5506H12.5027V12.9897H15.381C16.1726 12.9897 16.8202 12.3421 16.8202 11.5506V10.1114C16.8202 9.31989 16.1726 8.67226 15.381 8.67226H13.9419V7.23311H16.8202V5.79395H13.9419ZM6.74608 5.79395V12.9897H9.6244C10.4159 12.9897 11.0636 12.3421 11.0636 11.5506V7.23311C11.0636 6.44157 10.4159 5.79395 9.6244 5.79395H6.74608ZM8.18524 7.23311H9.6244V11.5506H8.18524V7.23311ZM2.4286 5.79395C1.63706 5.79395 0.989441 6.44157 0.989441 7.23311V12.9897H2.4286V10.1114H3.86776V12.9897H5.30692V7.23311C5.30692 6.44157 4.6593 5.79395 3.86776 5.79395H2.4286ZM2.4286 7.23311H3.86776V8.67226H2.4286V7.23311Z" fill="#FF9900"/>
</g>
<defs>
<clipPath id="clip0_508_3069">
<rect width="17.2699" height="17.2699" fill="white" transform="translate(0.269867 0.756836)"/>
</clipPath>
</defs>
</svg>
