<svg width="21" height="21" viewBox="0 0 21 21" fill="none" xmlns="http://www.w3.org/2000/svg">
<g id="tabler:ad">
<g id="Group">
<path id="Vector" d="M2.60136 6.16441C2.60136 5.70446 2.78407 5.26335 3.1093 4.93812C3.43453 4.61289 3.87564 4.43018 4.33559 4.43018H16.4752C16.9352 4.43018 17.3763 4.61289 17.7015 4.93812C18.0268 5.26335 18.2095 5.70446 18.2095 6.16441V14.8356C18.2095 15.2955 18.0268 15.7366 17.7015 16.0619C17.3763 16.3871 16.9352 16.5698 16.4752 16.5698H4.33559C3.87564 16.5698 3.43453 16.3871 3.1093 16.0619C2.78407 15.7366 2.60136 15.2955 2.60136 14.8356V6.16441Z" stroke="#FCB034" stroke-width="1.73423" stroke-linecap="round" stroke-linejoin="round"/>
<path id="Vector_2" d="M6.06982 13.1011V9.63267C6.06982 9.17272 6.25254 8.73162 6.57777 8.40638C6.903 8.08115 7.34411 7.89844 7.80406 7.89844C8.26401 7.89844 8.70511 8.08115 9.03035 8.40638C9.35558 8.73162 9.53829 9.17272 9.53829 9.63267V13.1011M6.06982 11.3669H9.53829M14.741 7.89844V13.1011H13.4403C13.1831 13.1011 12.9316 13.0249 12.7177 12.8819C12.5038 12.739 12.3371 12.5359 12.2387 12.2982C12.1402 12.0605 12.1144 11.799 12.1646 11.5467C12.2148 11.2944 12.3387 11.0627 12.5206 10.8807C12.7025 10.6988 12.9343 10.575 13.1866 10.5248C13.4389 10.4746 13.7004 10.5004 13.9381 10.5988C14.1757 10.6972 14.3789 10.864 14.5218 11.0778C14.6647 11.2917 14.741 11.5432 14.741 11.8005" stroke="#FCB034" stroke-width="1.73423" stroke-linecap="round" stroke-linejoin="round"/>
</g>
</g>
</svg>
