<svg width="18" height="19" viewBox="0 0 18 19" fill="none" xmlns="http://www.w3.org/2000/svg">
<g id="twemoji:flag-saudi-arabia">
<g clip-path="url(#clip0_395_5078)">
<path id="Vector" d="M15.7095 2.9494H2.07625C1.55971 2.9494 1.06432 3.1546 0.699075 3.51984C0.333826 3.88509 0.128632 4.38048 0.128632 4.89702L0.128632 13.6613C0.128632 14.1778 0.333826 14.6732 0.699075 15.0385C1.06432 15.4037 1.55971 15.6089 2.07625 15.6089H15.7095C16.2261 15.6089 16.7215 15.4037 17.0867 15.0385C17.452 14.6732 17.6572 14.1778 17.6572 13.6613V4.89702C17.6572 4.38048 17.452 3.88509 17.0867 3.51984C16.7215 3.1546 16.2261 2.9494 15.7095 2.9494Z" fill="#006C35"/>
<g id="Group">
<path id="Vector_2" d="M4.47132 7.35592C4.77904 7.38513 4.60911 6.83542 4.72062 6.7356C4.74155 6.68642 4.7805 6.68594 4.78343 6.74826V7.21471C4.7805 7.36663 4.88032 7.41094 4.95774 7.44259C5.03856 7.43626 5.09212 7.43918 5.12377 7.51757L5.16175 8.32486C5.16175 8.32486 5.34872 8.37841 5.35749 7.87057C5.36674 7.57259 5.29808 7.32329 5.3385 7.26535C5.33996 7.20839 5.41251 7.20498 5.46314 7.23273C5.54348 7.28921 5.57951 7.35933 5.70416 7.33157C5.89454 7.27947 6.00848 7.18696 6.0114 7.04089C6.0002 6.90212 5.98462 6.76336 5.92473 6.62459C5.93301 6.59927 5.88821 6.53402 5.89649 6.5087C5.93057 6.56226 5.98267 6.55788 5.99436 6.5087C5.96222 6.40207 5.91207 6.29982 5.83027 6.25551C5.76308 6.19611 5.66472 6.20828 5.62869 6.33196C5.61214 6.47413 5.6803 6.64358 5.78353 6.78137C5.80544 6.83542 5.8366 6.92501 5.82297 7.00583C5.76794 7.037 5.71244 7.02434 5.66667 6.97565C5.66667 6.97565 5.51524 6.8622 5.51524 6.83688C5.55566 6.57979 5.52449 6.55058 5.5021 6.47949C5.48651 6.38114 5.43977 6.34949 5.40179 6.28229C5.36382 6.24237 5.31269 6.24237 5.28835 6.28229C5.22115 6.39818 5.25231 6.64747 5.301 6.75897C5.33557 6.86122 5.38913 6.92598 5.36382 6.92598C5.34288 6.98392 5.30003 6.97029 5.26887 6.90358C5.22407 6.7653 5.21531 6.55934 5.21531 6.46634C5.20168 6.35143 5.18707 6.10555 5.1116 6.04322C5.06534 5.98041 4.99669 6.0106 4.97283 6.06854C4.96796 6.18248 4.96699 6.2969 4.98013 6.40256C5.03175 6.5871 5.0483 6.74972 5.07362 6.93913C5.08044 7.1928 4.92706 7.04917 4.93388 6.92355C4.96942 6.76043 4.96017 6.50335 4.92852 6.4381C4.90369 6.37335 4.87399 6.35679 4.81361 6.3675C4.7659 6.36361 4.64222 6.49897 4.60717 6.72294C4.60717 6.72294 4.57747 6.83834 4.56481 6.94107C4.54776 7.05696 4.47181 7.13876 4.41825 6.92501C4.37199 6.76968 4.34375 6.38649 4.26633 6.47608C4.24394 6.77553 4.21716 7.30236 4.47132 7.35592Z" fill="white"/>
<path id="Vector_3" d="M4.93437 7.57452C4.68118 7.57939 4.31065 7.90708 4.30042 8.08869C4.56725 7.96015 4.82969 7.83648 5.10138 7.70404C5.05756 7.63831 5.09894 7.57939 4.93437 7.57452Z" fill="white"/>
<path id="Vector_4" d="M6.33032 8.55664C6.44767 8.16566 6.31133 7.87741 6.37512 7.87887C6.50999 8.02446 6.69891 7.89835 6.7403 7.84771C6.75831 7.82239 6.80262 7.80584 6.83378 7.83895C6.93944 7.9149 7.12544 7.87887 7.1639 7.74546C7.18827 7.61147 7.20324 7.47594 7.2087 7.33987C7.12252 7.36665 7.05824 7.38466 7.0524 7.42021L7.03439 7.53609C7.02708 7.57358 6.95259 7.57504 6.94967 7.52733C6.91704 7.37882 6.78168 7.35935 6.69988 7.58965C6.64486 7.63445 6.54554 7.64321 6.53482 7.5765C6.54797 7.42216 6.48565 7.40122 6.361 7.47377C6.32107 7.16751 6.28066 6.87488 6.24073 6.56861C6.29283 6.56715 6.34055 6.60562 6.38778 6.54622C6.33568 6.38408 6.22564 6.05298 6.16478 6.02912C6.13508 5.99309 6.10976 6.01549 6.07129 6.02474C6.00605 6.04568 5.94518 6.10216 5.96417 6.21171C6.04159 6.68158 6.09223 7.03945 6.16916 7.50931C6.18084 7.56433 6.13508 7.63688 6.07567 7.62958C5.97488 7.56141 5.94957 7.42313 5.7772 7.42897C5.65207 7.43043 5.5094 7.56579 5.49188 7.69677C5.47094 7.80048 5.46364 7.91344 5.49188 8.00449C5.57952 8.10966 5.68518 8.09944 5.7772 8.07558C5.85267 8.04442 5.91548 7.96846 5.94177 7.98648C5.95979 8.00839 5.94616 8.25817 5.58536 8.45001C5.36674 8.54788 5.19292 8.57027 5.09943 8.39207C5.04149 8.28057 5.10381 7.85696 4.96115 7.95532C4.53901 9.04354 5.94957 9.19448 6.10732 8.00011C6.12242 7.95093 6.18182 7.90176 6.19204 7.9821C6.15942 9.06399 5.10089 9.13849 4.92123 8.79815C4.87643 8.71781 4.86328 8.5396 4.8589 8.43248C4.83212 8.2197 4.72062 8.3015 4.70309 8.51233C4.68508 8.62968 4.68995 8.66279 4.68995 8.77526C4.74594 9.62978 6.10927 9.26265 6.33032 8.55664ZM5.80447 7.81752C5.7957 7.83408 5.75724 7.82726 5.729 7.82726C5.69686 7.8258 5.68177 7.82044 5.66229 7.79464C5.65353 7.76542 5.68079 7.73767 5.69297 7.71576C5.70806 7.68995 5.78937 7.66317 5.8181 7.73523C5.82332 7.74893 5.8248 7.76376 5.82241 7.77822C5.82001 7.79268 5.81382 7.80624 5.80447 7.81752Z" fill="white"/>
<path id="Vector_5" d="M6.7515 6.84906C6.83622 6.8179 7.23791 6.35875 7.23791 6.35875C7.21698 6.34073 7.19847 6.32759 7.17754 6.30957C7.15514 6.29009 7.15757 6.27062 7.17754 6.25163C7.27687 6.19369 7.24522 6.0666 7.19312 6.00866C7.15937 5.99232 7.1223 5.98399 7.0848 5.98432C7.0473 5.98466 7.01038 5.99366 6.97693 6.01061C6.9073 6.07732 6.89075 6.18444 6.94577 6.25163C6.99933 6.27695 7.05289 6.33099 7.01735 6.36069C6.85326 6.53598 6.40336 6.83835 6.45546 6.84906C6.46666 6.86367 6.74273 6.86318 6.7515 6.84906ZM7.04899 6.12795C7.0748 6.12162 7.10791 6.14451 7.12349 6.17859C7.13907 6.21268 7.13079 6.2453 7.10547 6.25163H7.1045C7.07918 6.25796 7.04607 6.23507 7.03049 6.20099C7.0154 6.16642 7.02368 6.13428 7.04899 6.12795ZM4.44357 8.91791C4.37735 9.05278 4.3496 8.96027 4.34376 8.8848C4.33633 8.75806 4.3427 8.63088 4.36275 8.5055C4.3793 8.39839 4.36275 8.43101 4.32866 8.47434C4.17821 8.7139 4.16506 9.07226 4.24832 9.17889C4.29215 9.22953 4.36469 9.25193 4.41874 9.23537C4.5132 9.19447 4.55459 9.00263 4.53219 8.93301C4.50005 8.88383 4.47522 8.87604 4.44357 8.91791ZM9.40074 6.38212C9.57408 6.61486 9.73865 6.85198 9.89981 7.09348C9.93163 7.3022 9.95435 7.50784 9.96798 7.71039C9.99476 8.10186 10.0026 8.52547 9.97821 8.93788C10.0512 8.9408 10.1696 8.81907 10.2105 8.64135C10.2372 8.39546 10.2007 7.95774 10.1983 7.81264C10.1951 7.7217 10.1907 7.6308 10.1851 7.53998C10.377 7.85354 10.564 8.18171 10.7465 8.54641C10.8132 8.51524 10.7986 8.14227 10.7597 8.08969C10.6136 7.77661 10.4125 7.46694 10.3483 7.34814C10.3244 7.30431 10.2431 7.17967 10.1462 7.037C10.1375 6.92317 10.1239 6.80978 10.1053 6.69714C10.0751 6.48875 10.1915 6.72003 10.1754 6.59879C10.1379 6.3904 10.022 6.24968 9.88667 6.05881C9.84285 5.99698 9.84431 5.98432 9.77663 6.07391C9.75317 6.12773 9.74219 6.18615 9.74449 6.24481C9.7231 6.21393 9.70052 6.18388 9.67681 6.15473L9.45527 5.96582C9.40609 5.93076 9.28632 5.86746 9.26489 5.97263C9.25545 6.04637 9.25908 6.1212 9.2756 6.19369C9.28826 6.24579 9.36373 6.33245 9.40074 6.38212ZM9.76105 6.37043C9.7703 6.41085 9.78004 6.45126 9.78637 6.49265L9.79367 6.53208C9.77317 6.5036 9.7519 6.47567 9.72989 6.44834C9.65003 6.35388 9.71625 6.37433 9.76105 6.37043Z" fill="white"/>
<path id="Vector_6" d="M10.8011 8.6428C10.6316 8.81955 10.3872 9.0372 10.1214 9.13798C10.0926 9.17012 10.1924 9.30791 10.321 9.30791C10.5367 9.2826 10.7266 9.16136 10.9024 8.84244C10.9496 8.76843 11.0324 8.60921 11.0343 8.48553C11.0504 7.762 10.9983 7.19865 10.8897 6.67571C10.8824 6.63375 10.8844 6.59071 10.8955 6.54961C10.9092 6.53305 10.9569 6.54961 10.9822 6.50871C11.0187 6.47073 10.8843 6.15911 10.8074 6.03933C10.7801 5.98577 10.7709 5.94974 10.7256 6.04566C10.6779 6.12357 10.6462 6.25941 10.6501 6.38601C10.7529 7.09835 10.7845 7.72207 10.8517 8.43441C10.8571 8.50306 10.8468 8.60337 10.8011 8.6428ZM13.6397 6.83639C13.6324 6.78575 13.61 6.66792 13.6188 6.65283C13.6324 6.6168 13.703 6.65672 13.7283 6.61534C13.7653 6.57785 13.5462 6.29642 13.4698 6.17664C13.442 6.12308 13.4328 6.08705 13.3875 6.18297C13.3398 6.26087 13.3232 6.40061 13.3422 6.52331C13.4566 7.297 13.5419 7.87837 13.5594 8.56441C13.5492 8.62966 13.5472 8.66472 13.5165 8.74651C13.4489 8.83318 13.3744 8.94128 13.3038 8.99386C13.2336 9.04596 13.0842 9.09611 13.035 9.13458C12.8806 9.22465 12.8802 9.32739 13.0058 9.3308C13.221 9.30548 13.4761 9.28795 13.6519 9.0221C13.6991 8.94809 13.7551 8.747 13.7576 8.62333C13.7736 7.89979 13.7483 7.35933 13.6397 6.83639ZM12.0081 7.43869C12.0101 7.33936 12.0193 7.2079 12.0247 7.12561C12.0271 7.09494 12.0344 7.06037 12.0636 7.05258C12.0933 7.04479 12.1459 7.08277 12.1464 7.05063C12.1405 6.98782 12.1279 6.89433 12.0923 6.85003C12.0437 6.77796 11.9146 6.79549 11.8917 6.90845C11.8922 6.95033 11.9112 6.97272 11.9078 7.0107C11.902 7.03213 11.8796 7.04673 11.8265 7.02142C11.8353 7.01362 11.7919 6.95374 11.7919 6.95374C11.7505 6.92842 11.695 6.9552 11.6595 6.97808C11.6468 7.00268 11.6392 7.0296 11.6372 7.05722C11.6351 7.08484 11.6388 7.11258 11.6478 7.13876C11.7062 7.24929 11.9102 7.43674 12.0081 7.43869Z" fill="white"/>
<path id="Vector_7" d="M11.9395 6.592L12.3743 7.12419C12.4059 7.52637 12.4142 7.85552 12.4453 8.2577C12.441 8.42811 12.3884 8.57662 12.3382 8.59804C12.3382 8.59804 12.2628 8.64186 12.2121 8.59366C12.1751 8.57857 12.0276 8.34777 12.0276 8.34777C11.9521 8.27863 11.9024 8.29811 11.8489 8.34777C11.7009 8.49044 11.6342 8.75823 11.5339 8.94228C11.5076 8.98367 11.4345 9.01873 11.3532 8.93936C11.1473 8.65745 11.268 8.25672 11.2427 8.35995C11.0591 8.56688 11.14 8.90917 11.1813 8.98318C11.2417 9.10394 11.2909 9.18184 11.4087 9.24173C11.5158 9.32061 11.5996 9.27094 11.6454 9.21592C11.7535 9.10345 11.7549 8.81861 11.8056 8.76116C11.8406 8.65745 11.9307 8.67497 11.974 8.72123C12.014 8.77693 12.0666 8.82246 12.1274 8.85416C12.2282 8.94326 12.3485 8.95933 12.4668 8.87801C12.5476 8.83273 12.6007 8.77382 12.6479 8.65745C12.7005 8.51722 12.6718 7.87256 12.661 7.48596C12.7365 7.58334 12.81 7.6851 12.8845 7.78686C12.9172 8.10968 12.9357 8.43104 12.9249 8.75921C12.9172 8.82494 13.1538 8.56445 13.1518 8.44077V8.16519C13.2658 8.33658 13.3768 8.51332 13.481 8.70029C13.5462 8.66621 13.5248 8.2986 13.4834 8.24796C13.3632 8.04638 13.203 7.83653 13.0924 7.68656C13.0851 7.66757 13.0812 7.64615 13.0725 7.62813C13.0282 7.5254 13.0559 7.44262 13.035 7.33355C13.0145 7.224 13.0199 7.0604 12.9882 6.9304C12.9795 6.87976 12.9532 6.71713 12.961 6.70204C12.9736 6.66552 13.0223 6.70301 13.0462 6.66114C13.0817 6.62219 12.923 6.21076 12.8422 6.09292C12.813 6.04034 12.7604 6.05835 12.6951 6.14405C12.6352 6.20053 12.6576 6.32907 12.6805 6.45129C12.7375 6.74732 12.7852 7.03119 12.8261 7.31213C12.7385 7.19573 12.6501 7.08 12.5607 6.96497L12.5568 6.94355C12.5568 6.93819 12.5437 6.68841 12.532 6.62901C12.5301 6.60515 12.5242 6.59784 12.5495 6.60076C12.5763 6.62316 12.5797 6.62462 12.5968 6.63241C12.624 6.63728 12.6479 6.59103 12.6318 6.54867L12.3801 6.08513C12.3601 6.06517 12.3338 6.04375 12.3022 6.09049C12.2824 6.10757 12.2666 6.12874 12.2559 6.15253C12.2451 6.17632 12.2397 6.20217 12.2399 6.22828C12.2477 6.33784 12.2667 6.44982 12.274 6.55987L12.2847 6.61927C12.2735 6.60612 12.2598 6.58957 12.254 6.58372C12.0402 6.35877 12.3523 6.54721 12.2131 6.37338C12.0953 6.24386 12.0612 6.20345 11.9599 6.12555C11.9093 6.09292 11.8786 6.0306 11.862 6.13675C11.8542 6.22985 11.8518 6.32333 11.8547 6.41672C11.8547 6.46151 11.9 6.54331 11.9395 6.592ZM7.60552 7.11737C7.72822 7.16801 7.80662 6.93429 7.85725 6.67818C7.89134 6.60612 7.91763 6.59833 7.93516 6.63534C7.93078 6.97617 7.9595 7.05164 8.04715 7.15535C8.24239 7.30629 8.40405 7.17434 8.41719 7.16168L8.56911 7.00976C8.6027 6.97422 8.64798 6.97179 8.6957 7.00343C8.74244 7.04531 8.73611 7.11834 8.83544 7.16898C8.91919 7.20258 9.09837 7.17677 9.13976 7.10471C9.19575 7.00928 9.20938 6.97617 9.2347 6.94014C9.27463 6.88706 9.3428 6.91092 9.3428 6.92748C9.33647 6.95718 9.29654 6.98688 9.32381 7.03995C9.37152 7.0755 9.38224 7.05261 9.41048 7.04482C9.5098 6.9971 9.58381 6.78189 9.58381 6.78189C9.5882 6.70155 9.5434 6.70837 9.51419 6.72493C9.47621 6.74781 9.47377 6.7556 9.43579 6.77897C9.3871 6.78628 9.29313 6.81841 9.24688 6.74635C9.19916 6.65968 9.19819 6.53893 9.16215 6.45177C9.16215 6.44544 9.09886 6.31398 9.15777 6.3057C9.18747 6.31106 9.25028 6.32761 9.26051 6.27503C9.29118 6.22341 9.1938 6.07637 9.12759 6.00187C9.06964 5.93858 8.9893 5.93079 8.91189 5.99554C8.85735 6.04569 8.86514 6.1012 8.85443 6.15427C8.84527 6.19171 8.84513 6.23078 8.85402 6.26828C8.86291 6.30578 8.88057 6.34063 8.90556 6.36997C8.9596 6.4766 9.05845 6.6144 9.02582 6.80721C9.02582 6.80721 8.96837 6.89875 8.86758 6.88706C8.8257 6.87781 8.75754 6.8598 8.72151 6.592C8.69424 6.38896 8.72832 6.1051 8.64214 5.97217C8.61098 5.89183 8.58858 5.81442 8.51263 5.95172C8.49218 6.00577 8.40453 6.08757 8.46832 6.25652C8.52042 6.36316 8.54135 6.53698 8.51798 6.73077C8.48195 6.78579 8.47416 6.80429 8.42693 6.85931C8.36071 6.9304 8.28914 6.91238 8.23412 6.8856C8.1825 6.85103 8.14258 6.83302 8.11921 6.72298C8.12359 6.54769 8.13333 6.26042 8.10119 6.19956C8.05396 6.1051 7.97606 6.13918 7.94246 6.16791C7.78227 6.31447 7.70339 6.56133 7.65519 6.75755C7.61088 6.9007 7.56365 6.8598 7.53054 6.80186C7.44972 6.7259 7.44436 6.13334 7.34649 6.23121C7.18922 6.67623 7.43511 7.16509 7.60552 7.11737Z" fill="white"/>
<path id="Vector_8" d="M9.93342 8.07363L9.88667 8.04685L8.97081 8.04247C8.92358 8.02445 8.9377 8.00887 8.97081 7.99621C9.18943 7.96651 9.57846 7.90321 9.60427 7.52976C9.59989 7.33548 9.52052 7.20792 9.28194 7.17286C9.10714 7.18649 8.98201 7.35642 9.00197 7.54291C8.99369 7.59354 9.01852 7.6919 8.9674 7.7031C8.63095 7.73377 8.26431 7.94411 8.25214 8.09505C8.23169 8.10917 8.18592 8.06827 8.19176 8.004C8.17545 7.7291 8.09633 7.46159 7.96048 7.22204C7.85434 7.11589 7.88745 7.15095 7.81636 7.2011C7.77059 7.25369 7.76231 7.28972 7.76475 7.3944C7.76475 7.3983 7.85044 7.63736 7.92299 7.80486C7.97119 7.97674 8.01648 8.17296 7.98385 8.35847C7.87089 8.60387 7.64351 8.82395 7.4244 8.94324C7.31144 8.97976 7.21455 8.96661 7.19069 8.94129C7.12106 8.89455 7.12447 8.80837 7.12983 8.80691C7.31436 8.67788 7.52568 8.57417 7.69122 8.22701C7.73992 8.09457 7.75452 8.01423 7.70632 7.80924C7.69327 7.73689 7.66002 7.6697 7.6104 7.61545C7.6401 7.59598 7.72531 7.66074 7.73845 7.62227C7.71384 7.51004 7.65797 7.40707 7.57729 7.32526C7.51156 7.26537 7.43998 7.25855 7.37961 7.31357C7.31144 7.35155 7.29683 7.48691 7.32946 7.60572C7.36549 7.69531 7.46335 7.7104 7.53347 7.89007C7.53347 7.89396 7.55879 8.02445 7.52276 8.07558C7.49403 8.16517 7.12155 8.4578 7.1011 8.47094C7.09087 8.4836 7.09526 8.46461 7.09379 8.41592C7.09136 8.35652 7.11765 8.21629 7.11035 8.21532C6.98911 8.29371 6.9487 8.53375 6.92679 8.60484C6.62004 8.81665 6.27287 8.9744 6.07227 9.18961C5.96759 9.35273 6.79191 9.00216 6.88783 8.9598C6.90926 8.97538 6.90682 9.0489 6.96428 9.11463C7.04997 9.23051 7.2311 9.30209 7.40882 9.25778C7.70583 9.15017 7.87771 8.94762 8.05202 8.72316C8.07685 8.68664 8.11581 8.65889 8.15184 8.68664C8.27161 8.95493 8.6178 9.14482 9.06429 9.16478C9.168 9.03867 9.11785 8.97781 9.07598 8.95152C9.07598 8.94762 8.85541 8.86388 8.82182 8.78013C8.80137 8.70417 8.85103 8.63746 8.95036 8.58683C9.23714 8.55226 9.51906 8.51379 9.79221 8.42615C9.79514 8.33461 9.84821 8.1973 9.88473 8.1379C9.91978 8.07753 9.93877 8.09554 9.93342 8.07363ZM9.18018 7.50298C9.19381 7.4801 9.23909 7.48107 9.28145 7.5059C9.32381 7.53073 9.34767 7.5692 9.33355 7.59208C9.31992 7.61545 9.27415 7.61399 9.23179 7.58916C9.18943 7.56433 9.16654 7.52635 9.18018 7.50298ZM8.81159 8.4281C8.71324 8.46169 8.61878 8.48799 8.61878 8.63016C8.65529 8.82784 8.56863 8.76016 8.5175 8.7329C8.45712 8.68956 8.28719 8.58488 8.26285 8.35896C8.25895 8.30491 8.30132 8.25963 8.36899 8.25963C8.47076 8.28738 8.62121 8.28933 8.7517 8.30296C8.85833 8.30978 8.91141 8.39353 8.81159 8.4281ZM5.41933 6.2346C5.5245 6.28523 5.72316 6.26381 5.7144 6.09339C5.7144 6.0783 5.7105 6.02766 5.70904 6.01403C5.68762 5.96388 5.62919 5.97605 5.61556 6.02815C5.61117 6.04519 5.62286 6.07246 5.60776 6.08122C5.599 6.08999 5.5654 6.08463 5.56686 6.03789C5.56686 6.02279 5.55567 6.00672 5.54934 5.99747C5.54252 5.99309 5.53862 5.99163 5.52645 5.99163C5.51184 5.99212 5.51184 5.99601 5.50405 6.00867C5.50065 6.02085 5.49578 6.0335 5.49578 6.04762C5.49383 6.06418 5.4875 6.07002 5.47533 6.07294C5.46169 6.07294 5.46462 6.0744 5.4539 6.0671C5.44709 6.0598 5.43881 6.05688 5.43881 6.0447C5.43859 6.03049 5.43629 6.01638 5.43199 6.00283C5.42583 5.99569 5.41722 5.99098 5.40619 5.98871C5.34873 5.98871 5.34484 6.05444 5.34825 6.07976C5.34289 6.08414 5.34094 6.20197 5.41933 6.2346Z" fill="white"/>
<path id="Vector_9" d="M8.65529 7.34468C8.65529 7.32959 8.64409 7.31401 8.63776 7.30427C8.63094 7.29989 8.62705 7.29843 8.61488 7.29843C8.60027 7.29891 8.60076 7.30281 8.59248 7.31547C8.58907 7.32813 8.5842 7.3403 8.5842 7.35442C8.58274 7.37146 8.57592 7.3773 8.56375 7.37974C8.55012 7.37974 8.55304 7.3812 8.54184 7.37438C8.53502 7.36708 8.52675 7.36416 8.52675 7.35198C8.52652 7.33777 8.52423 7.32366 8.51993 7.31011C8.51376 7.30297 8.50516 7.29843 8.49412 7.29648C8.43667 7.29648 8.43278 7.36221 8.4357 7.38704C8.43131 7.39191 8.42888 7.50925 8.50727 7.54236C8.61293 7.59251 8.86368 7.5633 8.80233 7.40116C8.80128 7.3745 8.79949 7.34787 8.79698 7.32131C8.77555 7.27116 8.71664 7.28382 8.70349 7.33543C8.6996 7.35247 8.71128 7.37974 8.6957 7.3885C8.68791 7.39727 8.65383 7.39191 8.65529 7.34468ZM10.3093 7.00044C10.4145 7.05108 10.6126 7.02965 10.6039 6.85972C10.6028 6.83306 10.601 6.80644 10.5985 6.77987C10.5771 6.72972 10.5187 6.74238 10.5055 6.79399C10.5011 6.81103 10.5128 6.8383 10.4972 6.84707C10.4885 6.85583 10.4549 6.85096 10.4563 6.80373C10.4563 6.78864 10.4451 6.77257 10.4388 6.76332C10.432 6.75894 10.4281 6.75748 10.4154 6.75748C10.4008 6.75845 10.4013 6.76186 10.393 6.77452C10.3896 6.78718 10.3848 6.79935 10.3848 6.81347C10.3828 6.83051 10.3765 6.83635 10.3643 6.83879C10.3507 6.83879 10.3536 6.84025 10.3424 6.83343C10.3356 6.82613 10.3278 6.82321 10.3278 6.81103C10.3276 6.79666 10.3253 6.78238 10.321 6.76867C10.3145 6.76153 10.3057 6.75699 10.2947 6.75504C10.2372 6.75504 10.2333 6.82077 10.2368 6.8456C10.2333 6.85047 10.2309 6.96782 10.3093 7.00044ZM10.3804 6.34215C10.4179 6.44732 10.3517 6.54762 10.3911 6.56223C10.4266 6.57878 10.4773 6.45365 10.4958 6.33825C10.5177 6.24477 10.451 6.05341 10.3565 6.01397C10.2991 6.00034 10.2173 6.03442 10.2436 6.11135C10.2304 6.14836 10.3595 6.27398 10.3804 6.34215ZM11.3518 8.80783C11.4253 8.80831 11.51 8.63984 11.546 8.47284C11.566 8.24302 11.5324 8.10328 11.5266 7.96792C11.5207 7.83256 11.3742 6.80324 11.344 6.70099C11.3084 6.50769 11.4866 6.67519 11.4672 6.56271C11.4053 6.42102 11.2519 6.21506 11.2033 6.09188C11.174 6.03929 11.1867 5.99255 11.1215 6.07824C11.0616 6.27544 11.0406 6.43612 11.0635 6.55882C11.2183 7.36708 11.3771 8.03901 11.3518 8.80783ZM13.1806 6.69466C13.1976 6.74725 13.1548 6.91718 13.1903 6.93276C13.2229 6.95029 13.2687 6.81542 13.2857 6.69028C13.295 6.62163 13.2448 6.38207 13.1587 6.33922C13.1061 6.32462 13.0316 6.36114 13.0559 6.44488C13.0438 6.4853 13.1616 6.62066 13.1806 6.69466ZM6.79288 8.47478C6.82453 8.48793 6.86787 8.3886 6.88442 8.29658C6.89367 8.24594 6.84498 8.07017 6.7627 8.03852C6.71206 8.02781 6.64292 8.04144 6.66434 8.11642C6.66191 8.15684 6.77633 8.20553 6.78315 8.2995C6.7997 8.33845 6.7588 8.46359 6.79288 8.47478ZM4.57455 6.22772C4.59062 6.26814 4.55848 6.39717 4.59208 6.40934C4.62275 6.42297 4.66609 6.31975 4.68216 6.2248C4.69141 6.17222 4.6841 5.99401 4.56238 5.95749C4.51223 5.94629 4.4426 5.97405 4.46548 6.03783C4.4538 6.06802 4.55654 6.17124 4.57455 6.22772ZM6.96135 6.79886C6.86835 6.8495 6.83184 6.99947 6.89026 7.08662C6.94431 7.16404 7.03001 7.13531 7.04169 7.13531C7.13323 7.14651 7.18728 6.96392 7.18728 6.96392C7.18728 6.96392 7.1902 6.9128 7.08162 7.00969C7.03585 7.01846 7.03001 7.00141 7.01881 6.97512C7.00787 6.92746 7.01283 6.87752 7.03293 6.83295C7.04851 6.78766 7.01345 6.7677 6.96135 6.79886ZM7.66347 6.23746C7.67841 6.22812 7.69125 6.21576 7.70114 6.20117C7.71103 6.18658 7.71777 6.17008 7.72092 6.15274C7.73504 6.08165 7.64545 6.18634 7.63425 6.10697C7.61429 6.03345 7.67174 6.00326 7.72628 5.93217C7.72823 5.883 7.72725 5.84843 7.66055 5.88835C7.6138 5.92 7.52032 6.01641 7.5174 6.12742C7.51447 6.19023 7.50279 6.18975 7.54418 6.22967C7.57388 6.27301 7.60358 6.26862 7.66347 6.23746ZM8.29595 6.27544C8.35633 6.11184 8.35633 6.0427 8.36071 5.97307C8.34221 5.86742 8.27064 5.87082 8.22341 5.98817C8.20296 6.03248 8.1791 6.2657 8.18299 6.2657C8.16693 6.33533 8.25554 6.36503 8.29595 6.27544ZM12.274 7.43573C12.274 7.43573 11.7856 7.78289 11.7739 7.79507C11.7252 7.83791 11.7496 7.98983 11.7739 7.9723C11.8085 7.98593 12.2998 7.6524 12.29 7.61345C12.3129 7.61443 12.3241 7.4182 12.274 7.43573ZM12.2141 8.3774C12.2467 8.39493 12.3329 8.2883 12.3295 8.15538C12.3392 8.08672 12.3046 7.83499 12.2189 7.79215C12.1664 7.77754 12.0962 7.82233 12.1206 7.90559C12.1084 7.94552 12.181 8.08526 12.1999 8.15927C12.217 8.21234 12.1785 8.36182 12.2141 8.3774ZM9.44846 9.10581C9.44846 9.11019 9.48984 9.14574 9.53853 9.1175C9.64078 9.07806 9.70505 9.04008 9.8482 9.00843C9.88569 9.00794 9.88326 8.90715 9.82386 8.90375C9.74644 8.90764 9.67438 8.91154 9.59696 8.97289C9.54924 8.9836 9.54145 8.95487 9.53074 8.92858C9.51906 8.86382 9.55752 8.81902 9.54924 8.77082C9.55217 8.77374 9.50494 8.73041 9.45673 8.75475C9.4543 8.75475 9.34913 8.82584 9.31553 8.87551C9.29459 8.89157 9.29703 8.90521 9.30336 8.93199C9.31943 8.96899 9.34815 8.95779 9.38029 8.94026C9.42314 8.93442 9.44359 8.96266 9.44018 9.01379C9.41973 9.07854 9.44846 9.1024 9.44846 9.10581ZM12.6382 9.18664C12.6221 9.21439 12.6114 9.25626 12.661 9.26941C12.7526 9.29522 12.9634 9.15791 12.9634 9.15548C12.9975 9.12967 12.9863 9.08147 12.9834 9.08147C12.9634 9.05858 12.9186 9.07173 12.8884 9.06832C12.8743 9.06832 12.8266 9.06102 12.8495 9.01914C12.8656 8.99656 12.8783 8.97181 12.8875 8.94562C12.9016 8.91397 12.8894 8.89303 12.8378 8.87599C12.7857 8.86626 12.7648 8.87112 12.7068 8.87599C12.6757 8.88281 12.6649 8.89644 12.6591 8.93442C12.6615 8.99188 12.6961 8.98895 12.7321 9.01184C12.7531 9.03862 12.7667 9.06296 12.7307 9.1063C12.6966 9.13795 12.6727 9.15548 12.6382 9.18664ZM12.5447 11.7137H11.8143V11.4702C11.8143 11.4056 11.7887 11.3437 11.743 11.2981C11.6974 11.2524 11.6354 11.2268 11.5709 11.2268C11.5063 11.2268 11.4444 11.2524 11.3987 11.2981C11.3531 11.3437 11.3274 11.4056 11.3274 11.4702V11.7137H5.48457C5.48457 11.7137 5.48457 12.2006 6.94528 12.2006H11.3274V12.444C11.3274 12.5086 11.3531 12.5705 11.3987 12.6162C11.4444 12.6618 11.5063 12.6875 11.5709 12.6875C11.6354 12.6875 11.6974 12.6618 11.743 12.6162C11.7887 12.5705 11.8143 12.5086 11.8143 12.444V12.2006H12.3012V12.444C12.3012 12.5086 12.3269 12.5705 12.3725 12.6162C12.4182 12.6618 12.4801 12.6875 12.5447 12.6875C12.6092 12.6875 12.6712 12.6618 12.7168 12.6162C12.7625 12.5705 12.7881 12.5086 12.7881 12.444V11.9571C12.7881 11.8926 12.7625 11.8306 12.7168 11.785C12.6712 11.7393 12.6092 11.7137 12.5447 11.7137Z" fill="white"/>
</g>
</g>
</g>
<defs>
<clipPath id="clip0_395_5078">
<rect x="0.128632" y="0.514893" width="17.5285" height="17.5285" rx="1.85909" fill="white"/>
</clipPath>
</defs>
</svg>
