<svg width="17" height="17" viewBox="0 0 17 17" fill="none" xmlns="http://www.w3.org/2000/svg">
<g clip-path="url(#clip0_508_3015)">
<path d="M14.2808 3.8345V3.31557C14.2796 2.90306 14.1152 2.50778 13.8235 2.21608C13.5318 1.92439 13.1365 1.75999 12.724 1.75879H2.34545C1.93294 1.75999 1.53766 1.92439 1.24596 2.21608C0.95427 2.50778 0.789868 2.90306 0.78867 3.31557V11.6184C0.789868 12.0309 0.95427 12.4262 1.24596 12.7179C1.53766 13.0096 1.93294 13.174 2.34545 13.1752H2.86438" stroke="white" stroke-width="1.03786" stroke-linejoin="round"/>
<path d="M14.8651 4.35352H4.87506C4.05128 4.35352 3.38347 5.02132 3.38347 5.84511V13.7594C3.38347 14.5832 4.05128 15.251 4.87506 15.251H14.8651C15.6889 15.251 16.3567 14.5832 16.3567 13.7594V5.84511C16.3567 5.02132 15.6889 4.35352 14.8651 4.35352Z" stroke="white" stroke-width="1.03786" stroke-linejoin="round"/>
<path d="M12.3647 8.31662C12.9159 8.31662 13.3627 7.87301 13.3627 7.32579C13.3627 6.77857 12.9159 6.33496 12.3647 6.33496C11.8135 6.33496 11.3667 6.77857 11.3667 7.32579C11.3667 7.87301 11.8135 8.31662 12.3647 8.31662Z" stroke="white" stroke-width="1.03786" stroke-miterlimit="10"/>
<path d="M11.3668 12.2731L8.54031 9.47119C8.35962 9.29267 8.11794 9.18934 7.86403 9.18205C7.61013 9.17477 7.36292 9.26408 7.17229 9.43195L3.38347 12.7748M8.8721 15.2514L12.7183 11.4331C12.8953 11.2585 13.1307 11.1557 13.379 11.1445C13.6273 11.1333 13.871 11.2145 14.063 11.3724L16.3567 13.2701" stroke="white" stroke-width="1.03786" stroke-linecap="round" stroke-linejoin="round"/>
</g>
<defs>
<clipPath id="clip0_508_3015">
<rect width="16.6057" height="16.6057" fill="white" transform="translate(0.269806 0.202148)"/>
</clipPath>
</defs>
</svg>
