<svg width="17" height="17" viewBox="0 0 17 17" fill="none" xmlns="http://www.w3.org/2000/svg">
<g clip-path="url(#clip0_508_3073)">
<path d="M2.48402 14.1496V14.7031H3.59107V14.1496H2.48402ZM8.01925 14.1496V14.7031H9.1263V14.1496H8.01925ZM3.59107 14.1496V13.5961H2.48402V14.1496H3.59107ZM8.01925 13.5961V14.1496H9.1263V13.5961H8.01925ZM5.80516 11.382C6.39237 11.382 6.95554 11.6153 7.37076 12.0305C7.78598 12.4457 8.01925 13.0089 8.01925 13.5961H9.1263C9.1263 12.7153 8.77639 11.8705 8.15356 11.2477C7.53072 10.6248 6.68598 10.2749 5.80516 10.2749V11.382ZM3.59107 13.5961C3.59107 13.0089 3.82434 12.4457 4.23956 12.0305C4.65478 11.6153 5.21794 11.382 5.80516 11.382V10.2749C4.92434 10.2749 4.07959 10.6248 3.45676 11.2477C2.83393 11.8705 2.48402 12.7153 2.48402 13.5961H3.59107ZM5.80516 4.73971C5.21794 4.73971 4.65478 4.97298 4.23956 5.3882C3.82434 5.80342 3.59107 6.36659 3.59107 6.9538H4.69811C4.69811 6.66019 4.81475 6.37861 5.02236 6.171C5.22997 5.96339 5.51155 5.84675 5.80516 5.84675V4.73971ZM8.01925 6.9538C8.01925 6.36659 7.78598 5.80342 7.37076 5.3882C6.95554 4.97298 6.39237 4.73971 5.80516 4.73971V5.84675C6.09877 5.84675 6.38035 5.96339 6.58796 6.171C6.79557 6.37861 6.9122 6.66019 6.9122 6.9538H8.01925ZM5.80516 9.16789C6.39237 9.16789 6.95554 8.93462 7.37076 8.5194C7.78598 8.10418 8.01925 7.54101 8.01925 6.9538H6.9122C6.9122 7.24741 6.79557 7.52899 6.58796 7.7366C6.38035 7.94421 6.09877 8.06085 5.80516 8.06085V9.16789ZM5.80516 8.06085C5.51155 8.06085 5.22997 7.94421 5.02236 7.7366C4.81475 7.52899 4.69811 7.24741 4.69811 6.9538H3.59107C3.59107 7.54101 3.82434 8.10418 4.23956 8.5194C4.65478 8.93462 5.21794 9.16789 5.80516 9.16789V8.06085ZM1.9305 3.63266H15.2151V2.52562H1.9305V3.63266ZM15.7686 4.18618V13.0426H16.8756V4.18618H15.7686ZM15.2151 13.5961H1.9305V14.7031H15.2151V13.5961ZM1.37697 13.0426V4.18618H0.269928V13.0426H1.37697ZM1.9305 13.5961C1.78369 13.5961 1.6429 13.5378 1.5391 13.434C1.43529 13.3301 1.37697 13.1894 1.37697 13.0426H0.269928C0.269928 13.483 0.44488 13.9053 0.756297 14.2168C1.06771 14.5282 1.49009 14.7031 1.9305 14.7031V13.5961ZM15.7686 13.0426C15.7686 13.1894 15.7103 13.3301 15.6065 13.434C15.5026 13.5378 15.3619 13.5961 15.2151 13.5961V14.7031C15.6555 14.7031 16.0778 14.5282 16.3892 14.2168C16.7007 13.9053 16.8756 13.483 16.8756 13.0426H15.7686ZM15.2151 3.63266C15.3619 3.63266 15.5026 3.69098 15.6065 3.79479C15.7103 3.89859 15.7686 4.03938 15.7686 4.18618H16.8756C16.8756 3.74577 16.7007 3.3234 16.3892 3.01199C16.0778 2.70057 15.6555 2.52562 15.2151 2.52562V3.63266ZM1.9305 2.52562C1.49009 2.52562 1.06771 2.70057 0.756297 3.01199C0.44488 3.3234 0.269928 3.74577 0.269928 4.18618H1.37697C1.37697 4.03938 1.43529 3.89859 1.5391 3.79479C1.6429 3.69098 1.78369 3.63266 1.9305 3.63266V2.52562ZM10.2333 6.9538H13.5545V5.84675H10.2333V6.9538ZM10.2333 10.2749H13.5545V9.16789H10.2333V10.2749ZM0.269928 16.9172H16.8756V15.8102H0.269928V16.9172ZM3.59107 0.311523V3.07914H4.69811V0.311523H3.59107ZM12.4474 0.311523V3.07914H13.5545V0.311523H12.4474Z" fill="#FF9900"/>
</g>
<defs>
<clipPath id="clip0_508_3073">
<rect width="16.6057" height="16.6057" fill="white" transform="translate(0.269958 0.311523)"/>
</clipPath>
</defs>
</svg>
