<svg width="20" height="21" viewBox="0 0 20 21" fill="none" xmlns="http://www.w3.org/2000/svg">
<g id="material-symbols:crown-outline">
<path id="Vector" d="M4.16666 17.1665V15.4998H15.8333V17.1665H4.16666ZM4.16666 14.2498L3.10416 7.56234C3.07638 7.56234 3.04499 7.56595 3.00999 7.57317C2.97499 7.58039 2.94388 7.58373 2.91666 7.58317C2.56944 7.58317 2.27444 7.46151 2.03166 7.21817C1.78888 6.97484 1.66721 6.67984 1.66666 6.33317C1.6661 5.98651 1.78777 5.69151 2.03166 5.44817C2.27555 5.20484 2.57055 5.08317 2.91666 5.08317C3.26277 5.08317 3.55805 5.20484 3.80249 5.44817C4.04694 5.69151 4.16833 5.98651 4.16666 6.33317C4.16666 6.4304 4.1561 6.52067 4.13499 6.60401C4.11388 6.68734 4.08971 6.76373 4.06249 6.83317L6.66666 7.99984L9.27082 4.43734C9.11805 4.32623 8.99305 4.18039 8.89582 3.99984C8.7986 3.81928 8.74999 3.62484 8.74999 3.41651C8.74999 3.06928 8.87166 2.77401 9.11499 2.53067C9.35832 2.28734 9.65332 2.16595 9.99999 2.16651C10.3467 2.16706 10.6419 2.28873 10.8858 2.53151C11.1297 2.77428 11.2511 3.06928 11.25 3.41651C11.25 3.62484 11.2014 3.81928 11.1042 3.99984C11.0069 4.18039 10.8819 4.32623 10.7292 4.43734L13.3333 7.99984L15.9375 6.83317C15.9097 6.76373 15.8853 6.68734 15.8642 6.60401C15.843 6.52067 15.8328 6.4304 15.8333 6.33317C15.8333 5.98595 15.955 5.69067 16.1983 5.44734C16.4417 5.20401 16.7367 5.08262 17.0833 5.08317C17.43 5.08373 17.7253 5.20539 17.9692 5.44817C18.213 5.69095 18.3344 5.98595 18.3333 6.33317C18.3322 6.6804 18.2108 6.97567 17.9692 7.21901C17.7275 7.46234 17.4322 7.58373 17.0833 7.58317C17.0555 7.58317 17.0244 7.57984 16.99 7.57317C16.9555 7.56651 16.9242 7.5629 16.8958 7.56234L15.8333 14.2498H4.16666ZM5.58332 12.5832H14.4167L14.9583 9.10401L12.7708 10.0623L9.99999 6.24984L7.22916 10.0623L5.04166 9.10401L5.58332 12.5832Z" fill="white"/>
</g>
</svg>
