<svg width="22" height="22" viewBox="0 0 22 22" fill="none" xmlns="http://www.w3.org/2000/svg">
<g clip-path="url(#clip0_657_445)">
<path d="M6.10797 0C6.30785 0 6.49955 0.0794044 6.64089 0.220745C6.78223 0.362086 6.86164 0.553785 6.86164 0.753671V2.16304H14.955V0.763361C14.955 0.563475 15.0344 0.371776 15.1757 0.230435C15.3171 0.0890945 15.5088 0.00969006 15.7087 0.00969006C15.9085 0.00969006 16.1002 0.0890945 16.2416 0.230435C16.3829 0.371776 16.4623 0.563475 16.4623 0.763361V2.16304H19.3801C19.951 2.16304 20.4986 2.38976 20.9024 2.79336C21.3062 3.19695 21.5332 3.74439 21.5335 4.31531V19.3812C21.5332 19.9521 21.3062 20.4995 20.9024 20.9031C20.4986 21.3067 19.951 21.5335 19.3801 21.5335H2.15335C1.58243 21.5335 1.03488 21.3067 0.631081 20.9031C0.227281 20.4995 0.000285458 19.9521 0 19.3812L0 4.31531C0.000285458 3.74439 0.227281 3.19695 0.631081 2.79336C1.03488 2.38976 1.58243 2.16304 2.15335 2.16304H5.3543V0.752595C5.35458 0.552895 5.43411 0.361472 5.57542 0.220364C5.71673 0.0792564 5.90827 -2.03775e-07 6.10797 0ZM1.50734 8.3356V19.3812C1.50734 19.466 1.52405 19.55 1.55652 19.6284C1.58898 19.7068 1.63657 19.778 1.69655 19.838C1.75654 19.898 1.82775 19.9456 1.90613 19.978C1.98451 20.0105 2.06851 20.0272 2.15335 20.0272H19.3801C19.465 20.0272 19.549 20.0105 19.6273 19.978C19.7057 19.9456 19.7769 19.898 19.8369 19.838C19.8969 19.778 19.9445 19.7068 19.9769 19.6284C20.0094 19.55 20.0261 19.466 20.0261 19.3812V8.35068L1.50734 8.3356ZM7.17818 15.7399V17.5336H5.38337V15.7399H7.17818ZM11.6636 15.7399V17.5336H9.86986V15.7399H11.6636ZM16.1501 15.7399V17.5336H14.3553V15.7399H16.1501ZM7.17818 11.458V13.2517H5.38337V11.458H7.17818ZM11.6636 11.458V13.2517H9.86986V11.458H11.6636ZM16.1501 11.458V13.2517H14.3553V11.458H16.1501ZM5.3543 3.6693H2.15335C2.06851 3.6693 1.98451 3.68601 1.90613 3.71848C1.82775 3.75094 1.75654 3.79853 1.69655 3.85851C1.63657 3.9185 1.58898 3.98971 1.55652 4.06809C1.52405 4.14647 1.50734 4.23047 1.50734 4.31531V6.82934L20.0261 6.84441V4.31531C20.0261 4.23047 20.0094 4.14647 19.9769 4.06809C19.9445 3.98971 19.8969 3.9185 19.8369 3.85851C19.7769 3.79853 19.7057 3.75094 19.6273 3.71848C19.549 3.68601 19.465 3.6693 19.3801 3.6693H16.4623V4.66953C16.4623 4.86942 16.3829 5.06112 16.2416 5.20246C16.1002 5.3438 15.9085 5.4232 15.7087 5.4232C15.5088 5.4232 15.3171 5.3438 15.1757 5.20246C15.0344 5.06112 14.955 4.86942 14.955 4.66953V3.6693H6.86164V4.65984C6.86164 4.85973 6.78223 5.05143 6.64089 5.19277C6.49955 5.33411 6.30785 5.41351 6.10797 5.41351C5.90808 5.41351 5.71638 5.33411 5.57504 5.19277C5.4337 5.05143 5.3543 4.85973 5.3543 4.65984V3.6693Z" fill="#FCB034"/>
</g>
<defs>
<clipPath id="clip0_657_445">
<rect width="21.5335" height="21.5335" fill="white"/>
</clipPath>
</defs>
</svg>
