<svg width="21" height="21" viewBox="0 0 21 21" fill="none" xmlns="http://www.w3.org/2000/svg">
<g id="lucide:power-off" clip-path="url(#clip0_618_5674)">
<path id="Vector" d="M15.9203 5.85204C16.853 6.78518 17.5339 7.93956 17.8993 9.20729C18.2648 10.475 18.3029 11.8147 18.01 13.1011M5.34144 5.43582C4.513 6.13162 3.83828 6.99207 3.36012 7.96254C2.88195 8.933 2.61079 9.99229 2.56385 11.0731C2.51691 12.154 2.69522 13.2328 3.08744 14.2411C3.47967 15.2493 4.07726 16.1651 4.84226 16.9301C5.60726 17.6951 6.52296 18.2926 7.53123 18.6849C8.5395 19.0771 9.61831 19.2554 10.6992 19.2085C11.78 19.1615 12.8393 18.8904 13.8098 18.4122C14.7802 17.934 15.6407 17.2593 16.3365 16.4309M10.4054 1.82861V5.29708M1.73424 1.82861L19.0766 19.171" stroke="#9A9A9A" stroke-width="1.73423" stroke-linecap="round" stroke-linejoin="round"/>
</g>
<defs>
<clipPath id="clip0_618_5674">
<rect width="20.8108" height="20.8108" fill="white" transform="translate(3.8147e-06 0.0942383)"/>
</clipPath>
</defs>
</svg>
