<svg width="13" height="12" viewBox="0 0 13 12" fill="none" xmlns="http://www.w3.org/2000/svg">
<g id="eva:email-outline">
<path id="Vector" d="M9.88535 2.22375H3.20872C2.82927 2.22375 2.46537 2.37449 2.19706 2.6428C1.92875 2.91111 1.77802 3.27501 1.77802 3.65446V8.42348C1.77802 8.80293 1.92875 9.16683 2.19706 9.43514C2.46537 9.70345 2.82927 9.85419 3.20872 9.85419H9.88535C10.2648 9.85419 10.6287 9.70345 10.897 9.43514C11.1653 9.16683 11.3161 8.80293 11.3161 8.42348V3.65446C11.3161 3.27501 11.1653 2.91111 10.897 2.6428C10.6287 2.37449 10.2648 2.22375 9.88535 2.22375ZM9.56583 3.17756L6.54704 5.44284L3.52825 3.17756H9.56583ZM9.88535 8.90038H3.20872C3.08224 8.90038 2.96094 8.85014 2.8715 8.7607C2.78206 8.67127 2.73182 8.54996 2.73182 8.42348V3.77369L6.26089 6.42049C6.34344 6.48241 6.44385 6.51587 6.54704 6.51587C6.65022 6.51587 6.75063 6.48241 6.83318 6.42049L10.3623 3.77369V8.42348C10.3623 8.54996 10.312 8.67127 10.2226 8.7607C10.1331 8.85014 10.0118 8.90038 9.88535 8.90038Z" fill="#666666"/>
</g>
</svg>
