<svg width="13" height="13" viewBox="0 0 13 13" fill="none" xmlns="http://www.w3.org/2000/svg">
<g clip-path="url(#clip0_553_805)">
<path d="M6.50003 0.649902C5.34301 0.649902 4.21197 0.992999 3.24994 1.63581C2.28791 2.27861 1.5381 3.19226 1.09533 4.2612C0.652559 5.33015 0.53671 6.50639 0.762433 7.64118C0.988157 8.77597 1.54532 9.81834 2.36345 10.6365C3.18159 11.4546 4.22396 12.0118 5.35875 12.2375C6.49354 12.4632 7.66978 12.3474 8.73872 11.9046C9.80767 11.4618 10.7213 10.712 11.3641 9.74999C12.0069 8.78796 12.35 7.65692 12.35 6.4999C12.35 4.94839 11.7337 3.46042 10.6366 2.36333C9.53951 1.26624 8.05154 0.649902 6.50003 0.649902ZM9.75003 7.1499H3.25003V5.8499H9.75003V7.1499Z" fill="white"/>
</g>
<defs>
<clipPath id="clip0_553_805">
<rect width="13" height="13" fill="white"/>
</clipPath>
</defs>
</svg>
