<svg width="13" height="13" viewBox="0 0 13 13" fill="none" xmlns="http://www.w3.org/2000/svg">
<g id="lucide:eye" clip-path="url(#clip0_124_4763)">
<g id="Group">
<path id="Vector" d="M1.21707 7.06542C1.1752 6.95264 1.1752 6.82858 1.21707 6.71579C1.62482 5.72711 2.31696 4.88176 3.20573 4.28691C4.09451 3.69206 5.13989 3.37451 6.20936 3.37451C7.27883 3.37451 8.32421 3.69206 9.21299 4.28691C10.1018 4.88176 10.7939 5.72711 11.2017 6.71579C11.2435 6.82858 11.2435 6.95264 11.2017 7.06542C10.7939 8.05411 10.1018 8.89946 9.21299 9.49431C8.32421 10.0892 7.27883 10.4067 6.20936 10.4067C5.13989 10.4067 4.09451 10.0892 3.20573 9.49431C2.31696 8.89946 1.62482 8.05411 1.21707 7.06542Z" stroke="#666666" stroke-width="1.00469" stroke-linecap="round" stroke-linejoin="round"/>
<path id="Vector_2" d="M6.20942 8.39761C7.04173 8.39761 7.71645 7.72289 7.71645 6.89058C7.71645 6.05827 7.04173 5.38354 6.20942 5.38354C5.37711 5.38354 4.70239 6.05827 4.70239 6.89058C4.70239 7.72289 5.37711 8.39761 6.20942 8.39761Z" stroke="#666666" stroke-width="1.00469" stroke-linecap="round" stroke-linejoin="round"/>
</g>
</g>
<defs>
<clipPath id="clip0_124_4763">
<rect width="12.0562" height="12.0562" fill="white" transform="translate(0.181274 0.862305)"/>
</clipPath>
</defs>
</svg>
