<svg width="20" height="20" viewBox="0 0 20 20" fill="none" xmlns="http://www.w3.org/2000/svg">
<g id="Iconly/Bold/Heart">
<g id="Heart">
<path id="Heart_2" d="M14.1139 2.7092L13.9071 3.32546L13.9129 3.32735L14.1139 2.7092ZM12.6414 2.47962L12.6367 3.12962H12.6414V2.47962ZM17.2093 9.66795L17.8231 9.88173L17.8264 9.87221L17.8294 9.86259L17.2093 9.66795ZM14.8271 13.4751L15.2794 13.9421L15.2868 13.9347L14.8271 13.4751ZM9.8151 17.4017L10.1512 17.9582L10.1604 17.9525L9.8151 17.4017ZM9.61719 17.5213L9.27498 18.0739L9.61296 18.2832L9.95325 18.0777L9.61719 17.5213ZM9.41135 17.3938L9.0687 17.9462L9.06915 17.9465L9.41135 17.3938ZM4.36923 13.4672L3.90797 13.9253L3.91797 13.935L4.36923 13.4672ZM1.98552 9.66795L1.3663 9.86561L1.36937 9.87523L1.37274 9.88475L1.98552 9.66795ZM5.09756 2.69258L5.29976 3.31041L5.30946 3.30707L5.09756 2.69258ZM5.80135 2.52712V1.87712H5.75928L5.71756 1.88254L5.80135 2.52712ZM5.89635 2.52712V3.17712H5.94352L5.9902 3.17031L5.89635 2.52712ZM6.64844 2.47962L6.66803 1.82991L6.65824 1.82962H6.64844V2.47962ZM8.09798 2.74087L7.88869 3.35625L7.99047 3.39087H8.09798V2.74087ZM8.14469 2.74087L8.42357 2.15374L8.29122 2.09087H8.14469V2.74087ZM8.21594 2.78758L7.76825 3.25883L7.87584 3.36103L8.01712 3.40642L8.21594 2.78758ZM8.71469 2.9942L8.40144 3.56374L8.42486 3.57662L8.44925 3.58753L8.71469 2.9942ZM9.01552 3.12879L9.3214 2.55526L9.30152 2.54465L9.28096 2.53545L9.01552 3.12879ZM9.24032 3.27799L9.62221 2.752L9.62221 2.752L9.24032 3.27799ZM9.35594 3.35837L9.01741 3.91334L9.02564 3.91819L9.35594 3.35837ZM9.39523 3.38138L9.72291 2.82003L9.72291 2.82002L9.39523 3.38138ZM9.59344 3.50799L9.19796 4.02384L9.59279 4.32655L9.98811 4.02446L9.59344 3.50799ZM15.3726 7.57722L16.021 7.62342L16.0226 7.60035V7.57722H15.3726ZM14.7472 8.17968L14.6854 8.82674L14.7249 8.83051L14.7646 8.82944L14.7472 8.17968ZM15.3726 7.48301L14.7226 7.46909V7.48301H15.3726ZM13.7022 4.98134L13.9328 4.37364L13.9233 4.37001L13.9136 4.36668L13.7022 4.98134ZM12.9026 5.37718L12.2903 5.15851L12.286 5.17163L12.9026 5.37718ZM13.2984 6.1918L13.5264 5.58298L13.5158 5.57921L13.2984 6.1918ZM14.1455 7.45926L14.7933 7.513L14.7955 7.48618V7.45926H14.1455ZM14.2959 7.95009L13.7942 8.3633L13.7942 8.36331L14.2959 7.95009ZM14.3206 2.09297C13.7711 1.90856 13.2014 1.82962 12.6414 1.82962V3.12962C13.0804 3.12962 13.5082 3.1916 13.9071 3.32543L14.3206 2.09297ZM17.8294 9.86259C18.7819 6.82775 17.6739 3.18315 14.3148 2.09105L13.9129 3.32735C16.3979 4.13526 17.3957 6.90316 16.5891 9.47332L17.8294 9.86259ZM15.2868 13.9347C16.4249 12.7965 17.2926 11.4051 17.8231 9.88173L16.5954 9.45418C16.1285 10.795 15.3653 12.0177 14.3675 13.0155L15.2868 13.9347ZM10.1604 17.9525C12.0045 16.7963 13.7179 15.4541 15.2793 13.942L14.375 13.0081C12.8789 14.4569 11.2372 15.743 9.46985 16.851L10.1604 17.9525ZM9.95325 18.0777L10.1512 17.9581L9.47905 16.8454L9.28113 16.9649L9.95325 18.0777ZM9.06915 17.9465L9.27498 18.0739L9.95939 16.9687L9.75356 16.8412L9.06915 17.9465ZM3.91797 13.935C5.4938 15.455 7.2172 16.7976 9.0687 17.9462L9.75401 16.8415C7.98125 15.7417 6.33058 14.456 4.82049 12.9993L3.91797 13.935ZM1.37274 9.88475C1.91131 11.4071 2.77913 12.7887 3.90807 13.9252L4.83038 13.0091C3.83766 12.0097 3.07306 10.7931 2.5983 9.45116L1.37274 9.88475ZM4.8954 2.07482C1.50851 3.1832 0.395783 6.82522 1.3663 9.86561L2.60474 9.47029C1.78609 6.90568 2.7792 4.1352 5.29973 3.31034L4.8954 2.07482ZM5.71756 1.88254C5.43645 1.91909 5.15682 1.98458 4.88567 2.07808L5.30946 3.30707C5.49747 3.24224 5.69126 3.1969 5.88515 3.17169L5.71756 1.88254ZM5.89635 1.87712H5.80135V3.17712H5.89635V1.87712ZM6.56135 1.82962C6.31001 1.82962 6.05771 1.84669 5.80251 1.88393L5.9902 3.17031C6.17992 3.14263 6.36937 3.12962 6.56135 3.12962V1.82962ZM6.64844 1.82962H6.56135V3.12962H6.64844V1.82962ZM8.30727 2.12549C7.77768 1.94537 7.2308 1.84689 6.66803 1.82991L6.62884 3.12932C7.06358 3.14243 7.48253 3.21812 7.88869 3.35625L8.30727 2.12549ZM8.14469 2.09087H8.09798V3.39087H8.14469V2.09087ZM8.66362 2.31633C8.58972 2.24611 8.50603 2.19291 8.42357 2.15374L7.8658 3.328C7.84667 3.31891 7.81049 3.29896 7.76825 3.25883L8.66362 2.31633ZM9.02794 2.42466C8.81897 2.30973 8.61024 2.23153 8.41475 2.16873L8.01712 3.40642C8.17155 3.45604 8.29374 3.50451 8.40144 3.56374L9.02794 2.42466ZM9.28096 2.53545L8.98013 2.40087L8.44925 3.58753L8.75008 3.72212L9.28096 2.53545ZM9.62221 2.752C9.56199 2.70828 9.44175 2.61944 9.3214 2.55526L8.70964 3.70231C8.73467 3.71567 8.77762 3.74531 8.85844 3.80398L9.62221 2.752ZM9.69443 2.80346C9.69704 2.80505 9.69276 2.80252 9.67725 2.79161C9.66257 2.78129 9.64555 2.76895 9.62221 2.752L8.85844 3.80398C8.89419 3.82994 8.95915 3.87772 9.01744 3.91328L9.69443 2.80346ZM9.72291 2.82002C9.70944 2.81216 9.69763 2.80527 9.68623 2.79854L9.02564 3.91819C9.04009 3.92672 9.05453 3.93515 9.06754 3.94274L9.72291 2.82002ZM9.98892 2.99215C9.89085 2.91697 9.78293 2.85506 9.72291 2.82003L9.06754 3.94274C9.14328 3.98695 9.17678 4.0076 9.19796 4.02384L9.98892 2.99215ZM12.646 1.82964C11.3981 1.82066 10.1903 2.23382 9.19877 2.99153L9.98811 4.02446C10.7557 3.43791 11.6838 3.12275 12.6367 3.1296L12.646 1.82964ZM14.7243 7.53102C14.7243 7.53036 14.7246 7.52932 14.7249 7.52876C14.7249 7.52858 14.7246 7.52933 14.7235 7.53036C14.7224 7.53142 14.7218 7.53159 14.7225 7.53128C14.7235 7.53085 14.7261 7.53001 14.7298 7.52991L14.7646 8.82944C15.4231 8.81178 15.9734 8.29053 16.021 7.62342L14.7243 7.53102ZM14.7226 7.48301V7.57722H16.0226V7.48301H14.7226ZM13.4715 5.58904C14.2321 5.87772 14.7407 6.63041 14.7228 7.46909L16.0225 7.49693C16.052 6.11736 15.2164 4.8608 13.9328 4.37364L13.4715 5.58904ZM13.5147 5.5958C13.5157 5.59318 13.5162 5.593 13.5155 5.59373C13.5152 5.59415 13.5144 5.59483 13.513 5.59552C13.5116 5.59621 13.5088 5.5973 13.5043 5.59762C13.4994 5.59798 13.4944 5.59724 13.4908 5.59601L13.9136 4.36668C13.2404 4.13517 12.5247 4.50284 12.2905 5.15856L13.5147 5.5958ZM13.5158 5.57921C13.5155 5.57913 13.516 5.57926 13.5167 5.57971C13.5174 5.58014 13.5181 5.58064 13.5186 5.58112C13.5196 5.58203 13.5197 5.58243 13.5195 5.58198C13.5192 5.58151 13.5192 5.58128 13.5193 5.58162C13.5193 5.58239 13.5191 5.58305 13.5193 5.58273L12.286 5.17163C12.0646 5.83585 12.4107 6.56655 13.0811 6.8044L13.5158 5.57921ZM14.7955 7.43472C14.7955 6.61916 14.2959 5.8712 13.5264 5.58307L13.0705 6.80053C13.3159 6.89241 13.4955 7.14353 13.4955 7.43472H14.7955ZM14.7955 7.45926V7.43472H13.4955V7.45926H14.7955ZM14.7977 7.53688C14.797 7.53604 14.7958 7.53428 14.7947 7.53088C14.7937 7.52751 14.7926 7.52166 14.7933 7.513L13.4978 7.40552C13.469 7.75148 13.5732 8.09492 13.7942 8.3633L14.7977 7.53688ZM14.809 7.53262C14.7977 7.53155 14.7905 7.52872 14.7879 7.52744C14.7858 7.52639 14.7907 7.52839 14.7977 7.53688L13.7942 8.36331C14.0298 8.64936 14.3643 8.79608 14.6854 8.82674L14.809 7.53262Z" fill="#3A3F45"/>
</g>
</g>
</svg>
