<svg width="110" height="148" viewBox="0 0 110 148" fill="none" xmlns="http://www.w3.org/2000/svg">
<path id="Vector" opacity="0.1" d="M134.784 74.4655L153.303 81.4309C154.036 81.7077 154.647 82.236 155.027 82.9216C155.406 83.6072 155.529 84.4054 155.375 85.1736L151.806 102.989C151.653 103.751 151.236 104.435 150.628 104.92C150.021 105.405 149.261 105.66 148.484 105.641L128.633 105.168C126.755 108.801 124.497 112.176 121.861 115.293L130.045 133.302C130.372 134.018 130.433 134.826 130.217 135.582C130.001 136.338 129.523 136.993 128.868 137.428L113.745 147.503C113.098 147.935 112.32 148.126 111.547 148.041C110.774 147.956 110.055 147.601 109.518 147.038L95.8558 132.695C91.9441 133.945 87.9063 134.758 83.8159 135.12L76.6142 153.53C76.3304 154.255 75.8003 154.855 75.1171 155.227C74.4339 155.599 73.6415 155.717 72.8794 155.562L55.0742 151.995C54.3083 151.843 53.6215 151.423 53.1365 150.811C52.6514 150.199 52.3997 149.434 52.4261 148.654L53.0602 129.031C49.4066 127.131 45.9748 124.832 42.8277 122.176L24.8341 130.074C24.1217 130.386 23.322 130.437 22.5757 130.218C21.8294 129.998 21.1845 129.523 20.7546 128.874L10.6697 113.75C10.2436 113.097 10.0591 112.315 10.1483 111.54C10.2374 110.766 10.5946 110.046 11.1579 109.507L25.4409 96.1428C24.1841 92.1944 23.3715 88.1182 23.0182 83.9897L4.80077 76.8575C4.07826 76.5744 3.47847 76.0459 3.10659 75.3649C2.7347 74.6838 2.61445 73.8935 2.76692 73.1326L6.33573 55.3175C6.65419 53.7278 8.06752 52.6054 9.68915 52.6615L29.2083 53.2956C31.1371 49.617 33.4422 46.1929 36.1234 43.0234L28.2513 25.0556C27.9414 24.3446 27.8916 23.5472 28.1105 22.8032C28.3295 22.0591 28.8033 21.4158 29.4489 20.986L44.5795 10.923C45.23 10.489 46.0134 10.2999 46.7903 10.3893C47.5672 10.4787 48.2872 10.8408 48.8222 11.4112L62.2321 25.724C66.1501 24.4971 70.168 23.7173 74.2859 23.3847L81.1875 5.02811C81.4643 4.295 81.9927 3.68416 82.6783 3.30468C83.3639 2.9252 84.1621 2.8018 84.9303 2.95651L102.745 6.52531C104.325 6.84179 105.44 8.24319 105.407 9.84892L104.924 29.5947C108.575 31.4904 111.976 33.7736 115.127 36.4442L133.065 28.3077C133.779 27.9794 134.587 27.9166 135.344 28.1307C136.1 28.3448 136.756 28.8216 137.192 29.4756L147.267 44.5982C147.698 45.2456 147.887 46.0242 147.8 46.797C147.713 47.5699 147.357 48.2873 146.793 48.823L132.424 62.5111C133.642 66.4066 134.429 70.3881 134.786 74.4556L134.784 74.4655ZM56.3503 74.7412C55.1451 80.7573 56.3792 87.0057 59.781 92.1119C63.1829 97.2181 68.4738 100.764 74.4899 101.969C80.506 103.174 86.7544 101.94 91.8607 98.5383C96.9669 95.1364 100.513 89.8455 101.718 83.8294C102.923 77.8133 101.689 71.5648 98.287 66.4586C94.8851 61.3524 89.5942 57.8067 83.5781 56.6015C77.562 55.3964 71.3136 56.6304 66.2073 60.0323C61.1011 63.4341 57.5554 68.7251 56.3503 74.7412Z" stroke="#8C8E8F" stroke-width="4.92973"/>
</svg>
