<svg width="112" height="73" viewBox="0 0 112 73" fill="none" xmlns="http://www.w3.org/2000/svg">
<path id="Vector" opacity="0.2" d="M84.36 -31.3264L105.942 -27.7984C106.797 -27.6576 107.574 -27.2176 108.134 -26.557C108.694 -25.8963 109.001 -25.0581 109 -24.192V-4.1104C109 -3.2511 108.696 -2.41948 108.143 -1.76187C107.59 -1.10426 106.823 -0.662806 105.976 -0.515196L84.36 3.2816C83.1131 7.6272 81.3995 11.7749 79.2192 15.7248L91.9984 33.4656C92.5079 34.1698 92.7494 35.0327 92.6796 35.899C92.6098 36.7654 92.2332 37.5784 91.6176 38.192L77.416 52.3936C76.8093 53.0028 76.0072 53.3784 75.1507 53.4542C74.2943 53.53 73.4386 53.3012 72.7344 52.808L54.8144 40.2304C50.8464 42.4335 46.647 44.1914 42.2928 45.472L38.4848 66.9872C38.3345 67.8336 37.8904 68.5998 37.2307 69.1509C36.571 69.702 35.738 70.0027 34.8784 70H14.808C13.9448 70.0009 13.1094 69.6951 12.4509 69.1371C11.7924 68.5791 11.3536 67.8052 11.2128 66.9536L7.64 45.5504C3.26793 44.2844 -0.950359 42.5377 -4.9376 40.3424L-22.7232 52.808C-23.4274 53.3012 -24.2831 53.53 -25.1395 53.4542C-25.9959 53.3784 -26.7981 53.0028 -27.4048 52.3936L-41.6176 38.192C-42.2212 37.5767 -42.5908 36.7697 -42.6623 35.9107C-42.7339 35.0518 -42.503 34.1947 -42.0096 33.488L-29.432 15.904C-31.6513 11.8979 -33.4168 7.65671 -34.696 3.2592L-55.9872 -0.515196C-56.8317 -0.66516 -57.5964 -1.10763 -58.1473 -1.76501C-58.6982 -2.42239 -59.0001 -3.25271 -59 -4.1104V-24.192C-59 -25.984 -57.712 -27.5072 -55.9424 -27.7984L-34.6512 -31.3488C-33.3595 -35.7541 -31.6048 -39.9653 -29.3872 -43.9824L-41.8192 -61.7456C-42.3094 -62.4489 -42.5365 -63.3022 -42.4607 -64.1561C-42.385 -65.01 -42.0112 -65.81 -41.4048 -66.416L-27.192 -80.6064C-26.5812 -81.218 -25.7732 -81.593 -24.9119 -81.6648C-24.0505 -81.7365 -23.1916 -81.5004 -22.488 -80.9984L-4.848 -68.3984C-0.868267 -70.5787 3.3168 -72.296 7.7072 -73.5504L11.2016 -94.9424C11.3424 -95.797 11.7824 -96.5737 12.443 -97.1338C13.1037 -97.6939 13.9419 -98.0009 14.808 -98H34.8896C36.6704 -98 38.1824 -96.7232 38.496 -94.976L42.2592 -73.472C46.6272 -72.2101 50.8085 -70.4741 54.8032 -68.264L72.4768 -80.976C73.1797 -81.4869 74.0418 -81.7304 74.9082 -81.6626C75.7745 -81.5949 76.5882 -81.2204 77.2032 -80.6064L91.4048 -66.4048C92.0123 -65.7967 92.3858 -64.9938 92.4596 -64.1375C92.5333 -63.2811 92.3026 -62.4262 91.808 -61.7232L79.208 -43.7696C81.3733 -39.8123 83.0907 -35.6683 84.36 -31.3376V-31.3264ZM-0.580805 -14C-0.580805 -7.21852 2.11313 -0.714797 6.90836 4.08043C11.7036 8.87566 18.2073 11.5696 24.9888 11.5696C31.7703 11.5696 38.274 8.87566 43.0692 4.08043C47.8645 -0.714797 50.5584 -7.21852 50.5584 -14C50.5584 -20.7815 47.8645 -27.2852 43.0692 -32.0804C38.274 -36.8757 31.7703 -39.5696 24.9888 -39.5696C18.2073 -39.5696 11.7036 -36.8757 6.90836 -32.0804C2.11313 -27.2852 -0.580805 -20.7815 -0.580805 -14Z" stroke="#8C8E8F" stroke-width="5.44865"/>
</svg>
