<svg width="13" height="13" viewBox="0 0 13 13" fill="none" xmlns="http://www.w3.org/2000/svg">
<g id="mdi:hide-outline">
<path id="Vector" d="M1.00051 3.50956L1.64351 2.87158L10.0427 11.2708L9.40472 11.9138L7.8575 10.3666C7.27981 10.5574 6.66695 10.6579 6.02395 10.6579C3.51223 10.6579 1.36722 9.09562 0.498169 6.89033C0.844786 6.00621 1.39736 5.22757 2.10065 4.60969L1.00051 3.50956ZM6.02395 5.3833C6.42364 5.3833 6.80696 5.54208 7.08958 5.8247C7.37221 6.10732 7.53098 6.49064 7.53098 6.89033C7.53124 7.06141 7.50236 7.23129 7.44558 7.39268L5.52161 5.4687C5.68299 5.41193 5.85287 5.38305 6.02395 5.3833ZM6.02395 3.12275C8.53567 3.12275 10.6807 4.68504 11.5497 6.89033C11.1395 7.93166 10.4428 8.83557 9.54036 9.4975L8.82703 8.77915C9.52174 8.29863 10.082 7.64842 10.4546 6.89033C10.0486 6.0614 9.41806 5.36302 8.63481 4.8746C7.85157 4.38619 6.947 4.12732 6.02395 4.12744C5.4764 4.12744 4.93889 4.21786 4.43654 4.37861L3.66293 3.61003C4.38631 3.29857 5.18504 3.12275 6.02395 3.12275ZM1.59328 6.89033C1.99935 7.71927 2.62984 8.41764 3.41309 8.90606C4.19633 9.39448 5.1009 9.65334 6.02395 9.65322C6.37057 9.65322 6.71216 9.61806 7.02864 9.54773L5.88329 8.39736C5.53374 8.3599 5.20755 8.2039 4.95897 7.95531C4.71038 7.70673 4.55439 7.38054 4.51692 7.03099L2.80895 5.318C2.31163 5.74499 1.89468 6.27747 1.59328 6.89033Z" fill="#666666"/>
</g>
</svg>
