<svg width="16" height="16" viewBox="0 0 16 16" fill="none" xmlns="http://www.w3.org/2000/svg">
<path d="M8.30985 1.74247L8.30969 1.74266L8.3153 1.74689L13.6205 5.74548C13.6861 5.79896 13.737 5.86057 13.7742 5.93051C13.8099 5.99772 13.8285 6.07339 13.8285 6.15954V14.6266H10.3896V9.72259C10.3896 9.47203 10.3038 9.25727 10.1316 9.08514C9.95894 8.91245 9.74389 8.8262 9.4932 8.8262H6.5363C6.28575 8.8262 6.07105 8.91236 5.89901 9.08499C5.72617 9.25709 5.63991 9.4719 5.63991 9.72259V14.6266H2.20096L2.20097 6.15954L2.20096 6.1589C2.2004 6.07162 2.21901 5.9967 2.25468 5.93164C2.29265 5.8624 2.34394 5.80021 2.40961 5.74504L7.71518 1.74689L7.71534 1.74711L7.72088 1.74226C7.80235 1.6709 7.89856 1.63496 8.01475 1.63496C8.13094 1.63496 8.22761 1.67091 8.30985 1.74247ZM6.82555 14.9159V10.0128H9.20395V14.9159C9.20395 15.1664 9.28978 15.3814 9.46176 15.5542L9.46191 15.5543C9.6341 15.7265 9.84922 15.8123 10.1003 15.8123H13.9285C14.2207 15.8123 14.476 15.7024 14.6902 15.4883C14.9043 15.2741 15.0142 15.0188 15.0142 14.7266V6.15954C15.0142 5.89166 14.954 5.63746 14.834 5.39816C14.7148 5.15852 14.5491 4.96031 14.3372 4.8049C14.337 4.80475 14.3368 4.8046 14.3366 4.80445L9.03019 0.786971L9.02997 0.786811C8.73054 0.561362 8.39003 0.44834 8.01179 0.44834C7.63363 0.44834 7.2949 0.561329 6.9992 0.787059C6.99913 0.787113 6.99906 0.787167 6.99898 0.787221L1.69225 4.80595C1.48104 4.96135 1.31529 5.15921 1.19547 5.39816C1.07547 5.63746 1.01533 5.89166 1.01533 6.15954V14.7266C1.01533 15.0188 1.12519 15.2741 1.33933 15.4883C1.55347 15.7024 1.8088 15.8123 2.10096 15.8123H5.93014C6.1807 15.8123 6.39546 15.7264 6.56759 15.5543C6.73977 15.3821 6.82555 15.167 6.82555 14.9159Z" fill="#3A3F45" stroke="#3A3F45" stroke-width="0.2"/>
</svg>
