<svg width="289" height="220" viewBox="0 0 289 220" fill="none" xmlns="http://www.w3.org/2000/svg">
<path d="M224.644 55.1912V66.5234" stroke="#FF9900" stroke-width="1.25614" stroke-miterlimit="10" stroke-linecap="round"/>
<path d="M218.977 60.8577H230.309" stroke="#FF9900" stroke-width="1.25614" stroke-miterlimit="10" stroke-linecap="round"/>
<path d="M80.5269 1V11.0096" stroke="#FF9900" stroke-width="1.25614" stroke-miterlimit="10" stroke-linecap="round"/>
<path d="M75.5225 6.00439H85.532" stroke="#FF9900" stroke-width="1.25614" stroke-miterlimit="10" stroke-linecap="round"/>
<path d="M265.762 10.0931C265.762 11.4098 265.372 12.697 264.64 13.7918C263.909 14.8867 262.869 15.74 261.653 16.2439C260.436 16.7478 259.097 16.8796 257.806 16.6227C256.515 16.3658 255.328 15.7318 254.397 14.8007C253.466 13.8696 252.832 12.6834 252.575 11.3919C252.318 10.1005 252.45 8.76187 252.954 7.54536C253.458 6.32885 254.311 5.28909 255.406 4.55755C256.501 3.82601 257.788 3.43555 259.105 3.43555C260.871 3.43555 262.564 4.13697 263.812 5.3855C265.061 6.63403 265.762 8.32741 265.762 10.0931Z" stroke="#FF9900" stroke-width="1.25614" stroke-miterlimit="10"/>
<path d="M30.8132 150.996C30.8132 152.313 30.4227 153.6 29.6912 154.695C28.9596 155.789 27.9198 156.643 26.7033 157.147C25.4868 157.651 24.1482 157.782 22.8568 157.526C21.5653 157.269 20.3791 156.635 19.448 155.704C18.5169 154.772 17.8829 153.586 17.626 152.295C17.3691 151.003 17.5009 149.665 18.0048 148.448C18.5087 147.232 19.362 146.192 20.4569 145.46C21.5517 144.729 22.8389 144.338 24.1556 144.338C25.9213 144.338 27.6147 145.04 28.8632 146.288C30.1117 147.537 30.8132 149.23 30.8132 150.996Z" stroke="#FF9900" stroke-width="1.25614" stroke-miterlimit="10"/>
<path d="M287.75 143.35C287.75 143.987 287.561 144.61 287.207 145.14C286.853 145.67 286.349 146.083 285.76 146.327C285.171 146.571 284.523 146.635 283.898 146.511C283.273 146.386 282.699 146.079 282.248 145.628C281.797 145.178 281.49 144.603 281.366 143.978C281.241 143.353 281.305 142.705 281.549 142.116C281.793 141.527 282.206 141.024 282.736 140.669C283.266 140.315 283.889 140.126 284.526 140.126C285.381 140.126 286.201 140.466 286.806 141.07C287.411 141.675 287.75 142.495 287.75 143.35Z" stroke="#FF9900" stroke-width="1.25614" stroke-miterlimit="10"/>
<path d="M54.116 124.106C54.1158 124.744 53.9267 125.367 53.5725 125.897C53.2182 126.427 52.7148 126.84 52.1259 127.084C51.5369 127.327 50.8889 127.391 50.2637 127.267C49.6385 127.142 49.0643 126.836 48.6135 126.385C48.1628 125.934 47.8558 125.36 47.7314 124.735C47.607 124.109 47.6708 123.461 47.9147 122.872C48.1586 122.283 48.5716 121.78 49.1016 121.426C49.6315 121.072 50.2546 120.882 50.8921 120.882C51.7471 120.882 52.5671 121.222 53.1717 121.827C53.7763 122.431 54.116 123.251 54.116 124.106Z" stroke="#FF9900" stroke-width="1.25614" stroke-miterlimit="10"/>
<path d="M273.701 126.782C273.717 128 273.49 129.21 273.035 130.34C272.579 131.47 271.904 132.499 271.047 133.366C270.191 134.233 269.171 134.921 268.047 135.39C266.922 135.86 265.716 136.102 264.497 136.101H198.758C199.713 137.847 200.076 139.856 199.794 141.826C199.512 143.796 198.599 145.622 197.192 147.03C196.655 147.564 196.056 148.033 195.407 148.425H207.551C210.001 148.401 212.363 149.339 214.129 151.038C215.895 152.736 216.924 155.06 216.995 157.509C217.011 158.728 216.784 159.937 216.328 161.067C215.872 162.198 215.197 163.226 214.341 164.093C213.484 164.961 212.465 165.65 211.34 166.12C210.216 166.59 209.01 166.833 207.791 166.833H147.427C145.413 166.833 143.454 166.172 141.851 164.951C140.248 163.73 139.09 162.018 138.554 160.076C138.019 158.133 138.135 156.069 138.885 154.2C139.635 152.33 140.978 150.758 142.708 149.725H106.545C104.095 149.748 101.734 148.81 99.9678 147.111C98.202 145.413 97.1727 143.089 97.1011 140.64C97.0804 138.998 97.4997 137.379 98.3155 135.953C99.1313 134.527 100.314 133.346 101.741 132.531C100.245 131.756 98.991 130.584 98.116 129.144C97.2409 127.704 96.7784 126.051 96.7789 124.366V113.092C96.7774 111.653 97.1142 110.234 97.762 108.948C98.4098 107.663 99.3505 106.548 100.508 105.693H35.5282C33.0809 105.716 30.7219 104.78 28.9566 103.084C27.1913 101.389 26.1601 99.07 26.0839 96.6238C26.0657 95.4037 26.2904 94.1921 26.7449 93.0597C27.1993 91.9272 27.8745 90.8964 28.731 90.0273C29.5876 89.1582 30.6084 88.4681 31.7341 87.9972C32.8599 87.5263 34.068 87.284 35.2883 87.2844H39.8826C41.7679 87.2837 43.5757 86.5345 44.9088 85.2014C46.2419 83.8684 46.9911 82.0605 46.9917 80.1753V80.1702C46.9911 78.285 46.2419 76.4771 44.9088 75.1441C43.5757 73.811 41.7679 73.0618 39.8826 73.0611H9.30937C8.092 73.0753 6.88391 72.8478 5.75509 72.3918C4.62628 71.9358 3.59917 71.2603 2.73329 70.4045C1.8674 69.5486 1.17995 68.5295 0.710772 67.4061C0.24159 66.2827 0 65.0773 0 63.8599C0 62.6424 0.24159 61.4371 0.710772 60.3136C1.17995 59.1902 1.8674 58.1711 2.73329 57.3153C3.59917 56.4594 4.62628 55.7839 5.75509 55.3279C6.88391 54.8719 8.092 54.6444 9.30937 54.6586H53.5105C54.7191 54.659 55.9159 54.4212 57.0327 53.959C58.1494 53.4968 59.1642 52.8192 60.019 51.9648C60.8739 51.1104 61.5521 50.096 62.0149 48.9795C62.4777 47.863 62.7161 46.6663 62.7164 45.4577C62.7168 44.2491 62.479 43.0523 62.0168 41.9355C61.5546 40.8188 60.877 39.804 60.0226 38.9492C59.1682 38.0943 58.1538 37.4161 57.0373 36.9533C55.9208 36.4905 54.7241 36.2521 53.5155 36.2518H40.8913C38.4383 36.2739 36.0746 35.3319 34.3092 33.6286C32.5438 31.9254 31.5178 29.597 31.452 27.1447C31.4391 25.928 31.6677 24.7208 32.1246 23.5929C32.5814 22.4651 33.2574 21.4391 34.1134 20.5743C34.9695 19.7095 35.9885 19.0231 37.1116 18.5548C38.2347 18.0865 39.4396 17.8457 40.6564 17.8461H124.614C127.007 17.8229 129.317 18.7167 131.07 20.3439C132.824 21.971 133.888 24.208 134.044 26.5952C134.125 28.2266 133.771 29.8502 133.019 31.3H241.294C242.512 31.2858 243.72 31.5133 244.849 31.9693C245.977 32.4254 247.004 33.1009 247.87 33.9567C248.736 34.8125 249.424 35.8316 249.893 36.9551C250.362 38.0785 250.604 39.2838 250.604 40.5013C250.604 41.7187 250.362 42.9241 249.893 44.0475C249.424 45.1709 248.736 46.1901 247.87 47.0459C247.004 47.9017 245.977 48.5772 244.849 49.0332C243.72 49.4893 242.512 49.7167 241.294 49.7025H201.188C201.187 51.6833 200.399 53.5828 198.999 54.9835C197.598 56.3842 195.699 57.1716 193.718 57.1728H148.512C149.852 58.4375 150.782 60.0755 151.18 61.8746C151.578 63.6737 151.427 65.551 150.746 67.2633C150.065 68.9756 148.886 70.4439 147.361 71.4779C145.836 72.512 144.035 73.0642 142.192 73.063H129.554C129.056 73.0625 128.564 73.16 128.104 73.35C127.644 73.5399 127.226 73.8186 126.874 74.1701C126.522 74.5216 126.243 74.939 126.053 75.3984C125.862 75.8579 125.764 76.3503 125.764 76.8477V76.8528C125.764 77.3502 125.862 77.8427 126.053 78.3021C126.243 78.7615 126.522 79.1789 126.874 79.5304C127.226 79.8819 127.644 80.1606 128.104 80.3505C128.564 80.5405 129.056 80.638 129.554 80.6375H232.16C233.377 80.6233 234.585 80.8508 235.714 81.3068C236.843 81.7628 237.87 82.4383 238.736 83.2942C239.602 84.15 240.289 85.1691 240.758 86.2925C241.227 87.416 241.469 88.6213 241.469 89.8388C241.469 91.0562 241.227 92.2616 240.758 93.385C240.289 94.5084 239.602 95.5275 238.736 96.3834C237.87 97.2392 236.843 97.9147 235.714 98.3707C234.585 98.8267 233.377 99.0542 232.16 99.04H205.622C206.968 99.8633 208.08 101.018 208.851 102.394C209.622 103.771 210.027 105.322 210.027 106.899V109.524C210.028 111.212 209.564 112.868 208.685 114.31C207.807 115.752 206.548 116.924 205.048 117.698H264.258C266.708 117.675 269.069 118.613 270.835 120.311C272.601 122.01 273.63 124.333 273.702 126.783" fill="#FFEFD9"/>
<path d="M144.019 219.66C189.082 219.66 225.613 217.164 225.613 214.085C225.613 211.007 189.082 208.511 144.019 208.511C98.9554 208.511 62.4243 211.007 62.4243 214.085C62.4243 217.164 98.9554 219.66 144.019 219.66Z" fill="#666666"/>
<path d="M119.091 128.545C120.375 128.681 121.526 127.75 121.661 126.466C121.796 125.182 120.865 124.031 119.582 123.896C118.298 123.76 117.147 124.691 117.012 125.975C116.876 127.259 117.807 128.41 119.091 128.545Z" fill="#FCD294"/>
<g clip-path="url(#clip0_788_291)">
<path d="M170.945 5.94385C173.547 7.55385 174.945 9.60956 175.966 12.4404C176.089 12.7642 176.212 13.088 176.339 13.4216C176.751 14.5144 177.151 15.6112 177.549 16.7091C177.693 17.1015 177.837 17.4938 177.985 17.8981C179.047 20.7929 180.089 23.6949 181.126 26.5986C181.951 28.9054 182.78 31.2106 183.609 33.5159C183.75 33.9059 183.75 33.9059 183.893 34.3037C185.824 39.6723 187.796 45.0253 189.776 50.3757C192.686 58.2399 195.54 66.1228 198.367 74.0171C201.201 81.932 204.078 89.8297 206.994 97.7148C209.664 104.933 212.291 112.166 214.887 119.412C215.018 119.774 215.148 120.137 215.282 120.511C215.534 121.216 215.786 121.921 216.038 122.626C216.64 124.311 217.255 125.99 217.896 127.661C218.019 127.983 218.141 128.305 218.267 128.636C218.496 129.235 218.727 129.832 218.963 130.427C220.148 133.543 220.549 137.018 219.179 140.161C217.923 142.19 216.109 144.262 213.813 145.084C210.622 145.723 207.579 145.602 204.738 143.954C202.973 142.659 201.789 141.364 201.297 139.219C194.403 138.12 187.536 137.045 180.564 136.58C180.267 136.559 179.969 136.538 179.663 136.516C169.927 135.839 160.15 136.205 150.408 136.58C150.376 136.963 150.343 137.346 150.309 137.741C149.674 144.29 147.304 149.157 142.314 153.54C141.281 154.361 140.201 155.078 139.1 155.805C139.206 156.019 139.312 156.234 139.421 156.455C140.531 158.698 141.637 160.942 142.742 163.188C143.154 164.024 143.566 164.861 143.98 165.696C144.576 166.901 145.17 168.108 145.762 169.315C146.038 169.87 146.038 169.87 146.319 170.436C147.998 173.865 149.454 176.84 148.523 180.684C147.637 183.037 145.996 184.64 143.741 185.67C142.554 186.136 141.361 186.572 140.16 186.998C139.542 187.223 139.542 187.223 138.912 187.453C132.432 189.808 132.432 189.808 129.275 188.458C125.972 186.561 123.754 182.903 121.545 179.901C120.422 178.391 119.274 176.901 118.132 175.406C116.107 172.755 114.097 170.093 112.1 167.42C110.057 164.685 107.979 161.98 105.876 159.29C104.357 157.346 102.866 155.384 101.395 153.403C100.446 152.14 99.4624 150.906 98.4696 149.676C98.0117 149.02 98.0117 149.02 98.0117 148.266C97.6963 148.366 97.3809 148.466 97.056 148.569C87.1689 151.569 76.8345 151.15 67.5462 146.424C58.6045 141.631 52.2466 134.066 49.0078 124.518C48.9231 124.274 48.8385 124.031 48.7514 123.78C46.5779 117.24 46.4734 108.823 48.6308 102.277C48.7057 102.043 48.7806 101.809 48.8577 101.567C52.0063 91.8786 58.2683 84.0027 67.3961 79.3074C70.6926 77.7265 74.0687 76.4137 77.5155 75.2018C86.459 72.0538 94.7462 67.8868 102.912 63.0743C103.206 62.9021 103.499 62.7298 103.801 62.5523C113.461 56.8528 122.651 50.4084 131.286 43.2556C131.874 42.7714 132.467 42.2941 133.061 41.8177C135.586 39.792 137.961 37.6356 140.321 35.4222C141.012 34.777 141.709 34.1379 142.407 33.4997C145.36 30.79 148.125 27.9998 150.785 25.0021C151.092 24.6678 151.398 24.3335 151.714 23.989C152.288 23.3624 152.857 22.7305 153.418 22.0925C153.894 21.5532 154.384 21.0249 154.89 20.514C156.696 18.5231 156.538 16.8571 156.429 14.2486C156.449 11.6595 157.414 9.62308 159.125 7.70935C162.598 4.57675 166.729 4.32807 170.945 5.94385Z" fill="#D8D7E2"/>
<path d="M156.816 17.8398C157.883 18.3733 157.913 18.9624 158.309 20.0773C158.526 20.6794 158.526 20.6794 158.747 21.2938C158.903 21.7361 159.059 22.1785 159.219 22.6342C159.472 23.3387 159.724 24.0432 159.976 24.7476C160.246 25.5029 160.515 26.2586 160.783 27.0145C161.344 28.5955 161.909 30.1751 162.474 31.7544C162.616 32.1504 162.616 32.1503 162.761 32.5543C162.952 33.089 163.144 33.6237 163.335 34.1584C163.625 34.9667 163.914 35.7751 164.203 36.5836C165.868 41.238 167.567 45.8795 169.279 50.517C171.891 57.5985 174.467 64.6923 177.029 71.7919C178.937 77.0785 180.86 82.3591 182.813 87.6292C182.998 88.1303 183.184 88.6315 183.37 89.1327C184.443 92.0317 184.443 92.0317 185.522 94.9289C186.013 96.2449 186.502 97.5618 186.99 98.8789C187.136 99.2677 187.282 99.6566 187.433 100.057C188.077 101.799 188.654 103.434 188.857 105.293C174.2 114.047 158.345 119.479 141.432 121.761C141.1 121.806 140.767 121.851 140.425 121.898C134.983 122.587 129.523 122.722 124.045 122.727C123.566 122.728 123.566 122.728 123.077 122.729C117.98 122.727 113.008 122.486 107.97 121.647C107.136 121.514 106.306 121.418 105.465 121.334C104.185 121.155 103.3 120.964 102.158 120.371C101.617 119.484 101.617 119.484 101.207 118.378C101.052 117.969 100.897 117.561 100.737 117.14C100.584 116.714 100.431 116.287 100.273 115.848C100.125 115.448 99.976 115.048 99.8227 114.637C99.3495 113.354 98.8892 112.067 98.4314 110.778C98.2582 110.293 98.0848 109.809 97.9113 109.324C97.5444 108.299 97.1781 107.274 96.8123 106.248C95.8504 103.551 94.8846 100.855 93.9182 98.1588C93.8211 97.8878 93.724 97.6169 93.624 97.3377C91.3871 91.0975 89.0989 84.8766 86.7912 78.6623C86.5892 78.1162 86.5892 78.1162 86.383 77.559C86.1336 76.8848 85.8831 76.2109 85.6315 75.5374C84.8184 73.337 84.8184 73.337 84.8184 72.498C85.1785 72.331 85.1785 72.331 85.5459 72.1606C91.4942 69.3877 97.2581 66.4063 102.912 63.0742C103.206 62.902 103.499 62.7297 103.801 62.5522C113.461 56.8527 122.651 50.4083 131.286 43.2555C131.874 42.7713 132.467 42.294 133.061 41.8176C135.586 39.7918 137.962 37.6355 140.321 35.4221C141.012 34.7769 141.709 34.1378 142.407 33.4996C145.36 30.7899 148.125 27.9999 150.785 25.002C151.087 24.672 151.39 24.3421 151.701 24.0021C153.513 22.0229 155.205 19.9851 156.816 17.8398Z" fill="#EFEFFB"/>
<path d="M85.1953 73.252C85.5785 73.9828 85.5785 73.9828 85.9247 74.9608C86.0578 75.33 86.191 75.6992 86.3282 76.0796C86.4704 76.4876 86.6125 76.8957 86.759 77.3161C86.9878 77.9553 86.9878 77.9553 87.2212 78.6074C87.553 79.5359 87.8831 80.4648 88.2107 81.3948C88.7339 82.8797 89.263 84.3624 89.7935 85.8446C89.8831 86.0949 89.9726 86.3451 90.0649 86.603C90.2475 87.1134 90.4301 87.6238 90.6128 88.1341C90.8916 88.9137 91.1698 89.6935 91.4479 90.4733C93.1467 95.234 94.8919 99.9769 96.6474 104.717C99.6654 112.866 102.639 121.031 105.571 129.212C105.701 129.575 105.831 129.938 105.965 130.312C106.217 131.015 106.469 131.718 106.721 132.421C107.334 134.132 107.955 135.84 108.589 137.544C108.774 138.042 108.774 138.042 108.963 138.551C109.197 139.179 109.433 139.806 109.669 140.433C110.451 142.529 110.451 142.529 110.451 143.365C110.213 143.454 109.974 143.543 109.728 143.635C108.603 144.055 107.477 144.476 106.352 144.897C105.942 145.05 105.531 145.203 105.109 145.361C102.907 146.185 100.714 147.027 98.532 147.902C95.9989 148.915 93.5765 149.823 90.8496 150.15C90.5512 150.191 90.2528 150.232 89.9455 150.274C79.8748 151.481 69.8368 148.882 61.777 142.706C55.741 137.61 51.5571 132.033 49.0078 124.518C48.8808 124.153 48.8808 124.153 48.7514 123.78C46.5779 117.24 46.4734 108.823 48.6308 102.277C48.7057 102.043 48.7806 101.809 48.8577 101.567C51.9514 92.0474 58.0161 84.322 66.9071 79.5807C70.5969 77.703 74.4325 76.2746 78.318 74.8602C78.8022 74.6838 79.2861 74.5065 79.7697 74.3282C80.4553 74.0762 81.143 73.8297 81.8307 73.5833C82.2333 73.4378 82.636 73.2923 83.0509 73.1424C84.0644 72.8751 84.0644 72.8751 85.1953 73.252Z" fill="#DF4A44"/>
<path d="M170.945 5.94382C173.547 7.55382 174.945 9.60952 175.966 12.4404C176.15 12.926 176.15 12.926 176.339 13.4215C176.751 14.5144 177.15 15.6112 177.549 16.7091C177.693 17.1014 177.837 17.4938 177.985 17.8981C179.047 20.7929 180.088 23.6949 181.126 26.5986C181.951 28.9054 182.78 31.2106 183.609 33.5159C183.75 33.9058 183.75 33.9058 183.893 34.3037C185.823 39.6722 187.796 45.0253 189.776 50.3757C192.686 58.2399 195.54 66.1227 198.367 74.017C201.201 81.932 204.078 89.8296 206.994 97.7147C209.664 104.933 212.291 112.166 214.887 119.412C215.017 119.774 215.147 120.137 215.281 120.511C215.534 121.216 215.786 121.921 216.038 122.626C216.64 124.311 217.255 125.99 217.896 127.661C218.018 127.983 218.141 128.305 218.267 128.636C218.495 129.235 218.727 129.832 218.962 130.427C220.148 133.543 220.549 137.018 219.178 140.161C217.923 142.19 216.109 144.261 213.813 145.084C210.622 145.723 207.685 145.546 204.795 144.035C202.51 142.255 201.305 140.231 200.412 137.514C200.303 137.2 200.194 136.886 200.082 136.563C199.845 135.88 199.611 135.195 199.379 134.51C198.731 132.596 198.063 130.689 197.398 128.78C197.257 128.374 197.115 127.968 196.97 127.549C195.484 123.278 193.917 119.039 192.344 114.8C189.309 106.623 186.331 98.4267 183.391 90.2149C180.625 82.489 177.827 74.7763 174.981 67.0794C172.525 60.4381 170.092 53.7895 167.701 47.1245C165.286 40.3947 162.851 33.6729 160.397 26.9575C160.241 26.5282 160.084 26.0988 159.922 25.6565C159.48 24.4463 159.038 23.2362 158.595 22.0262C158.464 21.667 158.333 21.3079 158.197 20.9379C157.725 19.6473 157.251 18.3606 156.737 17.086C155.943 15.0734 156.324 12.9939 157.028 11.0077C158.188 8.406 159.802 6.7828 162.4 5.61251C165.446 4.54785 167.966 4.80194 170.945 5.94382Z" fill="#F7524B"/>
<path d="M85.1953 73.2518C85.5786 73.9826 85.5786 73.9826 85.9247 74.9607C86.0579 75.3298 86.191 75.6989 86.3282 76.0792C86.4704 76.4873 86.6126 76.8954 86.7591 77.3159C86.9119 77.7427 87.0646 78.1695 87.2221 78.6093C87.5541 79.5385 87.8846 80.4682 88.2124 81.3989C88.731 82.8709 89.255 84.3409 89.7803 85.8105C89.8689 86.0581 89.9574 86.3058 90.0486 86.561C90.2295 87.067 90.4105 87.573 90.5914 88.079C90.8682 88.8536 91.1445 89.6283 91.4206 90.4031C92.7117 94.0216 94.0311 97.6288 95.3686 101.23C95.5519 101.724 95.7351 102.218 95.9184 102.712C96.6234 104.612 97.3294 106.511 98.0388 108.409C98.5279 109.718 99.0143 111.028 99.5004 112.339C99.6445 112.722 99.7887 113.105 99.9372 113.5C100.732 115.649 101.338 117.744 101.781 119.994C88.9118 119.077 76.0565 111.183 66.7246 102.654C66.4112 102.368 66.0978 102.082 65.7749 101.787C62.3205 98.4777 59.2309 94.4087 56.9238 90.2147C56.9238 89.9659 56.9238 89.7172 56.9238 89.4608C55.8043 90.2072 55.8043 90.2072 54.6621 90.9686C56.4444 85.6599 62.7593 81.667 67.4987 79.1425C70.7563 77.5316 74.1985 76.3309 77.6091 75.0895C77.918 74.9763 78.2268 74.8632 78.545 74.7466C79.4321 74.4235 80.3209 74.106 81.2108 73.7908C81.4815 73.6924 81.7522 73.594 82.031 73.4927C83.9335 72.8312 83.9335 72.8312 85.1953 73.2518Z" fill="#F6524B"/>
<path d="M134.953 147.512C135.047 147.714 135.142 147.916 135.239 148.125C136.949 151.776 138.68 155.407 140.584 158.962C142.74 162.994 144.703 167.117 146.639 171.26C146.813 171.627 146.987 171.994 147.166 172.372C147.336 172.734 147.505 173.097 147.68 173.47C147.909 173.957 147.909 173.957 148.143 174.454C148.975 176.536 149.19 178.606 148.5 180.754C148.163 181.486 148.163 181.486 147.769 182.191C147.644 182.42 147.518 182.649 147.388 182.885C145.78 185.203 143.154 185.931 140.605 186.823C139.877 187.083 139.161 187.363 138.444 187.651C135.332 188.862 132.493 189.779 129.275 188.458C125.978 186.565 123.764 182.915 121.558 179.919C120.368 178.317 119.153 176.734 117.943 175.147C117.691 174.816 117.439 174.484 117.179 174.143C116.809 173.658 116.809 173.658 116.432 173.164C116.192 172.846 115.951 172.529 115.704 172.202C115.212 171.567 114.709 170.941 114.195 170.323C113.952 170.028 113.708 169.733 113.458 169.429C113.237 169.17 113.017 168.91 112.79 168.643C112.223 167.674 112.28 167.203 112.524 166.124C115.844 158.025 121.991 151.709 130.053 148.266C131.752 147.589 133.125 147.439 134.953 147.512Z" fill="#DDDDE9"/>
<path d="M150.408 136.58C149.81 143.613 147.684 148.818 142.277 153.577C139.923 155.428 139.923 155.428 138.346 155.428C137.778 154.251 137.213 153.072 136.649 151.894C136.488 151.558 136.326 151.223 136.159 150.878C136.006 150.557 135.853 150.236 135.695 149.906C135.553 149.61 135.411 149.314 135.265 149.009C134.953 148.265 134.953 148.265 134.953 147.512C127.623 148.93 121.198 152.831 116.906 158.985C115.233 161.532 113.68 164.212 112.713 167.113C111.288 166.549 110.675 165.78 109.792 164.545C109.495 164.136 109.197 163.728 108.899 163.32C108.731 163.088 108.562 162.857 108.389 162.618C107.229 161.044 106.032 159.5 104.844 157.948C102.4 154.75 99.9975 151.524 97.6348 148.265C99.1593 146.741 101.545 146.262 103.548 145.533C103.805 145.439 104.063 145.345 104.328 145.249C116.426 140.87 129.253 138.573 142.021 137.145C142.297 137.114 142.574 137.084 142.858 137.052C145.381 136.775 147.866 136.549 150.408 136.58Z" fill="#C8C7D2"/>
<path d="M150.408 136.58C149.81 143.613 147.684 148.818 142.277 153.577C139.923 155.428 139.923 155.428 138.346 155.428C137.269 153.249 136.196 151.069 135.125 148.887C134.76 148.145 134.394 147.403 134.028 146.661C133.502 145.596 132.978 144.53 132.456 143.464C132.291 143.132 132.126 142.8 131.956 142.457C131.805 142.148 131.654 141.839 131.499 141.52C131.365 141.248 131.231 140.976 131.093 140.695C130.807 139.973 130.807 139.973 130.807 138.842C134.91 138.145 139.018 137.558 143.152 137.075C143.569 137.025 143.986 136.976 144.415 136.925C146.426 136.696 148.384 136.519 150.408 136.58Z" fill="#404049"/>
<path d="M229.945 57.0429C230.963 57.7214 231.657 58.2053 232.207 59.3046C232.356 60.6413 232.341 61.3477 231.63 62.5053C230.477 63.6771 229.275 64.165 227.759 64.7071C227.474 64.8132 227.19 64.9193 226.897 65.0286C226.297 65.2509 225.696 65.4703 225.094 65.6869C224.177 66.0176 223.266 66.3588 222.354 66.7016C221.768 66.9169 221.183 67.1317 220.597 67.3458C220.191 67.4977 220.191 67.4977 219.778 67.6527C218.093 68.2511 216.68 68.505 214.867 68.3515C213.573 67.6201 213.095 67.167 212.605 65.7599C212.605 64.2542 212.903 63.5779 213.736 62.3202C214.685 61.7226 215.693 61.3815 216.752 61.0244C217.049 60.9175 217.345 60.8106 217.651 60.7004C218.281 60.4736 218.912 60.2499 219.544 60.029C220.531 59.6782 221.507 59.3065 222.483 58.9276C223.117 58.6841 223.751 58.4406 224.385 58.1973C224.681 58.0817 224.977 57.9661 225.282 57.8469C226.883 57.2468 228.208 56.8389 229.945 57.0429Z" fill="#404049"/>
<path d="M216.752 28.0177C218.105 28.7697 218.544 29.2626 219.061 30.727C218.96 33.7897 216.734 36.1764 214.964 38.5518C214.338 39.3993 213.725 40.2506 213.121 41.1139C212.953 41.3528 212.785 41.5918 212.612 41.838C212.284 42.3072 211.956 42.7773 211.63 43.2485C210.881 44.3131 210.31 45.0032 209.213 45.7345C207.583 45.9458 206.839 45.9149 205.467 44.9806C204.67 43.8211 204.446 43.1339 204.485 41.7351C204.938 39.7373 206.343 38.1417 207.54 36.5227C207.806 36.1512 208.071 35.7797 208.345 35.397C209.126 34.3108 209.919 33.2355 210.721 32.1642C210.967 31.8337 211.214 31.5032 211.469 31.1627C214.102 27.6997 214.102 27.6997 216.752 28.0177Z" fill="#3F3F48"/>
<path d="M229.515 85.2865C229.918 85.3933 229.918 85.3933 230.328 85.5022C230.89 85.6523 231.451 85.8034 232.012 85.9556C232.868 86.1867 233.727 86.4099 234.585 86.6331C235.133 86.7806 235.682 86.9286 236.23 87.077C236.612 87.1749 236.612 87.1749 237.002 87.2747C238.549 87.7053 239.499 88.1945 240.5 89.461C240.874 91.0243 240.742 92.4213 239.958 93.8195C237.035 95.4593 233.144 93.8355 230.133 92.9947C229.284 92.7588 228.433 92.5327 227.582 92.3073C227.037 92.1581 226.491 92.0084 225.946 91.8581C225.694 91.7917 225.443 91.7253 225.183 91.6569C223.588 91.2021 222.461 90.6275 221.275 89.461C220.846 87.9836 220.744 87.1873 221.346 85.7621C223.469 83.1999 226.681 84.5263 229.515 85.2865Z" fill="#3F3F48"/>
</g>
<defs>
<clipPath id="clip0_788_291">
<rect width="193" height="193" fill="white" transform="translate(47.5 0.5)"/>
</clipPath>
</defs>
</svg>
