<svg width="289" height="220" viewBox="0 0 289 220" fill="none" xmlns="http://www.w3.org/2000/svg">
<path d="M224.644 55.1912V66.5234" stroke="#FF9900" stroke-width="1.25614" stroke-miterlimit="10" stroke-linecap="round"/>
<path d="M218.977 60.8577H230.309" stroke="#FF9900" stroke-width="1.25614" stroke-miterlimit="10" stroke-linecap="round"/>
<path d="M80.5269 1V11.0096" stroke="#FF9900" stroke-width="1.25614" stroke-miterlimit="10" stroke-linecap="round"/>
<path d="M75.5225 6.00439H85.532" stroke="#FF9900" stroke-width="1.25614" stroke-miterlimit="10" stroke-linecap="round"/>
<path d="M265.762 10.0931C265.762 11.4098 265.372 12.697 264.64 13.7918C263.909 14.8867 262.869 15.74 261.653 16.2439C260.436 16.7478 259.097 16.8796 257.806 16.6227C256.515 16.3658 255.328 15.7318 254.397 14.8007C253.466 13.8696 252.832 12.6834 252.575 11.3919C252.318 10.1005 252.45 8.76187 252.954 7.54536C253.458 6.32885 254.311 5.28909 255.406 4.55755C256.501 3.82601 257.788 3.43555 259.105 3.43555C260.871 3.43555 262.564 4.13697 263.812 5.3855C265.061 6.63403 265.762 8.32741 265.762 10.0931Z" stroke="#FF9900" stroke-width="1.25614" stroke-miterlimit="10"/>
<path d="M30.8132 150.996C30.8132 152.313 30.4227 153.6 29.6912 154.695C28.9596 155.789 27.9198 156.643 26.7033 157.147C25.4868 157.651 24.1482 157.782 22.8568 157.526C21.5653 157.269 20.3791 156.635 19.448 155.704C18.5169 154.772 17.8829 153.586 17.626 152.295C17.3691 151.003 17.5009 149.665 18.0048 148.448C18.5087 147.232 19.362 146.192 20.4569 145.46C21.5517 144.729 22.8389 144.338 24.1556 144.338C25.9213 144.338 27.6147 145.04 28.8632 146.288C30.1117 147.537 30.8132 149.23 30.8132 150.996Z" stroke="#FF9900" stroke-width="1.25614" stroke-miterlimit="10"/>
<path d="M287.75 143.35C287.75 143.987 287.561 144.61 287.207 145.14C286.853 145.67 286.349 146.083 285.76 146.327C285.171 146.571 284.523 146.635 283.898 146.511C283.273 146.386 282.699 146.079 282.248 145.628C281.797 145.178 281.49 144.603 281.366 143.978C281.241 143.353 281.305 142.705 281.549 142.116C281.793 141.527 282.206 141.024 282.736 140.669C283.266 140.315 283.889 140.126 284.526 140.126C285.381 140.126 286.201 140.466 286.806 141.07C287.411 141.675 287.75 142.495 287.75 143.35Z" stroke="#FF9900" stroke-width="1.25614" stroke-miterlimit="10"/>
<path d="M54.116 124.106C54.1158 124.744 53.9267 125.367 53.5725 125.897C53.2182 126.427 52.7148 126.84 52.1259 127.084C51.5369 127.327 50.8889 127.391 50.2637 127.267C49.6385 127.142 49.0643 126.836 48.6135 126.385C48.1628 125.934 47.8558 125.36 47.7314 124.735C47.607 124.109 47.6708 123.461 47.9147 122.872C48.1586 122.283 48.5716 121.78 49.1016 121.426C49.6315 121.072 50.2546 120.882 50.8921 120.882C51.7471 120.882 52.5671 121.222 53.1717 121.827C53.7763 122.431 54.116 123.251 54.116 124.106Z" stroke="#FF9900" stroke-width="1.25614" stroke-miterlimit="10"/>
<path d="M273.701 126.782C273.717 128 273.49 129.21 273.035 130.34C272.579 131.47 271.904 132.499 271.047 133.366C270.191 134.233 269.171 134.921 268.047 135.39C266.922 135.86 265.716 136.102 264.497 136.101H198.758C199.713 137.847 200.076 139.856 199.794 141.826C199.512 143.796 198.599 145.622 197.192 147.03C196.655 147.564 196.056 148.033 195.407 148.425H207.551C210.001 148.401 212.363 149.339 214.129 151.038C215.895 152.736 216.924 155.06 216.995 157.509C217.011 158.728 216.784 159.937 216.328 161.067C215.872 162.198 215.197 163.226 214.341 164.093C213.484 164.961 212.465 165.65 211.34 166.12C210.216 166.59 209.01 166.833 207.791 166.833H147.427C145.413 166.833 143.454 166.172 141.851 164.951C140.248 163.73 139.09 162.018 138.554 160.076C138.019 158.133 138.135 156.069 138.885 154.2C139.635 152.33 140.978 150.758 142.708 149.725H106.545C104.095 149.748 101.734 148.81 99.9678 147.111C98.202 145.413 97.1727 143.089 97.1011 140.64C97.0804 138.998 97.4997 137.379 98.3155 135.953C99.1313 134.527 100.314 133.346 101.741 132.531C100.245 131.756 98.991 130.584 98.116 129.144C97.2409 127.704 96.7784 126.051 96.7789 124.366V113.092C96.7774 111.653 97.1142 110.234 97.762 108.948C98.4098 107.663 99.3505 106.548 100.508 105.693H35.5282C33.0809 105.716 30.7219 104.78 28.9566 103.084C27.1913 101.389 26.1601 99.07 26.0839 96.6238C26.0657 95.4037 26.2904 94.1921 26.7449 93.0597C27.1993 91.9272 27.8745 90.8964 28.731 90.0273C29.5876 89.1582 30.6084 88.4681 31.7341 87.9972C32.8599 87.5263 34.068 87.284 35.2883 87.2844H39.8826C41.7679 87.2837 43.5757 86.5345 44.9088 85.2014C46.2419 83.8684 46.9911 82.0605 46.9917 80.1753V80.1702C46.9911 78.285 46.2419 76.4771 44.9088 75.1441C43.5757 73.811 41.7679 73.0618 39.8826 73.0611H9.30937C8.092 73.0753 6.88391 72.8478 5.75509 72.3918C4.62628 71.9358 3.59917 71.2603 2.73329 70.4045C1.8674 69.5486 1.17995 68.5295 0.710772 67.4061C0.24159 66.2827 0 65.0773 0 63.8599C0 62.6424 0.24159 61.4371 0.710772 60.3136C1.17995 59.1902 1.8674 58.1711 2.73329 57.3153C3.59917 56.4594 4.62628 55.7839 5.75509 55.3279C6.88391 54.8719 8.092 54.6444 9.30937 54.6586H53.5105C54.7191 54.659 55.9159 54.4212 57.0327 53.959C58.1494 53.4968 59.1642 52.8192 60.019 51.9648C60.8739 51.1104 61.5521 50.096 62.0149 48.9795C62.4777 47.863 62.7161 46.6663 62.7164 45.4577C62.7168 44.2491 62.479 43.0523 62.0168 41.9355C61.5546 40.8188 60.877 39.804 60.0226 38.9492C59.1682 38.0943 58.1538 37.4161 57.0373 36.9533C55.9208 36.4905 54.7241 36.2521 53.5155 36.2518H40.8913C38.4383 36.2739 36.0746 35.3319 34.3092 33.6286C32.5438 31.9254 31.5178 29.597 31.452 27.1447C31.4391 25.928 31.6677 24.7208 32.1246 23.5929C32.5814 22.4651 33.2574 21.4391 34.1134 20.5743C34.9695 19.7095 35.9885 19.0231 37.1116 18.5548C38.2347 18.0865 39.4396 17.8457 40.6564 17.8461H124.614C127.007 17.8229 129.317 18.7167 131.07 20.3439C132.824 21.971 133.888 24.208 134.044 26.5952C134.125 28.2266 133.771 29.8502 133.019 31.3H241.294C242.512 31.2858 243.72 31.5133 244.849 31.9693C245.977 32.4254 247.004 33.1009 247.87 33.9567C248.736 34.8125 249.424 35.8316 249.893 36.9551C250.362 38.0785 250.604 39.2838 250.604 40.5013C250.604 41.7187 250.362 42.9241 249.893 44.0475C249.424 45.1709 248.736 46.1901 247.87 47.0459C247.004 47.9017 245.977 48.5772 244.849 49.0332C243.72 49.4893 242.512 49.7167 241.294 49.7025H201.188C201.187 51.6833 200.399 53.5828 198.999 54.9835C197.598 56.3842 195.699 57.1716 193.718 57.1728H148.512C149.852 58.4375 150.782 60.0755 151.18 61.8746C151.578 63.6737 151.427 65.551 150.746 67.2633C150.065 68.9756 148.886 70.4439 147.361 71.4779C145.836 72.512 144.035 73.0642 142.192 73.063H129.554C129.056 73.0625 128.564 73.16 128.104 73.35C127.644 73.5399 127.226 73.8186 126.874 74.1701C126.522 74.5216 126.243 74.939 126.053 75.3984C125.862 75.8579 125.764 76.3503 125.764 76.8477V76.8528C125.764 77.3502 125.862 77.8427 126.053 78.3021C126.243 78.7615 126.522 79.1789 126.874 79.5304C127.226 79.8819 127.644 80.1606 128.104 80.3505C128.564 80.5405 129.056 80.638 129.554 80.6375H232.16C233.377 80.6233 234.585 80.8508 235.714 81.3068C236.843 81.7628 237.87 82.4383 238.736 83.2942C239.602 84.15 240.289 85.1691 240.758 86.2925C241.227 87.416 241.469 88.6213 241.469 89.8388C241.469 91.0562 241.227 92.2616 240.758 93.385C240.289 94.5084 239.602 95.5275 238.736 96.3834C237.87 97.2392 236.843 97.9147 235.714 98.3707C234.585 98.8267 233.377 99.0542 232.16 99.04H205.622C206.968 99.8633 208.08 101.018 208.851 102.394C209.622 103.771 210.027 105.322 210.027 106.899V109.524C210.028 111.212 209.564 112.868 208.685 114.31C207.807 115.752 206.548 116.924 205.048 117.698H264.258C266.708 117.675 269.069 118.613 270.835 120.311C272.601 122.01 273.63 124.333 273.702 126.783" fill="#FFEFD9"/>
<path d="M144.019 219.66C189.082 219.66 225.613 217.164 225.613 214.085C225.613 211.007 189.082 208.511 144.019 208.511C98.9554 208.511 62.4243 211.007 62.4243 214.085C62.4243 217.164 98.9554 219.66 144.019 219.66Z" fill="#666666"/>
<path d="M119.091 128.545C120.375 128.681 121.526 127.75 121.661 126.466C121.796 125.182 120.865 124.031 119.582 123.896C118.298 123.76 117.147 124.691 117.012 125.975C116.876 127.259 117.807 128.41 119.091 128.545Z" fill="#FCD294"/>
<g clip-path="url(#clip0_788_290)">
<path d="M136.796 3.63591C138.372 5.13087 138.911 6.19752 138.974 8.37111C138.974 9.1747 138.967 9.97831 138.956 10.7818C138.954 11.2059 138.953 11.6299 138.951 12.0668C138.945 13.4188 138.931 14.7706 138.916 16.1225C138.911 17.0401 138.905 17.9577 138.901 18.8753C138.888 21.1226 138.869 23.3698 138.846 25.617C139.059 25.6156 139.273 25.6142 139.493 25.6128C144.693 25.5795 149.894 25.5546 155.095 25.5389C157.61 25.531 160.125 25.5203 162.64 25.5032C165.067 25.4869 167.494 25.4778 169.921 25.4739C170.847 25.4711 171.773 25.4657 172.699 25.4576C173.996 25.4466 175.293 25.4451 176.59 25.4458C176.973 25.4404 177.356 25.435 177.751 25.4294C179.918 25.442 181.277 25.6016 182.949 27.1248C184.529 28.8713 184.246 31.0475 184.243 33.2721C184.247 33.7025 184.251 34.133 184.255 34.5765C184.266 35.9981 184.269 37.4196 184.273 38.8413C184.279 39.8274 184.286 40.8135 184.293 41.7996C184.31 44.1292 184.321 46.4587 184.329 48.7882C184.34 51.4411 184.356 54.0938 184.373 56.7466C184.408 62.2021 184.435 67.6576 184.457 73.1131C184.661 72.9798 184.864 72.8465 185.074 72.7091C185.343 72.5363 185.612 72.3635 185.889 72.1855C186.155 72.0133 186.421 71.8412 186.695 71.6638C188.358 70.7325 190.169 70.9508 191.996 71.2283C193.721 72.0452 194.613 72.8904 195.389 74.6209C195.525 75.9826 195.495 77.33 195.459 78.6967C195.454 79.0658 195.449 79.4348 195.444 79.815C195.431 80.7225 195.412 81.6296 195.389 82.5369C195.766 82.5336 196.144 82.5302 196.533 82.5268C200.093 82.4962 203.654 82.4736 207.214 82.4588C209.045 82.4509 210.875 82.4403 212.706 82.4232C214.473 82.4068 216.24 82.3978 218.007 82.3939C218.681 82.3911 219.354 82.3856 220.028 82.3775C220.973 82.3665 221.917 82.365 222.862 82.3657C223.14 82.3603 223.417 82.3549 223.703 82.3493C225.629 82.3647 226.723 82.7997 228.183 84.0447C229.377 85.5336 229.459 86.719 229.467 88.599C229.471 88.991 229.471 88.991 229.475 89.391C229.481 90.2511 229.48 91.1109 229.478 91.971C229.48 92.5714 229.482 93.1718 229.484 93.7722C229.487 95.0292 229.486 96.2861 229.482 97.5432C229.478 99.1509 229.486 100.758 229.497 102.366C229.504 103.605 229.504 104.845 229.501 106.085C229.501 106.677 229.504 107.27 229.508 107.862C229.514 108.692 229.51 109.522 229.503 110.352C229.503 111.059 229.503 111.059 229.503 111.78C229.224 113.69 228.436 114.813 226.958 116.031C225.597 116.598 224.354 116.612 222.905 116.591C222.607 116.591 222.309 116.591 222.002 116.592C221.021 116.591 220.04 116.582 219.059 116.573C218.377 116.571 217.695 116.569 217.013 116.568C215.221 116.564 213.43 116.553 211.638 116.54C209.809 116.529 207.98 116.524 206.15 116.518C202.563 116.506 198.976 116.486 195.389 116.463C195.396 116.691 195.404 116.919 195.412 117.153C195.444 118.195 195.464 119.237 195.483 120.279C195.495 120.638 195.508 120.997 195.521 121.366C195.553 123.639 195.396 124.911 193.881 126.64C192.53 127.684 191.5 127.942 189.805 127.96C189.253 127.977 189.253 127.977 188.69 127.995C187.474 127.772 186.906 127.475 185.889 126.815C185.485 126.556 185.485 126.556 185.074 126.291C184.87 126.157 184.667 126.024 184.457 125.887C184.456 126.224 184.456 126.224 184.455 126.569C184.441 132.053 184.419 137.537 184.388 143.02C184.373 145.672 184.36 148.324 184.355 150.976C184.349 153.535 184.336 156.094 184.318 158.653C184.313 159.63 184.31 160.607 184.309 161.583C184.308 162.95 184.298 164.317 184.286 165.685C184.288 166.089 184.29 166.493 184.292 166.91C184.261 169.117 184.136 170.554 182.572 172.252C180.846 173.792 178.82 173.534 176.632 173.511C176.224 173.511 175.816 173.511 175.395 173.512C174.047 173.511 172.699 173.502 171.35 173.493C170.415 173.491 169.48 173.489 168.544 173.488C166.083 173.484 163.623 173.473 161.162 173.46C158.65 173.448 156.139 173.444 153.627 173.438C148.7 173.426 143.773 173.407 138.846 173.383C138.849 173.618 138.852 173.854 138.856 174.097C138.889 176.555 138.912 179.014 138.928 181.472C138.936 182.389 138.946 183.306 138.959 184.223C138.978 185.542 138.986 186.861 138.993 188.181C139.001 188.59 139.008 188.999 139.016 189.42C139.017 191.668 138.944 193.146 137.338 194.869C135.219 196.35 133.443 196.306 130.93 196C128.644 195.495 126.436 194.701 124.223 193.948C123.558 193.727 122.893 193.506 122.227 193.286C120.431 192.691 118.637 192.088 116.844 191.482C114.963 190.849 113.08 190.222 111.197 189.595C108.037 188.541 104.88 187.482 101.723 186.42C98.0766 185.192 94.4276 183.972 90.7771 182.756C86.8843 181.458 82.9931 180.156 79.1025 178.852C77.9835 178.478 76.8641 178.104 75.7447 177.731C73.9856 177.144 72.2277 176.553 70.4706 175.96C69.8264 175.743 69.1818 175.527 68.5368 175.312C67.6553 175.019 66.7752 174.721 65.8955 174.423C65.6411 174.339 65.3868 174.255 65.1248 174.169C62.6753 173.328 60.8458 172.363 59.6854 169.99C59.5433 168.855 59.5433 168.855 59.5421 167.563C59.5389 167.069 59.5357 166.576 59.5324 166.067C59.5346 165.52 59.5369 164.973 59.5393 164.426C59.5377 163.845 59.5357 163.263 59.5332 162.682C59.5277 161.083 59.5293 159.484 59.5321 157.886C59.5339 156.162 59.5292 154.438 59.5253 152.714C59.5188 149.336 59.5185 145.958 59.5205 142.581C59.522 139.836 59.5215 137.091 59.5194 134.347C59.5192 133.956 59.5189 133.566 59.5186 133.164C59.518 132.371 59.5174 131.578 59.5169 130.785C59.5117 123.345 59.5137 115.906 59.5181 108.466C59.5218 101.657 59.5169 94.8483 59.5079 88.0393C59.4987 81.0509 59.4951 74.0625 59.4976 67.0741C59.4989 63.1494 59.4981 59.2248 59.4915 55.3001C59.4859 51.9592 59.4857 48.6183 59.4922 45.2773C59.4955 43.5723 59.4962 41.8673 59.4905 40.1622C59.4853 38.6018 59.487 37.0415 59.4943 35.481C59.4958 34.9161 59.4946 34.3512 59.4907 33.7863C59.4858 33.019 59.491 32.2517 59.4968 31.4843C59.4968 31.058 59.4968 30.6316 59.4969 30.1923C59.7686 28.4879 60.4947 27.257 61.8994 26.2332C62.136 26.1288 62.3725 26.0243 62.6162 25.9167C62.8795 25.7989 63.1427 25.6811 63.414 25.5597C64.6226 25.0737 65.838 24.6242 67.0741 24.2144C67.3459 24.1223 67.6177 24.0302 67.8978 23.9353C68.7992 23.6305 69.7017 23.3289 70.6042 23.0273C71.2547 22.8081 71.9051 22.5888 72.5555 22.3693C74.3158 21.776 76.077 21.1856 77.8385 20.5962C78.9407 20.2273 80.0427 19.8579 81.1446 19.4884C84.5973 18.3306 88.0506 17.1747 91.5047 16.0214C95.4832 14.6929 99.4596 13.3586 103.434 12.0192C106.514 10.9819 109.594 9.9499 112.677 8.92184C114.515 8.30866 116.352 7.69333 118.187 7.07252C119.914 6.48854 121.643 5.91115 123.374 5.33861C124.006 5.12824 124.638 4.91557 125.268 4.70036C133.28 1.97031 133.28 1.97031 136.796 3.63591Z" fill="url(#paint0_linear_788_290)"/>
<path d="M138.846 25.6172C180.688 25.6172 180.688 25.6172 182.949 27.125C184.529 28.8715 184.246 31.0477 184.243 33.2723C184.249 33.918 184.249 33.918 184.255 34.5767C184.266 35.9983 184.27 37.4198 184.273 38.8415C184.279 39.8276 184.286 40.8137 184.293 41.7998C184.31 44.1294 184.321 46.4589 184.329 48.7884C184.34 51.4413 184.356 54.094 184.373 56.7468C184.408 62.2023 184.435 67.6578 184.457 73.1133C184.661 72.98 184.864 72.8467 185.074 72.7093C185.343 72.5365 185.612 72.3637 185.89 72.1857C186.155 72.0135 186.421 71.8414 186.695 71.664C188.358 70.7327 190.169 70.951 191.996 71.2285C193.721 72.0454 194.613 72.8906 195.389 74.6211C195.525 75.9828 195.495 77.3302 195.459 78.6969C195.454 79.066 195.449 79.435 195.444 79.8152C195.431 80.7227 195.412 81.6298 195.389 82.5371C195.766 82.5338 196.144 82.5304 196.533 82.527C200.093 82.4964 203.654 82.4738 207.215 82.459C209.045 82.4511 210.876 82.4405 212.706 82.4234C214.473 82.407 216.24 82.398 218.007 82.3941C218.681 82.3913 219.355 82.3858 220.028 82.3777C220.973 82.3667 221.917 82.3652 222.862 82.3659C223.14 82.3605 223.417 82.3551 223.703 82.3495C225.629 82.3649 226.723 82.7999 228.184 84.0449C229.377 85.5337 229.459 86.7192 229.467 88.5992C229.469 88.8605 229.472 89.1219 229.475 89.3912C229.481 90.2513 229.48 91.1111 229.478 91.9712C229.48 92.5716 229.482 93.172 229.484 93.7724C229.487 95.0294 229.486 96.2863 229.483 97.5434C229.478 99.1511 229.486 100.758 229.497 102.366C229.504 103.606 229.504 104.845 229.502 106.085C229.501 106.677 229.504 107.27 229.508 107.862C229.514 108.693 229.51 109.522 229.504 110.352C229.504 110.823 229.503 111.295 229.503 111.781C229.224 113.69 228.436 114.814 226.959 116.031C225.597 116.598 224.354 116.612 222.905 116.591C222.607 116.591 222.309 116.592 222.002 116.592C221.021 116.591 220.04 116.582 219.059 116.573C218.377 116.571 217.695 116.57 217.013 116.568C215.221 116.564 213.43 116.553 211.638 116.541C209.809 116.529 207.98 116.524 206.15 116.518C202.563 116.506 198.976 116.487 195.389 116.463C195.397 116.691 195.404 116.919 195.413 117.154C195.444 118.196 195.464 119.237 195.483 120.28C195.496 120.638 195.508 120.997 195.521 121.366C195.553 123.639 195.396 124.911 193.881 126.641C192.53 127.684 191.5 127.942 189.805 127.96C189.253 127.977 189.253 127.977 188.69 127.995C187.474 127.772 186.907 127.475 185.889 126.815C185.62 126.642 185.351 126.469 185.074 126.291C184.87 126.158 184.667 126.024 184.457 125.887C184.456 126.112 184.456 126.337 184.455 126.569C184.441 132.053 184.419 137.537 184.388 143.021C184.373 145.673 184.361 148.325 184.355 150.977C184.349 153.536 184.336 156.095 184.318 158.654C184.313 159.63 184.31 160.607 184.309 161.583C184.308 162.951 184.298 164.318 184.286 165.685C184.289 166.291 184.289 166.291 184.292 166.91C184.261 169.118 184.136 170.555 182.572 172.252C170.07 179.754 153.426 173.383 138.846 173.383C138.846 124.62 138.846 75.8575 138.846 25.6172Z" fill="#FFF1B7"/>
<path d="M191.996 71.2285C193.72 72.0454 194.612 72.8906 195.388 74.6211C195.525 75.9827 195.495 77.3302 195.459 78.6969C195.451 79.2505 195.451 79.2505 195.444 79.8152C195.43 80.7227 195.412 81.6298 195.388 82.5371C195.955 82.5321 195.955 82.5321 196.532 82.5269C200.093 82.4963 203.654 82.4738 207.214 82.459C209.045 82.4511 210.875 82.4404 212.706 82.4233C214.473 82.4069 216.24 82.3979 218.007 82.394C218.681 82.3912 219.354 82.3858 220.028 82.3777C220.973 82.3667 221.917 82.3652 222.862 82.3659C223.139 82.3605 223.417 82.3551 223.703 82.3495C225.628 82.3648 226.722 82.7999 228.183 84.0449C229.377 85.5337 229.458 86.7191 229.467 88.5992C229.469 88.8605 229.472 89.1219 229.474 89.3912C229.481 90.2513 229.48 91.1111 229.478 91.9712C229.479 92.5716 229.481 93.172 229.484 93.7724C229.487 95.0294 229.486 96.2863 229.482 97.5433C229.478 99.151 229.486 100.758 229.497 102.366C229.504 103.606 229.503 104.845 229.501 106.085C229.501 106.677 229.504 107.27 229.508 107.862C229.514 108.692 229.51 109.522 229.503 110.352C229.503 110.823 229.503 111.295 229.503 111.781C229.223 113.69 228.436 114.814 226.958 116.031C225.597 116.598 224.354 116.612 222.905 116.591C222.607 116.591 222.309 116.592 222.002 116.592C221.02 116.591 220.04 116.582 219.058 116.573C218.377 116.571 217.695 116.57 217.013 116.568C215.221 116.564 213.43 116.553 211.638 116.541C209.809 116.529 207.979 116.524 206.15 116.518C202.563 116.506 198.976 116.487 195.388 116.463C195.4 116.805 195.4 116.805 195.412 117.154C195.444 118.196 195.463 119.237 195.483 120.28C195.495 120.638 195.508 120.997 195.521 121.366C195.553 123.639 195.396 124.912 193.881 126.641C192.554 127.658 191.514 127.958 189.852 128.007C189.493 128.027 189.134 128.048 188.764 128.069C187.157 127.699 186.228 126.992 184.912 126.019C183.417 124.923 181.884 123.889 180.346 122.855C179.7 122.42 179.055 121.984 178.41 121.549C178.075 121.323 177.739 121.097 177.394 120.864C176.334 120.15 175.276 119.434 174.217 118.719C170.481 116.196 166.733 113.695 162.96 111.228C161.876 110.516 160.792 109.804 159.708 109.092C159.013 108.637 158.316 108.184 157.617 107.733C156.642 107.103 155.672 106.467 154.703 105.829C154.415 105.646 154.128 105.464 153.833 105.275C152.01 104.064 151.058 103.014 150.154 101.008C149.787 99.0946 150.129 97.7089 151.14 96.0287C152.13 94.7469 153.452 93.9476 154.798 93.0756C155.113 92.8652 155.428 92.6547 155.753 92.4379C156.789 91.7474 157.83 91.065 158.871 90.3824C159.595 89.9019 160.319 89.4208 161.042 88.9392C162.55 87.9367 164.06 86.9373 165.571 85.9405C168.901 83.744 172.217 81.5272 175.535 79.3128C176.544 78.6401 177.553 77.9687 178.563 77.2977C178.879 77.0881 179.194 76.8785 179.519 76.6625C180.123 76.2611 180.727 75.8601 181.332 75.4597C182.879 74.4311 184.391 73.3706 185.887 72.2666C187.903 70.8431 189.597 70.7924 191.996 71.2285Z" fill="url(#paint1_linear_788_290)"/>
<path d="M113.284 94.4347C114.929 95.3421 115.522 96.2565 116.229 97.9922C116.505 99.891 116.156 101.312 115.246 102.968C114.004 104.572 112.324 105.055 110.386 105.366C108.618 105.082 107.385 104.463 106.051 103.27C105.001 101.498 104.664 100.037 104.92 97.9922C105.578 96.1329 106.599 94.9642 108.368 94.0946C110.138 93.4638 111.604 93.7164 113.284 94.4347Z" fill="#FEF0B4"/>
</g>
<defs>
<linearGradient id="paint0_linear_788_290" x1="144.499" y1="2.49536" x2="144.499" y2="196.172" gradientUnits="userSpaceOnUse">
<stop stop-color="#FF9C46"/>
<stop offset="1" stop-color="#C07500"/>
</linearGradient>
<linearGradient id="paint1_linear_788_290" x1="189.761" y1="70.9873" x2="189.761" y2="128.069" gradientUnits="userSpaceOnUse">
<stop stop-color="#FF9C46"/>
<stop offset="1" stop-color="#C07500"/>
</linearGradient>
<clipPath id="clip0_788_290">
<rect width="193" height="193" fill="white" transform="translate(48 3)"/>
</clipPath>
</defs>
</svg>
