<svg width="241" height="184" viewBox="0 0 241 184" fill="none" xmlns="http://www.w3.org/2000/svg">
<path d="M187.13 46.1418V55.5817" stroke="#FF9900" stroke-width="1.04638" stroke-miterlimit="10" stroke-linecap="round"/>
<path d="M182.41 50.8621H191.85" stroke="#FF9900" stroke-width="1.04638" stroke-miterlimit="10" stroke-linecap="round"/>
<path d="M67.0801 1V9.33806" stroke="#FF9900" stroke-width="1.04638" stroke-miterlimit="10" stroke-linecap="round"/>
<path d="M62.9111 5.1687H71.2492" stroke="#FF9900" stroke-width="1.04638" stroke-miterlimit="10" stroke-linecap="round"/>
<path d="M221.383 8.57485C221.383 9.67171 221.057 10.7439 220.448 11.6559C219.839 12.5679 218.972 13.2788 217.959 13.6985C216.946 14.1183 215.831 14.2281 214.755 14.0141C213.679 13.8001 212.691 13.2719 211.915 12.4963C211.14 11.7207 210.612 10.7326 210.398 9.65678C210.184 8.581 210.293 7.46593 210.713 6.45257C211.133 5.4392 211.844 4.57307 212.756 3.96369C213.668 3.35431 214.74 3.02905 215.837 3.02905C217.308 3.02905 218.718 3.61334 219.758 4.65338C220.798 5.69342 221.383 7.10401 221.383 8.57485Z" stroke="#FF9900" stroke-width="1.04638" stroke-miterlimit="10"/>
<path d="M25.6678 125.948C25.6678 127.045 25.3425 128.117 24.7331 129.029C24.1238 129.941 23.2576 130.652 22.2443 131.072C21.2309 131.491 20.1158 131.601 19.04 131.387C17.9643 131.173 16.9761 130.645 16.2005 129.869C15.4249 129.094 14.8967 128.106 14.6827 127.03C14.4687 125.954 14.5786 124.839 14.9983 123.826C15.4181 122.812 16.1289 121.946 17.0409 121.337C17.9529 120.727 19.0251 120.402 20.122 120.402C21.5928 120.402 23.0034 120.986 24.0434 122.026C25.0835 123.066 25.6678 124.477 25.6678 125.948Z" stroke="#FF9900" stroke-width="1.04638" stroke-miterlimit="10"/>
<path d="M239.698 119.579C239.698 120.11 239.54 120.629 239.245 121.07C238.95 121.512 238.531 121.856 238.04 122.059C237.55 122.262 237.01 122.315 236.489 122.211C235.968 122.108 235.49 121.852 235.115 121.477C234.739 121.101 234.483 120.623 234.38 120.102C234.276 119.581 234.329 119.041 234.532 118.551C234.736 118.06 235.08 117.641 235.521 117.346C235.963 117.051 236.482 116.893 237.013 116.893C237.725 116.893 238.408 117.176 238.912 117.68C239.415 118.183 239.698 118.866 239.698 119.579Z" stroke="#FF9900" stroke-width="1.04638" stroke-miterlimit="10"/>
<path d="M45.079 103.549C45.0789 104.08 44.9213 104.599 44.6263 105.04C44.3312 105.482 43.9119 105.826 43.4213 106.029C42.9307 106.232 42.3908 106.285 41.87 106.181C41.3493 106.078 40.8709 105.822 40.4954 105.447C40.1199 105.071 39.8642 104.593 39.7606 104.072C39.657 103.551 39.7101 103.011 39.9133 102.521C40.1164 102.03 40.4605 101.611 40.902 101.316C41.3434 101.021 41.8625 100.863 42.3935 100.863C43.1057 100.863 43.7888 101.146 44.2924 101.65C44.7961 102.153 45.079 102.836 45.079 103.549Z" stroke="#FF9900" stroke-width="1.04638" stroke-miterlimit="10"/>
<path d="M227.996 105.778C228.009 106.793 227.82 107.8 227.44 108.741C227.061 109.683 226.498 110.54 225.785 111.262C225.071 111.984 224.222 112.557 223.285 112.949C222.349 113.34 221.343 113.541 220.328 113.541H165.567C166.362 114.995 166.665 116.668 166.43 118.309C166.195 119.95 165.435 121.471 164.263 122.644C163.816 123.089 163.316 123.48 162.776 123.806H172.892C174.933 123.786 176.9 124.568 178.371 125.983C179.842 127.398 180.7 129.333 180.759 131.373C180.772 132.389 180.583 133.396 180.203 134.338C179.824 135.279 179.261 136.136 178.548 136.858C177.834 137.581 176.985 138.155 176.048 138.546C175.112 138.938 174.107 139.14 173.092 139.141H122.808C121.13 139.14 119.498 138.59 118.163 137.573C116.828 136.556 115.863 135.129 115.417 133.511C114.971 131.894 115.068 130.174 115.693 128.617C116.318 127.059 117.436 125.75 118.877 124.889H88.7533C86.7123 124.909 84.7451 124.127 83.2741 122.712C81.8031 121.297 80.9457 119.362 80.8861 117.322C80.8688 115.953 81.2181 114.605 81.8977 113.417C82.5773 112.23 83.5625 111.245 84.7509 110.567C83.5049 109.921 82.4604 108.945 81.7315 107.745C81.0026 106.546 80.6173 105.169 80.6177 103.765V94.3741C80.6165 93.1752 80.897 91.9927 81.4366 90.9221C81.9762 89.8515 82.7599 88.9226 83.7244 88.2104H29.5953C27.5567 88.2295 25.5916 87.4494 24.1211 86.0373C22.6506 84.6252 21.7916 82.6933 21.7281 80.6556C21.713 79.6392 21.9002 78.63 22.2787 77.6866C22.6573 76.7433 23.2197 75.8846 23.9332 75.1606C24.6467 74.4367 25.4971 73.8618 26.4348 73.4695C27.3726 73.0773 28.379 72.8755 29.3954 72.8758H33.2226C34.793 72.8752 36.299 72.2511 37.4094 71.1406C38.5199 70.0302 39.144 68.5242 39.1445 66.9538V66.9496C39.144 65.3792 38.5199 63.8732 37.4094 62.7628C36.299 61.6523 34.793 61.0282 33.2226 61.0276H7.75479C6.74071 61.0395 5.73436 60.85 4.79405 60.4701C3.85373 60.0902 2.99814 59.5275 2.27685 58.8146C1.55556 58.1017 0.982913 57.2528 0.59208 56.317C0.201246 55.3811 0 54.3771 0 53.3629C0 52.3488 0.201246 51.3447 0.59208 50.4089C0.982913 49.4731 1.55556 48.6241 2.27685 47.9112C2.99814 47.1983 3.85373 46.6356 4.79405 46.2557C5.73436 45.8759 6.74071 45.6864 7.75479 45.6982H44.5747C45.5815 45.6985 46.5785 45.5005 47.5087 45.1154C48.439 44.7304 49.2843 44.1659 49.9964 43.4542C50.7085 42.7425 51.2734 41.8975 51.659 40.9675C52.0445 40.0374 52.2431 39.0405 52.2434 38.0338C52.2436 37.027 52.0456 36.03 51.6606 35.0997C51.2755 34.1695 50.7111 33.3242 49.9993 32.6121C49.2876 31.9 48.4426 31.335 47.5126 30.9495C46.5826 30.564 45.5857 30.3654 44.5789 30.3651H34.0628C32.0194 30.3835 30.0505 29.5989 28.5799 28.18C27.1093 26.7612 26.2546 24.8216 26.1998 22.7789C26.1891 21.7653 26.3795 20.7597 26.7601 19.8202C27.1406 18.8807 27.7037 18.0261 28.4168 17.3057C29.1299 16.5853 29.9788 16.0135 30.9143 15.6234C31.8499 15.2333 32.8535 15.0327 33.8671 15.0331H103.805C105.798 15.0137 107.722 15.7583 109.183 17.1137C110.644 18.4691 111.53 20.3325 111.66 22.3211C111.727 23.6801 111.432 25.0326 110.806 26.2403H201C202.014 26.2285 203.021 26.418 203.961 26.7978C204.901 27.1777 205.757 27.7404 206.478 28.4533C207.199 29.1662 207.772 30.0152 208.163 30.951C208.554 31.8868 208.755 32.8909 208.755 33.905C208.755 34.9192 208.554 35.9232 208.163 36.8591C207.772 37.7949 207.199 38.6438 206.478 39.3567C205.757 40.0696 204.901 40.6323 203.961 41.0122C203.021 41.3921 202.014 41.5816 201 41.5697H167.591C167.59 43.2198 166.934 44.802 165.768 45.9688C164.601 47.1356 163.019 47.7916 161.369 47.7925H123.712C124.828 48.846 125.602 50.2105 125.934 51.7092C126.266 53.2079 126.14 54.7717 125.573 56.198C125.006 57.6243 124.023 58.8474 122.753 59.7088C121.482 60.5702 119.982 61.0302 118.447 61.0292H107.919C107.505 61.0288 107.095 61.11 106.712 61.2683C106.329 61.4265 105.981 61.6587 105.688 61.9515C105.394 62.2442 105.162 62.5919 105.003 62.9746C104.844 63.3574 104.762 63.7676 104.762 64.1819V64.1861C104.762 64.6005 104.844 65.0107 105.003 65.3934C105.162 65.7761 105.394 66.1238 105.688 66.4166C105.981 66.7094 106.329 66.9416 106.712 67.0998C107.095 67.258 107.505 67.3393 107.919 67.3389H193.391C194.405 67.327 195.411 67.5165 196.352 67.8964C197.292 68.2763 198.148 68.839 198.869 69.5519C199.59 70.2648 200.163 71.1137 200.554 72.0495C200.945 72.9854 201.146 73.9894 201.146 75.0036C201.146 76.0177 200.945 77.0218 200.554 77.9576C200.163 78.8934 199.59 79.7424 198.869 80.4553C198.148 81.1682 197.292 81.7309 196.352 82.1108C195.411 82.4906 194.405 82.6801 193.391 82.6683H171.285C172.406 83.3541 173.332 84.3163 173.975 85.4625C174.617 86.6088 174.954 87.9009 174.954 89.215V91.4014C174.955 92.8078 174.568 94.1873 173.837 95.3885C173.105 96.5897 172.057 97.5661 170.807 98.2107H220.129C222.17 98.191 224.137 98.9726 225.608 100.388C227.079 101.802 227.937 103.738 227.996 105.778" fill="#FFEFD9"/>
<path d="M119.969 183.146C157.507 183.146 187.938 181.067 187.938 178.502C187.938 175.938 157.507 173.858 119.969 173.858C82.4308 173.858 52 175.938 52 178.502C52 181.067 82.4308 183.146 119.969 183.146Z" fill="#666666"/>
<path d="M99.2036 107.246C100.273 107.359 101.232 106.583 101.344 105.514C101.457 104.444 100.682 103.486 99.6123 103.373C98.5428 103.26 97.5843 104.036 97.4714 105.105C97.3586 106.175 98.1341 107.133 99.2036 107.246Z" fill="#FCD294"/>
<g clip-path="url(#clip0_789_311)">
<path d="M107.83 27.7656C104.918 30.251 103.001 33.4465 101.095 36.7276C100.891 37.0744 100.688 37.4212 100.484 37.7679C100.051 38.504 99.6196 39.2406 99.1883 39.9775C98.0377 41.9417 96.8755 43.8989 95.7137 45.8565C95.5958 46.0553 95.4779 46.2541 95.3564 46.459C93.5602 49.488 91.7383 52.5004 89.9036 55.5062C88.4005 57.9708 86.9424 60.4561 85.5209 62.9684C84.437 64.8816 83.3179 66.7708 82.1814 68.6532C81.2484 70.1992 80.3219 71.7487 79.4018 73.3023C79.2867 73.4966 79.1717 73.6908 79.0531 73.891C78.8149 74.2932 78.5768 74.6954 78.3386 75.0976C76.3824 78.401 74.4095 81.693 72.409 84.9697C70.7989 87.6073 69.2302 90.2633 67.7084 92.9528C66.6245 94.866 65.5054 96.7552 64.3689 98.6376C63.4359 100.184 62.5094 101.733 61.5893 103.287C61.4742 103.481 61.3592 103.675 61.2406 103.875C61.0024 104.278 60.7643 104.68 60.5261 105.082C58.5699 108.385 56.597 111.677 54.5965 114.954C52.9892 117.587 51.4195 120.237 49.905 122.924C49.0324 124.469 48.1284 125.991 47.2015 127.504C43.9005 132.901 42.066 137.992 43.2039 144.399C44.5145 148.948 47.2917 152.872 51.3123 155.422C54.0526 156.881 56.6236 157.87 59.7476 157.873C59.9567 157.874 60.1658 157.875 60.3812 157.876C61.0783 157.879 61.7753 157.878 62.4723 157.876C62.9786 157.877 63.4848 157.879 63.9911 157.88C65.3796 157.884 66.7681 157.884 68.1566 157.883C69.6552 157.883 71.1538 157.886 72.6524 157.889C75.5875 157.894 78.5226 157.896 81.4577 157.896C83.8439 157.896 86.2302 157.898 88.6165 157.899C95.3842 157.905 102.152 157.907 108.92 157.907C109.284 157.907 109.649 157.907 110.025 157.907C110.39 157.907 110.755 157.907 111.132 157.907C117.049 157.907 122.967 157.912 128.885 157.921C134.964 157.929 141.042 157.933 147.121 157.933C150.532 157.933 153.944 157.934 157.356 157.941C160.261 157.946 163.166 157.947 166.071 157.943C167.552 157.941 169.034 157.941 170.515 157.946C171.873 157.951 173.231 157.95 174.589 157.945C175.078 157.944 175.568 157.945 176.057 157.949C181.415 157.982 185.923 156.604 189.869 152.851C193.716 148.906 195.133 144.48 195.107 139.08C194.984 133.023 191.246 128.046 188.213 123.029C186.925 120.893 185.663 118.741 184.405 116.587C182.877 113.973 181.339 111.365 179.777 108.771C178.403 106.489 177.043 104.2 175.684 101.91C175.504 101.607 175.504 101.607 175.321 101.298C174.705 100.259 174.089 99.2208 173.473 98.1824C172.404 96.3805 171.334 94.5791 170.264 92.7777C169.677 91.7893 169.091 90.8009 168.504 89.8125C168.269 89.4167 168.034 89.0209 167.799 88.625C167.624 88.3311 167.624 88.3311 167.446 88.0313C155.107 67.25 155.107 67.25 154.755 66.6563C154.52 66.2604 154.285 65.8645 154.05 65.4686C153.462 64.4799 152.875 63.4912 152.288 62.5026C151.224 60.711 150.16 58.919 149.099 57.1258C148.504 56.1215 147.909 55.1174 147.314 54.1133C147.139 53.8182 147.139 53.8182 146.961 53.517C145.182 50.5172 143.378 47.5334 141.56 44.5574C140.191 42.3152 138.862 40.0557 137.573 37.7666C134.174 31.7637 130.829 26.8506 124.028 24.5C118.387 23.2059 112.441 24.2526 107.83 27.7656Z" fill="#FF664E"/>
<path d="M119 24.2031C119 37.4289 119 50.6547 119 64.2812C121.939 64.2812 124.878 64.2812 127.906 64.2812C127.906 78.9766 127.906 93.6719 127.906 108.812C124.967 108.812 122.028 108.812 119 108.812C119 111.752 119 114.691 119 117.719C121.939 117.719 124.878 117.719 127.906 117.719C127.906 123.597 127.906 129.475 127.906 135.531C124.967 135.531 122.028 135.531 119 135.531C119 142.879 119 150.227 119 157.797C126.946 157.824 134.891 157.846 142.837 157.858C146.527 157.865 150.217 157.873 153.906 157.886C157.123 157.898 160.34 157.906 163.557 157.909C165.259 157.91 166.962 157.914 168.664 157.922C170.269 157.931 171.873 157.933 173.478 157.931C174.064 157.932 174.651 157.934 175.238 157.938C180.941 157.981 185.592 156.918 189.869 152.851C193.716 148.906 195.133 144.48 195.107 139.08C194.984 133.023 191.246 128.046 188.213 123.029C186.925 120.893 185.663 118.741 184.405 116.587C182.877 113.973 181.339 111.365 179.777 108.771C178.403 106.489 177.043 104.2 175.684 101.91C175.504 101.607 175.504 101.607 175.321 101.298C174.705 100.259 174.089 99.2208 173.473 98.1824C172.404 96.3805 171.334 94.5791 170.264 92.7777C169.677 91.7893 169.091 90.8009 168.504 89.8125C168.269 89.4167 168.034 89.0208 167.799 88.625C167.624 88.3311 167.624 88.3311 167.446 88.0312C155.107 67.25 155.107 67.25 154.755 66.6563C154.52 66.2604 154.285 65.8645 154.05 65.4686C153.462 64.4799 152.875 63.4912 152.288 62.5026C151.224 60.7109 150.16 58.919 149.099 57.1258C148.504 56.1215 147.909 55.1173 147.314 54.1133C147.139 53.8181 147.139 53.8181 146.961 53.517C145.182 50.5172 143.378 47.5334 141.56 44.5574C140.191 42.3152 138.862 40.0556 137.573 37.7666C134.17 31.7573 130.744 26.6284 123.824 24.5C122.265 24.2031 122.265 24.2031 119 24.2031Z" fill="#F2472C"/>
<path d="M127.906 64.2812C122.028 64.2812 116.15 64.2812 110.094 64.2812C110.094 78.9766 110.094 93.6719 110.094 108.812C115.972 108.812 121.85 108.812 127.906 108.812C127.906 94.1172 127.906 79.4219 127.906 64.2812Z" fill="#BED2D2"/>
<path d="M127.906 64.2812C124.967 64.2812 122.028 64.2812 119 64.2812C119 78.9766 119 93.6719 119 108.812C121.939 108.812 124.878 108.812 127.906 108.812C127.906 94.1172 127.906 79.4219 127.906 64.2812Z" fill="#97A6A8"/>
<path d="M127.906 117.719C122.028 117.719 116.15 117.719 110.094 117.719C110.094 123.597 110.094 129.475 110.094 135.531C115.972 135.531 121.85 135.531 127.906 135.531C127.906 129.653 127.906 123.775 127.906 117.719Z" fill="#BED2D2"/>
<path d="M127.906 117.719C124.967 117.719 122.028 117.719 119 117.719C119 123.597 119 129.475 119 135.531C121.939 135.531 124.878 135.531 127.906 135.531C127.906 129.653 127.906 123.775 127.906 117.719Z" fill="#97A6A8"/>
</g>
<defs>
<clipPath id="clip0_789_311">
<rect width="152" height="152" fill="white" transform="matrix(-1 0 0 1 195 15)"/>
</clipPath>
</defs>
</svg>
