<svg width="241" height="184" viewBox="0 0 241 184" fill="none" xmlns="http://www.w3.org/2000/svg">
<path d="M187.13 46.1418V55.5817" stroke="#FF9900" stroke-width="1.04638" stroke-miterlimit="10" stroke-linecap="round"/>
<path d="M182.41 50.8621H191.85" stroke="#FF9900" stroke-width="1.04638" stroke-miterlimit="10" stroke-linecap="round"/>
<path d="M67.0801 1V9.33806" stroke="#FF9900" stroke-width="1.04638" stroke-miterlimit="10" stroke-linecap="round"/>
<path d="M62.9111 5.1687H71.2492" stroke="#FF9900" stroke-width="1.04638" stroke-miterlimit="10" stroke-linecap="round"/>
<path d="M221.383 8.57485C221.383 9.67171 221.057 10.7439 220.448 11.6559C219.839 12.5679 218.972 13.2788 217.959 13.6985C216.946 14.1183 215.831 14.2281 214.755 14.0141C213.679 13.8001 212.691 13.2719 211.915 12.4963C211.14 11.7207 210.612 10.7326 210.398 9.65678C210.184 8.581 210.293 7.46593 210.713 6.45257C211.133 5.4392 211.844 4.57307 212.756 3.96369C213.668 3.35431 214.74 3.02905 215.837 3.02905C217.308 3.02905 218.718 3.61334 219.758 4.65338C220.798 5.69342 221.383 7.10401 221.383 8.57485Z" stroke="#FF9900" stroke-width="1.04638" stroke-miterlimit="10"/>
<path d="M25.6678 125.948C25.6678 127.045 25.3425 128.117 24.7331 129.029C24.1238 129.941 23.2576 130.652 22.2443 131.072C21.2309 131.491 20.1158 131.601 19.04 131.387C17.9643 131.173 16.9761 130.645 16.2005 129.869C15.4249 129.094 14.8967 128.106 14.6827 127.03C14.4687 125.954 14.5786 124.839 14.9983 123.826C15.4181 122.812 16.1289 121.946 17.0409 121.337C17.9529 120.727 19.0251 120.402 20.122 120.402C21.5928 120.402 23.0034 120.986 24.0434 122.026C25.0835 123.066 25.6678 124.477 25.6678 125.948Z" stroke="#FF9900" stroke-width="1.04638" stroke-miterlimit="10"/>
<path d="M239.698 119.579C239.698 120.11 239.54 120.629 239.245 121.07C238.95 121.512 238.531 121.856 238.04 122.059C237.55 122.262 237.01 122.315 236.489 122.211C235.968 122.108 235.49 121.852 235.115 121.477C234.739 121.101 234.483 120.623 234.38 120.102C234.276 119.581 234.329 119.041 234.532 118.551C234.736 118.06 235.08 117.641 235.521 117.346C235.963 117.051 236.482 116.893 237.013 116.893C237.725 116.893 238.408 117.176 238.912 117.68C239.415 118.183 239.698 118.866 239.698 119.579Z" stroke="#FF9900" stroke-width="1.04638" stroke-miterlimit="10"/>
<path d="M45.079 103.549C45.0789 104.08 44.9213 104.599 44.6263 105.04C44.3312 105.482 43.9119 105.826 43.4213 106.029C42.9307 106.232 42.3908 106.285 41.87 106.181C41.3493 106.078 40.8709 105.822 40.4954 105.447C40.1199 105.071 39.8642 104.593 39.7606 104.072C39.657 103.551 39.7101 103.011 39.9133 102.521C40.1164 102.03 40.4605 101.611 40.902 101.316C41.3434 101.021 41.8625 100.863 42.3935 100.863C43.1057 100.863 43.7888 101.146 44.2924 101.65C44.7961 102.153 45.079 102.836 45.079 103.549Z" stroke="#FF9900" stroke-width="1.04638" stroke-miterlimit="10"/>
<path d="M227.996 105.778C228.009 106.793 227.82 107.8 227.44 108.741C227.061 109.683 226.498 110.54 225.785 111.262C225.071 111.984 224.222 112.557 223.285 112.949C222.349 113.34 221.343 113.541 220.328 113.541H165.567C166.362 114.995 166.665 116.668 166.43 118.309C166.195 119.95 165.435 121.471 164.263 122.644C163.816 123.089 163.316 123.48 162.776 123.806H172.892C174.933 123.786 176.9 124.568 178.371 125.983C179.842 127.398 180.7 129.333 180.759 131.373C180.772 132.389 180.583 133.396 180.203 134.338C179.824 135.279 179.261 136.136 178.548 136.858C177.834 137.581 176.985 138.155 176.048 138.546C175.112 138.938 174.107 139.14 173.092 139.141H122.808C121.13 139.14 119.498 138.59 118.163 137.573C116.828 136.556 115.863 135.129 115.417 133.511C114.971 131.894 115.068 130.174 115.693 128.617C116.318 127.059 117.436 125.75 118.877 124.889H88.7533C86.7123 124.909 84.7451 124.127 83.2741 122.712C81.8031 121.297 80.9457 119.362 80.8861 117.322C80.8688 115.953 81.2181 114.605 81.8977 113.417C82.5773 112.23 83.5625 111.245 84.7509 110.567C83.5049 109.921 82.4604 108.945 81.7315 107.745C81.0026 106.546 80.6173 105.169 80.6177 103.765V94.3741C80.6165 93.1752 80.897 91.9927 81.4366 90.9221C81.9762 89.8515 82.7599 88.9226 83.7244 88.2104H29.5953C27.5567 88.2295 25.5916 87.4494 24.1211 86.0373C22.6506 84.6252 21.7916 82.6933 21.7281 80.6556C21.713 79.6392 21.9002 78.63 22.2787 77.6866C22.6573 76.7433 23.2197 75.8846 23.9332 75.1606C24.6467 74.4367 25.4971 73.8618 26.4348 73.4695C27.3726 73.0773 28.379 72.8755 29.3954 72.8758H33.2226C34.793 72.8752 36.299 72.2511 37.4094 71.1406C38.5199 70.0302 39.144 68.5242 39.1445 66.9538V66.9496C39.144 65.3792 38.5199 63.8732 37.4094 62.7628C36.299 61.6523 34.793 61.0282 33.2226 61.0276H7.75479C6.74071 61.0395 5.73436 60.85 4.79405 60.4701C3.85373 60.0902 2.99814 59.5275 2.27685 58.8146C1.55556 58.1017 0.982913 57.2528 0.59208 56.317C0.201246 55.3811 0 54.3771 0 53.3629C0 52.3488 0.201246 51.3447 0.59208 50.4089C0.982913 49.4731 1.55556 48.6241 2.27685 47.9112C2.99814 47.1983 3.85373 46.6356 4.79405 46.2557C5.73436 45.8759 6.74071 45.6864 7.75479 45.6982H44.5747C45.5815 45.6985 46.5785 45.5005 47.5087 45.1154C48.439 44.7304 49.2843 44.1659 49.9964 43.4542C50.7085 42.7425 51.2734 41.8975 51.659 40.9675C52.0445 40.0374 52.2431 39.0405 52.2434 38.0338C52.2436 37.027 52.0456 36.03 51.6606 35.0997C51.2755 34.1695 50.7111 33.3242 49.9993 32.6121C49.2876 31.9 48.4426 31.335 47.5126 30.9495C46.5826 30.564 45.5857 30.3654 44.5789 30.3651H34.0628C32.0194 30.3835 30.0505 29.5989 28.5799 28.18C27.1093 26.7612 26.2546 24.8216 26.1998 22.7789C26.1891 21.7653 26.3795 20.7597 26.7601 19.8202C27.1406 18.8807 27.7037 18.0261 28.4168 17.3057C29.1299 16.5853 29.9788 16.0135 30.9143 15.6234C31.8499 15.2333 32.8535 15.0327 33.8671 15.0331H103.805C105.798 15.0137 107.722 15.7583 109.183 17.1137C110.644 18.4691 111.53 20.3325 111.66 22.3211C111.727 23.6801 111.432 25.0326 110.806 26.2403H201C202.014 26.2285 203.021 26.418 203.961 26.7978C204.901 27.1777 205.757 27.7404 206.478 28.4533C207.199 29.1662 207.772 30.0152 208.163 30.951C208.554 31.8868 208.755 32.8909 208.755 33.905C208.755 34.9192 208.554 35.9232 208.163 36.8591C207.772 37.7949 207.199 38.6438 206.478 39.3567C205.757 40.0696 204.901 40.6323 203.961 41.0122C203.021 41.3921 202.014 41.5816 201 41.5697H167.591C167.59 43.2198 166.934 44.802 165.768 45.9688C164.601 47.1356 163.019 47.7916 161.369 47.7925H123.712C124.828 48.846 125.602 50.2105 125.934 51.7092C126.266 53.2079 126.14 54.7717 125.573 56.198C125.006 57.6243 124.023 58.8474 122.753 59.7088C121.482 60.5702 119.982 61.0302 118.447 61.0292H107.919C107.505 61.0288 107.095 61.11 106.712 61.2683C106.329 61.4265 105.981 61.6587 105.688 61.9515C105.394 62.2442 105.162 62.5919 105.003 62.9746C104.844 63.3574 104.762 63.7676 104.762 64.1819V64.1861C104.762 64.6005 104.844 65.0107 105.003 65.3934C105.162 65.7761 105.394 66.1238 105.688 66.4166C105.981 66.7094 106.329 66.9416 106.712 67.0998C107.095 67.258 107.505 67.3393 107.919 67.3389H193.391C194.405 67.327 195.411 67.5165 196.352 67.8964C197.292 68.2763 198.148 68.839 198.869 69.5519C199.59 70.2648 200.163 71.1137 200.554 72.0495C200.945 72.9854 201.146 73.9894 201.146 75.0036C201.146 76.0177 200.945 77.0218 200.554 77.9576C200.163 78.8934 199.59 79.7424 198.869 80.4553C198.148 81.1682 197.292 81.7309 196.352 82.1108C195.411 82.4906 194.405 82.6801 193.391 82.6683H171.285C172.406 83.3541 173.332 84.3163 173.975 85.4625C174.617 86.6088 174.954 87.9009 174.954 89.215V91.4014C174.955 92.8078 174.568 94.1873 173.837 95.3885C173.105 96.5897 172.057 97.5661 170.807 98.2107H220.129C222.17 98.191 224.137 98.9726 225.608 100.388C227.079 101.802 227.937 103.738 227.996 105.778" fill="#FFEFD9"/>
<path d="M119.969 183.146C157.507 183.146 187.938 181.067 187.938 178.502C187.938 175.938 157.507 173.858 119.969 173.858C82.4308 173.858 52 175.938 52 178.502C52 181.067 82.4308 183.146 119.969 183.146Z" fill="#666666"/>
<path d="M99.2036 107.246C100.273 107.359 101.232 106.583 101.344 105.514C101.457 104.444 100.682 103.486 99.6123 103.373C98.5428 103.26 97.5843 104.036 97.4714 105.105C97.3586 106.175 98.1341 107.133 99.2036 107.246Z" fill="#FCD294"/>
<path d="M154.841 21.5853C158.655 24.0203 160.342 27.7556 162.455 31.6083C162.662 31.9861 162.87 32.3638 163.078 32.7415C163.4 33.3277 163.723 33.9138 164.045 34.5001C164.776 35.8319 165.51 37.1624 166.246 38.4921C168.276 42.163 170.293 45.8401 172.287 49.531C173.563 51.8926 174.862 54.2416 176.17 56.5857C178.655 61.0359 181.128 65.4909 183.548 69.9766C184.514 71.7658 185.492 73.5477 186.483 75.3231C187.408 76.982 188.327 78.6432 189.229 80.3144C189.329 80.4963 189.428 80.6783 189.53 80.8658C190.891 83.4039 190.89 86.3495 190.375 89.1522C188.873 93.9225 184.588 95.8549 180.453 98.0155C180.057 98.2139 179.661 98.4119 179.265 98.6093C179.265 98.8768 179.265 99.1443 179.265 99.42C179.26 105.94 179.248 112.459 179.226 118.978C179.216 122.131 179.208 125.284 179.207 128.437C179.206 131.186 179.2 133.935 179.188 136.684C179.182 138.139 179.178 139.593 179.18 141.048C179.183 142.419 179.178 143.791 179.168 145.162C179.165 145.663 179.165 146.164 179.168 146.666C179.185 149.984 178.861 152.958 176.816 155.721C173.682 158.712 170.728 159.306 166.51 159.289C166.056 159.29 165.602 159.292 165.148 159.294C163.905 159.299 162.661 159.299 161.418 159.297C160.075 159.296 158.733 159.3 157.39 159.304C154.761 159.31 152.132 159.312 149.503 159.311C147.366 159.311 145.228 159.312 143.091 159.314C142.475 159.315 141.859 159.315 141.243 159.316C140.783 159.316 140.783 159.316 140.314 159.317C134.516 159.322 128.718 159.322 122.921 159.32C117.62 159.319 112.319 159.325 107.019 159.335C101.573 159.345 96.1277 159.349 90.6822 159.348C87.626 159.347 84.5699 159.349 81.5138 159.356C78.9117 159.362 76.3096 159.363 73.7075 159.358C72.3806 159.355 71.0539 159.355 69.727 159.361C68.5106 159.366 67.2944 159.365 66.078 159.358C65.6397 159.357 65.2013 159.358 64.7631 159.362C61.2664 159.392 58.4257 158.854 55.7838 156.444C53.6455 154.123 52.7399 151.738 52.7775 148.627C52.779 148.401 52.7804 148.175 52.7819 147.942C52.7853 147.447 52.7894 146.952 52.7941 146.457C52.8043 145.369 52.8112 144.28 52.8184 143.191C52.8223 142.605 52.8264 142.018 52.8307 141.431C52.8577 137.652 52.8629 133.873 52.8695 130.093C52.8762 126.419 52.8893 122.744 52.9237 119.069C52.951 116.148 52.9632 113.227 52.9585 110.306C52.9565 108.763 52.9616 107.222 52.985 105.679C53.0868 98.6279 52.9133 93.3735 48.7986 87.439C47.2279 85.0072 47.2042 82.408 47.4527 79.6093C48.1852 76.456 50.1668 74.2394 52.7965 72.4843C53.9716 71.7988 55.1723 71.1666 56.3775 70.536C57.071 70.1682 57.7641 69.8 58.4568 69.4309C58.7179 69.292 58.7179 69.292 58.9842 69.1504C60.6494 68.2621 62.2907 67.3344 63.9293 66.3983C66.6939 64.8224 69.4865 63.3042 72.2913 61.8013C74.5219 60.6054 76.7396 59.3894 78.9493 58.1554C80.7979 57.1234 82.6524 56.1021 84.5065 55.08C84.6892 54.9792 84.872 54.8784 85.0603 54.7746C85.2442 54.6732 85.428 54.5719 85.6174 54.4675C85.9924 54.2607 86.3673 54.054 86.7423 53.8473C87.0235 53.6922 87.0235 53.6922 87.3105 53.534C88.6183 52.8129 89.9256 52.0906 91.2325 51.3679C94.9067 49.3367 98.5868 47.3175 102.281 45.3222C104.642 44.0454 106.991 42.7472 109.335 41.4387C113.789 38.9527 118.247 36.4785 122.735 34.0558C124.643 33.0251 126.544 31.982 128.438 30.9259C131.48 29.2297 134.531 27.5482 137.582 25.8687C138.766 25.217 139.948 24.563 141.13 23.9081C141.713 23.5864 142.296 23.2648 142.88 22.9433C143.143 22.7967 143.406 22.6502 143.677 22.4993C147.018 20.664 151.243 19.8383 154.841 21.5853Z" fill="#57B3FD"/>
<path d="M157 33.0001C158.677 33.8225 159.381 34.9666 160.247 36.544C160.373 36.7677 160.499 36.9914 160.629 37.2218C160.884 37.676 161.137 38.1311 161.389 38.5872C161.717 39.175 162.056 39.7534 162.403 40.3303C163.334 41.9299 164.061 43.2664 164.046 45.143C163.173 47.6371 160.661 48.5839 158.484 49.7364C158.1 49.9437 157.715 50.1514 157.331 50.3595C156.532 50.7917 155.732 51.2221 154.932 51.6514C153.238 52.5621 151.557 53.4965 149.875 54.4294C146.749 56.1617 143.612 57.8709 140.468 59.5691C138.568 60.5957 136.677 61.6346 134.791 62.6861C132.716 63.8433 130.636 64.9915 128.556 66.1387C128.374 66.2389 128.192 66.3391 128.005 66.4422C126.474 67.2863 126.474 67.2863 125.766 67.6766C124.416 68.4215 123.065 69.1673 121.715 69.9135C121.142 70.2297 120.57 70.546 119.997 70.8622C119.637 71.0613 119.276 71.2605 118.916 71.4597C118.409 71.74 117.902 72.0201 117.395 72.3001C117.109 72.4579 116.824 72.6158 116.529 72.7785C115.503 73.3422 114.471 73.8965 113.44 74.4514C113.171 74.5961 113.171 74.5961 112.897 74.7436C112.457 74.9802 112.018 75.2167 111.578 75.4532C111.875 75.4539 112.172 75.4546 112.479 75.4553C119.714 75.4728 126.949 75.4953 134.184 75.5232C137.683 75.5365 141.182 75.5482 144.681 75.556C147.732 75.5629 150.782 75.5728 153.832 75.5864C155.447 75.5935 157.061 75.5991 158.676 75.6009C160.197 75.6027 161.718 75.6087 163.239 75.6177C163.796 75.6203 164.353 75.6215 164.909 75.6209C169.197 75.6182 172.736 75.873 175.993 78.9821C178.186 81.3574 179.017 83.5642 179.004 86.7676C179.005 87.1347 179.005 87.1347 179.005 87.5091C179.006 88.3301 179.004 89.151 179.002 89.9719C179.002 90.56 179.002 91.1481 179.003 91.7361C179.003 93.3339 179.001 94.9316 178.999 96.5293C178.997 98.1986 178.997 99.8679 178.996 101.537C178.996 104.699 178.993 107.86 178.99 111.022C178.987 114.621 178.985 118.22 178.984 121.819C178.981 129.223 178.975 136.627 178.969 144.031C178.871 144.031 178.773 144.031 178.672 144.031C178.628 143.726 178.585 143.42 178.54 143.105C176.994 133.005 171.397 124.289 164.422 117.016C164.197 116.779 164.197 116.779 163.968 116.538C161.765 114.226 159.453 112.177 156.899 110.261C156.439 109.915 155.984 109.562 155.53 109.209C137.673 95.4507 113.192 87.5424 91.0253 84.5288C90.2293 84.4083 89.4844 84.2666 88.7053 84.0808C87.1327 83.7275 85.5527 83.5105 83.9548 83.3053C83.6385 83.264 83.3221 83.2227 82.9962 83.1801C81.9599 83.0457 80.9234 82.9137 79.8867 82.7823C79.5322 82.737 79.1776 82.6916 78.8123 82.6449C70.9496 81.6445 63.0674 80.8894 55.1719 80.2032C56.1538 78.1547 57.8122 77.1488 59.8593 76.2731C61.0929 75.848 62.2311 75.7153 63.5318 75.7504C63.8306 75.7569 64.1294 75.7634 64.4373 75.7702C64.7588 75.7773 65.0804 75.7845 65.4117 75.7918C66.4699 75.8012 67.528 75.8071 68.5862 75.8128C69.307 75.8204 70.0278 75.8342 70.7484 75.8549C76.1493 76.0008 79.6515 75.07 84.1452 72.0623C85.1033 71.4338 86.0877 70.9068 87.1045 70.3785C87.4223 70.2099 87.7401 70.0413 88.0676 69.8677C88.3804 69.7025 88.6933 69.5374 89.0156 69.3673C91.5594 68.0168 94.0848 66.6392 96.5859 65.211C99.1185 63.7651 101.676 62.3705 104.249 60.9991C106.919 59.5758 109.58 58.1378 112.221 56.6608C114.062 55.6312 115.91 54.6142 117.757 53.5958C118.128 53.3909 118.5 53.1861 118.871 52.9812C119.626 52.5647 120.382 52.1483 121.137 51.7319C122.592 50.9296 124.047 50.1268 125.502 49.3241C126.215 48.9303 126.929 48.5367 127.642 48.1431C129.271 47.2447 130.9 46.3461 132.527 45.446C136.386 43.3122 140.25 41.1887 144.13 39.0938C145.934 38.119 147.731 37.1333 149.522 36.1358C149.739 36.0157 149.956 35.8957 150.179 35.772C151.106 35.2572 152.029 34.7373 152.945 34.2026C153.23 34.0385 153.515 33.8743 153.809 33.7051C154.043 33.5666 154.277 33.4281 154.518 33.2853C155.429 32.9143 156.022 32.8735 157 33.0001Z" fill="#5094FE"/>
<path d="M154.842 21.5853C158.655 24.0203 160.343 27.7556 162.455 31.6083C162.663 31.9861 162.87 32.3638 163.078 32.7415C163.4 33.3277 163.723 33.9138 164.045 34.5001C164.777 35.8319 165.51 37.1624 166.246 38.4921C168.276 42.163 170.293 45.8401 172.287 49.531C173.564 51.8926 174.862 54.2416 176.17 56.5857C178.655 61.0359 181.128 65.4909 183.548 69.9766C184.514 71.7658 185.492 73.5477 186.483 75.3231C187.408 76.982 188.327 78.6432 189.229 80.3144C189.329 80.4963 189.428 80.6783 189.531 80.8658C190.891 83.4039 190.89 86.3495 190.375 89.1522C188.945 93.6961 185.079 95.5541 181.151 97.6682C180.437 98.0236 179.714 98.3232 178.969 98.6093C178.968 98.4373 178.966 98.2654 178.965 98.0883C178.953 96.2868 178.932 94.4855 178.907 92.6841C178.899 92.0133 178.892 91.3424 178.888 90.6715C178.882 89.703 178.868 88.7348 178.853 87.7664C178.852 87.3218 178.852 87.3218 178.852 86.8683C178.791 83.9135 177.855 81.2579 175.798 79.0816C174.345 77.7016 172.855 76.9454 170.953 76.3437C170.792 76.2912 170.63 76.2387 170.464 76.1847C169.447 75.9839 168.435 76.0011 167.402 75.9998C167.163 75.9983 166.923 75.9969 166.676 75.9954C165.871 75.9908 165.067 75.9883 164.262 75.9858C163.686 75.983 163.109 75.98 162.533 75.9769C160.967 75.9689 159.401 75.9626 157.835 75.9567C156.199 75.9502 154.563 75.9421 152.927 75.9341C149.829 75.9193 146.731 75.906 143.632 75.8932C140.105 75.8785 136.577 75.8622 133.05 75.8458C125.794 75.812 118.537 75.7803 111.281 75.7499C112.029 74.969 112.746 74.5048 113.707 73.9988C114.017 73.8341 114.327 73.6694 114.647 73.4996C115.148 73.2358 115.148 73.2358 115.66 72.9667C116.368 72.5909 117.075 72.2137 117.782 71.836C117.961 71.7406 118.14 71.6453 118.324 71.547C119.988 70.6564 121.629 69.7286 123.267 68.7919C125.812 67.3401 128.382 65.9394 130.968 64.5614C133.638 63.1381 136.298 61.7002 138.939 60.2231C140.597 59.2962 142.26 58.3797 143.923 57.4628C144.476 57.158 145.029 56.8531 145.581 56.5481C147.1 55.7106 148.618 54.8734 150.137 54.0367C150.327 53.9321 150.517 53.8275 150.712 53.7198C151.093 53.5102 151.473 53.3006 151.854 53.0911C152.776 52.5829 153.698 52.0743 154.619 51.5645C154.794 51.4677 154.969 51.3709 155.15 51.2712C155.321 51.1764 155.492 51.0817 155.669 50.984C156.825 50.3443 157.984 49.7093 159.148 49.0822C159.481 48.9005 159.481 48.9005 159.821 48.7151C160.209 48.5036 160.598 48.2944 160.989 48.0884C162.115 47.4696 162.895 46.8908 163.531 45.7655C164.107 43.3841 162.846 41.4938 161.694 39.494C161.523 39.1837 161.351 38.8733 161.174 38.5536C159.72 35.7469 159.72 35.7469 157.612 33.4638C156.008 33.0264 154.891 33.3539 153.466 34.1352C153.132 34.3162 152.798 34.4972 152.454 34.6837C152.095 34.8831 151.736 35.0826 151.378 35.2821C151.003 35.4869 150.629 35.6914 150.254 35.8956C147.71 37.2863 145.187 38.7125 142.669 40.1495C140.44 41.4173 138.185 42.632 135.922 43.8358C133.087 45.3438 130.278 46.8905 127.488 48.4818C125.01 49.8914 122.502 51.2427 119.989 52.5892C117.759 53.785 115.541 55.0011 113.331 56.235C111.483 57.267 109.628 58.2883 107.774 59.3104C107.592 59.4112 107.409 59.512 107.22 59.6158C107.037 59.7172 106.853 59.8185 106.663 59.923C106.288 60.1297 105.913 60.3364 105.538 60.5432C105.257 60.6982 105.257 60.6982 104.97 60.8564C103.662 61.5776 102.355 62.2998 101.048 63.0225C97.3768 65.0522 93.6996 67.0698 90.0085 69.0637C88.2252 70.0279 86.4461 70.9992 84.6737 71.9833C84.3846 72.1437 84.3846 72.1437 84.0896 72.3073C83.8989 72.4135 83.7082 72.5198 83.5117 72.6292C83.3049 72.7396 83.098 72.85 82.8849 72.9637C82.1511 73.3777 82.1511 73.3777 81.3924 73.9815C77.8812 76.4384 74.0817 76.0514 69.9413 75.9911C68.8562 75.9833 67.7713 75.9789 66.6862 75.9793C66.0154 75.9787 65.3445 75.9731 64.6738 75.9615C61.2036 75.9413 58.4067 76.8171 55.8386 79.2022C53.7941 81.4106 53.0698 83.9727 52.9997 86.9152C52.9935 87.131 52.9874 87.3467 52.981 87.569C52.9616 88.2556 52.9441 88.9422 52.9266 89.6288C52.9138 90.0954 52.9008 90.562 52.8878 91.0285C52.8561 92.17 52.826 93.3115 52.7967 94.453C51.7303 93.09 50.9507 91.5902 50.1249 90.0741C49.9664 89.7879 49.808 89.5016 49.6448 89.2067C47.7796 85.7919 46.7479 82.6448 47.6583 78.7256C49.2329 74.4694 52.5318 72.5482 56.3778 70.536C57.0712 70.1682 57.7644 69.8 58.4571 69.4309C58.7181 69.292 58.7181 69.292 58.9845 69.1504C60.6496 68.2621 62.2909 67.3344 63.9296 66.3983C66.6941 64.8224 69.4867 63.3042 72.2916 61.8013C74.5222 60.6054 76.7399 59.3894 78.9496 58.1554C80.7981 57.1234 82.6527 56.1021 84.5067 55.08C84.6895 54.9792 84.8723 54.8784 85.0606 54.7746C85.2444 54.6732 85.4283 54.5719 85.6177 54.4675C85.9926 54.2607 86.3676 54.054 86.7425 53.8473C87.0238 53.6922 87.0238 53.6922 87.3107 53.534C88.6186 52.8129 89.9258 52.0906 91.2328 51.3679C94.907 49.3367 98.5871 47.3175 102.281 45.3222C104.643 44.0454 106.992 42.7472 109.336 41.4387C113.789 38.9527 118.248 36.4785 122.736 34.0558C124.644 33.0251 126.544 31.982 128.438 30.9259C131.48 29.2297 134.531 27.5482 137.582 25.8687C138.766 25.217 139.948 24.563 141.13 23.9081C141.713 23.5864 142.296 23.2648 142.88 22.9433C143.143 22.7967 143.406 22.6502 143.677 22.4993C147.018 20.664 151.243 19.8383 154.842 21.5853Z" fill="#FED374"/>
<path d="M150.042 20.7355C150.372 20.7283 150.372 20.7283 150.709 20.721C152.069 20.7197 152.906 20.8746 154.031 21.7188C152.931 22.978 151.564 23.7502 150.153 24.6134C148.305 25.762 146.505 26.9346 144.761 28.2385C143.754 28.9785 142.725 29.6807 141.692 30.3839C137.699 33.1136 133.793 35.956 129.984 38.9376C129.636 39.2094 129.287 39.4811 128.938 39.7528C123.579 43.9384 118.399 48.3258 113.359 52.8907C112.936 53.2725 112.936 53.2725 112.503 53.6619C110.155 55.7875 107.843 57.9692 105.698 60.3017C104.963 60.9845 104.242 61.3966 103.352 61.8608C103.016 62.0379 102.68 62.2151 102.334 62.3977C102.157 62.4902 101.979 62.5827 101.796 62.678C100.849 63.1709 99.907 63.6711 98.9643 64.1708C98.7738 64.2716 98.5833 64.3724 98.3871 64.4762C96.6799 65.3822 94.9974 66.3289 93.3202 67.2892C90.4142 68.9497 87.4728 70.5369 84.5148 72.1024C84.1865 72.2767 83.8581 72.451 83.5198 72.6306C83.1917 72.8007 82.8635 72.9708 82.5254 73.1461C81.5957 73.641 81.5957 73.641 80.8381 74.2582C77.6879 76.5965 73.72 76.0138 69.9784 75.9728C68.8893 75.9672 67.8004 75.9646 66.7113 75.9669C66.0372 75.9677 65.3631 75.9637 64.6891 75.9541C61.2134 75.9448 58.4119 76.8125 55.8386 79.2024C53.7941 81.4108 53.0698 83.9729 52.9997 86.9154C52.9935 87.1312 52.9874 87.3469 52.981 87.5692C52.9616 88.2558 52.9441 88.9424 52.9266 89.629C52.9138 90.0956 52.9008 90.5622 52.8878 91.0287C52.8561 92.1702 52.826 93.3117 52.7967 94.4532C51.7303 93.0902 50.9507 91.5904 50.1249 90.0743C49.9664 89.7881 49.808 89.5018 49.6448 89.2069C47.7796 85.7921 46.7479 82.645 47.6583 78.7258C49.2329 74.4696 52.5318 72.5484 56.3778 70.5362C57.0712 70.1684 57.7644 69.8002 58.4571 69.4311C58.7181 69.2922 58.7181 69.2922 58.9845 69.1506C60.6496 68.2623 62.2909 67.3346 63.9296 66.3985C66.6941 64.8226 69.4867 63.3044 72.2916 61.8015C74.5222 60.6057 76.7399 59.3896 78.9496 58.1556C80.7981 57.1236 82.6527 56.1023 84.5067 55.0802C84.6895 54.9794 84.8723 54.8786 85.0606 54.7748C85.2444 54.6734 85.4283 54.5721 85.6177 54.4677C85.9926 54.2609 86.3676 54.0542 86.7425 53.8475C87.0238 53.6924 87.0238 53.6924 87.3107 53.5342C88.6186 52.8131 89.9258 52.0908 91.2328 51.3681C94.907 49.3369 98.5871 47.3177 102.281 45.3224C104.643 44.0456 106.992 42.7474 109.336 41.4389C113.789 38.9529 118.248 36.4787 122.736 34.056C124.644 33.0253 126.544 31.9822 128.438 30.9261C131.48 29.2299 134.531 27.5484 137.582 25.8689C138.766 25.2172 139.948 24.5632 141.13 23.9083C141.713 23.5866 142.296 23.265 142.88 22.9435C143.143 22.7969 143.406 22.6504 143.677 22.4995C145.838 21.3125 147.574 20.7247 150.042 20.7355Z" fill="#FDBC20"/>
<path d="M157 33C158.677 33.8224 159.381 34.9665 160.247 36.5439C160.373 36.7676 160.499 36.9913 160.629 37.2218C160.884 37.6759 161.137 38.131 161.389 38.5871C161.717 39.1749 162.056 39.7533 162.403 40.3303C163.334 41.9298 164.061 43.2663 164.046 45.1429C163.173 47.637 160.661 48.5838 158.484 49.7363C158.1 49.9436 157.715 50.1513 157.331 50.3594C156.532 50.7916 155.732 51.222 154.932 51.6514C153.238 52.5621 151.557 53.4964 149.875 54.4294C146.749 56.1616 143.612 57.8708 140.468 59.569C138.568 60.5956 136.677 61.6346 134.791 62.686C132.716 63.8432 130.636 64.9913 128.556 66.1387C128.188 66.3417 127.819 66.5448 127.451 66.7479C125.736 67.6941 124.02 68.6398 122.304 69.5844C121.54 70.0047 120.777 70.4252 120.013 70.8458C119.485 71.137 118.956 71.4278 118.427 71.7186C118.096 71.9009 117.765 72.0832 117.424 72.271C117.111 72.4389 116.798 72.6069 116.476 72.7799C115.802 73.152 115.228 73.5311 114.604 73.9942C111.196 76.3814 107.623 76.0532 103.602 75.9819C102.862 75.9775 102.123 75.9741 101.383 75.9717C99.4495 75.9627 97.5161 75.9395 95.5824 75.9131C93.6042 75.8886 91.626 75.8779 89.6476 75.866C85.7753 75.8406 81.9033 75.8006 78.0312 75.75C78.8123 74.9313 79.5805 74.4616 80.5872 73.934C80.9241 73.7558 81.2611 73.5777 81.6082 73.3941C81.8766 73.2535 81.8766 73.2535 82.1505 73.1101C83.1003 72.6122 84.0471 72.1089 84.9939 71.6053C85.1853 71.5036 85.3767 71.4019 85.5739 71.2971C87.2824 70.3865 88.968 69.438 90.6484 68.4766C93.1809 67.0304 95.7382 65.636 98.3115 64.2646C100.982 62.8413 103.642 61.4034 106.283 59.9263C108.124 58.8967 109.972 57.8797 111.819 56.8613C112.191 56.6565 112.562 56.4516 112.934 56.2468C113.689 55.8303 114.444 55.4139 115.199 54.9974C116.832 54.097 118.465 53.196 120.098 52.2951C120.994 51.8009 121.889 51.3067 122.785 50.8125C123.144 50.6146 123.503 50.4167 123.861 50.2187C126.014 49.0312 126.014 49.0312 126.552 48.7344C126.911 48.5364 127.269 48.3385 127.628 48.1405C128.524 47.6463 129.419 47.1522 130.315 46.6582C131.944 45.76 133.572 44.8615 135.199 43.9615C139.043 41.8361 142.888 39.7141 146.757 37.6342C148.174 36.8714 149.583 36.0984 150.98 35.3008C151.386 35.0711 151.386 35.0711 151.8 34.8367C152.306 34.5491 152.811 34.2586 153.314 33.9645C155.523 32.7156 155.523 32.7156 157 33Z" fill="#4C5C74"/>
<path d="M66.5608 88.1662C66.9513 88.1624 67.3418 88.1586 67.7441 88.1547C68.1714 88.1522 68.5987 88.15 69.026 88.148C69.3495 88.1462 69.3495 88.1462 69.6795 88.1443C70.8218 88.1382 71.9641 88.1339 73.1064 88.1311C74.282 88.1278 75.4574 88.1176 76.6329 88.1058C77.5404 88.098 78.4478 88.0956 79.3554 88.0945C79.7884 88.0931 80.2215 88.0896 80.6545 88.0841C83.0105 88.0559 84.9246 88.0546 86.9371 89.4062C88.6117 91.2955 88.4683 93.7145 88.4922 96.1138C88.4946 96.3486 88.497 96.5834 88.4995 96.8253C88.5035 97.3183 88.5067 97.8113 88.5091 98.3042C88.5125 98.8046 88.5186 99.3049 88.5273 99.8051C88.5401 100.535 88.5448 101.265 88.5479 101.996C88.5531 102.216 88.5583 102.437 88.5636 102.664C88.5569 104.304 88.1383 105.549 87.234 106.922C85.8269 108.26 84.7799 108.443 82.8785 108.459C82.6785 108.461 82.4785 108.463 82.2725 108.465C81.6112 108.471 80.95 108.474 80.2887 108.477C80.0625 108.478 79.8362 108.479 79.6032 108.481C78.4057 108.487 77.2083 108.491 76.0109 108.494C74.776 108.497 73.5413 108.507 72.3065 108.519C71.3552 108.527 70.404 108.529 69.4527 108.53C68.9976 108.532 68.5425 108.535 68.0874 108.541C67.4493 108.548 66.8116 108.548 66.1734 108.546C65.6296 108.548 65.6296 108.548 65.0748 108.551C63.6367 108.342 62.7085 107.688 61.7584 106.606C61.1839 105.669 61.0697 104.888 61.0564 103.814C61.0526 103.547 61.0488 103.279 61.0449 103.003C61.0427 102.715 61.0405 102.426 61.0382 102.129C61.0358 101.831 61.0334 101.534 61.031 101.227C61.0268 100.597 61.0237 99.9668 61.0213 99.3367C61.0162 98.3749 61.0032 97.4135 60.9901 96.4518C60.9871 95.8393 60.9846 95.2268 60.9825 94.6143C60.9773 94.3276 60.9722 94.0409 60.9668 93.7455C60.9723 92.0436 61.1441 91.0456 62.2965 89.7031C63.7135 88.4243 64.6786 88.1822 66.5608 88.1662Z" fill="#FDBC22"/>
<path d="M52.7968 145.812C53.2421 146.66 53.574 147.508 53.8915 148.41C54.8975 150.94 56.8097 152.913 59.269 154.082C61.4158 154.895 63.5446 154.842 65.812 154.83C66.2581 154.831 66.7042 154.832 67.1504 154.833C68.3713 154.837 69.5921 154.834 70.813 154.831C72.1317 154.828 73.4503 154.831 74.769 154.833C77.3502 154.835 79.9315 154.833 82.5127 154.83C85.5196 154.826 88.5265 154.826 91.5334 154.827C96.899 154.828 102.265 154.824 107.63 154.819C112.835 154.813 118.04 154.811 123.245 154.812C128.914 154.814 134.584 154.814 140.254 154.811C140.858 154.81 141.463 154.81 142.068 154.81C142.514 154.809 142.514 154.809 142.969 154.809C145.065 154.808 147.16 154.808 149.255 154.809C151.809 154.809 154.363 154.808 156.917 154.804C158.219 154.801 159.522 154.8 160.825 154.802C162.018 154.803 163.211 154.801 164.404 154.797C164.835 154.797 165.266 154.797 165.697 154.798C169.483 154.808 173.152 154.523 176 151.75C177.402 150.008 178.156 148.276 178.672 146.109C178.77 146.109 178.868 146.109 178.969 146.109C179.16 149.695 179.043 152.703 176.816 155.721C173.682 158.712 170.729 159.306 166.51 159.289C166.056 159.29 165.602 159.292 165.149 159.294C163.905 159.299 162.662 159.299 161.418 159.297C160.075 159.296 158.733 159.301 157.39 159.304C154.761 159.31 152.132 159.312 149.503 159.311C147.366 159.311 145.228 159.312 143.091 159.314C142.475 159.315 141.859 159.315 141.243 159.316C140.936 159.316 140.63 159.317 140.314 159.317C134.516 159.323 128.719 159.322 122.921 159.32C117.62 159.319 112.32 159.325 107.019 159.335C101.573 159.345 96.128 159.349 90.6825 159.348C87.6263 159.347 84.5702 159.349 81.5141 159.356C78.912 159.362 76.3099 159.363 73.7078 159.358C72.3809 159.355 71.0542 159.355 69.7273 159.361C68.5109 159.366 67.2947 159.365 66.0783 159.358C65.64 159.357 65.2016 159.358 64.7634 159.362C61.2667 159.392 58.4261 158.854 55.7841 156.444C54.044 154.556 52.748 152.254 52.7678 149.639C52.7688 149.416 52.7697 149.192 52.7707 148.961C52.7732 148.73 52.7757 148.499 52.7782 148.262C52.7796 148.026 52.7809 147.791 52.7823 147.549C52.7858 146.97 52.7911 146.391 52.7968 145.812Z" fill="#5094FE"/>
<path d="M74.1719 88.2188C75.6085 88.1914 77.0441 88.1678 78.4808 88.1535C78.9685 88.1476 79.4563 88.1395 79.944 88.1292C80.6486 88.1146 81.3529 88.108 82.0576 88.1028C82.3802 88.0936 82.3802 88.0936 82.7092 88.0842C84.3341 88.0835 85.582 88.5008 86.9375 89.4063C88.6408 91.3279 88.4672 93.7644 88.4509 96.1973C88.4504 96.4377 88.45 96.6782 88.4496 96.9259C88.4479 97.685 88.4442 98.4441 88.4404 99.2031C88.4389 99.7215 88.4376 100.24 88.4364 100.758C88.4331 102.021 88.428 103.284 88.4219 104.547C88.2259 104.547 88.03 104.547 87.8281 104.547C87.4754 104.985 87.1235 105.425 86.7925 105.881C85.1361 107.533 82.8839 106.922 80.7031 106.922C80.7031 104.179 80.7031 101.436 80.7031 98.6094C83.1523 98.6094 85.6016 98.6094 88.125 98.6094C88.125 97.9236 88.125 97.2378 88.125 96.5313C83.5205 96.5313 78.9159 96.5313 74.1719 96.5313C74.1719 93.7881 74.1719 91.045 74.1719 88.2188Z" fill="#FBD376"/>
<path d="M127.394 131.998C127.656 131.997 127.918 131.996 128.188 131.995C128.74 131.994 129.293 131.996 129.845 132.001C130.685 132.008 131.524 132.001 132.364 131.994C132.903 131.995 133.442 131.996 133.981 131.998C134.354 131.995 134.354 131.995 134.734 131.991C136.829 132.024 138.417 132.592 139.93 134.067C140.649 135.776 140.802 137.83 140.148 139.599C139.39 140.796 138.432 141.512 137.11 141.953C136.705 141.984 136.298 142 135.892 142.006C135.648 142.009 135.405 142.013 135.153 142.017C134.76 142.02 134.76 142.02 134.358 142.024C134.087 142.026 133.815 142.029 133.536 142.031C132.962 142.035 132.387 142.038 131.813 142.041C130.937 142.046 130.062 142.059 129.186 142.072C128.628 142.075 128.07 142.077 127.511 142.079C127.25 142.085 126.99 142.09 126.721 142.095C125.085 142.089 124.159 141.854 122.86 140.766C121.632 139.369 121.568 138.049 121.59 136.251C121.748 134.661 122.391 133.737 123.622 132.703C124.934 131.999 125.93 131.984 127.394 131.998Z" fill="#FCFDFE"/>
<path d="M97.1124 131.998C97.3744 131.997 97.6365 131.996 97.9064 131.995C98.4588 131.994 99.0113 131.996 99.5637 132.001C100.404 132.008 101.243 132.001 102.083 131.994C102.622 131.995 103.16 131.996 103.699 131.998C104.072 131.995 104.072 131.995 104.452 131.991C106.166 132.018 107.473 132.383 108.906 133.344C109.903 134.39 110.167 135.183 110.205 136.591C110.062 139.567 110.062 139.567 109.085 140.618C108.017 141.533 107.298 141.987 105.914 142.006C105.539 142.011 105.539 142.011 105.157 142.017C104.887 142.019 104.616 142.022 104.337 142.024C104.059 142.026 103.781 142.029 103.494 142.031C102.904 142.035 102.314 142.038 101.724 142.041C100.824 142.046 99.9245 142.059 99.0247 142.072C98.4515 142.075 97.8782 142.077 97.3049 142.079C97.0368 142.085 96.7686 142.09 96.4923 142.095C94.8348 142.09 93.8932 141.871 92.5781 140.766C91.4436 139.601 91.2959 138.628 91.2422 137.055C91.2959 135.482 91.4436 134.508 92.5781 133.344C94.0984 132.09 95.2244 131.98 97.1124 131.998Z" fill="#FCFDFE"/>
<path d="M66.7362 132.096C67.0013 132.094 67.2664 132.093 67.5395 132.091C68.1016 132.088 68.6636 132.086 69.2256 132.085C70.0824 132.082 70.939 132.073 71.7958 132.064C72.342 132.062 72.8882 132.06 73.4344 132.059C73.6896 132.055 73.9448 132.052 74.2077 132.048C75.9131 132.054 77.2208 132.29 78.5196 133.503C79.8692 135.268 80.0782 136.473 79.8126 138.688C79.1979 140.254 78.3712 141.23 76.8439 141.953C75.8856 142.087 74.9355 142.085 73.9691 142.082C73.5535 142.084 73.5535 142.084 73.1296 142.087C72.545 142.089 71.9603 142.088 71.3757 142.086C70.4836 142.083 69.5921 142.092 68.7001 142.101C68.1309 142.102 67.5617 142.101 66.9925 142.101C66.7271 142.104 66.4617 142.107 66.1883 142.111C64.5434 142.092 63.6024 141.86 62.297 140.766C60.9708 139.37 60.9862 138.117 61.0098 136.284C61.1381 135.174 61.3588 134.308 62.13 133.478C63.7592 132.224 64.7135 132.106 66.7362 132.096Z" fill="#FCFEFE"/>
<path d="M158.001 131.988C158.394 131.985 158.394 131.985 158.794 131.982C159.345 131.98 159.895 131.981 160.446 131.985C161.283 131.989 162.12 131.979 162.957 131.968C163.495 131.967 164.032 131.968 164.57 131.969C164.941 131.964 164.941 131.964 165.319 131.958C167.423 131.991 168.842 132.757 170.352 134.201C171.119 135.778 170.934 138.035 170.451 139.687C169.798 140.961 168.984 141.446 167.688 141.953C166.723 142.084 165.768 142.092 164.795 142.092C164.381 142.096 164.381 142.096 163.959 142.099C163.377 142.102 162.795 142.103 162.214 142.102C161.327 142.101 160.442 142.114 159.556 142.127C158.989 142.129 158.422 142.129 157.855 142.129C157.461 142.137 157.461 142.137 157.058 142.144C155.183 142.123 154.264 141.7 152.844 140.469C152.057 139.443 152.161 138.333 152.158 137.073C152.153 136.688 152.148 136.302 152.143 135.905C152.259 134.741 152.392 134.233 153.141 133.344C154.794 132.196 156.013 131.976 158.001 131.988Z" fill="#FCFEFE"/>
<path d="M162.938 42.7969C163.231 42.8948 163.525 42.9928 163.828 43.0938C163.869 43.5011 163.897 43.9097 163.921 44.3184C163.947 44.6593 163.947 44.6593 163.973 45.0072C163.753 46.1588 163.213 46.8067 162.344 47.5469C161.097 48.3511 159.794 49.0428 158.484 49.7363C158.1 49.9436 157.715 50.1513 157.331 50.3594C156.532 50.7916 155.732 51.2221 154.932 51.6514C153.238 52.5621 151.557 53.4964 149.875 54.4294C146.749 56.1616 143.612 57.8708 140.468 59.569C138.568 60.5957 136.677 61.6346 134.791 62.6861C132.716 63.8432 130.636 64.9914 128.556 66.1387C128.188 66.3417 127.819 66.5448 127.451 66.7479C125.736 67.6941 124.02 68.6398 122.304 69.5844C121.54 70.0047 120.777 70.4252 120.013 70.8458C119.485 71.137 118.956 71.4278 118.427 71.7186C118.096 71.9009 117.765 72.0832 117.424 72.271C117.099 72.4491 116.774 72.6273 116.439 72.8108C115.733 73.2086 115.041 73.6134 114.35 74.0366C111.01 76.0656 111.01 76.0656 108.795 75.8984C108.419 75.877 108.043 75.8556 107.656 75.8335C107.383 75.8059 107.11 75.7784 106.828 75.75C107.718 75.0465 108.631 74.4998 109.632 73.9676C109.949 73.7983 110.266 73.629 110.592 73.4545C110.93 73.2752 111.267 73.0959 111.615 72.9111C112.322 72.5336 113.028 72.1553 113.734 71.777C114.079 71.5924 114.423 71.4079 114.778 71.2177C115.987 70.5673 117.189 69.9062 118.388 69.2373C118.593 69.1228 118.798 69.0083 119.01 68.8903C119.45 68.6446 119.89 68.3987 120.33 68.1527C124.778 65.666 129.235 63.1956 133.72 60.7746C135.63 59.7431 137.532 58.6993 139.427 57.6421C141.319 56.5871 143.215 55.5394 145.112 54.4933C145.663 54.1895 146.214 53.8855 146.765 53.5816C148.491 52.6292 150.217 51.6777 151.945 50.7285C152.721 50.3025 153.496 49.8761 154.271 49.4497C154.637 49.2483 155.003 49.047 155.37 48.846C156.51 48.2208 157.647 47.589 158.781 46.9531C159.214 46.7156 159.214 46.7156 159.655 46.4733C159.92 46.3232 160.184 46.1731 160.457 46.0184C160.801 45.8259 160.801 45.8259 161.153 45.6295C162.139 44.8738 162.551 43.957 162.938 42.7969Z" fill="#212C44"/>
<path d="M149.06 91.666C149.278 91.6644 149.496 91.6629 149.721 91.6613C150.443 91.6574 151.165 91.66 151.887 91.663C152.389 91.6624 152.891 91.6615 153.392 91.6604C154.444 91.6591 155.496 91.661 156.548 91.6651C157.896 91.6702 159.244 91.6673 160.592 91.662C161.629 91.6587 162.665 91.6598 163.701 91.6621C164.198 91.6627 164.695 91.6619 165.192 91.6599C165.887 91.6576 166.582 91.661 167.277 91.666C167.482 91.6642 167.688 91.6624 167.899 91.6605C168.794 91.6724 169.4 91.7435 170.19 92.1793C170.656 92.6719 170.656 92.6719 170.805 93.5439C170.62 94.6745 170.375 94.953 169.469 95.6406C168.489 95.7894 168.489 95.7894 167.309 95.7896C166.986 95.792 166.986 95.792 166.656 95.7944C165.945 95.7981 165.235 95.7932 164.524 95.7879C164.029 95.7879 163.535 95.7884 163.04 95.7892C162.004 95.7896 160.968 95.7859 159.932 95.7791C158.604 95.7707 157.276 95.7715 155.949 95.7753C154.927 95.7774 153.906 95.7751 152.885 95.7714C152.395 95.77 151.906 95.7699 151.416 95.7711C150.732 95.772 150.048 95.767 149.363 95.7606C148.779 95.7582 148.779 95.7582 148.183 95.7557C147.152 95.6346 146.718 95.5061 146.016 94.75C145.799 93.0142 145.799 93.0142 146.335 92.1688C147.195 91.5855 148.056 91.6572 149.06 91.666Z" fill="#FCFDFF"/>
<path d="M66.3824 88.1897C66.8311 88.1908 66.8311 88.1908 67.2889 88.1919C67.8579 88.196 67.8579 88.196 68.4385 88.2001C70.2478 88.2093 70.2478 88.2093 72.0938 88.2186C72.0938 90.9618 72.0938 93.7049 72.0938 96.5311C68.4689 96.5311 64.8441 96.5311 61.1094 96.5311C61.1094 91.4843 61.1094 91.4843 62.2969 89.703C63.6549 88.4775 64.5752 88.1805 66.3824 88.1897Z" fill="#FCD376"/>
<path d="M69.125 98.6094C72.26 98.6094 75.395 98.6094 78.625 98.6094C78.625 101.352 78.625 104.096 78.625 106.922C75.49 106.922 72.355 106.922 69.125 106.922C69.125 104.179 69.125 101.436 69.125 98.6094Z" fill="#FED373"/>
<path d="M187.875 78.4219C188.66 79.1215 189.084 79.8377 189.545 80.7783C189.734 81.1589 189.734 81.1589 189.928 81.5472C191.013 84.0193 190.925 87.4048 190.12 89.9629C188.123 94.4894 183.37 96.8489 178.969 98.6094C178.969 96.9439 178.969 95.2784 178.969 93.5625C179.284 93.3937 179.599 93.225 179.924 93.0511C184.028 90.8247 186.628 88.9895 188.172 84.3594C188.2 83.63 188.21 82.8998 188.209 82.1699C188.21 81.7819 188.211 81.3938 188.211 80.994C188.179 80.0903 188.088 79.297 187.875 78.4219Z" fill="#FEBC1F"/>
<path d="M157.148 99.9785C157.552 99.9743 157.552 99.9743 157.965 99.97C158.255 99.9718 158.545 99.9736 158.845 99.9754C159.293 99.9742 159.293 99.9742 159.751 99.9729C160.383 99.9722 161.016 99.9739 161.649 99.9776C162.617 99.9824 163.585 99.9777 164.553 99.972C165.168 99.9725 165.782 99.9737 166.396 99.9754C166.831 99.9727 166.831 99.9727 167.275 99.97C167.68 99.9742 167.68 99.9742 168.094 99.9785C168.45 99.9795 168.45 99.9795 168.813 99.9806C169.641 100.123 170.051 100.409 170.656 100.984C170.83 102.006 170.808 102.531 170.24 103.406C169.048 104.251 167.9 104.123 166.472 104.111C166.18 104.112 165.888 104.113 165.587 104.114C164.97 104.115 164.353 104.113 163.736 104.108C162.792 104.102 161.848 104.108 160.904 104.115C160.305 104.115 159.705 104.113 159.106 104.111C158.682 104.114 158.682 104.114 158.25 104.118C156.303 104.09 156.303 104.09 155.336 103.406C154.774 102.538 154.77 101.999 154.921 100.984C155.585 100.101 156.065 99.9817 157.148 99.9785Z" fill="#FBFCFF"/>
<path d="M61.1093 98.6094C63.0687 98.6094 65.0281 98.6094 67.0468 98.6094C67.0468 101.352 67.0468 104.096 67.0468 106.922C63.6492 106.922 63.6492 106.922 62.2968 105.734C61.3923 104.705 61.0701 103.828 61.0803 102.465C61.0811 102.263 61.0818 102.06 61.0826 101.851C61.0866 101.468 61.0866 101.468 61.0908 101.077C61.0969 100.263 61.103 99.4484 61.1093 98.6094Z" fill="#FED373"/>
<path d="M91.3906 135.125C91.4886 135.125 91.5866 135.125 91.6875 135.125C91.6917 135.322 91.6959 135.519 91.7003 135.722C91.7946 137.5 91.7946 137.5 92.708 139.003C93.6794 139.737 94.1408 139.912 95.3327 139.923C95.5953 139.926 95.858 139.929 96.1285 139.931C96.413 139.933 96.6975 139.934 96.9907 139.935C97.2828 139.937 97.575 139.939 97.876 139.94C98.4952 139.943 99.1143 139.945 99.7335 139.946C100.68 139.949 101.626 139.958 102.572 139.968C103.173 139.97 103.774 139.971 104.375 139.972C104.658 139.976 104.941 139.98 105.232 139.984C106.688 139.979 107.747 139.972 108.906 138.984C109.448 138.074 109.448 138.074 109.797 137.203C110.202 138.418 109.969 138.99 109.5 140.172C108.718 141.026 107.773 141.901 106.581 141.997C106.361 142 106.141 142.003 105.914 142.006C105.664 142.009 105.414 142.013 105.157 142.017C104.887 142.019 104.616 142.022 104.337 142.024C104.059 142.026 103.781 142.029 103.494 142.031C102.904 142.035 102.314 142.038 101.724 142.041C100.824 142.046 99.9245 142.059 99.0247 142.072C98.4515 142.075 97.8782 142.078 97.3049 142.08C96.9027 142.087 96.9027 142.087 96.4923 142.095C94.8348 142.09 93.8932 141.871 92.5781 140.766C91.3924 139.549 91.32 138.58 91.3164 136.943C91.3354 136.337 91.3583 135.731 91.3906 135.125Z" fill="#DFE6F1"/>
<path d="M121.672 135.422C121.77 135.422 121.868 135.422 121.969 135.422C121.998 135.622 122.027 135.823 122.057 136.03C122.323 137.7 122.323 137.7 123.138 139.151C124.058 139.793 124.821 139.913 125.913 139.928C126.169 139.931 126.424 139.935 126.688 139.939C126.963 139.941 127.239 139.943 127.523 139.946C127.807 139.948 128.092 139.951 128.385 139.953C128.987 139.957 129.589 139.96 130.191 139.963C131.11 139.968 132.028 139.981 132.947 139.994C133.533 139.997 134.118 139.999 134.703 140.001C134.977 140.007 135.251 140.012 135.533 140.017C137.583 140.01 138.537 139.572 140.041 138.168C140.152 138.046 140.262 137.923 140.375 137.797C140.26 139.413 139.732 140.221 138.594 141.359C137.221 142.119 135.827 142.049 134.3 142.053C134.029 142.055 133.759 142.057 133.48 142.059C132.91 142.062 132.339 142.063 131.768 142.063C130.898 142.064 130.028 142.075 129.157 142.086C128.602 142.088 128.046 142.089 127.49 142.09C127.231 142.094 126.972 142.098 126.706 142.103C125.078 142.091 124.154 141.847 122.86 140.766C121.801 139.561 121.635 138.576 121.654 136.999C121.656 136.704 121.659 136.409 121.662 136.105C121.665 135.88 121.669 135.654 121.672 135.422Z" fill="#DFE6F1"/>
<path d="M79.5156 135.422C79.6136 135.422 79.7116 135.422 79.8125 135.422C79.9786 137.43 79.9327 138.87 78.7978 140.571C77.8199 141.595 76.9358 142.004 75.5317 142.073C75.0108 142.081 74.4898 142.084 73.9689 142.082C73.6919 142.083 73.4149 142.085 73.1295 142.087C72.5448 142.088 71.9602 142.088 71.3756 142.086C70.4835 142.083 69.592 142.092 68.7 142.101C68.1308 142.101 67.5616 142.101 66.9924 142.1C66.727 142.104 66.4616 142.107 66.1882 142.111C64.5462 142.092 63.5942 141.868 62.2969 140.766C61.5732 139.875 61.5732 139.875 61.1094 138.984C61.1836 138.279 61.1836 138.279 61.4062 137.797C61.5777 138.03 61.7491 138.262 61.9258 138.502C62.6923 139.396 63.2435 139.812 64.4212 139.95C64.6515 139.951 64.8817 139.951 65.1189 139.952C65.3814 139.954 65.644 139.956 65.9146 139.957C66.196 139.956 66.4774 139.955 66.7674 139.954C67.2044 139.955 67.2044 139.955 67.6502 139.956C68.2658 139.956 68.8814 139.955 69.497 139.952C70.4378 139.949 71.3785 139.952 72.3193 139.956C72.9179 139.956 73.5165 139.955 74.1151 139.954C74.3959 139.955 74.6767 139.956 74.9661 139.957C76.8677 139.955 76.8677 139.955 78.625 139.281C79.3237 138.093 79.3785 136.77 79.5156 135.422Z" fill="#DFE6F1"/>
<path d="M152.25 137.797C152.393 137.922 152.537 138.047 152.684 138.176C152.872 138.339 153.059 138.501 153.252 138.669C153.438 138.831 153.624 138.993 153.816 139.159C154.637 139.83 155.153 139.914 156.192 139.928C156.455 139.931 156.718 139.935 156.988 139.939C157.273 139.941 157.557 139.943 157.85 139.946C158.143 139.948 158.435 139.951 158.736 139.953C159.355 139.957 159.974 139.96 160.593 139.963C161.539 139.968 162.485 139.981 163.431 139.994C164.033 139.997 164.634 139.999 165.235 140.001C165.518 140.007 165.801 140.012 166.092 140.017C167.373 140.013 168.078 140.004 169.181 139.306C169.47 139 169.47 139 169.766 138.687C169.944 138.516 170.121 138.345 170.304 138.168C170.42 138.046 170.537 137.923 170.657 137.797C170.582 139.059 170.488 139.719 169.673 140.71C168.591 141.591 167.816 142.024 166.414 142.044C166.165 142.049 165.917 142.054 165.66 142.058C165.26 142.061 165.26 142.061 164.852 142.063C164.437 142.067 164.437 142.067 164.014 142.071C163.429 142.076 162.844 142.078 162.258 142.079C161.367 142.083 160.476 142.098 159.585 142.113C159.015 142.115 158.445 142.118 157.876 142.119C157.611 142.125 157.346 142.131 157.074 142.137C155.19 142.123 154.267 141.711 152.844 140.469C152.206 139.581 152.19 138.876 152.25 137.797Z" fill="#E0E6F1"/>
<path d="M94.9531 57.9375C95.247 58.0845 95.247 58.0845 95.5469 58.2344C89.6873 62.4966 83.5614 66.161 77.1406 69.5156C76.8606 69.6645 76.5807 69.8134 76.2922 69.9667C76.0253 70.1057 75.7584 70.2446 75.4835 70.3877C75.1259 70.5754 75.1259 70.5754 74.7612 70.7669C74.4695 70.8823 74.4695 70.8823 74.1719 71C73.9759 70.902 73.78 70.8041 73.5781 70.7031C80.0324 65.888 87.3222 60.7029 94.9531 57.9375Z" fill="#FEFAF0"/>
<path d="M145.94 149.039C146.855 149.041 147.77 149.039 148.685 149.037C156.453 149.035 156.453 149.035 159.375 149.672C159.375 149.77 159.375 149.868 159.375 149.969C157.839 150.303 156.341 150.371 154.773 150.433C154.463 150.445 154.152 150.457 153.833 150.47C147.018 150.715 140.023 150.896 133.25 149.969C134.36 149.228 135.284 149.241 136.575 149.192C136.822 149.181 137.07 149.169 137.325 149.158C140.196 149.041 143.067 149.033 145.94 149.039Z" fill="#FBFDFF"/>
<path d="M165.906 51.1094C167.303 52.3838 168.301 53.8399 169.339 55.4141C169.52 55.6878 169.701 55.9615 169.888 56.2435C172.347 60.0046 174.596 63.884 176.538 67.9385C176.64 68.1502 176.742 68.3619 176.848 68.5801C177.08 69.0812 177.285 69.5945 177.484 70.1094C177.386 70.3053 177.288 70.5012 177.188 70.7031C165.906 55.7476 165.906 55.7476 165.906 51.1094Z" fill="#FFFBF4"/>
<path d="M52.7969 72.4844C52.9928 72.5823 53.1887 72.6803 53.3906 72.7812C52.9272 73.2023 52.4633 73.6228 51.999 74.043C51.7407 74.2772 51.4824 74.5114 51.2162 74.7527C50.4741 75.4071 49.7155 76.0295 48.9375 76.6406C49.3409 75.3864 49.8688 74.7438 50.8672 73.8945C51.1029 73.6909 51.3387 73.4873 51.5815 73.2776C52.2031 72.7812 52.2031 72.7812 52.7969 72.4844Z" fill="#FEC230"/>
<path d="M135.384 149.338C135.944 149.356 135.944 149.356 136.516 149.375C136.516 149.473 136.516 149.571 136.516 149.672C137.005 149.77 137.495 149.868 138 149.969C138 150.067 138 150.165 138 150.266C136.432 150.168 134.865 150.07 133.25 149.969C134.167 149.357 134.351 149.304 135.384 149.338Z" fill="#CAE7FE"/>
<path d="M156.703 149.375C157.585 149.473 158.467 149.571 159.375 149.672C159.375 149.77 159.375 149.868 159.375 149.969C158.066 150.296 156.856 150.288 155.516 150.266C155.908 150.168 156.299 150.07 156.703 149.969C156.703 149.773 156.703 149.577 156.703 149.375Z" fill="#C6E5FE"/>
<path d="M75.9531 68.9219C76.1491 69.0198 76.345 69.1178 76.5469 69.2188C75.6506 70.2529 74.8935 70.6412 73.5781 71C74.3434 70.214 75.0377 69.5322 75.9531 68.9219Z" fill="#FEF1D0"/>
<g clip-path="url(#clip0_789_397)">
<path d="M117.461 50.9677C117.566 50.9679 117.671 50.9681 117.78 50.9684C119.292 50.9735 120.776 50.9995 122.261 51.3106C122.362 51.3311 122.463 51.3517 122.567 51.3729C127.575 52.4205 132.129 54.6892 135.822 58.2461C135.924 58.3443 135.924 58.3443 136.029 58.4444C137.011 59.391 137.916 60.3534 138.72 61.4551C138.809 61.5743 138.898 61.6934 138.987 61.8126C139.612 62.6605 140.166 63.5418 140.687 64.4571C140.725 64.5225 140.762 64.5879 140.801 64.6552C143.038 68.5628 144.049 72.9898 144.032 77.4612C144.032 77.5666 144.031 77.6719 144.031 77.7805C144.026 79.2928 144 80.7764 143.689 82.2617C143.658 82.4131 143.658 82.4131 143.627 82.5675C142.565 87.6406 140.253 92.1957 136.65 95.9258C136.588 95.9901 136.526 96.0543 136.462 96.1206C135.669 96.9384 134.867 97.7195 133.959 98.4102C133.903 98.4533 133.847 98.4964 133.789 98.5409C130.49 101.077 126.706 102.784 122.63 103.618C122.556 103.634 122.481 103.649 122.405 103.665C120.885 103.953 119.382 104.036 117.838 104.033C117.534 104.032 117.23 104.035 116.926 104.037C115.541 104.042 114.206 103.917 112.841 103.689C112.665 103.66 112.665 103.66 112.485 103.63C108.006 102.826 103.757 100.757 100.316 97.7891C100.239 97.7234 100.162 97.6578 100.082 97.5901C98.6842 96.3675 97.3726 95.0476 96.2788 93.5449C96.1902 93.4259 96.1015 93.3069 96.0128 93.1879C95.3875 92.3401 94.8303 91.4598 94.312 90.543C94.2704 90.4698 94.2288 90.3966 94.1859 90.3212C92.8375 87.9263 91.9319 85.3207 91.3813 82.6305C91.366 82.5561 91.3507 82.4817 91.335 82.405C91.0272 80.7854 90.9609 79.1836 90.9672 77.5388C90.9674 77.4335 90.9676 77.3281 90.9679 77.2195C90.973 75.7073 90.999 74.2237 91.3101 72.7383C91.3307 72.6374 91.3512 72.5365 91.3724 72.4325C92.42 67.4242 94.6888 62.8708 98.2456 59.1778C98.3111 59.1095 98.3765 59.0413 98.4439 58.9709C99.3905 57.9887 100.353 57.084 101.455 56.2793C101.574 56.1905 101.693 56.1017 101.812 56.0129C102.66 55.3879 103.54 54.8307 104.457 54.3125C104.53 54.2709 104.603 54.2293 104.678 54.1864C107.073 52.838 109.679 51.9324 112.369 51.3817C112.443 51.3665 112.518 51.3512 112.595 51.3355C114.214 51.0277 115.816 50.9614 117.461 50.9677Z" fill="#73DA7E"/>
<path d="M130.025 54.1055C130.466 54.2655 130.861 54.4849 131.261 54.7266C131.329 54.7674 131.396 54.8082 131.466 54.8503C132.606 55.5474 133.668 56.3434 134.684 57.2109C134.761 57.2769 134.839 57.3428 134.919 57.4107C136.316 58.634 137.627 59.9526 138.721 61.4551C138.809 61.5741 138.898 61.6931 138.987 61.8121C139.612 62.6601 140.167 63.5416 140.687 64.457C140.725 64.5224 140.763 64.5878 140.802 64.6552C143.038 68.5628 144.049 72.9898 144.032 77.4612C144.032 77.5666 144.032 77.6719 144.032 77.7805C144.027 79.2927 144.001 80.7763 143.689 82.2617C143.659 82.4131 143.659 82.4131 143.627 82.5675C142.566 87.6406 140.253 92.1957 136.65 95.9258C136.588 95.99 136.526 96.0543 136.463 96.1205C135.669 96.9384 134.868 97.7195 133.959 98.4102C133.903 98.4533 133.847 98.4964 133.79 98.5409C130.491 101.077 126.707 102.784 122.63 103.618C122.556 103.634 122.482 103.649 122.405 103.665C120.886 103.953 119.382 104.036 117.839 104.033C117.534 104.032 117.23 104.035 116.926 104.037C115.542 104.042 114.207 103.917 112.842 103.689C112.665 103.66 112.665 103.66 112.485 103.63C108.006 102.826 103.757 100.757 100.316 97.7891C100.201 97.6906 100.201 97.6906 100.083 97.5901C98.6847 96.3675 97.373 95.0476 96.2793 93.5449C96.1906 93.4259 96.1019 93.3069 96.0132 93.1879C95.5534 92.5641 95.127 91.9246 94.7266 91.2611C94.6878 91.197 94.6491 91.1329 94.6092 91.0668C94.4094 90.7287 94.2395 90.3947 94.1055 90.0254C94.216 90.0505 94.3264 90.0756 94.4403 90.1014C95.2996 90.2953 96.1602 90.4832 97.0233 90.6594C97.1017 90.6758 97.18 90.6922 97.2608 90.7091C97.5196 90.7612 97.7789 90.8083 98.0391 90.8535C98.145 90.8724 98.2509 90.8913 98.3601 90.9107C99.4934 91.0884 100.617 91.0921 101.762 91.0875C102.093 91.0864 102.424 91.0875 102.755 91.0889C104.459 91.0901 106.158 91.0173 107.828 90.653C107.956 90.6265 107.956 90.6265 108.086 90.5995C108.638 90.4832 109.18 90.3463 109.717 90.1722C110.097 90.0996 110.364 90.1744 110.693 90.3711C110.768 90.4257 110.843 90.4803 110.92 90.5365C111.881 91.2006 113.056 91.2973 114.194 91.1127C115.755 90.7607 116.734 89.8241 117.767 88.6461C118.052 88.3314 118.349 88.0331 118.652 87.7351C118.985 87.4061 119.312 87.0767 119.616 86.7194C119.943 86.3341 120.298 85.9812 120.657 85.626C121.014 85.2729 121.367 84.9225 121.692 84.5391C122.072 84.0914 122.491 83.686 122.908 83.2738C123.204 82.9795 123.492 82.6842 123.763 82.3652C124.142 81.9176 124.561 81.5122 124.978 81.1C125.275 80.8056 125.563 80.5104 125.833 80.1914C126.212 79.7438 126.632 79.3384 127.049 78.9262C127.345 78.6318 127.633 78.3365 127.903 78.0176C128.283 77.57 128.702 77.1645 129.119 76.7523C129.415 76.458 129.703 76.1627 129.974 75.8438C130.299 75.4603 130.652 75.1099 131.009 74.7568C131.438 74.332 131.857 73.9058 132.246 73.4435C132.358 73.3128 132.473 73.1858 132.592 73.0618C133.54 72.0569 133.914 70.8235 133.887 69.4638C133.769 68.1735 133.1 67.0065 132.125 66.1687C131.908 66.0226 131.694 65.9085 131.46 65.7928C131.385 65.7558 131.31 65.7188 131.233 65.6807C131.176 65.6526 131.119 65.6246 131.061 65.5957C131.063 65.4636 131.065 65.3315 131.067 65.1954C131.119 61.716 131.131 58.2256 130.117 54.8604C130.025 54.5195 130.025 54.5195 130.025 54.1055Z" fill="#2AD352"/>
<path d="M132.23 66.1714C133.222 66.9726 133.849 68.1866 133.998 69.4455C134.049 70.7985 133.601 72.1084 132.679 73.1066C132.501 73.2839 132.322 73.4594 132.14 73.633C131.928 73.8386 131.736 74.0461 131.546 74.2715C131.214 74.6606 130.855 75.0184 130.491 75.3778C130.134 75.7309 129.781 76.0814 129.456 76.4648C129.077 76.9124 128.657 77.3178 128.241 77.73C127.944 78.0244 127.656 78.3196 127.386 78.6386C127.006 79.0862 126.587 79.4916 126.17 79.9038C125.874 80.1982 125.586 80.4935 125.315 80.8124C124.936 81.26 124.517 81.6655 124.1 82.0777C123.804 82.372 123.515 82.6673 123.245 82.9862C122.866 83.4339 122.446 83.8393 122.03 84.2515C121.733 84.5459 121.445 84.8411 121.175 85.1601C120.795 85.6077 120.376 86.0131 119.959 86.4253C119.663 86.7197 119.375 87.0149 119.104 87.3339C118.726 87.7811 118.307 88.1865 117.89 88.5978C117.581 88.9036 117.287 89.2123 117.008 89.5466C116.192 90.4944 115.126 91.1079 113.877 91.2675C112.51 91.3544 111.385 91.0925 110.299 90.2279C110.035 89.9945 109.781 89.7542 109.529 89.5077C109.396 89.3786 109.396 89.3786 109.26 89.2469C108.886 88.8795 108.525 88.5096 108.185 88.1107C107.632 87.4742 107.023 86.891 106.424 86.2987C105.1 84.9908 105.1 84.9908 104.718 84.5406C104.399 84.1656 104.055 83.8215 103.704 83.4763C103.645 83.4179 103.586 83.3594 103.525 83.2992C103.278 83.0564 103.031 82.8138 102.783 82.5723C101.42 81.2423 100.124 79.9184 100.058 77.8946C100.133 76.4192 100.668 75.2996 101.736 74.2881C102.91 73.2751 104.171 73.1518 105.675 73.2339C106.159 73.2796 106.525 73.4333 106.941 73.6698C107.007 73.7071 107.073 73.7444 107.141 73.7829C107.874 74.2369 108.453 74.8309 109.053 75.4422C109.231 75.6233 109.41 75.8033 109.59 75.9832C110.115 76.5123 110.629 77.0449 111.113 77.612C111.478 78.0241 111.875 78.4067 112.266 78.7939C112.394 78.9216 112.394 78.9216 112.525 79.0518C112.734 79.2594 112.943 79.4667 113.152 79.6737C113.487 79.5268 113.71 79.3491 113.966 79.0907C114.041 79.0157 114.116 78.9407 114.193 78.8634C114.27 78.785 114.347 78.7065 114.427 78.6257C114.503 78.5496 114.579 78.4735 114.657 78.3952C115.081 77.9676 115.486 77.529 115.879 77.073C116.147 76.7701 116.434 76.4885 116.724 76.206C117.081 75.8531 117.434 75.5024 117.759 75.1191C118.138 74.6714 118.557 74.266 118.974 73.8538C119.271 73.5595 119.559 73.2642 119.829 72.9452C120.208 72.4976 120.628 72.0922 121.045 71.68C121.341 71.3856 121.629 71.0904 121.899 70.7714C122.279 70.3239 122.698 69.9186 123.114 69.5066C123.475 69.1485 123.816 68.7816 124.144 68.3938C124.437 68.0657 124.753 67.7601 125.066 67.4521C125.306 67.2146 125.533 66.9785 125.736 66.7084C127.476 64.7451 130.17 64.772 132.23 66.1714Z" fill="#FEFEFE"/>
</g>
<defs>
<clipPath id="clip0_789_397">
<rect width="53" height="53" fill="white" transform="translate(91 51)"/>
</clipPath>
</defs>
</svg>
