<svg width="241" height="184" viewBox="0 0 241 184" fill="none" xmlns="http://www.w3.org/2000/svg">
<path d="M187.13 46.1418V55.5817" stroke="#FF9900" stroke-width="1.04638" stroke-miterlimit="10" stroke-linecap="round"/>
<path d="M182.41 50.8621H191.85" stroke="#FF9900" stroke-width="1.04638" stroke-miterlimit="10" stroke-linecap="round"/>
<path d="M67.0801 1V9.33806" stroke="#FF9900" stroke-width="1.04638" stroke-miterlimit="10" stroke-linecap="round"/>
<path d="M62.9111 5.1687H71.2492" stroke="#FF9900" stroke-width="1.04638" stroke-miterlimit="10" stroke-linecap="round"/>
<path d="M221.383 8.57485C221.383 9.67171 221.057 10.7439 220.448 11.6559C219.839 12.5679 218.972 13.2788 217.959 13.6985C216.946 14.1183 215.831 14.2281 214.755 14.0141C213.679 13.8001 212.691 13.2719 211.915 12.4963C211.14 11.7207 210.612 10.7326 210.398 9.65678C210.184 8.581 210.293 7.46593 210.713 6.45257C211.133 5.4392 211.844 4.57307 212.756 3.96369C213.668 3.35431 214.74 3.02905 215.837 3.02905C217.308 3.02905 218.718 3.61334 219.758 4.65338C220.798 5.69342 221.383 7.10401 221.383 8.57485Z" stroke="#FF9900" stroke-width="1.04638" stroke-miterlimit="10"/>
<path d="M25.6678 125.948C25.6678 127.045 25.3425 128.117 24.7331 129.029C24.1238 129.941 23.2576 130.652 22.2443 131.072C21.2309 131.491 20.1158 131.601 19.04 131.387C17.9643 131.173 16.9761 130.645 16.2005 129.869C15.4249 129.094 14.8967 128.106 14.6827 127.03C14.4687 125.954 14.5786 124.839 14.9983 123.826C15.4181 122.812 16.1289 121.946 17.0409 121.337C17.9529 120.727 19.0251 120.402 20.122 120.402C21.5928 120.402 23.0034 120.986 24.0434 122.026C25.0835 123.066 25.6678 124.477 25.6678 125.948Z" stroke="#FF9900" stroke-width="1.04638" stroke-miterlimit="10"/>
<path d="M239.698 119.579C239.698 120.11 239.54 120.629 239.245 121.07C238.95 121.512 238.531 121.856 238.04 122.059C237.55 122.262 237.01 122.315 236.489 122.211C235.968 122.108 235.49 121.852 235.115 121.477C234.739 121.101 234.483 120.623 234.38 120.102C234.276 119.581 234.329 119.041 234.532 118.551C234.736 118.06 235.08 117.641 235.521 117.346C235.963 117.051 236.482 116.893 237.013 116.893C237.725 116.893 238.408 117.176 238.912 117.68C239.415 118.183 239.698 118.866 239.698 119.579Z" stroke="#FF9900" stroke-width="1.04638" stroke-miterlimit="10"/>
<path d="M45.079 103.549C45.0789 104.08 44.9213 104.599 44.6263 105.04C44.3312 105.482 43.9119 105.826 43.4213 106.029C42.9307 106.232 42.3908 106.285 41.87 106.181C41.3493 106.078 40.8709 105.822 40.4954 105.447C40.1199 105.071 39.8642 104.593 39.7606 104.072C39.657 103.551 39.7101 103.011 39.9133 102.521C40.1164 102.03 40.4605 101.611 40.902 101.316C41.3434 101.021 41.8625 100.863 42.3935 100.863C43.1057 100.863 43.7888 101.146 44.2924 101.65C44.7961 102.153 45.079 102.836 45.079 103.549Z" stroke="#FF9900" stroke-width="1.04638" stroke-miterlimit="10"/>
<path d="M227.996 105.778C228.009 106.793 227.82 107.8 227.44 108.741C227.061 109.683 226.498 110.54 225.785 111.262C225.071 111.984 224.222 112.557 223.285 112.949C222.349 113.34 221.343 113.541 220.328 113.541H165.567C166.362 114.995 166.665 116.668 166.43 118.309C166.195 119.95 165.435 121.471 164.263 122.644C163.816 123.089 163.316 123.48 162.776 123.806H172.892C174.933 123.786 176.9 124.568 178.371 125.983C179.842 127.398 180.7 129.333 180.759 131.373C180.772 132.389 180.583 133.396 180.203 134.338C179.824 135.279 179.261 136.136 178.548 136.858C177.834 137.581 176.985 138.155 176.048 138.546C175.112 138.938 174.107 139.14 173.092 139.141H122.808C121.13 139.14 119.498 138.59 118.163 137.573C116.828 136.556 115.863 135.129 115.417 133.511C114.971 131.894 115.068 130.174 115.693 128.617C116.318 127.059 117.436 125.75 118.877 124.889H88.7533C86.7123 124.909 84.7451 124.127 83.2741 122.712C81.8031 121.297 80.9457 119.362 80.8861 117.322C80.8688 115.953 81.2181 114.605 81.8977 113.417C82.5773 112.23 83.5625 111.245 84.7509 110.567C83.5049 109.921 82.4604 108.945 81.7315 107.745C81.0026 106.546 80.6173 105.169 80.6177 103.765V94.3741C80.6165 93.1752 80.897 91.9927 81.4366 90.9221C81.9762 89.8515 82.7599 88.9226 83.7244 88.2104H29.5953C27.5567 88.2295 25.5916 87.4494 24.1211 86.0373C22.6506 84.6252 21.7916 82.6933 21.7281 80.6556C21.713 79.6392 21.9002 78.63 22.2787 77.6866C22.6573 76.7433 23.2197 75.8846 23.9332 75.1606C24.6467 74.4367 25.4971 73.8618 26.4348 73.4695C27.3726 73.0773 28.379 72.8755 29.3954 72.8758H33.2226C34.793 72.8752 36.299 72.2511 37.4094 71.1406C38.5199 70.0302 39.144 68.5242 39.1445 66.9538V66.9496C39.144 65.3792 38.5199 63.8732 37.4094 62.7628C36.299 61.6523 34.793 61.0282 33.2226 61.0276H7.75479C6.74071 61.0395 5.73436 60.85 4.79405 60.4701C3.85373 60.0902 2.99814 59.5275 2.27685 58.8146C1.55556 58.1017 0.982913 57.2528 0.59208 56.317C0.201246 55.3811 0 54.3771 0 53.3629C0 52.3488 0.201246 51.3447 0.59208 50.4089C0.982913 49.4731 1.55556 48.6241 2.27685 47.9112C2.99814 47.1983 3.85373 46.6356 4.79405 46.2557C5.73436 45.8759 6.74071 45.6864 7.75479 45.6982H44.5747C45.5815 45.6985 46.5785 45.5005 47.5087 45.1154C48.439 44.7304 49.2843 44.1659 49.9964 43.4542C50.7085 42.7425 51.2734 41.8975 51.659 40.9675C52.0445 40.0374 52.2431 39.0405 52.2434 38.0338C52.2436 37.027 52.0456 36.03 51.6606 35.0997C51.2755 34.1695 50.7111 33.3242 49.9993 32.6121C49.2876 31.9 48.4426 31.335 47.5126 30.9495C46.5826 30.564 45.5857 30.3654 44.5789 30.3651H34.0628C32.0194 30.3835 30.0505 29.5989 28.5799 28.18C27.1093 26.7612 26.2546 24.8216 26.1998 22.7789C26.1891 21.7653 26.3795 20.7597 26.7601 19.8202C27.1406 18.8807 27.7037 18.0261 28.4168 17.3057C29.1299 16.5853 29.9788 16.0135 30.9143 15.6234C31.8499 15.2333 32.8535 15.0327 33.8671 15.0331H103.805C105.798 15.0137 107.722 15.7583 109.183 17.1137C110.644 18.4691 111.53 20.3325 111.66 22.3211C111.727 23.6801 111.432 25.0326 110.806 26.2403H201C202.014 26.2285 203.021 26.418 203.961 26.7978C204.901 27.1777 205.757 27.7404 206.478 28.4533C207.199 29.1662 207.772 30.0152 208.163 30.951C208.554 31.8868 208.755 32.8909 208.755 33.905C208.755 34.9192 208.554 35.9232 208.163 36.8591C207.772 37.7949 207.199 38.6438 206.478 39.3567C205.757 40.0696 204.901 40.6323 203.961 41.0122C203.021 41.3921 202.014 41.5816 201 41.5697H167.591C167.59 43.2198 166.934 44.802 165.768 45.9688C164.601 47.1356 163.019 47.7916 161.369 47.7925H123.712C124.828 48.846 125.602 50.2105 125.934 51.7092C126.266 53.2079 126.14 54.7717 125.573 56.198C125.006 57.6243 124.023 58.8474 122.753 59.7088C121.482 60.5702 119.982 61.0302 118.447 61.0292H107.919C107.505 61.0288 107.095 61.11 106.712 61.2683C106.329 61.4265 105.981 61.6587 105.688 61.9515C105.394 62.2442 105.162 62.5919 105.003 62.9746C104.844 63.3574 104.762 63.7676 104.762 64.1819V64.1861C104.762 64.6005 104.844 65.0107 105.003 65.3934C105.162 65.7761 105.394 66.1238 105.688 66.4166C105.981 66.7094 106.329 66.9416 106.712 67.0998C107.095 67.258 107.505 67.3393 107.919 67.3389H193.391C194.405 67.327 195.411 67.5165 196.352 67.8964C197.292 68.2763 198.148 68.839 198.869 69.5519C199.59 70.2648 200.163 71.1137 200.554 72.0495C200.945 72.9854 201.146 73.9894 201.146 75.0036C201.146 76.0177 200.945 77.0218 200.554 77.9576C200.163 78.8934 199.59 79.7424 198.869 80.4553C198.148 81.1682 197.292 81.7309 196.352 82.1108C195.411 82.4906 194.405 82.6801 193.391 82.6683H171.285C172.406 83.3541 173.332 84.3163 173.975 85.4625C174.617 86.6088 174.954 87.9009 174.954 89.215V91.4014C174.955 92.8078 174.568 94.1873 173.837 95.3885C173.105 96.5897 172.057 97.5661 170.807 98.2107H220.129C222.17 98.191 224.137 98.9726 225.608 100.388C227.079 101.802 227.937 103.738 227.996 105.778" fill="#FFEFD9"/>
<path d="M119.969 183.146C157.507 183.146 187.938 181.067 187.938 178.502C187.938 175.938 157.507 173.858 119.969 173.858C82.4308 173.858 52 175.938 52 178.502C52 181.067 82.4308 183.146 119.969 183.146Z" fill="#666666"/>
<path d="M99.2036 107.246C100.273 107.359 101.232 106.583 101.344 105.514C101.457 104.444 100.682 103.486 99.6123 103.373C98.5428 103.26 97.5843 104.036 97.4714 105.105C97.3586 106.175 98.1341 107.133 99.2036 107.246Z" fill="#FCD294"/>
<g clip-path="url(#clip0_789_359)">
<path d="M133.903 34.7862C136.234 36.0119 137.296 38.0412 138.05 40.455C138.191 40.9335 138.191 40.9335 138.334 41.4218C138.484 41.9173 138.484 41.9173 138.638 42.4228C138.925 43.3741 139.205 44.3275 139.484 45.2812C139.622 45.7316 139.761 46.182 139.899 46.6322C140.836 49.8315 141.296 53.1597 139.781 56.2655C138.517 58.2441 136.858 59.8928 135.205 61.5449C134.771 61.9807 134.341 62.421 133.912 62.8617C131.425 65.379 128.978 66.859 125.401 67.0829C122.026 67.0008 118.583 65.4346 115.415 64.3751C115.13 64.2799 114.845 64.1847 114.552 64.0867C113.857 63.8548 113.163 63.6227 112.469 63.3905C112.887 65.1482 113.325 66.8999 113.779 68.6489C113.93 69.2425 114.077 69.8373 114.218 70.4333C115.226 74.6653 116.369 77.127 119.89 79.7187C120.312 80.0761 120.729 80.4377 121.142 80.8053C121.324 80.9634 121.507 81.1215 121.695 81.2844C122.875 82.3439 123.986 83.4748 125.104 84.5985C125.345 84.8383 125.586 85.0781 125.834 85.3251C127.279 86.7723 128.664 88.2508 129.984 89.8124C130.214 90.0841 130.214 90.0841 130.449 90.3613C132.795 93.1569 134.955 96.0537 137.025 99.0577C137.543 99.8079 138.069 100.553 138.594 101.298C138.752 101.526 138.91 101.755 139.074 101.99C139.413 102.476 139.763 102.955 140.115 103.432C140.97 104.856 141.542 106.381 142.156 107.922C142.309 108.291 142.462 108.66 142.615 109.028C144.731 114.139 146.166 119.269 143.948 124.648C142.984 126.379 141.467 127.983 139.781 129C139.257 129.123 138.729 129.231 138.199 129.33C134.869 130.027 131.817 131.596 128.722 132.971C128.025 133.277 127.328 133.584 126.63 133.89C125.554 134.362 124.478 134.835 123.402 135.308C120.081 136.77 116.748 138.202 113.411 139.627C111.891 140.276 110.372 140.926 108.853 141.577C108.569 141.698 108.284 141.82 107.992 141.945C105.764 142.899 103.54 143.861 101.317 144.827C96.8095 146.787 92.2892 148.717 87.7701 150.651C82.7954 152.78 77.828 154.925 72.8668 157.085C70.3286 158.19 67.7883 159.289 65.2477 160.388C64.4003 160.755 63.5533 161.122 62.7063 161.49C61.4508 162.034 60.1932 162.574 58.9338 163.109C58.4883 163.299 58.0434 163.491 57.5993 163.685C54.3952 165.078 51.539 166.112 48.1105 164.904C45.7504 163.901 44.1754 162.203 43.196 159.859C41.9833 156.289 43.4442 152.905 44.9481 149.726C45.1594 149.261 45.3698 148.796 45.5793 148.33C46.042 147.304 46.5086 146.279 46.9772 145.254C48.2846 142.381 49.5235 139.478 50.7744 136.58C51.5084 134.881 52.2461 133.184 52.9834 131.486C54.8034 127.294 56.6208 123.1 58.4373 118.906C61.0103 112.966 63.5867 107.027 66.1641 101.088C68.2912 96.1872 70.4171 91.2859 72.5405 86.3834C72.9426 85.4552 73.345 84.527 73.7475 83.5989C74.0958 82.7957 74.4441 81.9924 74.7923 81.1892C75.0321 80.6362 75.272 80.0832 75.5118 79.5303C75.8081 78.8468 76.1039 78.1632 76.3993 77.4793C76.7079 76.7664 77.0183 76.0545 77.3308 75.3432C77.4904 74.9772 77.65 74.6111 77.8096 74.245C77.9518 73.9209 78.094 73.5967 78.2405 73.2628C78.6387 72.262 78.9238 71.2538 79.2186 70.2187C79.5049 69.8152 79.803 69.4198 80.1092 69.0312C80.2996 68.6438 80.4846 68.2539 80.6658 67.8622C81.7458 65.6739 83.803 64.0562 86.0594 63.1458C90.6263 61.8606 95.8986 63.7149 99.9998 65.7655C100.043 65.5857 100.087 65.4058 100.132 65.2205C100.199 64.9717 100.265 64.723 100.334 64.4667C100.396 64.2256 100.458 63.9845 100.522 63.7361C101.626 60.9239 103.434 58.8793 105.566 56.7851C105.817 56.5302 106.067 56.2753 106.325 56.0127C108.881 53.4721 111.516 51.542 115.22 51.432C117.5 51.4448 119.593 52.0424 121.764 52.6659C122.16 52.7757 122.555 52.8851 122.95 52.9941C124.01 53.2875 125.068 53.5879 126.125 53.8905C126.513 54.0015 126.902 54.1125 127.29 54.2235C127.592 54.3096 127.893 54.3956 128.203 54.4843C128.104 54.1432 128.005 53.8021 127.903 53.4507C127.533 52.1706 127.17 50.8888 126.808 49.6064C126.651 49.0543 126.493 48.5027 126.333 47.9516C124.222 40.6748 124.222 40.6748 125.383 37.748C127.13 34.7484 130.67 33.8331 133.903 34.7862Z" fill="#EEAA65"/>
<path d="M78.625 72.2969C79.1833 73.1344 79.3474 73.574 79.5713 74.5234C83.5078 89.3341 94.9158 102.974 106.531 112.672C106.809 112.914 107.088 113.156 107.374 113.405C111.174 116.788 111.174 116.788 115.438 119.5C115.141 120.391 115.141 120.391 114.454 120.775C114.149 120.904 113.843 121.033 113.529 121.165C113.181 121.314 112.834 121.462 112.476 121.615C112.09 121.776 111.704 121.937 111.318 122.098C110.918 122.268 110.517 122.438 110.116 122.608C109.264 122.971 108.411 123.332 107.557 123.692C105.598 124.517 103.646 125.357 101.694 126.196C101.034 126.479 100.374 126.761 99.7137 127.044C96.9361 128.233 94.162 129.429 91.3906 130.633C88.2216 132.009 85.0483 133.374 81.8721 134.733C78.2628 136.278 74.6572 137.831 71.0547 139.391C66.1042 141.534 61.1472 143.662 56.1873 145.784C55.6605 146.01 55.1338 146.236 54.61 146.468C52.8071 147.262 51.1021 147.464 49.1776 146.928C48.3654 146.596 47.7783 146.247 47.1562 145.625C47.2596 144.224 47.9268 142.964 48.4945 141.698C48.6005 141.459 48.7066 141.219 48.8158 140.972C49.0447 140.455 49.2742 139.938 49.5043 139.422C50.1198 138.04 50.7304 136.655 51.3415 135.271C51.4655 134.991 51.5894 134.711 51.7172 134.422C52.8447 131.868 53.9472 129.304 55.042 126.736C56.5548 123.192 58.0827 119.655 59.625 116.123C61.6845 111.407 63.7369 106.687 65.7852 101.966C65.9327 101.626 66.0803 101.286 66.2323 100.935C68.3364 96.0851 70.4394 91.2347 72.5407 86.3835C72.9428 85.4553 73.3452 84.5271 73.7477 83.599C74.096 82.7958 74.4442 81.9925 74.7925 81.1893C75.0323 80.6363 75.2721 80.0833 75.512 79.5304C76.5561 77.1219 77.5927 74.7104 78.625 72.2969Z" fill="#FEE166"/>
<path d="M83.7088 69.3837C85.1363 70.431 85.3298 72.4634 85.7498 74.078C86.3087 76.1478 87.0294 78.0649 87.9578 79.997C88.0862 80.2647 88.2146 80.5324 88.3469 80.8082C90.4656 85.1211 93.1283 89.048 96.1404 92.7812C96.3444 93.0422 96.5484 93.3032 96.7585 93.5721C97.944 95.0825 99.1871 96.5253 100.483 97.9417C101.05 98.5666 101.602 99.1991 102.152 99.8377C103.305 101.158 104.528 102.4 105.77 103.636C105.982 103.848 106.193 104.061 106.411 104.28C107.788 105.654 109.207 106.957 110.687 108.219C110.875 108.38 111.062 108.542 111.256 108.708C118.295 114.733 127.599 122.033 137.22 122.599C138.745 122.696 139.533 122.934 140.672 123.953C141.409 125.059 141.378 125.612 141.265 126.922C140.848 127.775 140.45 128.33 139.781 129C139.279 129.112 138.772 129.205 138.264 129.29C134.916 130.027 131.841 131.585 128.722 132.971C128.025 133.277 127.327 133.584 126.63 133.89C125.554 134.362 124.478 134.835 123.402 135.308C120.081 136.77 116.748 138.202 113.411 139.627C111.891 140.276 110.372 140.926 108.853 141.577C108.427 141.759 108.427 141.759 107.992 141.945C105.764 142.899 103.54 143.861 101.317 144.827C96.8095 146.787 92.2892 148.717 87.7701 150.651C82.7954 152.78 77.828 154.925 72.8667 157.085C70.3286 158.19 67.7883 159.289 65.2477 160.388C64.4003 160.755 63.5533 161.122 62.7063 161.49C61.4508 162.034 60.1932 162.574 58.9337 163.109C58.4882 163.299 58.0434 163.491 57.5993 163.685C54.3952 165.078 51.5389 166.112 48.1104 164.904C45.7506 163.901 44.1753 162.203 43.1959 159.859C41.9948 156.321 43.4207 152.933 44.9295 149.781C45.1162 149.374 45.3022 148.967 45.4873 148.559C45.9353 147.576 46.394 146.599 46.8592 145.625C48.3435 146.219 48.3435 146.219 49.041 146.53C51.4176 147.383 53.6814 146.765 55.8837 145.746C56.1391 145.633 56.3945 145.521 56.6576 145.405C57.4884 145.039 58.3153 144.664 59.1424 144.289C59.726 144.03 60.3098 143.771 60.894 143.513C62.0812 142.989 63.2671 142.461 64.452 141.931C66.6744 140.938 68.9084 139.974 71.144 139.012C71.817 138.722 72.4896 138.431 73.1621 138.14C76.4779 136.705 79.7982 135.281 83.1198 133.86C86.0779 132.594 89.0327 131.32 91.9842 130.039C94.9878 128.735 97.9947 127.438 101.005 126.149C101.663 125.867 102.322 125.585 102.98 125.302C104.889 124.483 106.799 123.667 108.713 122.86C109.497 122.53 110.28 122.199 111.063 121.867C111.604 121.639 112.145 121.412 112.687 121.186C113.008 121.05 113.328 120.914 113.658 120.774C114.079 120.598 114.079 120.598 114.509 120.417C115.186 120.149 115.186 120.149 115.437 119.5C115.232 119.432 115.026 119.364 114.815 119.293C113.767 118.822 112.929 118.175 112.042 117.459C111.861 117.315 111.681 117.171 111.494 117.022C107.224 113.592 103.177 109.929 99.2947 106.066C99.1005 105.874 98.9064 105.681 98.7063 105.482C97.3953 104.167 96.1628 102.799 94.9529 101.391C94.6984 101.101 94.4439 100.811 94.1817 100.513C90.4265 96.1623 87.1341 91.5252 84.2654 86.5468C84.1015 86.2672 84.1015 86.2672 83.9342 85.9819C82.5999 83.6914 81.5436 81.3391 80.5916 78.8651C80.4924 78.6075 80.3932 78.3498 80.291 78.0843C79.4061 75.7058 78.7051 73.3681 78.9217 70.8124C79.9489 68.8607 81.7576 68.6423 83.7088 69.3837Z" fill="#EFAA65"/>
<path d="M182.201 43.3457C182.962 43.5755 183.726 43.7963 184.491 44.0161C184.982 44.1605 185.472 44.3055 185.963 44.451C186.301 44.5489 186.301 44.5489 186.646 44.6489C188.871 45.33 190.352 46.3687 191.734 48.2501C192.553 49.9779 192.662 51.8333 192.135 53.6773C191.366 55.3927 190.088 56.6963 188.369 57.4672C185.079 58.6434 181.358 57.0387 178.171 56.1172C177.614 55.9595 177.057 55.8022 176.499 55.6453C175.144 55.2628 173.791 54.875 172.438 54.4844C173.245 57.782 173.245 57.782 174.141 61.0563C175.351 65.2739 176.027 68.4571 173.936 72.5108C172.908 74.1572 171.599 75.4887 170.219 76.8426C169.728 77.3254 169.25 77.8176 168.771 78.3115C166.204 80.9056 163.867 82.4174 160.099 82.5785C157.523 82.5423 155.116 81.8574 152.673 81.0933C151.948 80.8675 151.22 80.6544 150.491 80.4424C147.736 79.6194 145.225 78.8437 143.511 76.379C142.641 74.6155 142.537 72.7377 143.103 70.8682C143.917 68.8188 145.016 67.946 146.928 66.9288C149.195 66.2178 151.369 66.8001 153.587 67.4356C153.873 67.5147 154.16 67.5937 154.454 67.6752C155.36 67.9261 156.263 68.1818 157.167 68.4376C157.784 68.6095 158.401 68.7811 159.019 68.9524C160.524 69.371 162.028 69.7934 163.531 70.2188C163.423 69.9168 163.316 69.6148 163.204 69.3037C162.799 68.165 162.403 67.0235 162.009 65.8809C161.839 65.3902 161.666 64.9002 161.491 64.411C160.085 60.479 159.193 57.0284 160.694 52.9386C161.984 50.627 163.844 48.72 165.702 46.8585C166.012 46.5379 166.012 46.5379 166.328 46.2108C171.154 41.3578 176.011 41.473 182.201 43.3457Z" fill="#F7C3DB"/>
<path d="M133.903 34.7862C136.234 36.0119 137.296 38.0412 138.051 40.455C138.144 40.774 138.238 41.0931 138.334 41.4218C138.485 41.9173 138.485 41.9173 138.639 42.4228C138.926 43.3741 139.206 44.3275 139.485 45.2812C139.623 45.7316 139.761 46.182 139.9 46.6322C140.837 49.8315 141.296 53.1597 139.782 56.2655C138.518 58.2441 136.859 59.8928 135.206 61.5449C134.772 61.9807 134.342 62.421 133.913 62.8617C131.425 65.379 128.979 66.859 125.402 67.0829C122.026 67.0008 118.584 65.4346 115.416 64.3751C115.131 64.2799 114.846 64.1847 114.552 64.0867C113.858 63.8548 113.163 63.6227 112.469 63.3905C112.58 63.757 112.691 64.1235 112.806 64.5011C113.22 65.876 113.623 67.2537 114.024 68.6326C114.198 69.2262 114.375 69.819 114.554 70.4109C116.7 77.4914 116.7 77.4914 114.918 81.0546C113.358 82.7881 112.031 83.7505 109.686 83.9677C107.779 83.8033 106.105 83.1888 104.75 81.7968C103.676 79.8733 103.012 77.883 102.357 75.7851C102.256 75.4716 102.156 75.1582 102.052 74.8353C99.3698 66.3568 99.3698 66.3568 101.051 62.3549C102.34 60.1388 104.061 58.3307 105.864 56.5253C106.086 56.2961 106.308 56.0668 106.536 55.8307C109.006 53.3485 111.636 51.5385 115.221 51.432C117.501 51.4448 119.593 52.0424 121.765 52.6659C122.16 52.7757 122.555 52.8851 122.951 52.9941C124.011 53.2875 125.068 53.5879 126.125 53.8905C126.514 54.0015 126.902 54.1125 127.291 54.2235C127.592 54.3096 127.893 54.3956 128.204 54.4843C128.105 54.1432 128.006 53.8021 127.904 53.4507C127.534 52.1706 127.17 50.8888 126.808 49.6064C126.652 49.0543 126.493 48.5027 126.333 47.9516C124.222 40.6748 124.222 40.6748 125.383 37.748C127.13 34.7484 130.671 33.8331 133.903 34.7862Z" fill="#CAB4EE"/>
<path d="M115.734 76.4531C116.776 76.9046 117.502 77.5217 118.332 78.29C119.21 79.0983 120.093 79.8943 120.998 80.672C122.428 81.9199 123.766 83.2538 125.104 84.5986C125.345 84.8384 125.586 85.0781 125.835 85.3252C127.279 86.7724 128.664 88.2509 129.984 89.8125C130.138 89.9936 130.291 90.1748 130.449 90.3614C132.795 93.157 134.956 96.0538 137.026 99.0578C137.543 99.808 138.069 100.553 138.594 101.298C138.831 101.641 138.831 101.641 139.074 101.99C139.413 102.476 139.763 102.955 140.115 103.432C140.97 104.857 141.543 106.381 142.156 107.922C142.309 108.291 142.462 108.66 142.615 109.028C144.663 113.976 145.945 118.664 144.234 123.953C143.536 125.493 142.672 126.551 141.266 127.516C140.969 126.922 140.969 126.922 141.043 125.938C141.073 124.801 141.073 124.801 140.264 123.99C139.184 123.116 138.557 123.022 137.18 122.916C132.474 122.528 128.348 120.778 124.344 118.312C124.246 118.117 124.148 117.921 124.047 117.719C124.244 117.69 124.441 117.661 124.644 117.631C126.222 117.363 127.362 117.146 128.5 115.938C129.451 114.335 129.278 112.673 128.911 110.896C127.238 104.939 123.565 99.5268 119.594 94.8594C119.337 94.548 119.08 94.2364 118.824 93.9247C117.158 91.9203 115.406 90.0239 113.563 88.1797C113.271 87.8866 113.271 87.8866 112.972 87.5875C112.042 86.6684 111.099 85.7853 110.1 84.9419C109.804 84.6878 109.508 84.4337 109.203 84.1719C109.203 84.0739 109.203 83.9759 109.203 83.875C109.461 83.8134 109.719 83.7518 109.985 83.6883C112.178 83.1019 113.666 82.6137 114.844 80.6094C115.559 79.3145 115.614 77.9052 115.734 76.4531Z" fill="#FEE166"/>
<path d="M83.7086 69.3837C85.1361 70.431 85.3297 72.4634 85.7496 74.078C86.3086 76.1478 87.0292 78.0649 87.9576 79.997C88.086 80.2647 88.2144 80.5324 88.3467 80.8082C90.4654 85.1211 93.1281 89.048 96.1402 92.7812C96.3442 93.0422 96.5482 93.3032 96.7583 93.5721C97.9438 95.0825 99.1869 96.5253 100.483 97.9417C101.049 98.5666 101.602 99.1991 102.152 99.8377C103.305 101.158 104.528 102.4 105.77 103.636C105.982 103.848 106.193 104.061 106.411 104.28C107.788 105.654 109.207 106.957 110.687 108.219C110.875 108.38 111.062 108.542 111.255 108.708C118.295 114.733 127.599 122.033 137.22 122.599C138.744 122.696 139.533 122.934 140.671 123.953C141.409 125.059 141.378 125.612 141.265 126.922C140.848 127.775 140.45 128.33 139.781 129C137.926 129.377 136.357 129.233 134.511 128.87C134.241 128.817 133.97 128.764 133.692 128.71C127.135 127.32 121.164 123.919 115.734 120.094C115.437 119.885 115.141 119.677 114.835 119.462C109.263 115.468 104.148 110.896 99.2945 106.066C99.1004 105.874 98.9062 105.681 98.7062 105.482C97.3952 104.167 96.1626 102.799 94.9527 101.391C94.6982 101.101 94.4437 100.811 94.1815 100.513C90.4263 96.1623 87.1339 91.5252 84.2652 86.5468C84.1559 86.3604 84.0466 86.174 83.934 85.9819C82.5998 83.6914 81.5434 81.3391 80.5914 78.8651C80.4426 78.4786 80.4426 78.4786 80.2908 78.0843C79.406 75.7058 78.7049 73.3681 78.9215 70.8124C79.9487 68.8607 81.7574 68.6423 83.7086 69.3837Z" fill="#D0844B"/>
<path d="M153.535 67.4146C153.959 67.5311 153.959 67.5311 154.392 67.65C154.985 67.8136 155.577 67.9789 156.17 68.1457C157.075 68.4005 157.981 68.6508 158.888 68.9002C159.466 69.0603 160.045 69.2207 160.623 69.3814C160.893 69.4563 161.162 69.5312 161.44 69.6083C162.664 69.9534 163.838 70.3279 165.016 70.8125C165.416 70.9156 165.82 71.0081 166.225 71.0885C166.447 71.1341 166.668 71.1797 166.896 71.2268C167.127 71.2737 167.357 71.3207 167.595 71.3691C169.603 71.7937 171.455 72.3331 173.328 73.1875C171.895 74.8969 170.393 76.5235 168.838 78.123C168.607 78.3702 168.376 78.6174 168.138 78.8722C165.784 81.2794 163.493 82.442 160.099 82.5785C157.522 82.5414 155.117 81.8574 152.673 81.0932C151.948 80.8675 151.22 80.6543 150.491 80.4423C147.736 79.6193 145.225 78.8436 143.511 76.3789C142.641 74.6154 142.537 72.7376 143.103 70.8681C143.917 68.8187 145.016 67.9459 146.928 66.9287C149.173 66.2244 151.336 66.7887 153.535 67.4146Z" fill="#F7C4DB"/>
<path d="M133.903 34.7862C136.234 36.0119 137.296 38.0412 138.05 40.455C138.144 40.774 138.237 41.0931 138.334 41.4218C138.484 41.9173 138.484 41.9173 138.638 42.4228C138.925 43.3741 139.205 44.3275 139.484 45.2812C139.622 45.7316 139.76 46.182 139.899 46.6322C140.836 49.8315 141.296 53.1597 139.781 56.2655C138.448 58.3499 136.676 60.0341 134.92 61.7577C134.645 62.0302 134.369 62.3027 134.086 62.5834C133.413 63.2497 132.738 63.9145 132.062 64.578C131.469 64.2812 131.469 64.2812 131.063 63.2293C130.911 62.7706 130.762 62.3109 130.615 61.8505C130.536 61.6075 130.457 61.3644 130.375 61.114C129.814 59.3762 129.302 57.6273 128.813 55.8678C128.518 54.8431 128.2 53.8292 127.873 52.8144C124.056 40.9509 124.056 40.9509 125.383 37.748C127.13 34.7484 130.67 33.8331 133.903 34.7862Z" fill="#CAB4EF"/>
<path d="M121.728 52.6474C122.118 52.7546 122.508 52.8615 122.898 52.968C123.644 53.1743 124.388 53.3862 125.131 53.6047C125.736 53.7786 126.345 53.939 126.96 54.0743C128.595 54.4738 128.595 54.4738 129.148 55.3164C129.423 56.0108 129.61 56.6889 129.78 57.4159C129.919 57.9254 130.057 58.4349 130.195 58.9444C130.259 59.1949 130.323 59.4455 130.389 59.7037C130.652 60.7006 130.977 61.6699 131.302 62.6483C131.802 64.1713 131.802 64.1713 131.469 65.1718C129.254 66.7236 126.399 67.285 123.75 66.953C122.038 66.546 120.375 66.0142 118.703 65.4687C118.293 65.3376 118.293 65.3376 117.875 65.204C117.018 64.9301 116.163 64.6528 115.308 64.3739C114.899 64.2416 114.899 64.2416 114.482 64.1065C114.101 63.98 114.101 63.98 113.713 63.8509C113.487 63.7764 113.261 63.7019 113.028 63.6251C112.469 63.3905 112.469 63.3905 111.875 62.7968C111.448 61.606 111.135 60.379 110.799 59.1601C110.702 58.8237 110.606 58.4873 110.507 58.1407C110.415 57.8143 110.324 57.4878 110.231 57.1515C110.147 56.8537 110.064 56.5559 109.978 56.249C109.788 55.3308 109.736 54.5288 109.797 53.5937C112.244 49.8692 118.321 51.6749 121.728 52.6474Z" fill="#A284E2"/>
<path d="M161.453 51.8125C162.851 51.9072 164.231 52.1597 165.609 52.4062C166.002 52.4764 166.002 52.4764 166.402 52.5479C167.248 52.7056 168.089 52.8785 168.931 53.0557C169.204 53.1066 169.477 53.1576 169.759 53.21C171.673 53.6365 171.673 53.6365 172.395 54.7105C172.52 55.1264 172.631 55.5468 172.734 55.9688C172.827 56.2827 172.919 56.5967 173.014 56.9202C173.286 57.8517 173.547 58.7855 173.8 59.7223C173.959 60.3116 174.121 60.9002 174.282 61.4888C175.467 65.8273 175.855 69.0816 173.625 73.1875C171.657 72.7804 169.745 72.256 167.821 71.6776C166.908 71.4357 166.063 71.3175 165.127 71.2207C164.465 71.09 164.465 71.09 163.828 70.8125C163.491 70.2667 163.491 70.2667 163.241 69.5577C163.145 69.2895 163.048 69.0213 162.948 68.745C162.847 68.4476 162.745 68.1502 162.641 67.8438C162.527 67.5284 162.414 67.213 162.297 66.888C161.929 65.8499 161.578 64.8069 161.23 63.7617C161.108 63.4135 160.986 63.0652 160.86 62.7064C159.646 59.0333 159.443 55.6519 161.156 52.1094C161.254 52.0114 161.352 51.9134 161.453 51.8125Z" fill="#EF8CBD"/>
<path d="M102.229 16.6629C102.969 17.0782 102.969 17.0782 103.307 17.7893C103.418 18.2283 103.418 18.2283 103.531 18.6763C104.427 22.5175 104.427 22.5175 106.786 25.4777C107.751 25.9963 108.748 26.3589 109.794 26.677C110.83 27.0207 111.85 27.4657 112.766 28.0626C113.1 28.8233 113.1 28.8233 113.062 29.547C112.393 30.5516 112.128 30.6421 111.034 31.0488C107.831 32.1918 107.831 32.1918 105.228 34.2471C104.863 35.1543 104.646 36.0109 104.453 36.9689C104.216 37.7297 103.97 38.4799 103.711 39.2325C103.604 39.5792 103.497 39.926 103.386 40.2832C102.969 41.1251 102.969 41.1251 102.18 41.5403C101.836 41.6287 101.836 41.6287 101.484 41.7189C100.624 40.986 100.311 40.2547 99.9223 39.2035C99.8046 38.8876 99.6869 38.5717 99.5657 38.2462C99.4457 37.9165 99.3258 37.5869 99.2021 37.2472C99.0787 36.9163 98.9553 36.5855 98.8282 36.2446C97.9219 33.7907 97.9219 33.7907 97.9219 33.1095C97.7054 33.0731 97.4889 33.0368 97.2659 32.9994C96.4533 32.8162 95.8067 32.5604 95.0587 32.1991C94.8089 32.0796 94.5592 31.96 94.302 31.8367C94.0454 31.7118 93.7888 31.5868 93.5244 31.4581C93.2621 31.332 92.9997 31.2059 92.7295 31.076C92.0845 30.7657 91.4404 30.4539 90.7969 30.1407C90.7969 29.4549 90.7969 28.7692 90.7969 28.0626C90.9975 27.9777 91.1981 27.8927 91.4048 27.8052C92.3198 27.4117 93.228 27.0045 94.1367 26.5968C94.4524 26.4634 94.7682 26.3301 95.0934 26.1926C97.1215 25.2813 97.1215 25.2813 98.3695 23.5248C98.5263 23.0613 98.6739 22.5945 98.8125 22.1251C98.9927 21.6508 99.176 21.1776 99.3622 20.7057C99.6298 19.9968 99.8952 19.2873 100.158 18.5765C100.244 18.3484 100.331 18.1204 100.42 17.8854C100.496 17.68 100.573 17.4747 100.651 17.2632C101.055 16.4496 101.374 16.458 102.229 16.6629Z" fill="#F7C4DB"/>
<path d="M100.297 66.0625C100.465 66.8075 100.465 66.8075 100.562 67.7498C100.896 70.2581 101.68 72.5842 102.476 74.9753C102.662 75.5386 102.845 76.1031 103.028 76.6677C103.138 76.9976 103.247 77.3275 103.36 77.6674C103.558 78.5132 103.57 78.9196 103.266 79.7187C103.017 79.55 102.769 79.3812 102.513 79.2073C98.4486 76.4918 93.5184 73.4489 88.4219 74.0781C87.6047 74.3304 87.6047 74.3304 86.9375 74.6719C86.5431 74.7764 86.1474 74.8763 85.75 74.9687C85.6601 74.6362 85.5701 74.3036 85.4775 73.961C85.3521 73.5237 85.2265 73.0865 85.1006 72.6494C85.0422 72.4303 84.9839 72.2112 84.9237 71.9855C84.6051 70.9021 84.4292 70.3504 83.5292 69.6262C82.3051 69.1384 81.3446 69.2133 80.1094 69.625C80.5844 67.8523 81.0262 66.6677 82.4844 65.4687C82.6558 65.3191 82.8273 65.1695 83.0039 65.0153C87.7859 61.0721 95.4876 62.8563 100.297 66.0625Z" fill="#FEE166"/>
<path d="M186.391 80.0156C186.954 80.0423 186.954 80.0423 187.578 80.3125C187.998 81.0373 187.998 81.0373 188.357 81.9639C188.547 82.4455 188.547 82.4455 188.741 82.9368C189.008 83.7154 189.194 84.4417 189.341 85.248C189.445 85.5787 189.549 85.9093 189.656 86.25C190.474 86.5727 190.474 86.5727 191.438 86.8438C192.073 87.1424 192.704 87.4517 193.33 87.7715C193.645 87.9314 193.959 88.0914 194.283 88.2562C194.52 88.3779 194.756 88.4996 195 88.625C195 89.1148 195 89.6047 195 90.1094C194.221 90.5067 193.442 90.9022 192.662 91.2969C192.441 91.4102 192.219 91.5234 191.991 91.6401C191.672 91.8009 191.672 91.8009 191.347 91.9648C191.151 92.0643 190.955 92.1638 190.753 92.2664C190.25 92.4844 190.25 92.4844 189.656 92.4844C189.606 92.6642 189.555 92.8441 189.503 93.0294C189.106 94.402 188.681 95.7621 188.19 97.1045C188.102 97.3498 188.014 97.5951 187.923 97.8478C187.578 98.4219 187.578 98.4219 186.946 98.6526C186.763 98.6745 186.579 98.6963 186.391 98.7188C185.638 97.5601 185.159 96.4026 184.702 95.1006C184.572 94.7351 184.443 94.3696 184.309 93.9931C184.016 93.0781 184.016 93.0781 184.016 92.4844C183.633 92.3661 183.633 92.3661 183.243 92.2455C182.226 91.8876 181.302 91.4535 180.342 90.9629C180.027 90.8029 179.713 90.643 179.389 90.4781C179.152 90.3565 178.916 90.2348 178.672 90.1094C178.672 89.6195 178.672 89.1297 178.672 88.625C179.45 88.2277 180.23 87.8321 181.01 87.4375C181.231 87.3242 181.453 87.2109 181.681 87.0942C181.894 86.9871 182.106 86.8799 182.325 86.7695C182.521 86.67 182.717 86.5705 182.918 86.468C183.422 86.25 183.422 86.25 184.016 86.25C184.066 86.0701 184.117 85.8903 184.169 85.705C185.58 80.8266 185.58 80.8266 186.391 80.0156Z" fill="#CAB4EF"/>
<path d="M75.9528 110C76.8248 110.594 76.8248 110.594 77.4371 111.484C77.7793 113.944 76.8439 115.89 75.8535 118.082C75.5814 118.684 75.3172 119.29 75.054 119.897C73.5597 123.286 73.5597 123.286 72.3903 124.547C71.2837 124.916 70.5848 125.002 69.4215 124.844C68.6344 124.265 68.0645 123.647 67.6403 122.766C67.5131 121.135 67.8418 119.918 68.4973 118.448C68.586 118.243 68.6747 118.038 68.7661 117.827C68.9537 117.396 69.1432 116.966 69.3345 116.537C69.6251 115.883 69.9072 115.226 70.1886 114.567C70.3727 114.148 70.5573 113.728 70.7424 113.309C70.8672 113.016 70.8672 113.016 70.9946 112.717C72.0542 110.379 73.4528 109.407 75.9528 110Z" fill="#FFFEFC"/>
<path d="M158.512 17.6765C159.82 18.5506 160.665 19.4489 161.008 21.0244C161.255 22.7247 161.16 23.8704 160.266 25.3906C159.202 26.7281 158.063 27.4189 156.407 27.7656C154.741 27.8451 153.234 27.354 151.954 26.2812C150.881 25.0003 150.39 23.4942 150.469 21.8281C150.816 20.1713 151.507 19.0326 152.844 17.9687C154.674 16.8925 156.582 16.7387 158.512 17.6765Z" fill="#FFA585"/>
<path d="M169.542 100.704C170.874 101.448 171.577 102.316 172.233 103.691C172.592 105.389 172.432 106.775 171.621 108.311C170.565 109.572 169.597 110.502 167.904 110.654C166.316 110.683 165.173 110.642 163.828 109.703C162.592 108.439 161.766 107.308 161.74 105.497C161.845 103.934 162.189 102.901 163.234 101.687C165.228 100.182 167.217 99.6262 169.542 100.704Z" fill="#77EAC4"/>
<path d="M137.406 101.391C139.134 101.977 139.95 102.956 140.783 104.545C141.089 106.199 140.858 107.883 140.075 109.388C139.07 110.72 137.778 111.348 136.148 111.578C134.535 111.662 133.612 111.379 132.359 110.297C130.949 108.833 130.468 107.661 130.494 105.65C130.673 104.154 131.434 103.174 132.544 102.17C134.083 101.118 135.583 101.26 137.406 101.391Z" fill="#8BB7ED"/>
<path d="M186.446 19.7872C187.798 20.6887 188.611 21.5612 189.044 23.1456C189.072 24.7816 188.829 25.8543 187.763 27.1163C186.369 28.2783 185.354 28.4974 183.561 28.4499C182.434 28.3108 181.865 27.9516 181.046 27.172C180.153 25.9683 179.757 24.9105 179.878 23.4054C180.166 21.7736 180.629 20.9435 181.993 19.9542C183.506 19.1687 184.832 19.2176 186.446 19.7872Z" fill="#8BB5EF"/>
<path d="M81.2971 97.2343C82.1492 97.7669 82.6305 98.1198 83.0784 99.0155C83.0407 101.354 82.299 103.3 81.0002 105.25C79.9283 105.965 79.0088 105.978 77.7346 105.844C76.9172 105.311 76.3909 104.937 75.9534 104.062C75.6785 101.628 76.4205 99.8775 77.7346 97.828C78.9276 97.0327 79.8948 97.0276 81.2971 97.2343Z" fill="#FFFEFC"/>
<path d="M154.328 36.672C155.304 37.4774 155.488 37.9629 155.664 39.214C155.515 40.2345 155.515 40.2345 155.014 40.9396C154.24 41.4838 153.788 41.6728 152.844 41.7189C151.868 41.4867 151.457 41.239 150.802 40.4757C150.359 39.3661 150.448 38.7062 150.765 37.5626C151.667 36.4451 152.989 36.384 154.328 36.672Z" fill="#76EAC4"/>
</g>
<defs>
<clipPath id="clip0_789_359">
<rect width="152" height="152" fill="white" transform="translate(43 15)"/>
</clipPath>
</defs>
</svg>
