<svg width="241" height="184" viewBox="0 0 241 184" fill="none" xmlns="http://www.w3.org/2000/svg">
<path d="M67.0801 1V9.33806" stroke="#FF9900" stroke-width="1.04638" stroke-miterlimit="10" stroke-linecap="round"/>
<path d="M62.9111 5.1687H71.2492" stroke="#FF9900" stroke-width="1.04638" stroke-miterlimit="10" stroke-linecap="round"/>
<path d="M221.383 8.57485C221.383 9.67171 221.057 10.7439 220.448 11.6559C219.839 12.5679 218.972 13.2788 217.959 13.6985C216.946 14.1183 215.831 14.2281 214.755 14.0141C213.679 13.8001 212.691 13.2719 211.915 12.4963C211.14 11.7207 210.612 10.7326 210.398 9.65678C210.184 8.581 210.293 7.46593 210.713 6.45257C211.133 5.4392 211.844 4.57307 212.756 3.96369C213.668 3.35431 214.74 3.02905 215.837 3.02905C217.308 3.02905 218.718 3.61334 219.758 4.65338C220.798 5.69342 221.383 7.10401 221.383 8.57485Z" stroke="#FF9900" stroke-width="1.04638" stroke-miterlimit="10"/>
<path d="M25.6678 125.948C25.6678 127.045 25.3425 128.117 24.7331 129.029C24.1238 129.941 23.2576 130.652 22.2443 131.072C21.2309 131.491 20.1158 131.601 19.04 131.387C17.9643 131.173 16.9761 130.645 16.2005 129.869C15.4249 129.094 14.8967 128.106 14.6827 127.03C14.4687 125.954 14.5786 124.839 14.9983 123.826C15.4181 122.812 16.1289 121.946 17.0409 121.337C17.9529 120.727 19.0251 120.402 20.122 120.402C21.5928 120.402 23.0034 120.986 24.0434 122.026C25.0835 123.066 25.6678 124.477 25.6678 125.948Z" stroke="#FF9900" stroke-width="1.04638" stroke-miterlimit="10"/>
<path d="M239.698 119.579C239.698 120.11 239.54 120.629 239.245 121.07C238.95 121.512 238.531 121.856 238.04 122.059C237.55 122.262 237.01 122.315 236.489 122.211C235.968 122.108 235.49 121.852 235.115 121.477C234.739 121.101 234.483 120.623 234.38 120.102C234.276 119.581 234.329 119.041 234.532 118.551C234.736 118.06 235.08 117.641 235.521 117.346C235.963 117.051 236.482 116.893 237.013 116.893C237.725 116.893 238.408 117.176 238.912 117.68C239.415 118.183 239.698 118.866 239.698 119.579Z" stroke="#FF9900" stroke-width="1.04638" stroke-miterlimit="10"/>
<path d="M45.079 103.549C45.0789 104.08 44.9213 104.599 44.6263 105.04C44.3312 105.482 43.9119 105.826 43.4213 106.029C42.9307 106.232 42.3908 106.285 41.87 106.181C41.3493 106.078 40.8709 105.822 40.4954 105.447C40.1199 105.071 39.8642 104.593 39.7606 104.072C39.657 103.551 39.7101 103.011 39.9133 102.521C40.1164 102.03 40.4605 101.611 40.902 101.316C41.3434 101.021 41.8625 100.863 42.3935 100.863C43.1057 100.863 43.7888 101.146 44.2924 101.65C44.7961 102.153 45.079 102.836 45.079 103.549Z" stroke="#FF9900" stroke-width="1.04638" stroke-miterlimit="10"/>
<path d="M227.996 105.778C228.009 106.793 227.82 107.8 227.44 108.741C227.061 109.683 226.498 110.54 225.785 111.262C225.071 111.984 224.222 112.557 223.285 112.949C222.349 113.34 221.343 113.541 220.328 113.541H165.567C166.362 114.995 166.665 116.668 166.43 118.309C166.195 119.95 165.435 121.471 164.263 122.644C163.816 123.089 163.316 123.48 162.776 123.806H172.892C174.933 123.786 176.9 124.568 178.371 125.983C179.842 127.398 180.7 129.333 180.759 131.373C180.772 132.389 180.583 133.396 180.203 134.338C179.824 135.279 179.261 136.136 178.548 136.858C177.834 137.581 176.985 138.155 176.048 138.546C175.112 138.938 174.107 139.14 173.092 139.141H122.808C121.13 139.14 119.498 138.59 118.163 137.573C116.828 136.556 115.863 135.129 115.417 133.511C114.971 131.894 115.068 130.174 115.693 128.617C116.318 127.059 117.436 125.75 118.877 124.889H88.7533C86.7123 124.909 84.7451 124.127 83.2741 122.712C81.8031 121.297 80.9457 119.362 80.8861 117.322C80.8688 115.953 81.2181 114.605 81.8977 113.417C82.5773 112.23 83.5625 111.245 84.7509 110.567C83.5049 109.921 82.4604 108.945 81.7315 107.745C81.0026 106.546 80.6173 105.169 80.6177 103.765V94.3741C80.6165 93.1752 80.897 91.9927 81.4366 90.9221C81.9762 89.8515 82.7599 88.9226 83.7244 88.2104H29.5953C27.5567 88.2295 25.5916 87.4494 24.1211 86.0373C22.6506 84.6252 21.7916 82.6933 21.7281 80.6556C21.713 79.6392 21.9002 78.63 22.2787 77.6866C22.6573 76.7433 23.2197 75.8846 23.9332 75.1606C24.6467 74.4367 25.4971 73.8618 26.4348 73.4695C27.3726 73.0773 28.379 72.8755 29.3954 72.8758H33.2226C34.793 72.8752 36.299 72.2511 37.4094 71.1406C38.5199 70.0302 39.144 68.5242 39.1445 66.9538V66.9496C39.144 65.3792 38.5199 63.8732 37.4094 62.7628C36.299 61.6523 34.793 61.0282 33.2226 61.0276H7.75479C6.74071 61.0395 5.73436 60.85 4.79405 60.4701C3.85373 60.0902 2.99814 59.5275 2.27685 58.8146C1.55556 58.1017 0.982913 57.2528 0.59208 56.317C0.201246 55.3811 0 54.3771 0 53.3629C0 52.3488 0.201246 51.3447 0.59208 50.4089C0.982913 49.4731 1.55556 48.6241 2.27685 47.9112C2.99814 47.1983 3.85373 46.6356 4.79405 46.2557C5.73436 45.8759 6.74071 45.6864 7.75479 45.6982H44.5747C45.5815 45.6985 46.5785 45.5005 47.5087 45.1154C48.439 44.7304 49.2843 44.1659 49.9964 43.4542C50.7085 42.7425 51.2734 41.8975 51.659 40.9675C52.0445 40.0374 52.2431 39.0405 52.2434 38.0338C52.2436 37.027 52.0456 36.03 51.6606 35.0997C51.2755 34.1695 50.7111 33.3242 49.9993 32.6121C49.2876 31.9 48.4426 31.335 47.5126 30.9495C46.5826 30.564 45.5857 30.3654 44.5789 30.3651H34.0628C32.0194 30.3835 30.0505 29.5989 28.5799 28.18C27.1093 26.7612 26.2546 24.8216 26.1998 22.7789C26.1891 21.7653 26.3795 20.7597 26.7601 19.8202C27.1406 18.8807 27.7037 18.0261 28.4168 17.3057C29.1299 16.5853 29.9788 16.0135 30.9143 15.6234C31.8499 15.2333 32.8535 15.0327 33.8671 15.0331H103.805C105.798 15.0137 107.722 15.7583 109.183 17.1137C110.644 18.4691 111.53 20.3325 111.66 22.3211C111.727 23.6801 111.432 25.0326 110.806 26.2403H201C202.014 26.2285 203.021 26.418 203.961 26.7978C204.901 27.1777 205.757 27.7404 206.478 28.4533C207.199 29.1662 207.772 30.0152 208.163 30.951C208.554 31.8868 208.755 32.8909 208.755 33.905C208.755 34.9192 208.554 35.9232 208.163 36.8591C207.772 37.7949 207.199 38.6438 206.478 39.3567C205.757 40.0696 204.901 40.6323 203.961 41.0122C203.021 41.3921 202.014 41.5816 201 41.5697H167.591C167.59 43.2198 166.934 44.802 165.768 45.9688C164.601 47.1356 163.019 47.7916 161.369 47.7925H123.712C124.828 48.846 125.602 50.2105 125.934 51.7092C126.266 53.2079 126.14 54.7717 125.573 56.198C125.006 57.6243 124.023 58.8474 122.753 59.7088C121.482 60.5702 119.982 61.0302 118.447 61.0292H107.919C107.505 61.0288 107.095 61.11 106.712 61.2683C106.329 61.4265 105.981 61.6587 105.688 61.9515C105.394 62.2442 105.162 62.5919 105.003 62.9746C104.844 63.3574 104.762 63.7676 104.762 64.1819V64.1861C104.762 64.6005 104.844 65.0107 105.003 65.3934C105.162 65.7761 105.394 66.1238 105.688 66.4166C105.981 66.7094 106.329 66.9416 106.712 67.0998C107.095 67.258 107.505 67.3393 107.919 67.3389H193.391C194.405 67.327 195.411 67.5165 196.352 67.8964C197.292 68.2763 198.148 68.839 198.869 69.5519C199.59 70.2648 200.163 71.1137 200.554 72.0495C200.945 72.9854 201.146 73.9894 201.146 75.0036C201.146 76.0177 200.945 77.0218 200.554 77.9576C200.163 78.8934 199.59 79.7424 198.869 80.4553C198.148 81.1682 197.292 81.7309 196.352 82.1108C195.411 82.4906 194.405 82.6801 193.391 82.6683H171.285C172.406 83.3541 173.332 84.3163 173.975 85.4625C174.617 86.6088 174.954 87.9009 174.954 89.215V91.4014C174.955 92.8078 174.568 94.1873 173.837 95.3885C173.105 96.5897 172.057 97.5661 170.807 98.2107H220.129C222.17 98.191 224.137 98.9726 225.608 100.388C227.079 101.802 227.937 103.738 227.996 105.778" fill="#FFEFD9"/>
<path d="M119.969 183.146C157.507 183.146 187.938 181.067 187.938 178.502C187.938 175.938 157.507 173.858 119.969 173.858C82.4308 173.858 52 175.938 52 178.502C52 181.067 82.4308 183.146 119.969 183.146Z" fill="#666666"/>
<path d="M99.2036 107.246C100.273 107.359 101.232 106.583 101.344 105.514C101.457 104.444 100.682 103.486 99.6123 103.373C98.5428 103.26 97.5843 104.036 97.4714 105.105C97.3586 106.175 98.1341 107.133 99.2036 107.246Z" fill="#FCD294"/>
<g clip-path="url(#clip0_788_293)">
<path d="M114.421 14.9004C114.777 14.8984 115.134 14.8964 115.501 14.8944C116.253 14.8914 117.006 14.89 117.758 14.8901C118.899 14.8888 120.039 14.878 121.18 14.8667C121.914 14.865 122.648 14.8638 123.383 14.8633C123.719 14.859 124.055 14.8547 124.402 14.8503C128.972 14.876 132.84 16.5556 136.169 19.655C139.307 23.013 140.734 26.9984 140.715 31.5424C140.715 31.802 140.714 32.0615 140.713 32.3289C140.686 35.7075 140.477 39.0763 140.277 42.4481C140.235 43.1881 140.192 43.9281 140.15 44.668C140.048 46.4539 139.944 48.2396 139.838 50.0253C139.753 51.4779 139.668 52.9305 139.584 54.3832C139.343 58.5164 139.102 62.6495 138.858 66.7825C138.845 67.0041 138.832 67.2258 138.818 67.4542C138.805 67.6762 138.792 67.8981 138.779 68.1268C138.566 71.7297 138.357 75.3328 138.15 78.936C137.936 82.65 137.72 86.3639 137.501 90.0777C137.378 92.157 137.257 94.2364 137.138 96.316C137.026 98.27 136.911 100.224 136.794 102.177C136.751 102.892 136.71 103.606 136.67 104.321C136.3 110.892 135.806 116.429 130.875 121.281C130.701 121.455 130.526 121.63 130.346 121.809C127.231 124.697 123.222 125.61 119.093 125.586C118.753 125.584 118.413 125.583 118.063 125.581C113.254 125.48 109.817 123.899 106.309 120.595C103.282 117.435 102.116 113.868 101.777 109.581C101.74 109.132 101.74 109.132 101.702 108.674C101.432 105.335 101.231 101.993 101.036 98.6496C100.995 97.9592 100.954 97.2688 100.913 96.5784C100.802 94.7255 100.694 92.8726 100.585 91.0196C100.494 89.4644 100.402 87.9093 100.311 86.3542C100.082 82.4741 99.8543 78.594 99.6274 74.7139C99.4312 71.3596 99.2331 68.0055 99.0343 64.6514C98.829 61.1878 98.625 57.7242 98.4223 54.2604C98.309 52.3236 98.1951 50.3868 98.0799 48.45C97.9716 46.6291 97.865 44.808 97.7597 42.9869C97.721 42.3235 97.6818 41.66 97.6419 40.9967C97.454 37.8653 97.2953 34.7401 97.283 31.6025C97.2807 31.2431 97.2807 31.2431 97.2783 30.8765C97.2947 26.4116 99.0602 22.6955 102.078 19.4532C105.634 16.1031 109.654 14.9097 114.421 14.9004Z" fill="#FDBF00"/>
<path d="M119 14.9999C119 51.4442 119 87.8886 119 125.437C113.598 125.437 110.211 124.27 106.309 120.595C103.282 117.434 102.116 113.867 101.777 109.581C101.74 109.132 101.74 109.132 101.702 108.674C101.432 105.335 101.231 101.993 101.036 98.6494C100.995 97.959 100.954 97.2686 100.913 96.5782C100.802 94.7253 100.694 92.8723 100.585 91.0193C100.494 89.4642 100.402 87.909 100.311 86.3539C100.082 82.4739 99.8543 78.5938 99.6274 74.7136C99.4312 71.3594 99.2331 68.0053 99.0343 64.6512C98.829 61.1876 98.625 57.7239 98.4223 54.2602C98.309 52.3233 98.1951 50.3865 98.0799 48.4498C97.9716 46.6288 97.865 44.8078 97.7597 42.9867C97.721 42.3232 97.6818 41.6598 97.6419 40.9964C97.454 37.8651 97.2953 34.7398 97.283 31.6022C97.2807 31.2429 97.2807 31.2429 97.2783 30.8763C97.2947 26.4114 99.0602 22.6953 102.078 19.453C107.06 14.7597 112.119 14.9999 119 14.9999Z" fill="#FFDD38"/>
<path d="M118.963 134.214C119.249 134.216 119.536 134.218 119.83 134.22C122.003 134.269 123.856 134.578 125.829 135.531C126.06 135.635 126.292 135.739 126.53 135.847C130.834 137.987 133.462 141.795 135.032 146.219C136.035 149.661 135.721 154.316 134.141 157.5C133.993 157.8 133.846 158.101 133.693 158.41C131.512 162.464 128.179 165.165 123.821 166.614C122.22 167.066 120.695 167.148 119.038 167.13C118.607 167.126 118.607 167.126 118.168 167.122C115.991 167.071 114.142 166.79 112.172 165.812C111.872 165.665 111.571 165.517 111.262 165.365C107.208 163.183 104.507 159.85 103.058 155.492C102.606 153.891 102.524 152.366 102.542 150.709C102.545 150.422 102.547 150.135 102.55 149.84C102.601 147.662 102.882 145.813 103.86 143.844C104.008 143.543 104.155 143.243 104.307 142.933C106.489 138.88 109.822 136.178 114.18 134.73C115.781 134.277 117.306 134.196 118.963 134.214Z" fill="#FDBF00"/>
<path d="M119 134.344C119 145.12 119 155.897 119 167C114.37 167 110.652 165.714 107.199 162.528C104.108 159.234 102.492 155.21 102.542 150.709C102.545 150.422 102.547 150.135 102.55 149.84C102.601 147.662 102.882 145.813 103.86 143.844C104.007 143.543 104.155 143.243 104.307 142.933C106.512 138.837 109.918 136.136 114.306 134.641C115.735 134.344 115.735 134.344 119 134.344Z" fill="#FFDD38"/>
</g>
<path d="M187.13 46.1418V55.5817" stroke="#FF9900" stroke-width="1.04638" stroke-miterlimit="10" stroke-linecap="round"/>
<path d="M182.41 50.8621H191.85" stroke="#FF9900" stroke-width="1.04638" stroke-miterlimit="10" stroke-linecap="round"/>
<defs>
<clipPath id="clip0_788_293">
<rect width="152" height="152" fill="white" transform="translate(43 15)"/>
</clipPath>
</defs>
</svg>
