<svg width="21" height="21" viewBox="0 0 21 21" fill="none" xmlns="http://www.w3.org/2000/svg">
<g clip-path="url(#clip0_427_710)">
<path d="M17.74 13.0026V15.4981H20.2354V17.1617H17.74V19.6571H16.0764V17.1617H13.581V15.4981H16.0764V13.0026H17.74ZM17.7467 3.021C18.2025 3.021 18.5718 3.39115 18.5718 3.84698V11.339H16.9082V4.6846H3.59936V16.329L11.9174 8.01182L14.4128 10.5072V12.8604L11.9174 10.365L5.95087 16.3299H11.9174V17.9935H2.7609C2.54198 17.9933 2.3321 17.9061 2.17738 17.7513C2.02266 17.5964 1.93575 17.3864 1.93575 17.1675V3.84698C1.93728 3.62853 2.02467 3.41944 2.17907 3.2649C2.33346 3.11035 2.54245 3.02274 2.7609 3.021H17.7467ZM6.92658 6.34821C7.36779 6.34821 7.79094 6.52349 8.10293 6.83547C8.41491 7.14746 8.59019 7.5706 8.59019 8.01182C8.59019 8.45304 8.41491 8.87618 8.10293 9.18817C7.79094 9.50016 7.36779 9.67543 6.92658 9.67543C6.48536 9.67543 6.06222 9.50016 5.75023 9.18817C5.43824 8.87618 5.26297 8.45304 5.26297 8.01182C5.26297 7.5706 5.43824 7.14746 5.75023 6.83547C6.06222 6.52349 6.48536 6.34821 6.92658 6.34821Z" fill="#FCB034"/>
</g>
<defs>
<clipPath id="clip0_427_710">
<rect width="19.9633" height="19.9633" fill="white" transform="translate(0.272171 0.525879)"/>
</clipPath>
</defs>
</svg>
