<svg width="21" height="21" viewBox="0 0 21 21" fill="none" xmlns="http://www.w3.org/2000/svg">
<g id="ix:about">
<path id="Vector" fill-rule="evenodd" clip-rule="evenodd" d="M10.4054 1.8291C5.61649 1.8291 1.73425 5.71129 1.73425 10.5003C1.73425 15.2892 5.61649 19.1715 10.4054 19.1715C15.1944 19.1715 19.0766 15.2892 19.0766 10.5003C19.0766 5.71129 15.1944 1.8291 10.4054 1.8291ZM10.4054 17.4372C6.58041 17.4372 3.4685 14.3253 3.4685 10.5003C3.4685 6.67522 6.58037 3.56335 10.4054 3.56335C14.2305 3.56335 17.3424 6.67522 17.3424 10.5003C17.3424 14.3253 14.2305 17.4372 10.4054 17.4372ZM11.4912 7.0318C11.4912 7.66052 11.0335 8.11571 10.4142 8.11571C9.76995 8.11571 9.32341 7.66048 9.32341 7.01977C9.32341 6.40398 9.78202 5.94794 10.4142 5.94794C11.0335 5.94794 11.4912 6.40398 11.4912 7.0318ZM9.54022 9.63316H11.2744V14.8359H9.54022V9.63316Z" fill="#FCB034"/>
</g>
</svg>
