<svg width="13" height="13" viewBox="0 0 13 13" fill="none" xmlns="http://www.w3.org/2000/svg">
<path fill-rule="evenodd" clip-rule="evenodd" d="M10.8392 2.64209V9.31873H8.45466V11.2263L5.54557 9.31873H2.25494V2.64209H10.8392ZM9.88537 3.5959H3.20876V8.36491H5.83041L7.50087 9.46037V8.36491H9.88537V3.5959ZM6.56796 7.1369C6.72072 7.1369 6.84694 7.1872 6.94661 7.28779C7.04628 7.38839 7.09611 7.51507 7.0961 7.66782C7.0961 7.81872 7.04627 7.94447 6.94661 8.04506C6.84692 8.14566 6.72071 8.19596 6.56796 8.19596C6.41148 8.19596 6.28387 8.14566 6.18514 8.04506C6.0864 7.94447 6.03704 7.81593 6.03704 7.65944C6.03704 7.51041 6.08734 7.38606 6.18793 7.28639C6.28853 7.18671 6.41521 7.13688 6.56796 7.1369ZM6.77475 4.09665C7.19949 4.09665 7.5227 4.19724 7.74438 4.39844C7.93999 4.57914 8.03779 4.81386 8.03779 5.10261C8.03779 5.29822 7.99029 5.46541 7.89528 5.60419C7.81213 5.72562 7.67195 5.85597 7.47474 5.99524L7.38671 6.05549C7.20042 6.1803 7.08585 6.27577 7.043 6.3419C7.00016 6.40805 6.97873 6.52588 6.97873 6.69539V6.80996H6.1544V6.56406C6.1544 6.32745 6.17862 6.16259 6.22705 6.06946C6.255 6.01542 6.29225 5.96745 6.33883 5.92554L6.39085 5.88219C6.4122 5.86528 6.4376 5.84589 6.46703 5.82403L6.76681 5.60942C6.89341 5.51651 6.97943 5.44352 7.02485 5.39043C7.08539 5.31964 7.11566 5.23674 7.11566 5.14173C7.11566 5.02251 7.07328 4.92796 6.98852 4.8581C6.90375 4.78825 6.78872 4.75332 6.64341 4.75332C6.40496 4.75332 6.11714 4.84926 5.77996 5.04114L5.53126 4.42079C5.94482 4.2047 6.35932 4.09665 6.77475 4.09665Z" fill="#666666"/>
</svg>
