<svg width="24" height="24" viewBox="0 0 24 24" fill="none" xmlns="http://www.w3.org/2000/svg">
<g id="ri:instagram-fill">
<path id="Vector" d="M13.9925 2.14844C15.2008 2.15166 15.8141 2.1581 16.3436 2.17314L16.5519 2.18066C16.7925 2.18925 17.0299 2.19999 17.3166 2.21288C18.4594 2.26658 19.2391 2.44702 19.9233 2.7123C20.6322 2.98511 21.2293 3.35458 21.8265 3.95066C22.3728 4.48739 22.7955 5.1369 23.0648 5.85385C23.3301 6.53801 23.5106 7.31776 23.5643 8.4616C23.5772 8.74729 23.5879 8.98465 23.5965 9.22631L23.6029 9.43467C23.619 9.9631 23.6255 10.5764 23.6276 11.7847L23.6287 12.5859V13.9929C23.6313 14.7763 23.6231 15.5597 23.604 16.3428L23.5976 16.5512C23.589 16.7929 23.5782 17.0302 23.5653 17.3159C23.5116 18.4598 23.3291 19.2384 23.0648 19.9237C22.7955 20.6406 22.3728 21.2901 21.8265 21.8269C21.2898 22.3732 20.6402 22.7958 19.9233 23.0652C19.2391 23.3305 18.4594 23.5109 17.3166 23.5646L16.5519 23.5969L16.3436 23.6033C15.8141 23.6183 15.2008 23.6259 13.9925 23.628L13.1913 23.6291H11.7854C11.0016 23.6318 10.2178 23.6236 9.4343 23.6044L9.22594 23.5979C8.97097 23.5883 8.71607 23.5772 8.46123 23.5646C7.31846 23.5109 6.53871 23.3305 5.85348 23.0652C5.13691 22.7957 4.48778 22.3731 3.95136 21.8269C3.40462 21.2902 2.98163 20.6407 2.71193 19.9237C2.44665 19.2395 2.26621 18.4598 2.21251 17.3159L2.18029 16.5512L2.17492 16.3428C2.15512 15.5597 2.14617 14.7763 2.14806 13.9929V11.7847C2.14509 11.0013 2.15297 10.2179 2.17169 9.43467L2.17921 9.22631C2.1878 8.98465 2.19854 8.74729 2.21143 8.4616C2.26513 7.31776 2.44557 6.53908 2.71086 5.85385C2.98119 5.13661 3.40492 4.48707 3.95244 3.95066C4.48855 3.40457 5.1373 2.98197 5.85348 2.7123C6.53871 2.44702 7.31738 2.26658 8.46123 2.21288C8.74692 2.19999 8.98535 2.18925 9.22594 2.18066L9.4343 2.17421C10.2175 2.15513 11.0009 2.1469 11.7843 2.14951L13.9925 2.14844ZM12.8884 7.5186C11.4641 7.5186 10.0982 8.08438 9.09111 9.09148C8.08401 10.0986 7.51823 11.4645 7.51823 12.8888C7.51823 14.313 8.08401 15.6789 9.09111 16.686C10.0982 17.6931 11.4641 18.2589 12.8884 18.2589C14.3126 18.2589 15.6786 17.6931 16.6857 16.686C17.6928 15.6789 18.2586 14.313 18.2586 12.8888C18.2586 11.4645 17.6928 10.0986 16.6857 9.09148C15.6786 8.08438 14.3126 7.5186 12.8884 7.5186ZM12.8884 9.66666C13.3115 9.66659 13.7305 9.74987 14.1215 9.91173C14.5124 10.0736 14.8677 10.3109 15.1669 10.61C15.4662 10.9092 15.7036 11.2643 15.8655 11.6552C16.0275 12.0461 16.111 12.4651 16.111 12.8882C16.1111 13.3114 16.0278 13.7304 15.866 14.1213C15.7041 14.5123 15.4668 14.8675 15.1677 15.1667C14.8685 15.466 14.5134 15.7034 14.1225 15.8654C13.7316 16.0274 13.3126 16.1108 12.8895 16.1109C12.0349 16.1109 11.2154 15.7714 10.6111 15.1671C10.0068 14.5629 9.66737 13.7433 9.66737 12.8888C9.66737 12.0342 10.0068 11.2147 10.6111 10.6104C11.2154 10.0061 12.0349 9.66666 12.8895 9.66666M18.5281 5.90755C18.1721 5.90755 17.8306 6.049 17.5788 6.30077C17.327 6.55255 17.1856 6.89403 17.1856 7.25009C17.1856 7.60616 17.327 7.94764 17.5788 8.19941C17.8306 8.45119 18.1721 8.59263 18.5281 8.59263C18.8842 8.59263 19.2257 8.45119 19.4775 8.19941C19.7292 7.94764 19.8707 7.60616 19.8707 7.25009C19.8707 6.89403 19.7292 6.55255 19.4775 6.30077C19.2257 6.049 18.8842 5.90755 18.5281 5.90755Z" fill="#FCB034"/>
</g>
</svg>
