<svg width="330" height="142" viewBox="0 0 330 142" fill="none" xmlns="http://www.w3.org/2000/svg">
<path opacity="0.0127" fill-rule="evenodd" clip-rule="evenodd" d="M164.639 141.258C74.0482 141.258 0.342041 134.509 0.342041 126.216C0.342041 117.922 74.0482 111.176 164.639 111.176C255.274 111.176 328.977 117.922 328.977 126.216C328.977 134.507 255.273 141.258 164.639 141.258Z" fill="#4C4D4D"/>
<path opacity="0.0253" fill-rule="evenodd" clip-rule="evenodd" d="M164.638 141.225C74.2343 141.225 0.682739 134.491 0.682739 126.215C0.682739 117.938 74.2343 111.206 164.638 111.206C255.086 111.206 328.633 117.938 328.633 126.215C328.633 134.492 255.086 141.225 164.638 141.225Z" fill="#4B4C4C"/>
<path opacity="0.038" fill-rule="evenodd" clip-rule="evenodd" d="M164.638 141.194C74.4216 141.194 1.02466 134.473 1.02466 126.216C1.02466 117.957 74.4216 111.24 164.638 111.24C254.898 111.24 328.293 117.957 328.293 126.216C328.293 134.473 254.898 141.194 164.638 141.194Z" fill="#4A4B4B"/>
<path opacity="0.0506" fill-rule="evenodd" clip-rule="evenodd" d="M164.638 141.162C74.6078 141.162 1.36548 134.456 1.36548 126.215C1.36548 117.972 74.6078 111.269 164.638 111.269C254.711 111.269 327.951 117.972 327.951 126.215C327.951 134.456 254.711 141.162 164.638 141.162Z" fill="#494A4A"/>
<path opacity="0.0633" fill-rule="evenodd" clip-rule="evenodd" d="M164.638 141.131C74.7951 141.131 1.70752 134.439 1.70752 126.216C1.70752 117.991 74.7951 111.302 164.638 111.302C254.524 111.302 327.61 117.991 327.61 126.216C327.61 134.439 254.524 141.131 164.638 141.131Z" fill="#484949"/>
<path opacity="0.0759" fill-rule="evenodd" clip-rule="evenodd" d="M164.638 141.101C74.9799 141.101 2.04822 134.422 2.04822 126.216C2.04822 118.007 74.9799 111.332 164.638 111.332C254.336 111.332 327.267 118.007 327.267 126.216C327.267 134.422 254.337 141.101 164.638 141.101Z" fill="#474848"/>
<path opacity="0.0886" fill-rule="evenodd" clip-rule="evenodd" d="M164.639 141.069C75.1686 141.069 2.39026 134.405 2.39026 126.216C2.39026 118.024 75.1673 111.364 164.639 111.364C254.15 111.364 326.927 118.024 326.927 126.216C326.926 134.405 254.15 141.069 164.639 141.069Z" fill="#464747"/>
<path opacity="0.1013" fill-rule="evenodd" clip-rule="evenodd" d="M164.638 141.038C75.3546 141.038 2.73218 134.389 2.73218 126.216C2.73218 118.041 75.3546 111.396 164.638 111.396C253.962 111.396 326.585 118.041 326.585 126.216C326.585 134.389 253.963 141.038 164.638 141.038Z" fill="#454646"/>
<path opacity="0.1139" fill-rule="evenodd" clip-rule="evenodd" d="M164.638 141.005C75.5419 141.005 3.0741 134.37 3.0741 126.215C3.0741 118.058 75.5419 111.425 164.638 111.425C253.775 111.425 326.243 118.056 326.243 126.215C326.243 134.37 253.775 141.005 164.638 141.005Z" fill="#444545"/>
<path opacity="0.1266" fill-rule="evenodd" clip-rule="evenodd" d="M164.639 140.976C75.7293 140.976 3.41492 134.354 3.41492 126.216C3.41492 118.076 75.7293 111.459 164.639 111.459C253.589 111.459 325.902 118.078 325.902 126.216C325.901 134.354 253.588 140.976 164.639 140.976Z" fill="#434444"/>
<path opacity="0.1392" fill-rule="evenodd" clip-rule="evenodd" d="M164.638 140.945C75.9154 140.945 3.75696 134.338 3.75696 126.216C3.75696 118.093 75.9154 111.489 164.638 111.489C253.401 111.489 325.56 118.093 325.56 126.216C325.56 134.338 253.401 140.945 164.638 140.945Z" fill="#424343"/>
<path opacity="0.1519" fill-rule="evenodd" clip-rule="evenodd" d="M164.638 140.913C76.1016 140.913 4.09778 134.32 4.09778 126.215C4.09778 118.109 76.1016 111.519 164.638 111.519C253.214 111.519 325.219 118.109 325.219 126.215C325.22 134.32 253.214 140.913 164.638 140.913Z" fill="#414242"/>
<path opacity="0.1646" fill-rule="evenodd" clip-rule="evenodd" d="M164.638 140.882C76.2888 140.882 4.4397 134.302 4.4397 126.216C4.4397 118.127 76.2888 111.552 164.638 111.552C253.026 111.552 324.876 118.127 324.876 126.216C324.876 134.302 253.026 140.882 164.638 140.882Z" fill="#404141"/>
<path opacity="0.1772" fill-rule="evenodd" clip-rule="evenodd" d="M164.638 140.849C76.4749 140.849 4.7804 134.285 4.7804 126.215C4.7804 118.143 76.4749 111.581 164.638 111.581C252.839 111.581 324.534 118.143 324.534 126.215C324.536 134.286 252.839 140.849 164.638 140.849Z" fill="#3F4040"/>
<path opacity="0.1899" fill-rule="evenodd" clip-rule="evenodd" d="M164.639 140.819C76.6635 140.819 5.12366 134.268 5.12366 126.216C5.12366 118.162 76.6635 111.615 164.639 111.615C252.653 111.615 324.194 118.162 324.194 126.216C324.194 134.268 252.653 140.819 164.639 140.819Z" fill="#3E3F3F"/>
<path opacity="0.2025" fill-rule="evenodd" clip-rule="evenodd" d="M164.638 140.788C76.8483 140.788 5.46436 134.251 5.46436 126.215C5.46436 118.177 76.8483 111.644 164.638 111.644C252.464 111.644 323.853 118.177 323.853 126.215C323.853 134.251 252.464 140.788 164.638 140.788Z" fill="#3D3E3E"/>
<path opacity="0.2152" fill-rule="evenodd" clip-rule="evenodd" d="M164.638 140.756C77.0356 140.756 5.80505 134.233 5.80505 126.215C5.80505 118.195 77.0343 111.677 164.638 111.677C252.277 111.677 323.511 118.196 323.511 126.215C323.511 134.234 252.277 140.756 164.638 140.756Z" fill="#3C3D3D"/>
<path opacity="0.2278" fill-rule="evenodd" clip-rule="evenodd" d="M164.639 140.726C77.2231 140.726 6.14844 134.218 6.14844 126.216C6.14844 118.213 77.2231 111.708 164.639 111.708C252.091 111.708 323.17 118.213 323.17 126.216C323.17 134.218 252.089 140.726 164.639 140.726Z" fill="#3B3C3C"/>
<path opacity="0.2405" fill-rule="evenodd" clip-rule="evenodd" d="M164.638 140.693C77.4104 140.693 6.48914 134.199 6.48914 126.215C6.48914 118.229 77.4091 111.738 164.638 111.738C251.903 111.738 322.828 118.229 322.828 126.215C322.828 134.199 251.903 140.693 164.638 140.693Z" fill="#3A3B3B"/>
<path opacity="0.2532" fill-rule="evenodd" clip-rule="evenodd" d="M164.638 140.663C77.5964 140.663 6.83105 134.183 6.83105 126.216C6.83105 118.247 77.5964 111.771 164.638 111.771C251.715 111.771 322.486 118.247 322.486 126.216C322.486 134.183 251.716 140.663 164.638 140.663Z" fill="#3A3A3A"/>
<path opacity="0.2658" fill-rule="evenodd" clip-rule="evenodd" d="M164.638 140.63C77.7825 140.63 7.1731 134.165 7.1731 126.215C7.1731 118.264 77.7838 111.801 164.638 111.801C251.529 111.801 322.146 118.264 322.146 126.215C322.144 134.165 251.529 140.63 164.638 140.63Z" fill="#393939"/>
<path opacity="0.2785" fill-rule="evenodd" clip-rule="evenodd" d="M164.639 140.6C77.9699 140.6 7.51514 134.148 7.51514 126.216C7.51514 118.283 77.9711 111.834 164.639 111.834C251.343 111.834 321.804 118.283 321.804 126.216C321.804 134.148 251.341 140.6 164.639 140.6Z" fill="#383838"/>
<path opacity="0.2911" fill-rule="evenodd" clip-rule="evenodd" d="M164.639 140.57C78.1573 140.57 7.85596 134.133 7.85596 126.216C7.85596 118.299 78.1573 111.865 164.639 111.865C251.155 111.865 321.463 118.299 321.463 126.216C321.462 134.133 251.154 140.57 164.639 140.57Z" fill="#373737"/>
<path opacity="0.3038" fill-rule="evenodd" clip-rule="evenodd" d="M164.638 140.537C78.3434 140.537 8.19666 134.115 8.19666 126.215C8.19666 118.315 78.3434 111.894 164.638 111.894C250.967 111.894 321.121 118.314 321.121 126.215C321.121 134.115 250.967 140.537 164.638 140.537Z" fill="#363636"/>
<path opacity="0.3165" fill-rule="evenodd" clip-rule="evenodd" d="M164.638 140.506C78.5306 140.506 8.53857 134.097 8.53857 126.216C8.53857 118.333 78.5306 111.928 164.638 111.928C250.779 111.928 320.779 118.334 320.779 126.216C320.779 134.097 250.779 140.506 164.638 140.506Z" fill="#353535"/>
<path opacity="0.3291" fill-rule="evenodd" clip-rule="evenodd" d="M164.638 140.476C78.7168 140.476 8.88062 134.081 8.88062 126.216C8.88062 118.351 78.7168 111.958 164.638 111.958C250.592 111.958 320.437 118.351 320.437 126.216C320.437 134.081 250.593 140.476 164.638 140.476Z" fill="#343434"/>
<path opacity="0.3418" fill-rule="evenodd" clip-rule="evenodd" d="M164.638 140.444C78.9028 140.444 9.22131 134.063 9.22131 126.216C9.22131 118.367 78.9028 111.991 164.638 111.991C250.405 111.991 320.096 118.367 320.096 126.216C320.096 134.063 250.406 140.444 164.638 140.444Z" fill="#333333"/>
<path opacity="0.3544" fill-rule="evenodd" clip-rule="evenodd" d="M164.638 140.413C79.0903 140.413 9.5647 134.046 9.5647 126.216C9.5647 118.384 79.0915 112.021 164.638 112.021C250.219 112.021 319.754 118.383 319.754 126.216C319.754 134.046 250.219 140.413 164.638 140.413Z" fill="#323232"/>
<path opacity="0.3671" fill-rule="evenodd" clip-rule="evenodd" d="M164.638 140.38C79.2776 140.38 9.9054 134.029 9.9054 126.215C9.9054 118.4 79.2788 112.05 164.638 112.05C250.031 112.05 319.413 118.4 319.413 126.215C319.412 134.029 250.031 140.38 164.638 140.38Z" fill="#313131"/>
<path opacity="0.3797" fill-rule="evenodd" clip-rule="evenodd" d="M164.639 140.35C79.4649 140.35 10.2473 134.012 10.2473 126.216C10.2473 118.418 79.4649 112.084 164.639 112.084C249.844 112.084 319.071 118.418 319.071 126.216C319.071 134.012 249.844 140.35 164.639 140.35Z" fill="#303030"/>
<path opacity="0.3924" fill-rule="evenodd" clip-rule="evenodd" d="M164.639 140.32C79.651 140.32 10.5894 133.996 10.5894 126.216C10.5894 118.436 79.651 112.115 164.639 112.115C249.656 112.115 318.731 118.435 318.731 126.216C318.729 133.994 249.656 140.32 164.639 140.32Z" fill="#2F2F2F"/>
<path opacity="0.4051" fill-rule="evenodd" clip-rule="evenodd" d="M164.638 140.287C79.837 140.287 10.9301 133.978 10.9301 126.216C10.9301 118.452 79.8383 112.147 164.638 112.147C249.469 112.147 318.387 118.454 318.387 126.216C318.387 133.978 249.469 140.287 164.638 140.287Z" fill="#2E2E2E"/>
<path opacity="0.4177" fill-rule="evenodd" clip-rule="evenodd" d="M164.638 140.257C80.0243 140.257 11.2708 133.96 11.2708 126.216C11.2708 118.47 80.0243 112.177 164.638 112.177C249.282 112.177 318.045 118.47 318.045 126.216C318.047 133.96 249.282 140.257 164.638 140.257Z" fill="#2D2D2D"/>
<path opacity="0.4304" fill-rule="evenodd" clip-rule="evenodd" d="M164.638 140.224C80.2105 140.224 11.6128 133.944 11.6128 126.215C11.6128 118.485 80.2117 112.207 164.638 112.207C249.094 112.207 317.705 118.485 317.705 126.215C317.705 133.944 249.094 140.224 164.638 140.224Z" fill="#2C2C2C"/>
<path opacity="0.443" fill-rule="evenodd" clip-rule="evenodd" d="M164.638 140.194C80.3979 140.194 11.9548 133.928 11.9548 126.216C11.9548 118.504 80.3979 112.241 164.638 112.241C248.907 112.241 317.363 118.504 317.363 126.216C317.364 133.928 248.907 140.194 164.638 140.194Z" fill="#2B2B2B"/>
<path opacity="0.4557" fill-rule="evenodd" clip-rule="evenodd" d="M164.638 140.163C80.5839 140.163 12.2955 133.91 12.2955 126.216C12.2955 118.52 80.5839 112.27 164.638 112.27C248.721 112.27 317.022 118.52 317.022 126.216C317.022 133.91 248.72 140.163 164.638 140.163Z" fill="#2A2A2A"/>
<path opacity="0.4684" fill-rule="evenodd" clip-rule="evenodd" d="M164.638 140.131C80.7713 140.131 12.6376 133.892 12.6376 126.216C12.6376 118.538 80.7713 112.303 164.638 112.303C248.534 112.303 316.68 118.538 316.68 126.216C316.68 133.892 248.532 140.131 164.638 140.131Z" fill="#292929"/>
<path opacity="0.481" fill-rule="evenodd" clip-rule="evenodd" d="M164.639 140.1C80.9585 140.1 12.9795 133.876 12.9795 126.216C12.9795 118.555 80.9585 112.334 164.639 112.334C248.346 112.334 316.339 118.555 316.339 126.216C316.339 133.876 248.345 140.1 164.639 140.1Z" fill="#282828"/>
<path opacity="0.4937" fill-rule="evenodd" clip-rule="evenodd" d="M164.638 140.068C81.1446 140.068 13.3202 133.858 13.3202 126.215C13.3202 118.571 81.1446 112.364 164.638 112.364C248.158 112.364 315.997 118.571 315.997 126.215C315.997 133.858 248.158 140.068 164.638 140.068Z" fill="#272727"/>
<path opacity="0.5063" fill-rule="evenodd" clip-rule="evenodd" d="M164.638 140.037C81.332 140.037 13.661 133.841 13.661 126.216C13.661 118.589 81.3308 112.396 164.638 112.396C247.97 112.396 315.655 118.589 315.655 126.216C315.655 133.841 247.972 140.037 164.638 140.037Z" fill="#262727"/>
<path opacity="0.519" fill-rule="evenodd" clip-rule="evenodd" d="M164.638 140.006C81.518 140.006 14.0029 133.823 14.0029 126.215C14.0029 118.604 81.518 112.426 164.638 112.426C247.784 112.426 315.313 118.604 315.313 126.215C315.314 133.823 247.784 140.006 164.638 140.006Z" fill="#252626"/>
<path opacity="0.5316" fill-rule="evenodd" clip-rule="evenodd" d="M164.638 139.975C81.7053 139.975 14.3448 133.807 14.3448 126.216C14.3448 118.623 81.704 112.46 164.638 112.46C247.597 112.46 314.972 118.623 314.972 126.216C314.972 133.807 247.597 139.975 164.638 139.975Z" fill="#242525"/>
<path opacity="0.5443" fill-rule="evenodd" clip-rule="evenodd" d="M164.639 139.944C81.8915 139.944 14.687 133.789 14.687 126.216C14.687 118.641 81.8915 112.49 164.639 112.49C247.41 112.49 314.632 118.641 314.632 126.216C314.632 133.789 247.41 139.944 164.639 139.944Z" fill="#232424"/>
<path opacity="0.557" fill-rule="evenodd" clip-rule="evenodd" d="M164.639 139.911C82.0788 139.911 15.0289 133.772 15.0289 126.215C15.0289 118.656 82.0801 112.52 164.639 112.52C247.223 112.52 314.29 118.656 314.29 126.215C314.29 133.773 247.222 139.911 164.639 139.911Z" fill="#222323"/>
<path opacity="0.5696" fill-rule="evenodd" clip-rule="evenodd" d="M164.638 139.881C82.265 139.881 15.3698 133.755 15.3698 126.216C15.3698 118.675 82.265 112.553 164.638 112.553C247.035 112.553 313.948 118.675 313.948 126.216C313.948 133.755 247.035 139.881 164.638 139.881Z" fill="#212222"/>
<path opacity="0.5823" fill-rule="evenodd" clip-rule="evenodd" d="M164.638 139.851C82.4523 139.851 15.7117 133.739 15.7117 126.216C15.7117 118.693 82.451 112.584 164.638 112.584C246.849 112.584 313.606 118.691 313.606 126.216C313.606 133.738 246.848 139.851 164.638 139.851Z" fill="#202121"/>
<path opacity="0.5949" fill-rule="evenodd" clip-rule="evenodd" d="M164.638 139.818C82.6396 139.818 16.0524 133.721 16.0524 126.216C16.0524 118.709 82.6383 112.616 164.638 112.616C246.66 112.616 313.265 118.71 313.265 126.216C313.265 133.721 246.66 139.818 164.638 139.818Z" fill="#1F2020"/>
<path opacity="0.6076" fill-rule="evenodd" clip-rule="evenodd" d="M164.638 139.787C82.8258 139.787 16.3945 133.704 16.3945 126.216C16.3945 118.726 82.8258 112.646 164.638 112.646C246.474 112.646 312.923 118.726 312.923 126.216C312.923 133.704 246.474 139.787 164.638 139.787Z" fill="#1E1F1F"/>
<path opacity="0.6203" fill-rule="evenodd" clip-rule="evenodd" d="M164.638 139.755C83.0131 139.755 16.7365 133.687 16.7365 126.215C16.7365 118.743 83.0131 112.676 164.638 112.676C246.286 112.676 312.582 118.742 312.582 126.215C312.582 133.687 246.286 139.755 164.638 139.755Z" fill="#1D1E1E"/>
<path opacity="0.6329" fill-rule="evenodd" clip-rule="evenodd" d="M164.638 139.725C83.1991 139.725 17.0771 133.671 17.0771 126.216C17.0771 118.76 83.1991 112.709 164.638 112.709C246.099 112.709 312.24 118.762 312.24 126.216C312.24 133.67 246.099 139.725 164.638 139.725Z" fill="#1C1D1D"/>
<path opacity="0.6456" fill-rule="evenodd" clip-rule="evenodd" d="M164.639 139.694C83.3865 139.694 17.4192 133.654 17.4192 126.216C17.4192 118.778 83.3865 112.74 164.639 112.74C245.912 112.74 311.898 118.778 311.898 126.216C311.898 133.654 245.911 139.694 164.639 139.694Z" fill="#1B1C1C"/>
<path opacity="0.6582" fill-rule="evenodd" clip-rule="evenodd" d="M164.639 139.661C83.5725 139.661 17.7611 133.636 17.7611 126.216C17.7611 118.796 83.5738 112.772 164.639 112.772C245.725 112.772 311.558 118.796 311.558 126.216C311.556 133.636 245.725 139.661 164.639 139.661Z" fill="#1A1B1B"/>
<path opacity="0.6709" fill-rule="evenodd" clip-rule="evenodd" d="M164.638 139.632C83.7598 139.632 18.103 133.62 18.103 126.216C18.103 118.812 83.7598 112.803 164.638 112.803C245.537 112.803 311.215 118.812 311.215 126.216C311.215 133.618 245.537 139.632 164.638 139.632Z" fill="#191A1A"/>
<path opacity="0.6835" fill-rule="evenodd" clip-rule="evenodd" d="M164.638 139.599C83.9473 139.599 18.4452 133.602 18.4452 126.216C18.4452 118.828 83.9473 112.833 164.638 112.833C245.35 112.833 310.875 118.828 310.875 126.216C310.874 133.602 245.35 139.599 164.638 139.599Z" fill="#181919"/>
<path opacity="0.6962" fill-rule="evenodd" clip-rule="evenodd" d="M164.638 139.568C84.1321 139.568 18.7859 133.584 18.7859 126.216C18.7859 118.847 84.1334 112.866 164.638 112.866C245.163 112.866 310.533 118.847 310.533 126.216C310.533 133.584 245.163 139.568 164.638 139.568Z" fill="#171818"/>
<path opacity="0.7089" fill-rule="evenodd" clip-rule="evenodd" d="M164.638 139.537C84.3208 139.537 19.1267 133.567 19.1267 126.215C19.1267 118.862 84.3208 112.895 164.638 112.895C244.975 112.895 310.191 118.862 310.191 126.215C310.191 133.567 244.975 139.537 164.638 139.537Z" fill="#161717"/>
<path opacity="0.7215" fill-rule="evenodd" clip-rule="evenodd" d="M164.638 139.506C84.5068 139.506 19.4686 133.552 19.4686 126.216C19.4686 118.881 84.5068 112.929 164.638 112.929C244.788 112.929 309.849 118.881 309.849 126.216C309.849 133.552 244.788 139.506 164.638 139.506Z" fill="#151616"/>
<path opacity="0.7342" fill-rule="evenodd" clip-rule="evenodd" d="M164.638 139.475C84.6928 139.475 19.8093 133.533 19.8093 126.216C19.8093 118.897 84.6928 112.959 164.638 112.959C244.601 112.959 309.507 118.897 309.507 126.216C309.507 133.533 244.601 139.475 164.638 139.475Z" fill="#141515"/>
<path opacity="0.7468" fill-rule="evenodd" clip-rule="evenodd" d="M164.638 139.442C84.8802 139.442 20.1514 133.516 20.1514 126.216C20.1514 118.914 84.8802 112.989 164.638 112.989C244.413 112.989 309.166 118.914 309.166 126.216C309.166 133.516 244.413 139.442 164.638 139.442Z" fill="#131414"/>
<path opacity="0.7595" fill-rule="evenodd" clip-rule="evenodd" d="M164.638 139.412C85.0675 139.412 20.4933 133.5 20.4933 126.216C20.4933 118.931 85.0662 113.022 164.638 113.022C244.227 113.022 308.825 118.931 308.825 126.216C308.824 133.5 244.227 139.412 164.638 139.412Z" fill="#131313"/>
<path opacity="0.7722" fill-rule="evenodd" clip-rule="evenodd" d="M164.638 139.381C85.2536 139.381 20.8353 133.483 20.8353 126.215C20.8353 118.948 85.2536 113.052 164.638 113.052C244.039 113.052 308.483 118.946 308.483 126.215C308.483 133.483 244.039 139.381 164.638 139.381Z" fill="#121212"/>
<path opacity="0.7848" fill-rule="evenodd" clip-rule="evenodd" d="M164.638 139.349C85.4398 139.349 21.1761 133.465 21.1761 126.216C21.1761 118.965 85.4398 113.085 164.638 113.085C243.851 113.085 308.141 118.967 308.141 126.216C308.141 133.465 243.853 139.349 164.638 139.349Z" fill="#111111"/>
<path opacity="0.7975" fill-rule="evenodd" clip-rule="evenodd" d="M164.638 139.318C85.6271 139.318 21.5181 133.449 21.5181 126.216C21.5181 118.983 85.6271 113.115 164.638 113.115C243.664 113.115 307.799 118.983 307.799 126.216C307.801 133.449 243.664 139.318 164.638 139.318Z" fill="#101010"/>
<path opacity="0.8101" fill-rule="evenodd" clip-rule="evenodd" d="M164.638 139.286C85.8144 139.286 21.8588 133.431 21.8588 126.215C21.8588 118.999 85.8131 113.145 164.638 113.145C243.478 113.145 307.459 118.998 307.459 126.215C307.459 133.431 243.478 139.286 164.638 139.286Z" fill="#0F0F0F"/>
<path opacity="0.8228" fill-rule="evenodd" clip-rule="evenodd" d="M164.638 139.256C86.0005 139.256 22.2008 133.415 22.2008 126.216C22.2008 119.017 86.0005 113.179 164.638 113.179C243.289 113.179 307.117 119.017 307.117 126.216C307.118 133.413 243.289 139.256 164.638 139.256Z" fill="#0E0E0E"/>
<path opacity="0.8354" fill-rule="evenodd" clip-rule="evenodd" d="M164.638 139.224C86.1878 139.224 22.5427 133.396 22.5427 126.215C22.5427 119.033 86.1878 113.208 164.638 113.208C243.103 113.208 306.775 119.033 306.775 126.215C306.776 133.397 243.103 139.224 164.638 139.224Z" fill="#0D0D0D"/>
<path opacity="0.8481" fill-rule="evenodd" clip-rule="evenodd" d="M164.639 139.192C86.3753 139.192 22.8849 133.379 22.8849 126.216C22.8849 119.052 86.3753 113.241 164.639 113.241C242.916 113.241 306.434 119.052 306.434 126.216C306.434 133.379 242.916 139.192 164.639 139.192Z" fill="#0C0C0C"/>
<path opacity="0.8608" fill-rule="evenodd" clip-rule="evenodd" d="M164.638 139.162C86.5613 139.162 23.2256 133.363 23.2256 126.216C23.2256 119.068 86.5613 113.272 164.638 113.272C242.729 113.272 306.093 119.068 306.093 126.216C306.093 133.362 242.729 139.162 164.638 139.162Z" fill="#0B0B0B"/>
<path opacity="0.8734" fill-rule="evenodd" clip-rule="evenodd" d="M164.638 139.13C86.7474 139.13 23.5663 133.344 23.5663 126.216C23.5663 119.086 86.7474 113.304 164.638 113.304C242.541 113.304 305.751 119.086 305.751 126.216C305.751 133.345 242.541 139.13 164.638 139.13Z" fill="#0A0A0A"/>
<path opacity="0.8861" fill-rule="evenodd" clip-rule="evenodd" d="M164.638 139.099C86.9348 139.099 23.9083 133.328 23.9083 126.216C23.9083 119.102 86.9348 113.335 164.638 113.335C242.354 113.335 305.409 119.102 305.409 126.216C305.409 133.328 242.354 139.099 164.638 139.099Z" fill="#090909"/>
<path opacity="0.8987" fill-rule="evenodd" clip-rule="evenodd" d="M164.638 139.068C87.122 139.068 24.2502 133.31 24.2502 126.215C24.2502 119.117 87.1208 113.364 164.638 113.364C242.166 113.364 305.067 119.117 305.067 126.215C305.067 133.31 242.166 139.068 164.638 139.068Z" fill="#080808"/>
<path opacity="0.9114" fill-rule="evenodd" clip-rule="evenodd" d="M164.638 139.037C87.3081 139.037 24.5909 133.294 24.5909 126.216C24.5909 119.138 87.3068 113.398 164.638 113.398C241.979 113.398 304.726 119.138 304.726 126.216C304.726 133.294 241.979 139.037 164.638 139.037Z" fill="#070707"/>
<path opacity="0.9241" fill-rule="evenodd" clip-rule="evenodd" d="M164.638 139.006C87.4954 139.006 24.933 133.278 24.933 126.216C24.933 119.155 87.4942 113.428 164.638 113.428C241.792 113.428 304.384 119.155 304.384 126.216C304.384 133.278 241.792 139.006 164.638 139.006Z" fill="#060606"/>
<path opacity="0.9367" fill-rule="evenodd" clip-rule="evenodd" d="M164.638 138.973C87.6816 138.973 25.275 133.259 25.275 126.216C25.275 119.17 87.6816 113.46 164.638 113.46C241.605 113.46 304.042 119.17 304.042 126.216C304.042 133.259 241.606 138.973 164.638 138.973Z" fill="#050505"/>
<path opacity="0.9494" fill-rule="evenodd" clip-rule="evenodd" d="M164.639 138.943C87.8688 138.943 25.6169 133.244 25.6169 126.216C25.6169 119.188 87.8688 113.491 164.639 113.491C241.418 113.491 303.702 119.188 303.702 126.216C303.702 133.244 241.418 138.943 164.639 138.943Z" fill="#040404"/>
<path opacity="0.962" fill-rule="evenodd" clip-rule="evenodd" d="M164.638 138.912C88.055 138.912 25.9578 133.225 25.9578 126.215C25.9578 119.204 88.055 113.521 164.638 113.521C241.231 113.521 303.36 119.203 303.36 126.215C303.36 133.226 241.231 138.912 164.638 138.912Z" fill="#030303"/>
<path opacity="0.9747" fill-rule="evenodd" clip-rule="evenodd" d="M164.638 138.88C88.241 138.88 26.2997 133.208 26.2997 126.216C26.2997 119.222 88.241 113.555 164.638 113.555C241.044 113.555 303.019 119.223 303.019 126.216C303.019 133.208 241.044 138.88 164.638 138.88Z" fill="#020202"/>
<path opacity="0.9873" fill-rule="evenodd" clip-rule="evenodd" d="M164.638 138.849C88.4283 138.849 26.6404 133.192 26.6404 126.216C26.6404 119.239 88.4283 113.585 164.638 113.585C240.856 113.585 302.677 119.239 302.677 126.216C302.677 133.192 240.856 138.849 164.638 138.849Z" fill="#010101"/>
<path fill-rule="evenodd" clip-rule="evenodd" d="M302.335 126.216C302.335 133.175 240.669 138.819 164.638 138.819C88.6157 138.819 26.9824 133.176 26.9824 126.216C26.9824 119.257 88.6157 113.617 164.638 113.617C240.669 113.615 302.335 119.256 302.335 126.216Z" fill="black"/>
<path d="M289.535 32.032L288.307 36.7734L295.829 47.814L287.755 54.5609L279.168 41.6808L273.986 40.7277L289.535 32.032Z" fill="url(#paint0_linear_56_4117)"/>
<path d="M287.688 55.0173L278.982 41.9612L273.088 40.8748L290.013 31.4108L288.64 36.7168L296.238 47.8744L287.688 55.0173ZM274.881 40.5768L279.353 41.4017L287.82 54.1045L295.417 47.76L287.972 36.8287L289.055 32.6519L274.881 40.5768Z" fill="black"/>
<path d="M301.467 63.4377L284.896 59.4142L274.735 59.6179L306.858 67.9414L301.467 63.4377Z" fill="url(#paint1_linear_56_4117)"/>
<path d="M308.104 68.5827L272.492 59.3551L284.931 59.1036L284.969 59.1162L301.609 63.1535L301.665 63.2013L308.104 68.5827ZM276.978 59.882L305.608 67.2952L301.327 63.7193L284.863 59.7197L276.978 59.882Z" fill="black"/>
<path d="M272.484 59.6179L294.649 59.7562L292.262 54.9117L271.051 55.0475L272.484 59.6179Z" fill="url(#paint2_linear_56_4117)"/>
<path d="M295.145 60.0655L272.258 59.9247L270.632 54.7419L292.452 54.6049L295.145 60.0655ZM272.712 59.3124L294.152 59.4444L292.071 55.2223L271.47 55.3568L272.712 59.3124Z" fill="black"/>
<path d="M298.265 45.2291L285.034 56.1414L289.808 56.5501L316.54 74.8292L313.813 62.0056L298.399 50.0044L298.265 45.2291Z" fill="url(#paint3_linear_56_4117)"/>
<path d="M317.002 75.5145L289.701 56.8455L284.254 56.3841L298.554 44.589L298.704 49.8498L314.09 61.8284L317.002 75.5145ZM285.812 55.8963L289.914 56.2521L316.079 74.1377L313.534 62.1779L298.096 50.1566L297.972 45.8665L285.812 55.8963Z" fill="black"/>
<path d="M145.3 54.1134L137.644 56.4583L142.02 68.8015L149.204 66.3007L145.3 54.1134Z" fill="url(#paint4_linear_56_4117)"/>
<path d="M141.831 69.1888L137.248 56.2596L145.501 53.7311L149.589 66.4906L141.831 69.1888ZM138.043 56.6595L142.206 68.4055L148.819 66.1096L145.099 54.4994L138.043 56.6595Z" fill="black"/>
<path d="M136.865 54.7369L133.702 55.7956L140.144 71.7286L142.724 70.5567L136.865 54.7369Z" fill="url(#paint5_linear_56_4117)"/>
<path d="M139.979 72.141L133.294 55.607L137.051 54.3547L143.11 70.7202L139.979 72.141ZM134.111 55.9817L140.31 71.3149L142.335 70.3958L136.679 55.1267L134.111 55.9817Z" fill="black"/>
<path d="M125.5 61.4184L131.007 60.1296L134.287 57.4339L139.324 70.6749L133.936 69.8538L128.195 71.4922L125.5 61.4184Z" fill="url(#paint6_linear_56_4117)"/>
<path d="M127.976 71.8757L125.121 61.1883L130.866 59.8467L134.423 56.9234L139.799 71.0571L133.955 70.1682L127.976 71.8757ZM125.879 61.6447L128.412 71.1112L133.915 69.5383L138.85 70.2902L134.153 57.9444L131.146 60.4112L131.075 60.4314L125.879 61.6447Z" fill="black"/>
<path d="M155.141 85.4373L152.331 83.0911L147.995 66.1045L140.732 67.7453L135.107 82.7415L132.411 85.7868L155.141 85.4373Z" fill="url(#paint7_linear_56_4117)"/>
<path d="M131.719 86.1036L134.838 82.5794L140.5 67.4787L148.219 65.7386L152.604 82.9176L155.976 85.729L131.719 86.1036ZM140.961 68.0081L135.337 82.9465L133.105 85.4687L154.307 85.1418L152.055 83.2633L147.771 66.4716L140.961 68.0081Z" fill="black"/>
<path fill-rule="evenodd" clip-rule="evenodd" d="M16.6986 88.0589C16.9978 89.1817 17.3612 89.7437 17.7887 89.7437C18.2175 89.7437 18.5909 89.1817 18.9052 88.0589C19.202 86.9524 19.3491 85.6109 19.3491 84.0266C19.3491 82.4424 19.202 81.0908 18.9052 79.9692C18.5909 78.8615 18.2175 78.3133 17.7887 78.3133C17.3612 78.3133 16.9978 78.8615 16.6986 79.9692C16.3868 81.0908 16.2296 82.4424 16.2296 84.0266C16.2296 85.6109 16.3868 86.9524 16.6986 88.0589Z" fill="white"/>
<path d="M19.798 77.8455H17.4456V89.9674H19.798V77.8455Z" fill="url(#paint8_linear_56_4117)"/>
<path d="M21.9641 76.6044H18.3732V91.2008H21.9641V76.6044Z" fill="url(#paint9_linear_56_4117)"/>
<path fill-rule="evenodd" clip-rule="evenodd" d="M35.351 30.3056C36.2739 28.5051 39.7944 27.078 45.9176 26.0243C51.5153 25.0386 58.1515 24.5344 65.8326 24.5131C73.5363 24.4892 80.2844 24.9606 86.0782 25.9263C92.4428 26.9799 96.294 28.4397 97.6318 30.3056C97.7651 35.1551 97.8091 46.7314 97.7651 65.0332C97.7651 66.6363 97.7651 68.2808 97.7651 69.972C97.7651 73.0889 97.7525 76.3932 97.7312 79.8811C97.7312 80.6241 97.7312 81.3634 97.7312 82.0864C97.7098 89.5462 97.6771 97.7792 97.6306 106.774H21.988C20.8011 100.081 20.0115 93.3132 19.6167 86.4632C19.5501 84.9267 19.4948 83.4682 19.452 82.0877C19.4294 81.3207 19.4193 80.5826 19.4193 79.8823C19.4633 75.6903 19.8154 72.3861 20.473 69.9733C21.2852 67.0298 22.579 65.4443 24.3569 65.1992C24.3782 65.1325 24.3996 65.0771 24.4235 65.0344C31.5777 42.4087 35.2202 30.8324 35.351 30.3056Z" fill="url(#paint10_linear_56_4117)"/>
<path d="M97.6319 107.082H21.9881C21.8372 107.082 21.7077 106.977 21.6826 106.828C20.5019 100.151 19.7023 93.3068 19.3075 86.4807C19.2434 84.9367 19.188 83.4782 19.144 82.0927C19.1201 81.3232 19.1113 80.5838 19.1113 79.8797C19.1553 75.6765 19.5112 72.3169 20.1738 69.889C20.9923 66.9305 22.3238 65.2595 24.1356 64.9238C24.1394 64.9137 24.1432 64.9062 24.147 64.8986C31.2471 42.4313 34.9223 30.7506 35.0518 30.2314C35.0581 30.2062 35.0657 30.1849 35.0782 30.1647C36.0564 28.2536 39.5858 26.8026 45.8662 25.7213C51.4475 24.7356 58.1667 24.2251 65.8339 24.2012H66.3393C73.818 24.2012 80.4768 24.679 86.1298 25.6233C92.6365 26.6983 96.4802 28.1731 97.8834 30.1258C97.9186 30.1773 97.9387 30.2352 97.9412 30.2943C98.0732 35.1212 98.1172 46.8106 98.0732 65.0331V69.9719C98.0732 73.0889 98.0631 76.3932 98.0418 79.881V82.0864C98.0204 89.5461 97.9852 97.7792 97.9425 106.778C97.9412 106.945 97.8029 107.082 97.6319 107.082ZM22.2446 106.465H97.3251C97.3691 97.5894 97.4018 89.4594 97.4244 82.0851V79.8797C97.4458 76.3881 97.4571 73.0889 97.4571 69.9707V65.0319C97.4999 46.9338 97.4571 35.2846 97.3276 30.4086C95.9911 28.6559 92.1914 27.249 86.0292 26.2318C80.4064 25.2926 73.7815 24.816 66.3381 24.816H65.8326C58.2031 24.8412 51.5191 25.3491 45.9705 26.3286C40.0107 27.3508 36.5355 28.7301 35.639 30.4162C35.3875 31.3203 31.7136 42.9933 24.7153 65.1275C24.6826 65.2067 24.6637 65.2456 24.6461 65.2997C24.6097 65.4103 24.5128 65.4883 24.3959 65.5034C22.7601 65.7247 21.5405 67.2574 20.7685 70.0537C20.1197 72.4313 19.7689 75.7369 19.7249 79.881C19.7249 80.5814 19.735 81.3119 19.7589 82.0776C19.8016 83.4557 19.8569 84.9141 19.9236 86.4518C20.3121 93.161 21.0916 99.8928 22.2446 106.465Z" fill="black"/>
<path fill-rule="evenodd" clip-rule="evenodd" d="M38.097 100.902C38.097 99.5319 37.618 98.3639 36.6612 97.3894C35.6855 96.4301 34.5136 95.9548 33.1444 95.9548H21.9981C20.6264 95.9548 19.4608 96.4301 18.5065 97.3894C17.5308 98.3639 17.043 99.5319 17.043 100.902V104.858C17.043 106.228 17.5296 107.393 18.5065 108.346C19.4621 109.322 20.6276 109.803 21.9981 109.803H33.1444C34.5136 109.803 35.6855 109.322 36.6612 108.346C37.618 107.392 38.097 106.227 38.097 104.858V100.902Z" fill="url(#paint11_linear_56_4117)"/>
<path d="M33.1445 110.115H21.9982C20.546 110.115 19.2974 109.593 18.2865 108.565C17.2568 107.554 16.735 106.308 16.735 104.859V100.904C16.735 99.4565 17.258 98.2004 18.2891 97.1706C19.3012 96.161 20.5485 95.6455 21.9982 95.6455H33.1445C34.5904 95.6455 35.8452 96.161 36.875 97.1706C37.8922 98.2017 38.4039 99.4552 38.4039 100.904V104.859C38.4039 106.308 37.8922 107.555 36.8775 108.565C35.8477 109.593 34.5929 110.115 33.1445 110.115ZM21.9982 96.2603C20.7157 96.2603 19.6168 96.7117 18.7228 97.6032C17.7987 98.5273 17.3498 99.6048 17.3498 100.901V104.857C17.3498 106.153 17.7974 107.222 18.7203 108.126C19.6294 109.049 20.6994 109.498 21.9982 109.498H33.1445C34.4408 109.498 35.5196 109.05 36.4425 108.131C37.3477 107.222 37.7891 106.154 37.7891 104.857V100.901C37.7891 99.6048 37.3477 98.5223 36.4412 97.6032C35.5208 96.6991 34.4408 96.2603 33.1445 96.2603H21.9982Z" fill="black"/>
<path fill-rule="evenodd" clip-rule="evenodd" d="M38.8478 106.836H90.0452C89.6013 100.64 87.1156 95.2797 82.5892 90.7571C77.5686 85.7441 71.5184 83.2357 64.4333 83.2357C57.3495 83.2357 51.3067 85.7429 46.3025 90.7571C41.7774 95.2785 39.2916 100.64 38.8478 106.836Z" fill="url(#paint12_linear_56_4117)"/>
<path d="M38.8477 107.145C38.8389 107.145 38.8314 107.145 38.8251 107.141C38.6541 107.13 38.5271 106.986 38.5397 106.816C38.9848 100.568 41.5246 95.0924 46.0837 90.5371C51.1231 85.4876 57.2966 82.9265 64.4332 82.9265C71.5699 82.9265 77.7497 85.4876 82.8054 90.5371C87.3658 95.0949 89.9043 100.569 90.3494 106.816C90.362 106.986 90.2337 107.13 90.0653 107.141C89.8892 107.158 89.7484 107.027 89.7358 106.86C89.2996 100.764 86.8201 95.4206 82.3691 90.9734C77.4341 86.0408 71.3989 83.5425 64.432 83.5425C57.4651 83.5425 51.4387 86.0408 46.5187 90.9734C42.0665 95.4206 39.5883 100.764 39.152 106.86C39.142 107.019 39.0062 107.145 38.8477 107.145ZM96.0879 106.973C95.927 106.973 95.7949 106.847 95.7811 106.685C95.243 99.1234 92.1751 92.4935 86.6566 86.9638C80.5208 80.8544 73.0259 77.7538 64.3842 77.7538C55.7438 77.7538 48.2664 80.8544 42.1621 86.9638C39.2966 89.838 37.0661 93.0267 35.5372 96.4453C35.468 96.6013 35.2857 96.6729 35.1311 96.6012C34.9751 96.5308 34.9035 96.351 34.9751 96.1939C36.5355 92.7048 38.8062 89.4558 41.7258 86.5275C47.9508 80.2974 55.5728 77.1364 64.3842 77.1364C73.1944 77.1364 80.8352 80.2974 87.0917 86.5275C92.717 92.1616 95.8477 98.9273 96.3947 106.642C96.4085 106.81 96.2803 106.955 96.1093 106.967C96.103 106.973 96.0954 106.973 96.0879 106.973Z" fill="black"/>
<path d="M294.649 94.6649H97.5364V106.539H294.649V94.6649Z" fill="url(#paint13_linear_56_4117)"/>
<path d="M294.649 106.847H97.5363C97.3653 106.847 97.2283 106.71 97.2283 106.539V94.6649C97.2283 94.4926 97.3653 94.3555 97.5363 94.3555H294.649C294.818 94.3555 294.957 94.4926 294.957 94.6649V106.539C294.956 106.71 294.817 106.847 294.649 106.847ZM97.8431 106.229H294.339V94.9716H97.8431V106.229Z" fill="black"/>
<path d="M100.934 34.8132H97.715V85.7503H100.934V34.8132Z" fill="#333333"/>
<path d="M100.934 86.0571H97.7138C97.5428 86.0571 97.4058 85.9201 97.4058 85.7503V34.8132C97.4058 34.6435 97.5428 34.5064 97.7138 34.5064H100.934C101.105 34.5064 101.243 34.6435 101.243 34.8132V85.7503C101.243 85.9201 101.105 86.0571 100.934 86.0571ZM98.0219 85.4398H100.627V35.12H98.0219V85.4398Z" fill="black"/>
<path d="M108.1 42.2201H100.918V79.5742H108.1V42.2201Z" fill="url(#paint14_linear_56_4117)"/>
<path d="M108.102 79.8797H100.92C100.749 79.8797 100.61 79.744 100.61 79.5742V42.2201C100.61 42.0466 100.749 41.9083 100.92 41.9083H108.102C108.27 41.9083 108.41 42.0466 108.41 42.2201V79.5742C108.41 79.744 108.27 79.8797 108.102 79.8797ZM101.228 79.265H107.794V42.5256H101.228V79.265Z" fill="black"/>
<path d="M199.439 90.1516L192.87 114.669L195.741 115.438L202.31 90.9208L199.439 90.1516Z" fill="black"/>
<path d="M195.767 115.758C195.742 115.758 195.714 115.754 195.689 115.749L192.816 114.979C192.652 114.932 192.554 114.767 192.6 114.602L199.169 90.0818C199.189 90.0025 199.242 89.9347 199.314 89.897C199.384 89.853 199.47 89.8454 199.548 89.8655L202.417 90.6338C202.58 90.6765 202.678 90.8475 202.636 91.0122L196.066 115.53C196.045 115.609 195.993 115.675 195.924 115.719C195.875 115.746 195.821 115.758 195.767 115.758ZM193.275 114.465L195.552 115.074L201.961 91.1505L199.685 90.5394L193.275 114.465Z" fill="black"/>
<path d="M288.249 90.8007L285.378 91.5699L291.947 116.089L294.818 115.319L288.249 90.8007Z" fill="black"/>
<path d="M291.993 116.395C291.858 116.395 291.733 116.304 291.697 116.164L285.124 91.6486C285.104 91.5693 285.116 91.4826 285.156 91.4109C285.196 91.3405 285.264 91.2889 285.342 91.2701L288.212 90.4994C288.377 90.4604 288.546 90.5559 288.59 90.7168L295.161 115.24C295.183 115.319 295.171 115.401 295.13 115.473C295.088 115.544 295.022 115.593 294.943 115.617L292.073 116.383C292.046 116.39 292.021 116.395 291.993 116.395ZM285.8 91.7855L292.211 115.71L294.487 115.102L288.075 91.1783L285.8 91.7855Z" fill="black"/>
<path fill-rule="evenodd" clip-rule="evenodd" d="M126.107 88.5353C126.174 88.5592 126.229 88.5793 126.272 88.6045V88.4083C126.228 88.4498 126.174 88.4938 126.107 88.5353ZM111.064 84.9808C113.741 84.6552 115.432 84.7068 116.132 85.1456C116.506 85.7629 116.956 86.198 117.483 86.462L120.874 86.5613C121.115 86.5613 121.345 86.4972 121.565 86.3652C121.829 86.2344 121.994 86.169 122.058 86.169C123.637 85.9477 124.638 85.8383 125.055 85.8383C125.539 85.8383 125.942 85.9477 126.272 86.169V85.8698H295.672V94.4649H169.1V109.803C169.1 113.096 167.453 114.742 164.16 114.742H130.978C127.686 114.742 126.042 113.096 126.042 109.803V93.7407C126.042 93.2579 126.074 92.8052 126.138 92.3903C125.151 92.3903 124.352 92.2784 123.736 92.0634C122.947 91.7956 122.386 91.6547 122.056 91.6309C121.113 91.5001 119.785 91.4901 118.075 91.5995C116.604 91.5794 115.397 91.1405 114.454 90.283L112.28 90.2516C111.533 90.2516 110.425 90.3069 108.954 90.4163C108.101 90.4603 107.54 90.4239 107.276 90.3157C106.97 90.1611 106.716 89.7901 106.518 89.2005C106.475 89.0433 106.223 88.0802 105.761 86.2985C105.345 84.6099 104.005 83.7536 101.746 83.7335C101.415 83.7335 101.132 83.7335 100.889 83.7335V80.8015C101.702 80.7386 102.734 80.8014 103.983 81.0026C104.335 81.0655 104.664 81.1309 104.971 81.1975C105.629 81.3509 106.167 81.5168 106.584 81.6941C107.046 81.8676 107.385 82.0638 107.605 82.2826C108.375 82.8081 109.528 83.7096 111.064 84.9808Z" fill="black"/>
<path fill-rule="evenodd" clip-rule="evenodd" d="M56.6492 98.3488C57.2867 98.1476 57.7481 98.1941 58.0323 98.4782C58.2963 98.7222 58.3177 99.1371 58.0964 99.7318C57.8575 100.389 57.4401 101.012 56.8478 101.605C56.2116 102.243 55.5842 102.659 54.9719 102.855C54.3344 103.123 53.8856 103.123 53.6215 102.855C53.3135 102.596 53.282 102.132 53.5235 101.477C53.7636 100.858 54.1924 100.256 54.8072 99.6652C55.4208 99.0466 56.0344 98.6116 56.6492 98.3488ZM64.4522 95.6468C65.3072 95.6468 66.0528 95.7888 66.689 96.0768C67.2837 96.3395 67.5767 96.6765 67.5767 97.0952C67.5767 97.4913 67.2825 97.8219 66.689 98.0847C66.0528 98.3487 65.3072 98.4782 64.4522 98.4782C63.5746 98.4782 62.839 98.3487 62.2468 98.0847C61.6307 97.8219 61.3252 97.4913 61.3252 97.0952C61.3252 96.6778 61.6307 96.3395 62.2468 96.0768C62.839 95.7888 63.5746 95.6468 64.4522 95.6468ZM72.0893 98.3123C72.7255 98.5122 73.3403 98.9284 73.9313 99.5659C74.5474 100.158 74.9748 100.784 75.2163 101.439C75.435 102.033 75.4124 102.473 75.1496 102.756C74.8642 103.019 74.4266 103.044 73.8344 102.822C73.2196 102.585 72.5947 102.167 71.9572 101.575C71.3411 100.936 70.9262 100.31 70.7049 99.6967C70.4635 99.0831 70.4761 98.643 70.7389 98.3789C71.0243 98.091 71.4732 98.0722 72.0893 98.3123ZM70.7049 118.591C70.9036 117.977 71.3097 117.36 71.9233 116.749C72.5381 116.135 73.1743 115.72 73.8332 115.499C74.4254 115.255 74.8642 115.266 75.1484 115.53C75.4124 115.834 75.4338 116.287 75.215 116.876C74.9736 117.536 74.5448 118.161 73.93 118.754C73.339 119.368 72.7242 119.776 72.088 119.974C71.4719 120.235 71.023 120.235 70.7389 119.974C70.4535 119.668 70.4434 119.204 70.7049 118.591ZM78.0478 109.145C78.0478 110.003 77.9158 110.736 77.653 111.35C77.3663 111.944 77.0256 112.239 76.6308 112.239C76.236 112.239 75.9078 111.944 75.6425 111.35C75.3571 110.736 75.2163 110.003 75.2163 109.145C75.2163 108.265 75.3571 107.531 75.6425 106.938C75.9078 106.325 76.236 106.018 76.6308 106.018C77.0243 106.018 77.3663 106.325 77.653 106.938C77.9158 107.53 78.0478 108.264 78.0478 109.145ZM58.1291 118.525C58.329 119.161 58.285 119.613 57.9983 119.877C57.7355 120.14 57.308 120.164 56.7146 119.943C56.057 119.7 55.4195 119.271 54.8059 118.659C54.1911 118.045 53.7749 117.419 53.5536 116.78C53.3122 116.185 53.3361 115.764 53.6203 115.501C53.8843 115.237 54.3445 115.203 55.0033 115.401C55.6169 115.62 56.2318 116.039 56.8466 116.653C57.4627 117.287 57.8902 117.91 58.1291 118.525ZM61.3252 121.29C61.3252 120.897 61.6307 120.556 62.2468 120.273C62.8403 119.986 63.5758 119.844 64.4522 119.844C65.3072 119.844 66.0528 119.986 66.689 120.273C67.2837 120.557 67.5767 120.898 67.5767 121.29C67.5767 121.687 67.2825 122.017 66.689 122.277C66.0528 122.545 65.3072 122.674 64.4522 122.674C63.5746 122.674 62.839 122.544 62.2468 122.277C61.6307 122.017 61.3252 121.687 61.3252 121.29ZM53.8189 109.145C53.8189 110.003 53.6882 110.736 53.4241 111.35C53.1387 111.944 52.7992 112.239 52.4044 112.239C52.0084 112.239 51.6789 111.944 51.4162 111.35C51.1534 110.736 51.0214 110.003 51.0214 109.145C51.0214 108.265 51.1534 107.531 51.4162 106.938C51.6789 106.325 52.0084 106.018 52.4044 106.018C52.7992 106.018 53.1387 106.325 53.4241 106.938C53.6869 107.53 53.8189 108.264 53.8189 109.145Z" fill="#515151"/>
<path fill-rule="evenodd" clip-rule="evenodd" d="M72.0893 98.3123C71.4732 98.0722 71.0243 98.091 70.7402 98.3789C70.4774 98.643 70.4648 99.0831 70.7062 99.6967C70.9263 100.31 71.3424 100.936 71.9585 101.575C72.5947 102.167 73.2209 102.585 73.8357 102.822C74.4279 103.044 74.8667 103.019 75.1509 102.756C75.4149 102.473 75.4363 102.033 75.2175 101.439C74.9761 100.783 74.5474 100.157 73.9325 99.5659C73.3403 98.9297 72.7255 98.5135 72.0893 98.3123ZM64.4522 95.6468C63.5746 95.6468 62.8391 95.7888 62.2469 96.0767C61.6308 96.3395 61.3252 96.6765 61.3252 97.0952C61.3252 97.4912 61.6308 97.8219 62.2469 98.0847C62.8403 98.3487 63.5759 98.4782 64.4522 98.4782C65.3072 98.4782 66.0528 98.3487 66.689 98.0847C67.2838 97.8219 67.5767 97.4912 67.5767 97.0952C67.5767 96.6778 67.2825 96.3395 66.689 96.0767C66.0528 95.7888 65.3072 95.6468 64.4522 95.6468ZM56.6492 98.3488C56.0344 98.6115 55.4208 99.0478 54.8072 99.6652C54.1924 100.257 53.7636 100.858 53.5235 101.477C53.2821 102.132 53.3135 102.596 53.6216 102.855C53.8856 103.123 54.3345 103.123 54.9719 102.855C55.5843 102.659 56.2117 102.243 56.8479 101.605C57.4413 101.01 57.8575 100.389 58.0964 99.7318C58.3177 99.1371 58.2963 98.7221 58.0323 98.4782C57.7469 98.1941 57.2854 98.1463 56.6492 98.3488ZM64.4837 103.056C62.8391 103.056 61.4346 103.637 60.2691 104.8C59.106 105.964 58.5264 107.365 58.5264 109.013C58.5264 110.658 59.106 112.055 60.2691 113.194C61.4334 114.379 62.8391 114.969 64.4837 114.969C66.1295 114.969 67.5352 114.379 68.6983 113.194C69.8613 112.055 70.4434 110.657 70.4434 109.013C70.4434 107.365 69.8613 105.964 68.6983 104.8C67.5352 103.637 66.1295 103.056 64.4837 103.056ZM61.3252 121.29C61.3252 121.687 61.6308 122.017 62.2469 122.277C62.8403 122.545 63.5759 122.674 64.4522 122.674C65.3072 122.674 66.0528 122.544 66.689 122.277C67.2838 122.017 67.5767 121.687 67.5767 121.29C67.5767 120.897 67.2825 120.556 66.689 120.273C66.0528 119.986 65.3072 119.844 64.4522 119.844C63.5746 119.844 62.8391 119.986 62.2469 120.273C61.6308 120.556 61.3252 120.897 61.3252 121.29ZM58.1291 118.525C57.8902 117.912 57.4627 117.288 56.8466 116.652C56.2318 116.038 55.6169 115.618 55.0034 115.399C54.3445 115.202 53.8831 115.236 53.6203 115.5C53.3361 115.763 53.3122 116.185 53.5537 116.779C53.7737 117.418 54.1899 118.044 54.806 118.657C55.4195 119.27 56.057 119.698 56.7146 119.942C57.3068 120.162 57.7355 120.138 57.9983 119.876C58.2863 119.613 58.329 119.16 58.1291 118.525ZM78.0478 109.145C78.0478 108.265 77.9158 107.531 77.653 106.938C77.3663 106.325 77.0256 106.018 76.6308 106.018C76.236 106.018 75.9078 106.325 75.6425 106.938C75.3571 107.531 75.2163 108.265 75.2163 109.145C75.2163 110.003 75.3571 110.736 75.6425 111.35C75.9078 111.944 76.236 112.239 76.6308 112.239C77.0243 112.239 77.3663 111.944 77.653 111.35C77.9158 110.735 78.0478 110.002 78.0478 109.145ZM70.705 118.591C70.4422 119.203 70.4535 119.667 70.7389 119.974C71.0243 120.235 71.4732 120.235 72.088 119.974C72.7242 119.776 73.3391 119.369 73.93 118.754C74.5461 118.161 74.9736 117.536 75.215 116.876C75.4338 116.287 75.4112 115.834 75.1484 115.53C74.863 115.266 74.4254 115.254 73.8332 115.499C73.1744 115.72 72.5382 116.135 71.9233 116.749C71.311 117.361 70.9036 117.977 70.705 118.591ZM78.6714 109.012C78.6714 112.94 77.2884 116.276 74.5247 119.019C71.7372 121.829 68.3927 123.23 64.4837 123.23C60.5784 123.23 57.2301 121.831 54.4451 119.019C51.679 116.276 50.2959 112.94 50.2959 109.012C50.2959 105.106 51.679 101.759 54.4451 98.9724C57.2301 96.2075 60.5784 94.8219 64.4837 94.8219C68.3915 94.8219 71.7372 96.2075 74.5247 98.9724C77.2884 101.759 78.6714 105.107 78.6714 109.012ZM53.819 109.145C53.819 108.265 53.6882 107.531 53.4241 106.938C53.1387 106.325 52.7993 106.018 52.4045 106.018C52.0084 106.018 51.679 106.325 51.4162 106.938C51.1534 107.531 51.0214 108.265 51.0214 109.145C51.0214 110.003 51.1534 110.736 51.4162 111.35C51.679 111.944 52.0084 112.239 52.4045 112.239C52.7993 112.239 53.1387 111.944 53.4241 111.35C53.6869 110.735 53.819 110.002 53.819 109.145Z" fill="url(#paint15_radial_56_4117)"/>
<path fill-rule="evenodd" clip-rule="evenodd" d="M64.4836 103.056C66.1295 103.056 67.5352 103.637 68.6982 104.8C69.8612 105.964 70.4434 107.365 70.4434 109.013C70.4434 110.658 69.8612 112.055 68.6982 113.194C67.5352 114.379 66.1307 114.969 64.4836 114.969C62.839 114.969 61.4346 114.379 60.269 113.194C59.106 112.055 58.5264 110.657 58.5264 109.013C58.5264 107.365 59.106 105.964 60.269 104.8C61.4346 103.637 62.839 103.056 64.4836 103.056ZM62.6077 107.297C62.1035 107.805 61.8508 108.419 61.8508 109.145C61.8508 109.868 62.1022 110.482 62.6077 110.989C63.1131 111.514 63.728 111.777 64.4522 111.777C65.1752 111.777 65.7787 111.514 66.2615 110.989C66.8097 110.483 67.085 109.868 67.085 109.145C67.085 108.419 66.8097 107.806 66.2615 107.297C65.7787 106.797 65.1752 106.544 64.4522 106.544C63.7267 106.544 63.1131 106.796 62.6077 107.297Z" fill="url(#paint16_radial_56_4117)"/>
<path fill-rule="evenodd" clip-rule="evenodd" d="M62.6077 107.297C63.1132 106.797 63.728 106.544 64.4523 106.544C65.1752 106.544 65.7787 106.796 66.2616 107.297C66.8098 107.805 67.0851 108.419 67.0851 109.145C67.0851 109.868 66.8098 110.482 66.2616 110.989C65.7787 111.514 65.1752 111.777 64.4523 111.777C63.7268 111.777 63.1132 111.514 62.6077 110.989C62.1036 110.483 61.8508 109.868 61.8508 109.145C61.8508 108.417 62.1023 107.805 62.6077 107.297Z" fill="url(#paint17_radial_56_4117)"/>
<path fill-rule="evenodd" clip-rule="evenodd" d="M79.4309 109.012C79.4309 113.138 77.9711 116.661 75.0516 119.576C72.1321 122.495 68.609 123.957 64.4837 123.957C60.3584 123.957 56.8366 122.495 53.9183 119.576C50.9988 116.661 49.5403 113.138 49.5403 109.012C49.5403 104.888 51 101.374 53.9183 98.477C56.8366 95.5587 60.3584 94.1015 64.4837 94.1015C68.609 94.1015 72.1321 95.5587 75.0516 98.477C77.9711 101.374 79.4309 104.888 79.4309 109.012ZM78.6715 109.012C78.6715 105.106 77.2884 101.759 74.5248 98.9724C71.7373 96.2075 68.3928 94.822 64.4837 94.822C60.5784 94.822 57.2301 96.2075 54.4451 98.9724C51.679 101.76 50.2959 105.107 50.2959 109.012C50.2959 112.94 51.679 116.276 54.4451 119.019C57.2301 121.829 60.5784 123.23 64.4837 123.23C68.3915 123.23 71.7373 121.831 74.5248 119.019C77.2884 116.276 78.6715 112.94 78.6715 109.012Z" fill="white"/>
<path fill-rule="evenodd" clip-rule="evenodd" d="M79.4309 109.012C79.4309 104.888 77.9711 101.374 75.0516 98.477C72.1321 95.5587 68.609 94.1015 64.4837 94.1015C60.3584 94.1015 56.8366 95.5587 53.9183 98.477C50.9988 101.374 49.5403 104.888 49.5403 109.012C49.5403 113.138 51 116.661 53.9183 119.576C56.8366 122.495 60.3584 123.957 64.4837 123.957C68.609 123.957 72.1321 122.495 75.0516 119.576C77.9711 116.661 79.4309 113.138 79.4309 109.012ZM79.1983 123.664C75.1182 127.716 70.2134 129.749 64.4837 129.749C58.7565 129.749 53.863 127.716 49.8031 123.664C45.7444 119.624 43.7125 114.739 43.7125 109.012C43.7125 103.283 45.7444 98.3915 49.8031 94.3328C53.863 90.2691 58.7578 88.2423 64.4837 88.2423C70.2134 88.2423 75.1182 90.2678 79.1983 94.3328C83.2368 98.3915 85.2549 103.283 85.2549 109.012C85.2549 114.741 83.2368 119.625 79.1983 123.664Z" fill="url(#paint18_radial_56_4117)"/>
<path d="M64.4838 130.06C58.7 130.06 53.6883 127.982 49.5843 123.88C45.4842 119.8 43.4045 114.799 43.4045 109.012C43.4045 103.227 45.4842 98.213 49.5843 94.1128C53.687 90.0126 58.6975 87.933 64.4838 87.933C70.27 87.933 75.2956 90.0126 79.4171 94.1128C83.4947 98.213 85.5642 103.227 85.5642 109.012C85.5642 114.8 83.4947 119.8 79.4171 123.88C75.2931 127.982 70.27 130.06 64.4838 130.06ZM64.4838 88.5479C58.8698 88.5479 54.0026 90.5683 50.0206 94.5491C46.0399 98.5285 44.0219 103.396 44.0219 109.012C44.0219 114.628 46.0399 119.483 50.0206 123.444C54.0026 127.425 58.8698 129.443 64.4838 129.443C70.1015 129.443 74.9787 127.423 78.9808 123.444C82.9414 119.485 84.9469 114.631 84.9469 109.012C84.9469 103.396 82.9389 98.5285 78.9808 94.5491C74.9787 90.5671 70.1028 88.5479 64.4838 88.5479ZM64.4838 124.264C60.2931 124.264 56.6657 122.764 53.7009 119.796C50.7361 116.83 49.2298 113.204 49.2298 109.012C49.2298 104.819 50.7361 101.204 53.7009 98.2595C56.6657 95.296 60.2931 93.7897 64.4838 93.7897C68.6757 93.7897 72.3044 95.2947 75.2704 98.2595C78.234 101.204 79.739 104.819 79.739 109.012C79.739 113.204 78.234 116.83 75.2704 119.796C72.3044 122.764 68.6757 124.264 64.4838 124.264ZM64.4838 94.407C60.4628 94.407 56.9812 95.8492 54.1359 98.6983C51.2893 101.519 49.8471 104.994 49.8471 109.012C49.8471 113.036 51.288 116.516 54.1359 119.361C56.9812 122.205 60.4628 123.646 64.4838 123.646C68.5072 123.646 71.9888 122.205 74.8329 119.361C77.6795 116.515 79.1217 113.036 79.1217 109.012C79.1217 104.994 77.6795 101.519 74.8329 98.6983C71.9888 95.848 68.5072 94.407 64.4838 94.407ZM64.4838 123.542C60.5118 123.542 57.0605 122.094 54.2252 119.236C51.4163 116.449 49.9892 113.009 49.9892 109.012C49.9892 105.04 51.4138 101.59 54.2252 98.7561C57.0617 95.9435 60.5118 94.5177 64.4838 94.5177C68.4569 94.5177 71.9083 95.9435 74.7411 98.7537C77.5538 101.59 78.9808 105.04 78.9808 109.012C78.9808 113.009 77.5538 116.449 74.7411 119.239C71.9096 122.092 68.4582 123.542 64.4838 123.542ZM64.4838 95.1338C60.6803 95.1338 57.376 96.4967 54.6602 99.1886C51.9695 101.904 50.6028 105.208 50.6028 109.012C50.6028 112.838 51.9695 116.13 54.6602 118.802C57.3748 121.538 60.6791 122.925 64.4838 122.925C68.2872 122.925 71.5915 121.536 74.3048 118.802C76.998 116.13 78.3635 112.838 78.3635 109.012C78.3635 105.208 76.998 101.904 74.3048 99.1886C71.594 96.4967 68.2897 95.1338 64.4838 95.1338Z" fill="black"/>
<path fill-rule="evenodd" clip-rule="evenodd" d="M215.384 118.525C215.58 119.161 215.537 119.613 215.251 119.877C214.987 120.14 214.56 120.164 213.967 119.943C213.31 119.7 212.673 119.271 212.058 118.659C211.443 118.045 211.027 117.419 210.806 116.78C210.566 116.185 210.586 115.764 210.87 115.501C211.135 115.237 211.598 115.203 212.256 115.401C212.868 115.62 213.484 116.039 214.098 116.653C214.714 117.287 215.141 117.91 215.384 118.525ZM211.071 109.145C211.071 110.003 210.938 110.736 210.675 111.35C210.39 111.944 210.05 112.239 209.655 112.239C209.261 112.239 208.93 111.944 208.666 111.35C208.403 110.736 208.272 110.003 208.272 109.145C208.272 108.265 208.404 107.531 208.666 106.938C208.93 106.325 209.261 106.018 209.655 106.018C210.05 106.018 210.39 106.325 210.675 106.938C210.938 107.53 211.071 108.264 211.071 109.145ZM210.87 102.855C210.564 102.596 210.533 102.132 210.773 101.477C211.013 100.858 211.442 100.256 212.057 99.6652C212.672 99.0478 213.287 98.6116 213.899 98.3488C214.535 98.1476 214.998 98.1941 215.282 98.4782C215.545 98.7222 215.566 99.1371 215.349 99.7318C215.107 100.389 214.691 101.012 214.096 101.605C213.46 102.243 212.836 102.659 212.22 102.855C211.587 103.123 211.137 103.123 210.87 102.855ZM223.941 96.0768C224.532 96.3395 224.829 96.6765 224.829 97.0952C224.829 97.4913 224.532 97.8219 223.941 98.0847C223.305 98.3487 222.558 98.4782 221.703 98.4782C220.826 98.4782 220.089 98.3487 219.498 98.0847C218.882 97.8219 218.576 97.4913 218.576 97.0952C218.576 96.6778 218.883 96.3395 219.498 96.0768C220.089 95.7888 220.826 95.6468 221.703 95.6468C222.558 95.6468 223.305 95.7888 223.941 96.0768ZM232.467 101.441C232.686 102.034 232.663 102.474 232.399 102.757C232.115 103.02 231.676 103.045 231.084 102.824C230.469 102.586 229.843 102.169 229.208 101.576C228.593 100.938 228.176 100.311 227.956 99.6979C227.715 99.0843 227.726 98.6442 227.99 98.3802C228.275 98.0922 228.724 98.0734 229.339 98.3135C229.976 98.5135 230.591 98.9297 231.182 99.5671C231.797 100.158 232.226 100.784 232.467 101.441ZM232.893 106.938C233.159 106.325 233.487 106.018 233.882 106.018C234.279 106.018 234.616 106.325 234.904 106.938C235.167 107.531 235.299 108.265 235.299 109.145C235.299 110.003 235.167 110.736 234.904 111.35C234.616 111.944 234.279 112.239 233.882 112.239C233.487 112.239 233.159 111.944 232.893 111.35C232.611 110.736 232.467 110.003 232.467 109.145C232.467 108.264 232.611 107.53 232.893 106.938ZM227.99 119.975C227.704 119.668 227.693 119.204 227.956 118.592C228.155 117.978 228.561 117.361 229.174 116.75C229.789 116.136 230.425 115.721 231.084 115.5C231.678 115.256 232.115 115.267 232.399 115.532C232.663 115.836 232.686 116.288 232.467 116.877C232.226 117.537 231.797 118.162 231.182 118.755C230.591 119.369 229.976 119.778 229.339 119.975C228.725 120.236 228.275 120.236 227.99 119.975ZM218.576 121.29C218.576 120.897 218.883 120.556 219.498 120.273C220.089 119.986 220.826 119.844 221.703 119.844C222.558 119.844 223.305 119.986 223.941 120.273C224.532 120.557 224.829 120.898 224.829 121.29C224.829 121.687 224.532 122.017 223.941 122.277C223.305 122.545 222.558 122.674 221.703 122.674C220.826 122.674 220.089 122.544 219.498 122.277C218.882 122.017 218.576 121.687 218.576 121.29Z" fill="#515151"/>
<path fill-rule="evenodd" clip-rule="evenodd" d="M210.87 102.855C211.135 103.123 211.585 103.123 212.222 102.855C212.838 102.659 213.461 102.243 214.098 101.605C214.691 101.01 215.107 100.389 215.35 99.7318C215.567 99.1371 215.546 98.7221 215.283 98.4782C214.998 98.1941 214.536 98.1476 213.9 98.3488C213.288 98.6115 212.672 99.0478 212.058 99.6652C211.443 100.257 211.015 100.858 210.774 101.477C210.533 102.131 210.566 102.596 210.87 102.855ZM211.071 109.145C211.071 108.265 210.938 107.531 210.675 106.938C210.39 106.325 210.05 106.018 209.655 106.018C209.261 106.018 208.93 106.325 208.666 106.938C208.403 107.531 208.272 108.265 208.272 109.145C208.272 110.003 208.404 110.736 208.666 111.35C208.93 111.944 209.261 112.239 209.655 112.239C210.05 112.239 210.39 111.944 210.675 111.35C210.938 110.735 211.071 110.002 211.071 109.145ZM215.384 118.525C215.142 117.912 214.715 117.288 214.099 116.652C213.484 116.038 212.869 115.618 212.257 115.399C211.599 115.202 211.137 115.236 210.871 115.5C210.587 115.763 210.566 116.185 210.807 116.779C211.028 117.418 211.443 118.044 212.059 118.657C212.674 119.27 213.312 119.698 213.968 119.942C214.562 120.162 214.989 120.138 215.252 119.876C215.537 119.613 215.58 119.16 215.384 118.525ZM211.694 119.019C208.93 116.276 207.548 112.94 207.548 109.012C207.548 105.106 208.93 101.759 211.694 98.9724C214.484 96.2075 217.829 94.8219 221.735 94.8219C225.642 94.8219 228.988 96.2075 231.776 98.9724C234.539 101.76 235.922 105.107 235.922 109.012C235.922 112.94 234.539 116.276 231.776 119.019C228.988 121.829 225.642 123.23 221.735 123.23C217.829 123.23 214.484 121.829 211.694 119.019ZM232.467 101.441C232.226 100.784 231.797 100.158 231.182 99.5671C230.591 98.9296 229.976 98.5135 229.339 98.3135C228.725 98.0734 228.275 98.0922 227.99 98.3801C227.726 98.6442 227.714 99.0843 227.956 99.6979C228.176 100.311 228.592 100.938 229.208 101.576C229.843 102.169 230.469 102.586 231.084 102.824C231.678 103.045 232.115 103.02 232.399 102.757C232.665 102.474 232.686 102.033 232.467 101.441ZM223.941 96.0767C223.305 95.7888 222.558 95.6468 221.703 95.6468C220.826 95.6468 220.089 95.7888 219.498 96.0767C218.882 96.3395 218.576 96.6765 218.576 97.0952C218.576 97.4912 218.883 97.8219 219.498 98.0847C220.089 98.3487 220.826 98.4782 221.703 98.4782C222.558 98.4782 223.305 98.3487 223.941 98.0847C224.532 97.8219 224.829 97.4912 224.829 97.0952C224.829 96.6765 224.532 96.3395 223.941 96.0767ZM217.523 104.8C216.36 105.964 215.777 107.365 215.777 109.013C215.777 110.658 216.36 112.055 217.523 113.194C218.686 114.379 220.089 114.969 221.735 114.969C223.38 114.969 224.786 114.379 225.949 113.194C227.112 112.055 227.693 110.657 227.693 109.013C227.693 107.365 227.112 105.964 225.949 104.8C224.786 103.637 223.382 103.056 221.735 103.056C220.089 103.056 218.687 103.637 217.523 104.8ZM218.576 121.29C218.576 121.687 218.883 122.017 219.498 122.277C220.089 122.545 220.826 122.674 221.703 122.674C222.558 122.674 223.305 122.544 223.941 122.277C224.532 122.017 224.829 121.687 224.829 121.29C224.829 120.897 224.532 120.556 223.941 120.273C223.305 119.986 222.558 119.844 221.703 119.844C220.826 119.844 220.089 119.986 219.498 120.273C218.882 120.556 218.576 120.897 218.576 121.29ZM227.99 119.975C228.275 120.236 228.724 120.236 229.339 119.975C229.976 119.778 230.591 119.37 231.182 118.755C231.797 118.162 232.226 117.537 232.467 116.877C232.686 116.288 232.663 115.836 232.399 115.532C232.115 115.267 231.676 115.255 231.084 115.5C230.425 115.721 229.789 116.136 229.174 116.75C228.562 117.361 228.155 117.978 227.956 118.592C227.693 119.204 227.704 119.668 227.99 119.975ZM232.893 106.938C232.611 107.531 232.467 108.265 232.467 109.145C232.467 110.003 232.611 110.736 232.893 111.35C233.159 111.944 233.487 112.239 233.882 112.239C234.279 112.239 234.616 111.944 234.904 111.35C235.167 110.736 235.299 110.003 235.299 109.145C235.299 108.265 235.167 107.531 234.904 106.938C234.616 106.325 234.279 106.018 233.882 106.018C233.487 106.017 233.159 106.324 232.893 106.938Z" fill="url(#paint19_radial_56_4117)"/>
<path fill-rule="evenodd" clip-rule="evenodd" d="M211.169 119.576C208.25 116.661 206.791 113.138 206.791 109.012C206.791 104.888 208.25 101.374 211.169 98.477C214.088 95.5587 217.609 94.1015 221.735 94.1015C225.86 94.1015 229.382 95.5587 232.303 98.477C235.221 101.374 236.679 104.888 236.679 109.012C236.679 113.138 235.221 116.661 232.303 119.576C229.382 122.495 225.86 123.957 221.735 123.957C217.609 123.958 214.088 122.496 211.169 119.576ZM211.694 119.019C214.484 121.829 217.829 123.23 221.735 123.23C225.642 123.23 228.988 121.831 231.776 119.019C234.539 116.276 235.922 112.94 235.922 109.012C235.922 105.106 234.539 101.759 231.776 98.9724C228.988 96.2075 225.642 94.822 221.735 94.822C217.829 94.822 214.482 96.2075 211.694 98.9724C208.93 101.76 207.548 105.107 207.548 109.012C207.548 112.94 208.93 116.276 211.694 119.019Z" fill="white"/>
<path fill-rule="evenodd" clip-rule="evenodd" d="M211.169 119.576C214.088 122.495 217.609 123.957 221.735 123.957C225.86 123.957 229.382 122.495 232.303 119.576C235.221 116.661 236.679 113.138 236.679 109.012C236.679 104.888 235.221 101.374 232.303 98.477C229.382 95.5587 225.86 94.1015 221.735 94.1015C217.609 94.1015 214.086 95.5587 211.169 98.477C208.25 101.374 206.791 104.888 206.791 109.012C206.791 113.138 208.25 116.661 211.169 119.576ZM200.964 109.012C200.964 103.283 202.992 98.3915 207.053 94.3328C211.113 90.2691 216.008 88.2423 221.735 88.2423C227.464 88.2423 232.367 90.2678 236.449 94.3328C240.488 98.3915 242.506 103.283 242.506 109.012C242.506 114.741 240.488 119.624 236.449 123.664C232.367 127.716 227.464 129.749 221.735 129.749C216.008 129.749 211.114 127.716 207.053 123.664C202.993 119.625 200.964 114.741 200.964 109.012Z" fill="url(#paint20_radial_56_4117)"/>
<path fill-rule="evenodd" clip-rule="evenodd" d="M217.523 104.8C218.686 103.637 220.089 103.056 221.735 103.056C223.38 103.056 224.786 103.637 225.949 104.8C227.112 105.964 227.693 107.365 227.693 109.013C227.693 110.658 227.112 112.055 225.949 113.194C224.786 114.379 223.382 114.969 221.735 114.969C220.087 114.969 218.686 114.379 217.523 113.194C216.359 112.055 215.777 110.657 215.777 109.013C215.779 107.364 216.359 105.963 217.523 104.8ZM223.512 107.297C223.028 106.797 222.426 106.544 221.703 106.544C220.978 106.544 220.364 106.796 219.859 107.297C219.354 107.805 219.103 108.419 219.103 109.145C219.103 109.868 219.354 110.482 219.859 110.989C220.364 111.514 220.979 111.777 221.703 111.777C222.426 111.777 223.03 111.514 223.512 110.989C224.061 110.483 224.335 109.868 224.335 109.145C224.336 108.417 224.061 107.805 223.512 107.297Z" fill="url(#paint21_radial_56_4117)"/>
<path fill-rule="evenodd" clip-rule="evenodd" d="M223.513 107.297C224.061 107.805 224.335 108.419 224.335 109.145C224.335 109.868 224.059 110.482 223.513 110.989C223.028 111.514 222.426 111.777 221.703 111.777C220.978 111.777 220.364 111.514 219.859 110.989C219.354 110.483 219.103 109.868 219.103 109.145C219.103 108.419 219.354 107.806 219.859 107.297C220.364 106.797 220.979 106.544 221.703 106.544C222.426 106.544 223.03 106.796 223.513 107.297Z" fill="url(#paint22_radial_56_4117)"/>
<path d="M221.735 130.06C215.951 130.06 210.938 127.982 206.835 123.88C202.735 119.8 200.655 114.799 200.655 109.012C200.655 103.227 202.735 98.213 206.835 94.1128C210.938 90.0126 215.952 87.933 221.735 87.933C227.521 87.933 232.544 90.0126 236.667 94.1128C240.748 98.213 242.814 103.227 242.814 109.012C242.814 114.8 240.747 119.8 236.667 123.88C232.544 127.982 227.518 130.06 221.735 130.06ZM221.735 88.5479C216.119 88.5479 211.253 90.5683 207.272 94.5491C203.288 98.5285 201.271 103.396 201.271 109.012C201.271 114.628 203.288 119.483 207.272 123.444C211.253 127.425 216.119 129.443 221.735 129.443C227.35 129.443 232.228 127.423 236.233 123.444C240.192 119.485 242.2 114.631 242.2 109.012C242.2 103.396 240.192 98.5285 236.233 94.5491C232.23 90.5671 227.352 88.5479 221.735 88.5479ZM221.735 124.264C217.544 124.264 213.915 122.764 210.95 119.796C207.986 116.83 206.481 113.204 206.481 109.012C206.481 104.819 207.986 101.204 210.95 98.2595C213.915 95.296 217.544 93.7897 221.735 93.7897C225.927 93.7897 229.554 95.2947 232.52 98.2595C235.484 101.199 236.987 104.819 236.987 109.012C236.987 113.204 235.485 116.835 232.52 119.796C229.554 122.764 225.927 124.264 221.735 124.264ZM221.735 94.407C217.714 94.407 214.232 95.8492 211.384 98.6983C208.539 101.524 207.098 104.994 207.098 109.012C207.098 113.036 208.539 116.516 211.384 119.361C214.232 122.205 217.712 123.646 221.735 123.646C225.756 123.646 229.24 122.205 232.084 119.361C234.929 116.515 236.374 113.036 236.374 109.012C236.374 104.989 234.929 101.519 232.086 98.6983C229.24 95.848 225.757 94.407 221.735 94.407ZM221.735 123.542C217.761 123.542 214.31 122.094 211.475 119.236C208.665 116.449 207.24 113.009 207.24 109.012C207.24 105.04 208.665 101.59 211.475 98.7561C214.311 95.9435 217.763 94.5177 221.735 94.5177C225.707 94.5177 229.159 95.9435 231.992 98.7537C234.805 101.59 236.232 105.04 236.232 109.012C236.232 113.009 234.805 116.449 231.992 119.239C229.162 122.092 225.709 123.542 221.735 123.542ZM221.735 95.1338C217.931 95.1338 214.627 96.4967 211.911 99.1912C209.219 101.903 207.856 105.206 207.856 109.012C207.856 112.838 209.219 116.13 211.911 118.802C214.628 121.538 217.932 122.925 221.735 122.925C225.538 122.925 228.842 121.536 231.556 118.802C234.249 116.13 235.614 112.838 235.614 109.012C235.614 105.208 234.249 101.904 231.556 99.1886C228.845 96.4967 225.541 95.1338 221.735 95.1338Z" fill="black"/>
<path fill-rule="evenodd" clip-rule="evenodd" d="M31.6319 46.8636L25.178 40.6083C25.2019 41.9675 25.1466 43.3494 25.0158 44.7538L30.4135 49.9579H30.3809V51.8338L24.8159 46.4361C24.6851 47.5563 24.5204 48.6704 24.323 49.7907H22.3151V47.8192H21.5267V43.9641H20.8993V38.5036H21.5267V34.3229H22.3151V32.2131H24.323C24.7392 34.3644 25.0032 36.5145 25.1126 38.6645L31.6319 44.9851V46.8636Z" fill="black"/>
<path fill-rule="evenodd" clip-rule="evenodd" d="M100.795 97.5341C99.953 98.3752 99.5305 99.3811 99.5305 100.553V100.576C99.5305 101.747 99.9517 102.744 100.795 103.569C101.62 104.41 102.619 104.832 103.792 104.832H119.794C120.964 104.832 121.973 104.41 122.815 103.569C123.639 102.744 124.052 101.747 124.052 100.576V100.553C124.052 99.3798 123.639 98.3752 122.815 97.5341C121.973 96.708 120.963 96.2982 119.794 96.2982H103.792C102.619 96.2982 101.62 96.708 100.795 97.5341Z" fill="url(#paint23_linear_56_4117)"/>
<path fill-rule="evenodd" clip-rule="evenodd" d="M276.578 111.348C276.293 110.735 276.149 110.002 276.149 109.144C276.149 108.264 276.292 107.53 276.578 106.936C276.841 106.324 277.169 106.017 277.564 106.017C277.958 106.017 278.301 106.324 278.585 106.936C278.849 107.53 278.98 108.264 278.98 109.144C278.98 110.002 278.849 110.735 278.585 111.348C278.301 111.943 277.958 112.237 277.564 112.237C277.169 112.239 276.841 111.943 276.578 111.348ZM273.022 98.3123C273.659 98.5122 274.274 98.9284 274.864 99.5659C275.479 100.158 275.907 100.784 276.149 101.439C276.37 102.033 276.346 102.473 276.083 102.756C275.796 103.019 275.359 103.044 274.766 102.822C274.153 102.585 273.527 102.167 272.89 101.575C272.276 100.936 271.859 100.31 271.638 99.6967C271.397 99.0831 271.408 98.643 271.672 98.3789C271.958 98.091 272.408 98.0722 273.022 98.3123ZM273.022 119.975C272.406 120.236 271.956 120.236 271.672 119.975C271.387 119.668 271.375 119.204 271.638 118.592C271.837 117.978 272.242 117.361 272.857 116.75C273.471 116.136 274.108 115.721 274.766 115.5C275.359 115.256 275.797 115.267 276.083 115.532C276.344 115.836 276.368 116.288 276.149 116.877C275.907 117.537 275.479 118.162 274.864 118.755C274.274 119.369 273.659 119.778 273.022 119.975ZM254.488 116.779C254.248 116.184 254.271 115.763 254.556 115.5C254.819 115.236 255.279 115.202 255.939 115.399C256.554 115.618 257.167 116.038 257.781 116.652C258.397 117.288 258.826 117.912 259.065 118.525C259.263 119.161 259.219 119.613 258.933 119.877C258.671 120.14 258.241 120.164 257.65 119.943C256.991 119.7 256.355 119.271 255.74 118.659C255.124 118.044 254.708 117.418 254.488 116.779ZM253.338 106.017C253.732 106.017 254.072 106.324 254.36 106.936C254.62 107.53 254.755 108.264 254.755 109.144C254.755 110.002 254.621 110.735 254.36 111.348C254.072 111.943 253.734 112.237 253.338 112.237C252.943 112.237 252.615 111.943 252.349 111.348C252.085 110.735 251.955 110.002 251.955 109.144C251.955 108.264 252.085 107.53 252.349 106.936C252.613 106.324 252.942 106.017 253.338 106.017ZM258.968 98.477C259.23 98.7209 259.253 99.1359 259.033 99.7306C258.792 100.388 258.376 101.011 257.781 101.604C257.145 102.241 256.521 102.658 255.906 102.854C255.27 103.122 254.82 103.122 254.557 102.854C254.249 102.595 254.217 102.131 254.459 101.476C254.697 100.857 255.126 100.255 255.742 99.664C256.357 99.0466 256.971 98.6103 257.584 98.3475C258.221 98.1464 258.681 98.1941 258.968 98.477ZM265.387 95.6468C266.24 95.6468 266.987 95.7888 267.623 96.0768C268.217 96.3395 268.511 96.6765 268.511 97.0952C268.511 97.4913 268.217 97.8219 267.623 98.0847C266.987 98.3487 266.24 98.4782 265.387 98.4782C264.508 98.4782 263.774 98.3487 263.18 98.0847C262.568 97.8219 262.26 97.4913 262.26 97.0952C262.26 96.6778 262.568 96.3395 263.18 96.0768C263.772 95.7888 264.508 95.6468 265.387 95.6468ZM267.623 120.272C268.217 120.556 268.511 120.897 268.511 121.289C268.511 121.686 268.217 122.016 267.623 122.276C266.987 122.544 266.24 122.673 265.387 122.673C264.508 122.673 263.774 122.542 263.18 122.276C262.568 122.016 262.26 121.686 262.26 121.289C262.26 120.895 262.568 120.555 263.18 120.272C263.774 119.985 264.509 119.843 265.387 119.843C266.24 119.843 266.987 119.986 267.623 120.272Z" fill="#515151"/>
<path fill-rule="evenodd" clip-rule="evenodd" d="M273.022 98.3123C272.406 98.0722 271.956 98.091 271.672 98.3789C271.408 98.643 271.397 99.0831 271.638 99.6967C271.858 100.31 272.276 100.936 272.89 101.575C273.527 102.167 274.153 102.585 274.766 102.822C275.359 103.044 275.797 103.019 276.083 102.756C276.344 102.473 276.368 102.033 276.149 101.439C275.907 100.783 275.479 100.157 274.864 99.5659C274.273 98.9297 273.659 98.5135 273.022 98.3123ZM276.578 111.348C276.841 111.943 277.169 112.237 277.564 112.237C277.957 112.237 278.301 111.943 278.585 111.348C278.849 110.735 278.98 110.002 278.98 109.144C278.98 108.264 278.849 107.53 278.585 106.936C278.301 106.324 277.957 106.017 277.564 106.017C277.168 106.017 276.841 106.324 276.578 106.936C276.293 107.53 276.149 108.264 276.149 109.144C276.151 110.002 276.293 110.735 276.578 111.348ZM271.377 109.012C271.377 107.364 270.794 105.963 269.631 104.799C268.467 103.636 267.064 103.055 265.417 103.055C263.772 103.055 262.369 103.636 261.206 104.799C260.039 105.963 259.461 107.364 259.461 109.012C259.461 110.657 260.039 112.054 261.206 113.193C262.369 114.377 263.773 114.968 265.417 114.968C267.064 114.968 268.467 114.377 269.631 113.193C270.794 112.054 271.377 110.657 271.377 109.012ZM273.022 119.975C273.659 119.778 274.273 119.37 274.864 118.755C275.479 118.162 275.907 117.537 276.149 116.877C276.369 116.288 276.346 115.836 276.083 115.532C275.796 115.267 275.359 115.255 274.766 115.5C274.107 115.721 273.471 116.136 272.856 116.75C272.242 117.361 271.837 117.978 271.638 118.592C271.375 119.204 271.387 119.668 271.672 119.975C271.957 120.236 272.408 120.236 273.022 119.975ZM279.606 109.012C279.606 112.94 278.224 116.276 275.458 119.019C272.67 121.829 269.325 123.23 265.417 123.23C261.512 123.23 258.166 121.831 255.378 119.019C252.613 116.276 251.232 112.94 251.232 109.012C251.232 105.106 252.613 101.759 255.378 98.9724C258.166 96.2075 261.512 94.8219 265.417 94.8219C269.325 94.8219 272.67 96.2075 275.458 98.9724C278.225 101.759 279.606 105.107 279.606 109.012ZM265.387 95.6468C264.508 95.6468 263.773 95.7888 263.18 96.0767C262.568 96.3395 262.26 96.6765 262.26 97.0952C262.26 97.4912 262.568 97.8219 263.18 98.0847C263.773 98.3487 264.509 98.4782 265.387 98.4782C266.24 98.4782 266.987 98.3487 267.623 98.0847C268.217 97.8219 268.511 97.4912 268.511 97.0952C268.511 96.6778 268.217 96.3395 267.623 96.0767C266.987 95.7888 266.24 95.6468 265.387 95.6468ZM258.968 98.477C258.681 98.1928 258.221 98.1464 257.582 98.3475C256.97 98.6103 256.355 99.0466 255.74 99.664C255.124 100.256 254.696 100.857 254.458 101.476C254.215 102.131 254.248 102.595 254.556 102.854C254.819 103.122 255.269 103.122 255.905 102.854C256.52 102.658 257.144 102.241 257.78 101.604C258.374 101.009 258.791 100.388 259.032 99.7306C259.253 99.1371 259.229 98.7222 258.968 98.477ZM253.338 106.017C252.943 106.017 252.615 106.324 252.349 106.936C252.085 107.53 251.955 108.264 251.955 109.144C251.955 110.002 252.085 110.735 252.349 111.348C252.613 111.943 252.942 112.237 253.338 112.237C253.732 112.237 254.072 111.943 254.36 111.348C254.62 110.735 254.755 110.002 254.755 109.144C254.755 108.264 254.621 107.53 254.36 106.936C254.072 106.324 253.732 106.017 253.338 106.017ZM254.488 116.779C254.708 117.418 255.124 118.044 255.74 118.657C256.355 119.27 256.991 119.698 257.65 119.942C258.241 120.162 258.671 120.138 258.933 119.876C259.219 119.612 259.263 119.16 259.065 118.524C258.826 117.91 258.397 117.287 257.781 116.65C257.167 116.037 256.555 115.617 255.939 115.398C255.279 115.201 254.819 115.235 254.556 115.499C254.271 115.762 254.248 116.184 254.488 116.779ZM267.623 120.272C266.987 119.985 266.24 119.843 265.387 119.843C264.508 119.843 263.773 119.985 263.18 120.272C262.568 120.556 262.26 120.897 262.26 121.289C262.26 121.686 262.568 122.016 263.18 122.276C263.773 122.544 264.509 122.673 265.387 122.673C266.24 122.673 266.987 122.542 267.623 122.276C268.217 122.016 268.511 121.686 268.511 121.289C268.511 120.897 268.217 120.556 267.623 120.272Z" fill="url(#paint24_radial_56_4117)"/>
<path fill-rule="evenodd" clip-rule="evenodd" d="M271.377 109.012C271.377 110.657 270.794 112.054 269.631 113.193C268.467 114.377 267.064 114.968 265.417 114.968C263.772 114.968 262.369 114.377 261.206 113.193C260.039 112.054 259.461 110.656 259.461 109.012C259.461 107.364 260.039 105.963 261.206 104.799C262.369 103.636 263.773 103.055 265.417 103.055C267.064 103.055 268.467 103.636 269.631 104.799C270.794 105.963 271.377 107.364 271.377 109.012ZM263.541 107.297C263.038 107.805 262.784 108.419 262.784 109.145C262.784 109.868 263.037 110.482 263.541 110.989C264.048 111.514 264.661 111.777 265.385 111.777C266.108 111.777 266.711 111.514 267.195 110.989C267.745 110.483 268.018 109.868 268.018 109.145C268.018 108.419 267.745 107.806 267.195 107.297C266.711 106.797 266.108 106.544 265.385 106.544C264.661 106.544 264.048 106.796 263.541 107.297Z" fill="url(#paint25_radial_56_4117)"/>
<path fill-rule="evenodd" clip-rule="evenodd" d="M280.364 109.012C280.364 113.138 278.904 116.661 275.986 119.576C273.067 122.495 269.546 123.957 265.418 123.957C261.295 123.957 257.771 122.495 254.853 119.576C251.933 116.661 250.474 113.138 250.474 109.012C250.474 104.888 251.933 101.374 254.853 98.477C257.771 95.5587 261.295 94.1015 265.418 94.1015C269.546 94.1015 273.067 95.5587 275.986 98.477C278.904 101.374 280.364 104.888 280.364 109.012ZM279.606 109.012C279.606 105.106 278.224 101.759 275.458 98.9724C272.671 96.2075 269.325 94.822 265.417 94.822C261.512 94.822 258.166 96.2075 255.378 98.9724C252.613 101.76 251.232 105.107 251.232 109.012C251.232 112.94 252.613 116.276 255.378 119.019C258.166 121.829 261.512 123.23 265.417 123.23C269.325 123.23 272.671 121.831 275.458 119.019C278.225 116.276 279.606 112.94 279.606 109.012Z" fill="white"/>
<path fill-rule="evenodd" clip-rule="evenodd" d="M280.364 109.012C280.364 104.888 278.904 101.374 275.986 98.477C273.067 95.5587 269.546 94.1015 265.418 94.1015C261.295 94.1015 257.771 95.5587 254.853 98.477C251.933 101.374 250.474 104.888 250.474 109.012C250.474 113.138 251.933 116.661 254.853 119.576C257.771 122.495 261.295 123.957 265.418 123.957C269.546 123.957 273.067 122.495 275.986 119.576C278.904 116.661 280.364 113.138 280.364 109.012ZM280.132 94.3328C284.171 98.3915 286.188 103.283 286.188 109.012C286.188 114.741 284.171 119.624 280.132 123.664C276.051 127.716 271.147 129.749 265.417 129.749C259.691 129.749 254.797 127.716 250.738 123.664C246.676 119.624 244.646 114.739 244.646 109.012C244.646 103.283 246.676 98.3915 250.738 94.3328C254.797 90.2691 259.691 88.2423 265.417 88.2423C271.147 88.2423 276.051 90.2691 280.132 94.3328Z" fill="url(#paint26_radial_56_4117)"/>
<path fill-rule="evenodd" clip-rule="evenodd" d="M263.541 107.297C264.048 106.797 264.661 106.544 265.385 106.544C266.108 106.544 266.711 106.796 267.195 107.297C267.745 107.805 268.018 108.419 268.018 109.145C268.018 109.868 267.745 110.482 267.195 110.989C266.711 111.514 266.108 111.777 265.385 111.777C264.66 111.777 264.046 111.514 263.541 110.989C263.038 110.483 262.784 109.868 262.784 109.145C262.785 108.417 263.038 107.805 263.541 107.297Z" fill="url(#paint27_radial_56_4117)"/>
<path d="M265.417 130.06C259.633 130.06 254.62 127.982 250.52 123.88C246.418 119.8 244.34 114.799 244.34 109.012C244.34 103.227 246.418 98.213 250.52 94.1128C254.62 90.0126 259.632 87.933 265.417 87.933C271.203 87.933 276.226 90.0126 280.35 94.1128C284.43 98.213 286.497 103.227 286.497 109.012C286.497 114.8 284.429 119.8 280.35 123.88C276.226 127.982 271.203 130.06 265.417 130.06ZM265.417 88.5479C259.802 88.5479 254.934 90.5683 250.956 94.5491C246.974 98.5285 244.955 103.396 244.955 109.012C244.955 114.631 246.974 119.483 250.955 123.444C254.937 127.425 259.803 129.443 265.417 129.443C271.033 129.443 275.911 127.423 279.916 123.444C283.876 119.485 285.882 114.631 285.882 109.012C285.882 103.396 283.876 98.5285 279.914 94.5491C275.913 90.5671 271.033 88.5479 265.417 88.5479ZM265.417 124.264C261.227 124.264 257.599 122.764 254.633 119.796C251.667 116.83 250.164 113.204 250.164 109.012C250.164 104.819 251.669 101.204 254.633 98.2595C257.597 95.296 261.227 93.7897 265.417 93.7897C269.61 93.7897 273.237 95.2947 276.203 98.2595C279.168 101.204 280.672 104.819 280.672 109.012C280.672 113.204 279.168 116.83 276.203 119.796C273.237 122.764 269.61 124.264 265.417 124.264ZM265.417 94.407C261.396 94.407 257.914 95.8492 255.07 98.6983C252.224 101.519 250.78 104.994 250.78 109.012C250.78 113.036 252.224 116.516 255.07 119.361C257.914 122.205 261.396 123.646 265.417 123.646C269.44 123.646 272.922 122.205 275.767 119.361C278.614 116.515 280.055 113.036 280.055 109.012C280.055 104.994 278.614 101.519 275.768 98.6983C272.922 95.848 269.44 94.407 265.417 94.407ZM265.417 123.542C261.445 123.542 257.993 122.094 255.159 119.236C252.349 116.449 250.922 113.009 250.922 109.012C250.922 105.04 252.349 101.59 255.159 98.7561C257.995 95.9435 261.446 94.5177 265.417 94.5177C269.39 94.5177 272.841 95.9435 275.677 98.7537C278.488 101.59 279.914 105.04 279.914 109.012C279.914 113.009 278.488 116.449 275.677 119.239C272.844 122.092 269.391 123.542 265.417 123.542ZM265.417 95.1338C261.616 95.1338 258.309 96.4967 255.594 99.1886C252.905 101.904 251.54 105.208 251.54 109.012C251.54 112.838 252.904 116.13 255.594 118.802C258.312 121.538 261.617 122.925 265.417 122.925C269.22 122.925 272.526 121.536 275.24 118.802C277.934 116.13 279.298 112.838 279.298 109.012C279.298 105.208 277.932 101.904 275.24 99.1886C272.527 96.4967 269.223 95.1338 265.417 95.1338Z" fill="black"/>
<path fill-rule="evenodd" clip-rule="evenodd" d="M37.4924 32.3148C38.7635 30.2453 42.1873 28.6497 47.761 27.503C52.7866 26.4757 58.7564 25.9502 65.668 25.925C72.4287 25.9049 78.5192 26.3651 83.9396 27.3081C89.7321 28.2926 93.4853 29.6342 95.1977 31.3228L95.4605 60.752L61.3251 60.8186L38.1826 73.3253H26.7937L26.8251 66.0528L37.4924 32.3148Z" fill="url(#paint28_linear_56_4117)"/>
<path d="M38.1815 73.6358H26.7925C26.7108 73.6358 26.6316 73.6044 26.575 73.5453C26.5159 73.4862 26.4845 73.4083 26.4845 73.3265L26.5172 66.0541C26.5172 66.0239 26.521 65.9912 26.531 65.9598L37.197 32.2205C37.2045 32.1966 37.2146 32.174 37.2284 32.1476C38.5599 29.9925 41.9849 28.3718 47.6995 27.205C52.7213 26.1727 58.7653 25.6383 65.6668 25.6182H66.1345C72.6941 25.6182 78.7029 26.0859 83.9912 27.0063C89.9007 28.0109 93.6375 29.3487 95.4141 31.1027C95.4732 31.1618 95.5034 31.2398 95.5059 31.3203L95.7674 60.7507C95.7699 60.8324 95.736 60.9104 95.6781 60.9695C95.619 61.0285 95.5411 61.06 95.4606 61.06L61.4007 61.1266L38.3286 73.5968C38.2846 73.6245 38.233 73.6358 38.1815 73.6358ZM27.1018 73.0223H38.1048L61.1769 60.5495C61.2221 60.5282 61.2724 60.5155 61.3227 60.5155L95.1488 60.4477L94.8923 31.4573C93.1886 29.858 89.4883 28.5642 83.8881 27.6099C78.6325 26.6945 72.6601 26.2344 66.1358 26.2344H65.6706C58.8106 26.2545 52.8043 26.7851 47.824 27.806C42.3898 28.9188 39.0088 30.4778 37.7741 32.4431L27.1333 66.1019L27.1018 73.0223Z" fill="black"/>
<path d="M63.8509 25.905H61.4972V60.6665H63.8509V25.905Z" fill="black"/>
<path d="M63.851 60.9745H61.4973C61.3263 60.9745 61.188 60.8375 61.188 60.6678V25.9062C61.188 25.7365 61.3263 25.6007 61.4973 25.6007H63.851C64.0195 25.6007 64.1578 25.7365 64.1578 25.9062V60.6678C64.1578 60.8375 64.0195 60.9745 63.851 60.9745ZM61.8041 60.3572H63.5417V26.2168H61.8041V60.3572Z" fill="black"/>
<path fill-rule="evenodd" clip-rule="evenodd" d="M68.2971 53.8705L69.909 46.6949L61.7351 45.3345L57.2778 59.1904L38.9484 70.0738L29.536 62.1563H28.1755L26.8138 65.8706V73.0449L37.9576 73.2926L61.4899 60.6752H95.2984L95.1739 31.3605C92.3499 29.4468 88.4283 28.2083 83.409 27.6476L83.2845 53.8705H68.2971Z" fill="black"/>
<path d="M37.955 73.5968C37.9537 73.5968 37.9512 73.5968 37.95 73.5968L26.8025 73.3517C26.6365 73.3467 26.502 73.2096 26.502 73.0449V65.8705C26.502 65.8353 26.5082 65.7988 26.5221 65.7636L27.8838 62.0507C27.929 61.9275 28.0434 61.8496 28.1729 61.8496H29.5334C29.6063 61.8496 29.6767 61.8747 29.732 61.9212L38.9772 69.6979L57.0187 58.9866L61.4408 45.2414C61.4885 45.0968 61.6331 45.0051 61.7853 45.0327L69.9605 46.3931C70.0422 46.4057 70.1176 46.4572 70.1654 46.5276C70.2119 46.5943 70.2283 46.6798 70.2107 46.7628L68.683 53.5637H82.9777L83.0996 27.6475C83.0996 27.562 83.1386 27.474 83.204 27.4174C83.2681 27.3584 83.3574 27.3319 83.4416 27.3407C88.4885 27.9065 92.4944 29.1714 95.3473 31.104C95.429 31.1593 95.4806 31.2586 95.4806 31.3567L95.6038 60.5859C95.6139 60.6136 95.6176 60.645 95.6176 60.6752C95.6176 60.8475 95.4768 60.9644 95.3046 60.982C95.302 60.982 95.3008 60.982 95.2983 60.982H61.5665L38.1021 73.5629C38.0569 73.5843 38.0066 73.5968 37.955 73.5968ZM27.1193 72.7406L37.8821 72.9832L61.3427 60.4036C61.3854 60.3797 61.437 60.3646 61.4885 60.3646H94.9865L94.8645 31.5239C92.1688 29.7397 88.4181 28.5541 83.7132 27.9908L83.5887 53.8693C83.5887 54.0378 83.4517 54.1748 83.2819 54.1748H68.2958C68.2027 54.1748 68.1147 54.1358 68.0569 54.0616C67.9978 53.9862 67.9764 53.8906 67.9978 53.8026L69.5355 46.9451L61.9437 45.684L57.5669 59.2821C57.543 59.3538 57.4953 59.4166 57.4324 59.4518L39.1017 70.3391C38.9898 70.407 38.8465 70.3944 38.7459 70.3077L29.4202 62.4657H28.3867L27.118 65.9233L27.1193 72.7406Z" fill="black"/>
<path fill-rule="evenodd" clip-rule="evenodd" d="M84.8423 34.3027C89.8453 33.5445 92.3474 32.6279 92.3474 31.5554C92.3474 30.4829 89.8465 29.56 84.8423 28.7867C79.8407 28.0273 73.7954 27.6463 66.7128 27.6463C59.629 27.6463 53.5837 28.0285 48.5821 28.7867C43.5791 29.56 41.077 30.4829 41.077 31.5554C41.077 32.6279 43.5779 33.5432 48.5821 34.3027C53.5837 35.0759 59.629 35.4645 66.7128 35.4645C73.7954 35.4645 79.8407 35.0759 84.8423 34.3027Z" fill="#DAEDF5" fill-opacity="0.7294"/>
<path d="M95.6416 62.4406H61.6345C61.4635 62.4406 61.3264 62.3036 61.3264 62.1313C61.3264 61.9641 61.4635 61.827 61.6345 61.827H95.6416C95.8139 61.827 95.9496 61.9641 95.9496 62.1313C95.9496 62.3036 95.8139 62.4406 95.6416 62.4406Z" fill="black"/>
<path d="M37.6093 75.5545C37.5024 75.5545 37.3955 75.4954 37.3389 75.3936C37.2585 75.2452 37.3138 75.0566 37.4634 74.9749L61.4395 61.8609C61.5879 61.7804 61.7752 61.8345 61.8557 61.9841C61.9374 62.1312 61.8834 62.3223 61.735 62.4041L37.7576 75.5143C37.7098 75.5419 37.6583 75.5545 37.6093 75.5545Z" fill="black"/>
<path d="M37.6093 75.5546H26.7861C26.6151 75.5546 26.4768 75.4176 26.4768 75.2453C26.4768 75.0756 26.6139 74.9385 26.7861 74.9385H37.6093C37.7803 74.9385 37.9186 75.0756 37.9186 75.2453C37.9186 75.4163 37.7803 75.5546 37.6093 75.5546Z" fill="black"/>
<path d="M61.5113 66.3649H54.8235V68.3439H61.5113V66.3649Z" fill="black"/>
<path d="M61.5112 68.6519H54.8235C54.6525 68.6519 54.5142 68.5148 54.5142 68.3451V66.3661C54.5142 66.1913 54.6525 66.0555 54.8235 66.0555H61.5112C61.6822 66.0555 61.8193 66.1913 61.8193 66.3661V68.3451C61.8193 68.5136 61.6822 68.6519 61.5112 68.6519ZM55.1315 68.0346H61.2019V66.6716H55.1315V68.0346Z" fill="black"/>
<path d="M267.844 7.49374L281.202 39.5998L225.666 78.0252L189.348 85.7591C189.348 85.7591 172.941 85.6836 165.21 85.7591C152.789 82.3982 137.325 51.3119 145.993 30.4564C155.92 24.2917 164.74 18.7469 164.74 18.7469L201.293 7.96647L267.844 7.49374Z" fill="url(#paint29_linear_56_4117)"/>
<path d="M165.171 86.0646L165.129 86.052C159.815 84.6199 153.741 78.0755 149.276 68.9812C144.138 58.5139 140.501 42.8676 145.71 30.337L145.746 30.2465L145.831 30.1962C155.643 24.0981 164.489 18.5382 164.578 18.4841L164.654 18.4501L201.249 7.6572H201.292L268.049 7.18823L281.583 39.7142L281.375 39.8538L225.791 78.3157L225.731 78.3307L189.347 86.0659C189.347 86.0659 182.053 86.0344 174.903 86.0344C170.751 86.0344 167.489 86.047 165.211 86.0659H165.171V86.0646ZM174.903 85.4183C181.775 85.4183 188.777 85.4485 189.316 85.4485L225.542 77.7347L280.822 39.4892L267.64 7.80309L201.339 8.27075L164.869 19.0311C164.244 19.4221 155.703 24.7896 146.241 30.6689C141.166 42.9908 144.763 58.3894 149.83 68.7108C154.206 77.6266 160.111 84.0352 165.249 85.4497C167.528 85.4284 170.776 85.4183 174.903 85.4183Z" fill="black"/>
<path d="M266.997 3.91053L256.042 55.4461L254.808 85.9944L278.107 85.6838L270.7 48.3447L273.168 41.403L293.073 30.4491L289.832 2.98387L266.997 3.91053Z" fill="url(#paint30_linear_56_4117)"/>
<path d="M254.487 86.3062L255.734 55.4298L266.746 3.61124L266.985 3.59865L290.105 2.66447L293.404 30.6163L293.222 30.7194L273.42 41.618L271.018 48.3686L278.479 85.9855L254.487 86.3062ZM267.249 4.20852L256.343 55.509L255.128 85.6813L277.731 85.382L270.382 48.3221L272.917 41.1918L292.744 30.2781L289.56 3.30573L267.249 4.20852Z" fill="black"/>
<path d="M270.895 73.8371L263.866 76.8824H202.239V85.6699H270.31L270.895 73.8371Z" fill="url(#paint31_linear_56_4117)"/>
<path d="M270.602 85.9792H201.933V76.5769H263.804L271.229 73.3581L270.602 85.9792ZM202.548 85.3606H270.018L270.563 74.3161L263.867 77.1879H202.548V85.3606Z" fill="black"/>
<path d="M266.533 1.4208C266.533 1.4208 279.611 -0.969392 299.066 1.26363C299.514 1.31267 279.771 21.3546 279.771 21.3546L271.477 22.7905L266.533 1.4208Z" fill="url(#paint32_linear_56_4117)"/>
<path d="M271.242 23.1413L266.161 1.17691L266.478 1.11782C266.538 1.11027 272.699 0 282.646 0C288.044 0 293.581 0.321872 299.101 0.953054L299.292 0.976998L299.362 1.1631C299.445 1.39445 299.556 1.70876 279.989 21.5696L279.919 21.6413L271.242 23.1413ZM266.908 1.67105L271.712 22.4409L279.621 21.068C286.558 14.0269 296.692 3.63751 298.516 1.50759C293.191 0.91287 287.854 0.616158 282.647 0.616158C274.032 0.617416 268.284 1.44976 266.908 1.67105Z" fill="black"/>
<path d="M284.881 8.9549V8.79398H274.072V9.94441H274.137V21.8816H273.976V23.0358H274.137V35.1603H273.987V36.3145H274.137V48.4365H274.049V49.5907H274.137V61.9604H274.06V63.1121H274.137V75.2994H273.91V76.4525H274.137V86.5174H275.29V76.4525H283.769V86.5174H284.922V8.9549H284.881ZM275.29 9.94441H283.769V21.8816H275.29V9.94441ZM275.29 23.0358H283.769V35.1603H275.29V23.0358ZM275.29 36.3145H283.769V48.4365H275.29V36.3145ZM275.29 49.5894H283.769V61.9591H275.29V49.5894ZM275.29 75.2994V63.1121H283.769V75.2994H275.29Z" fill="black"/>
<path d="M226.456 76.1367L201.966 9.13463L202.545 8.92842L227.033 75.928L226.456 76.1367Z" fill="black"/>
<path d="M188.718 84.9128L165.615 19.9174L166.196 19.7088L189.299 84.7092L188.718 84.9128Z" fill="black"/>
<path fill-rule="evenodd" clip-rule="evenodd" d="M102.894 9.93681V40.5768H108.784V15.8036L102.894 9.93681Z" fill="url(#paint33_linear_56_4117)"/>
<path d="M108.784 40.8824H102.893C102.724 40.8824 102.586 40.7466 102.586 40.5781V9.93815C102.586 9.81241 102.661 9.70172 102.774 9.6552C102.89 9.60868 103.022 9.6313 103.11 9.71805L109.002 15.5848C109.061 15.6426 109.094 15.7206 109.094 15.8048V40.5781C109.094 40.7466 108.955 40.8824 108.784 40.8824ZM103.202 40.2675H108.476V15.9344L103.202 10.6799V40.2675Z" fill="black"/>
<path d="M111.194 33.6967H100.496V85.5932H111.194V33.6967Z" fill="url(#paint34_linear_56_4117)"/>
<path d="M111.193 85.9H100.496C100.328 85.9 100.191 85.7629 100.191 85.5932V33.6967C100.191 33.5282 100.328 33.3924 100.496 33.3924H111.193C111.364 33.3924 111.503 33.5282 111.503 33.6967V85.5932C111.502 85.7629 111.364 85.9 111.193 85.9ZM100.805 85.2876H110.887V34.0085H100.805V85.2876Z" fill="black"/>
<path d="M110.223 34.8019H107.994V39.2616H110.223V34.8019Z" fill="black"/>
<path d="M106.925 34.8019H104.694V39.2616H106.925V34.8019Z" fill="black"/>
<path d="M103.592 34.8019H101.361V39.2616H103.592V34.8019Z" fill="black"/>
<path d="M110.223 40.553H107.994V45.0127H110.223V40.553Z" fill="black"/>
<path d="M106.925 40.553H104.694V45.0127H106.925V40.553Z" fill="black"/>
<path d="M103.592 40.553H101.361V45.0127H103.592V40.553Z" fill="black"/>
<path d="M110.223 46.304H107.994V50.765H110.223V46.304Z" fill="black"/>
<path d="M106.925 46.304H104.694V50.765H106.925V46.304Z" fill="black"/>
<path d="M103.592 46.304H101.361V50.765H103.592V46.304Z" fill="black"/>
<path d="M110.223 52.094H107.994V56.5537H110.223V52.094Z" fill="black"/>
<path d="M106.925 52.094H104.694V56.5537H106.925V52.094Z" fill="black"/>
<path d="M103.592 52.094H101.361V56.5537H103.592V52.094Z" fill="black"/>
<path d="M110.225 57.8425H107.994V62.3035H110.225V57.8425Z" fill="black"/>
<path d="M106.927 57.8425H104.697V62.3035H106.927V57.8425Z" fill="black"/>
<path d="M103.592 57.8425H101.362V62.3035H103.592V57.8425Z" fill="black"/>
<path d="M110.225 63.5949H107.994V68.0546H110.225V63.5949Z" fill="black"/>
<path d="M106.927 63.5949H104.697V68.0546H106.927V63.5949Z" fill="black"/>
<path d="M103.592 63.5949H101.362V68.0546H103.592V63.5949Z" fill="black"/>
<path d="M110.225 69.3459H107.994V73.807H110.225V69.3459Z" fill="black"/>
<path d="M106.927 69.3459H104.697V73.807H106.927V69.3459Z" fill="black"/>
<path d="M103.592 69.3459H101.362V73.807H103.592V69.3459Z" fill="black"/>
<path d="M110.225 75.1347H107.994V79.5944H110.225V75.1347Z" fill="black"/>
<path d="M106.927 75.1347H104.697V79.5944H106.927V75.1347Z" fill="black"/>
<path d="M103.592 75.1347H101.362V79.5944H103.592V75.1347Z" fill="black"/>
<path d="M107.934 85.2751H103.467V94.6698H107.934V85.2751Z" fill="black"/>
<path d="M165.206 84.5055L145.902 31.9326L146.479 31.7213L165.783 84.2968L165.206 84.5055Z" fill="black"/>
<defs>
<linearGradient id="paint0_linear_56_4117" x1="277.639" y1="50.0789" x2="304.016" y2="30.2029" gradientUnits="userSpaceOnUse">
<stop stop-color="#CB7E0B"/>
<stop offset="0.3357" stop-color="#FF9900"/>
<stop offset="0.4355" stop-color="#FCD294"/>
</linearGradient>
<linearGradient id="paint1_linear_56_4117" x1="290.645" y1="64.3846" x2="292.033" y2="58.8179" gradientUnits="userSpaceOnUse">
<stop stop-color="#CB7E0B"/>
<stop offset="0.3357" stop-color="#FF9900"/>
<stop offset="0.4409" stop-color="#FCD294"/>
</linearGradient>
<linearGradient id="paint2_linear_56_4117" x1="282.85" y1="60.5005" x2="282.85" y2="51.4349" gradientUnits="userSpaceOnUse">
<stop offset="0.2634" stop-color="#CB7E0B"/>
<stop offset="0.3357" stop-color="#FF9900"/>
<stop offset="0.4194" stop-color="#FCD294"/>
</linearGradient>
<linearGradient id="paint3_linear_56_4117" x1="298.289" y1="68.9234" x2="316.552" y2="43.7872" gradientUnits="userSpaceOnUse">
<stop offset="0.2043" stop-color="#CB7E0B"/>
<stop offset="0.3089" stop-color="#FF9900"/>
<stop offset="0.4409" stop-color="#FCD294"/>
</linearGradient>
<linearGradient id="paint4_linear_56_4117" x1="144.873" y1="68.1945" x2="142.028" y2="54.8089" gradientUnits="userSpaceOnUse">
<stop offset="0.3387" stop-color="#CB7E0B"/>
<stop offset="0.4863" stop-color="#FF9900"/>
<stop offset="0.6237" stop-color="#FCD294"/>
</linearGradient>
<linearGradient id="paint5_linear_56_4117" x1="138.213" y1="71.7283" x2="138.213" y2="54.737" gradientUnits="userSpaceOnUse">
<stop stop-color="#CB7E0B"/>
<stop offset="0.4863" stop-color="#FF9900"/>
<stop offset="1" stop-color="#FCD294"/>
</linearGradient>
<linearGradient id="paint6_linear_56_4117" x1="133.776" y1="71.9557" x2="130.619" y2="58.2801" gradientUnits="userSpaceOnUse">
<stop offset="0.3978" stop-color="#CB7E0B"/>
<stop offset="0.4863" stop-color="#FF9900"/>
<stop offset="0.6505" stop-color="#FCD294"/>
</linearGradient>
<linearGradient id="paint7_linear_56_4117" x1="143.777" y1="85.7873" x2="143.777" y2="66.1046" gradientUnits="userSpaceOnUse">
<stop stop-color="#CB7E0B"/>
<stop offset="0.411" stop-color="#FF9900"/>
<stop offset="0.7581" stop-color="#FCD294"/>
</linearGradient>
<linearGradient id="paint8_linear_56_4117" x1="18.6226" y1="89.0839" x2="18.6226" y2="78.853" gradientUnits="userSpaceOnUse">
<stop offset="0.0196" stop-color="#666666"/>
<stop offset="0.4706" stop-color="white"/>
<stop offset="1" stop-color="#666666"/>
</linearGradient>
<linearGradient id="paint9_linear_56_4117" x1="20.169" y1="90.1364" x2="20.169" y2="77.8157" gradientUnits="userSpaceOnUse">
<stop offset="0.0196" stop-color="#666666"/>
<stop offset="0.4706" stop-color="white"/>
<stop offset="1" stop-color="#666666"/>
</linearGradient>
<linearGradient id="paint10_linear_56_4117" x1="58.6001" y1="101.037" x2="58.5263" y2="27.1862" gradientUnits="userSpaceOnUse">
<stop stop-color="#CB7E0B"/>
<stop offset="0.4863" stop-color="#FF9900"/>
<stop offset="1" stop-color="#FCD294"/>
</linearGradient>
<linearGradient id="paint11_linear_56_4117" x1="27.5698" y1="105.476" x2="27.5698" y2="96.5727" gradientUnits="userSpaceOnUse">
<stop offset="0.0196" stop-color="#FF9900"/>
<stop offset="1" stop-color="white"/>
</linearGradient>
<linearGradient id="paint12_linear_56_4117" x1="64.4467" y1="111.164" x2="64.4467" y2="83.4577" gradientUnits="userSpaceOnUse">
<stop stop-color="#999999"/>
<stop offset="1" stop-color="#121212"/>
</linearGradient>
<linearGradient id="paint13_linear_56_4117" x1="196.092" y1="113.144" x2="196.092" y2="96.3218" gradientUnits="userSpaceOnUse">
<stop offset="0.4431" stop-color="#999999"/>
<stop offset="1" stop-color="#666666"/>
</linearGradient>
<linearGradient id="paint14_linear_56_4117" x1="104.51" y1="79.4994" x2="104.51" y2="43.8769" gradientUnits="userSpaceOnUse">
<stop offset="0.0196" stop-color="#666666"/>
<stop offset="0.4706" stop-color="white"/>
<stop offset="1" stop-color="#666666"/>
</linearGradient>
<radialGradient id="paint15_radial_56_4117" cx="0" cy="0" r="1" gradientUnits="userSpaceOnUse" gradientTransform="translate(64.4834 109.026) rotate(180) scale(14.5823 14.5663)">
<stop offset="0.4039" stop-color="#101010"/>
<stop offset="0.4588" stop-color="#666666"/>
<stop offset="0.8667" stop-color="#020202"/>
</radialGradient>
<radialGradient id="paint16_radial_56_4117" cx="0" cy="0" r="1" gradientUnits="userSpaceOnUse" gradientTransform="translate(64.4851 108.979) rotate(180) scale(6.1876 6.18758)">
<stop offset="0.549" stop-color="#666666"/>
<stop offset="0.8824" stop-color="#858585"/>
<stop offset="1" stop-color="#666666"/>
</radialGradient>
<radialGradient id="paint17_radial_56_4117" cx="0" cy="0" r="1" gradientUnits="userSpaceOnUse" gradientTransform="translate(64.4516 109.177) rotate(180) scale(2.87137 2.87137)">
<stop offset="0.4314" stop-color="#777575"/>
<stop offset="0.9098"/>
<stop offset="1" stop-color="#666666"/>
</radialGradient>
<radialGradient id="paint18_radial_56_4117" cx="0" cy="0" r="1" gradientUnits="userSpaceOnUse" gradientTransform="translate(64.4837 108.996) rotate(180) scale(20.919 20.8939)">
<stop offset="0.749" stop-color="#101010"/>
<stop offset="0.8118" stop-color="#666666"/>
<stop offset="1" stop-color="#020202"/>
</radialGradient>
<radialGradient id="paint19_radial_56_4117" cx="0" cy="0" r="1" gradientUnits="userSpaceOnUse" gradientTransform="translate(221.736 109.026) rotate(180) scale(14.5817 14.5656)">
<stop offset="0.4039" stop-color="#101010"/>
<stop offset="0.4588" stop-color="#666666"/>
<stop offset="0.8667" stop-color="#020202"/>
</radialGradient>
<radialGradient id="paint20_radial_56_4117" cx="0" cy="0" r="1" gradientUnits="userSpaceOnUse" gradientTransform="translate(221.735 108.996) rotate(180) scale(20.9188 20.8937)">
<stop offset="0.749" stop-color="#101010"/>
<stop offset="0.8118" stop-color="#666666"/>
<stop offset="1" stop-color="#020202"/>
</radialGradient>
<radialGradient id="paint21_radial_56_4117" cx="0" cy="0" r="1" gradientUnits="userSpaceOnUse" gradientTransform="translate(221.736 108.979) rotate(180) scale(6.18734 6.18733)">
<stop offset="0.549" stop-color="#666666"/>
<stop offset="0.8824" stop-color="#858585"/>
<stop offset="1" stop-color="#666666"/>
</radialGradient>
<radialGradient id="paint22_radial_56_4117" cx="0" cy="0" r="1" gradientUnits="userSpaceOnUse" gradientTransform="translate(221.702 109.177) rotate(180) scale(2.87126 2.87124)">
<stop offset="0.4314" stop-color="#777575"/>
<stop offset="0.9098"/>
<stop offset="1" stop-color="#666666"/>
</radialGradient>
<linearGradient id="paint23_linear_56_4117" x1="111.791" y1="107.836" x2="111.791" y2="97.5706" gradientUnits="userSpaceOnUse">
<stop stop-color="white"/>
<stop offset="1"/>
</linearGradient>
<radialGradient id="paint24_radial_56_4117" cx="0" cy="0" r="1" gradientUnits="userSpaceOnUse" gradientTransform="translate(265.419 109.026) rotate(180) scale(14.5816 14.5655)">
<stop offset="0.4039" stop-color="#101010"/>
<stop offset="0.4588" stop-color="#666666"/>
<stop offset="0.8667" stop-color="#020202"/>
</radialGradient>
<radialGradient id="paint25_radial_56_4117" cx="0" cy="0" r="1" gradientUnits="userSpaceOnUse" gradientTransform="translate(265.418 108.979) rotate(180) scale(6.18748 6.18749)">
<stop offset="0.549" stop-color="#666666"/>
<stop offset="0.8824" stop-color="#858585"/>
<stop offset="1" stop-color="#666666"/>
</radialGradient>
<radialGradient id="paint26_radial_56_4117" cx="0" cy="0" r="1" gradientUnits="userSpaceOnUse" gradientTransform="translate(265.418 108.996) rotate(180) scale(20.9188 20.8937)">
<stop offset="0.749" stop-color="#101010"/>
<stop offset="0.8118" stop-color="#666666"/>
<stop offset="1" stop-color="#020202"/>
</radialGradient>
<radialGradient id="paint27_radial_56_4117" cx="0" cy="0" r="1" gradientUnits="userSpaceOnUse" gradientTransform="translate(265.385 109.177) rotate(180) scale(2.87162 2.87162)">
<stop offset="0.4314" stop-color="#777575"/>
<stop offset="0.9098"/>
<stop offset="1" stop-color="#666666"/>
</radialGradient>
<linearGradient id="paint28_linear_56_4117" x1="61.1265" y1="47.3621" x2="61.1063" y2="27.134" gradientUnits="userSpaceOnUse">
<stop offset="0.0196" stop-color="#487080"/>
<stop offset="1" stop-color="#8EAFBD"/>
</linearGradient>
<linearGradient id="paint29_linear_56_4117" x1="226.319" y1="88.9018" x2="183.758" y2="-42.0852" gradientUnits="userSpaceOnUse">
<stop offset="0.2258" stop-color="#CB7E0B"/>
<stop offset="0.3357" stop-color="#FF9900"/>
<stop offset="0.414" stop-color="#FCD294"/>
<stop offset="0.5376" stop-color="white"/>
</linearGradient>
<linearGradient id="paint30_linear_56_4117" x1="273.94" y1="85.9937" x2="273.94" y2="2.98387" gradientUnits="userSpaceOnUse">
<stop stop-color="#CB7E0B"/>
<stop offset="0.4863" stop-color="#FF9900"/>
<stop offset="1" stop-color="#FCD294"/>
</linearGradient>
<linearGradient id="paint31_linear_56_4117" x1="236.567" y1="85.6695" x2="236.567" y2="73.8365" gradientUnits="userSpaceOnUse">
<stop stop-color="#CB7E0B"/>
<stop offset="0.4863" stop-color="#FF9900"/>
<stop offset="1" stop-color="#FCD294"/>
</linearGradient>
<linearGradient id="paint32_linear_56_4117" x1="282.804" y1="22.7904" x2="282.804" y2="0.309821" gradientUnits="userSpaceOnUse">
<stop stop-color="#CB7E0B"/>
<stop offset="0.4863" stop-color="#FF9900"/>
<stop offset="1" stop-color="#FCD294"/>
</linearGradient>
<linearGradient id="paint33_linear_56_4117" x1="108.785" y1="25.2572" x2="102.894" y2="25.2572" gradientUnits="userSpaceOnUse">
<stop offset="0.4431" stop-color="#999999"/>
<stop offset="1" stop-color="#666666"/>
</linearGradient>
<linearGradient id="paint34_linear_56_4117" x1="111.193" y1="59.6448" x2="100.496" y2="59.6448" gradientUnits="userSpaceOnUse">
<stop offset="0.4431" stop-color="#999999"/>
<stop offset="1" stop-color="#666666"/>
</linearGradient>
</defs>
</svg>
