<svg width="24" height="24" viewBox="0 0 24 24" fill="none" xmlns="http://www.w3.org/2000/svg">
<g id="linkedin (1) 1" clip-path="url(#clip0_618_5693)">
<g id="Layer 2">
<g id="linkedin">
<path id="background" d="M20.7976 0.145508H3.71826C1.94963 0.145508 0.515884 1.57926 0.515884 3.34788V20.4272C0.515884 22.1958 1.94963 23.6296 3.71826 23.6296H20.7976C22.5662 23.6296 23.9999 22.1958 23.9999 20.4272V3.34788C23.9999 1.57926 22.5662 0.145508 20.7976 0.145508Z" fill="#FCB034"/>
<g id="icon">
<path id="Vector" d="M8.97548 6.54836C8.97548 6.94421 8.8581 7.33118 8.63817 7.66032C8.41825 7.98946 8.10566 8.246 7.73994 8.39749C7.37421 8.54897 6.97178 8.58861 6.58353 8.51138C6.19528 8.43415 5.83865 8.24353 5.55874 7.96362C5.27883 7.68371 5.08821 7.32708 5.01098 6.93883C4.93375 6.55058 4.97339 6.14815 5.12487 5.78242C5.27636 5.4167 5.5329 5.10411 5.86204 4.88419C6.19118 4.66426 6.57815 4.54688 6.974 4.54688C7.50483 4.54688 8.01391 4.75774 8.38926 5.1331C8.76461 5.50845 8.97548 6.01753 8.97548 6.54836Z" fill="white"/>
<path id="Vector_2" d="M8.52202 9.88406V18.7266C8.52237 18.7918 8.50982 18.8565 8.4851 18.9169C8.46038 18.9772 8.42397 19.0321 8.37797 19.0784C8.33197 19.1246 8.27728 19.1613 8.21704 19.1864C8.15681 19.2114 8.09222 19.2243 8.02698 19.2243H5.91742C5.85219 19.2245 5.78756 19.2118 5.72726 19.1869C5.66696 19.162 5.61217 19.1255 5.56604 19.0793C5.51992 19.0332 5.48336 18.9784 5.45848 18.9181C5.4336 18.8578 5.42088 18.7932 5.42105 18.7279V9.88406C5.42105 9.75242 5.47335 9.62616 5.56644 9.53308C5.65952 9.43999 5.78578 9.3877 5.91742 9.3877H8.02698C8.1584 9.38805 8.28431 9.4405 8.37711 9.53355C8.4699 9.6266 8.52202 9.75265 8.52202 9.88406Z" fill="white"/>
<path id="Vector_3" d="M19.5487 14.4878V18.7683C19.5489 18.8282 19.5372 18.8877 19.5143 18.9431C19.4915 18.9986 19.4579 19.0489 19.4155 19.0913C19.373 19.1337 19.3227 19.1674 19.2672 19.1902C19.2118 19.2131 19.1524 19.2248 19.0924 19.2246H16.824C16.7641 19.2248 16.7046 19.2131 16.6492 19.1902C16.5937 19.1674 16.5434 19.1337 16.501 19.0913C16.4585 19.0489 16.4249 18.9986 16.4021 18.9431C16.3792 18.8877 16.3675 18.8282 16.3677 18.7683V14.6199C16.3677 14.0007 16.5492 11.9085 14.7492 11.9085C13.3548 11.9085 13.0706 13.3402 13.0145 13.9834V18.7683C13.0146 18.8881 12.9674 19.0032 12.8833 19.0886C12.7991 19.174 12.6847 19.2229 12.5649 19.2246H10.3739C10.3141 19.2246 10.2548 19.2128 10.1995 19.1898C10.1442 19.1669 10.094 19.1333 10.0517 19.0909C10.0094 19.0485 9.97596 18.9982 9.95317 18.9428C9.93038 18.8874 9.91874 18.8281 9.91892 18.7683V9.84566C9.91874 9.78579 9.93038 9.72648 9.95317 9.67113C9.97596 9.61577 10.0094 9.56545 10.0517 9.52306C10.094 9.48067 10.1442 9.44703 10.1995 9.42408C10.2548 9.40113 10.3141 9.38932 10.3739 9.38932H12.5649C12.6859 9.38932 12.802 9.4374 12.8876 9.52298C12.9731 9.60856 13.0212 9.72463 13.0212 9.84566V10.6169C13.5389 9.84032 14.3062 9.24121 15.9434 9.24121C19.5701 9.24121 19.5487 12.6277 19.5487 14.4878Z" fill="white"/>
</g>
</g>
</g>
</g>
<defs>
<clipPath id="clip0_618_5693">
<rect width="23.4841" height="23.4841" fill="white" transform="translate(0.515945 0.146484)"/>
</clipPath>
</defs>
</svg>
