<svg width="14" height="14" viewBox="0 0 14 14" fill="none" xmlns="http://www.w3.org/2000/svg">
<g id="si:lock-line">
<path id="Vector" d="M5.14832 6.24947V4.62799C5.14832 3.43349 6.11581 2.466 7.3103 2.466C8.5048 2.466 9.47228 3.43349 9.47228 4.62799V6.24947M7.3103 8.95195C7.45365 8.95195 7.59113 8.895 7.69249 8.79364C7.79385 8.69228 7.8508 8.5548 7.8508 8.41145C7.8508 8.2681 7.79385 8.13063 7.69249 8.02926C7.59113 7.9279 7.45365 7.87096 7.3103 7.87096C7.16695 7.87096 7.02948 7.9279 6.92811 8.02926C6.82675 8.13063 6.76981 8.2681 6.76981 8.41145C6.76981 8.5548 6.82675 8.69228 6.92811 8.79364C7.02948 8.895 7.16695 8.95195 7.3103 8.95195ZM7.3103 8.95195V10.5734M4.39163 6.24947H10.229C10.7046 6.24947 11.0938 6.63863 11.0938 7.11426V10.8977C11.0938 11.6112 10.51 12.1949 9.79658 12.1949H4.82402C4.11057 12.1949 3.52683 11.6112 3.52683 10.8977V7.11426C3.52683 6.63863 3.91599 6.24947 4.39163 6.24947Z" stroke="#666666" stroke-width="1.06827" stroke-miterlimit="10" stroke-linecap="round" stroke-linejoin="round"/>
</g>
</svg>
