<svg width="375" height="282" viewBox="0 0 375 282" fill="none" xmlns="http://www.w3.org/2000/svg">
<path opacity="0.1" d="M399.784 208.466L418.303 215.431C419.036 215.708 419.647 216.236 420.027 216.922C420.406 217.607 420.529 218.405 420.375 219.174L416.806 236.989C416.653 237.751 416.236 238.435 415.628 238.92C415.021 239.405 414.261 239.66 413.484 239.641L393.633 239.168C391.755 242.801 389.497 246.176 386.861 249.293L395.045 267.302C395.372 268.018 395.433 268.826 395.217 269.582C395.001 270.338 394.523 270.993 393.868 271.428L378.745 281.503C378.098 281.935 377.32 282.126 376.547 282.041C375.774 281.956 375.055 281.601 374.518 281.038L360.856 266.695C356.944 267.945 352.906 268.758 348.816 269.12L341.614 287.53C341.33 288.255 340.8 288.855 340.117 289.227C339.434 289.599 338.641 289.717 337.879 289.562L320.074 285.995C319.308 285.843 318.622 285.423 318.136 284.811C317.651 284.199 317.4 283.434 317.426 282.654L318.06 263.031C314.407 261.131 310.975 258.832 307.828 256.176L289.834 264.074C289.122 264.386 288.322 264.437 287.576 264.218C286.829 263.998 286.185 263.523 285.755 262.874L275.67 247.75C275.244 247.097 275.059 246.315 275.148 245.54C275.237 244.766 275.595 244.046 276.158 243.507L290.441 230.143C289.184 226.194 288.371 222.118 288.018 217.99L269.801 210.857C269.078 210.574 268.478 210.046 268.107 209.365C267.735 208.684 267.614 207.894 267.767 207.133L271.336 189.318C271.654 187.728 273.068 186.605 274.689 186.662L294.208 187.296C296.137 183.617 298.442 180.193 301.123 177.023L293.251 159.056C292.941 158.345 292.892 157.547 293.111 156.803C293.33 156.059 293.803 155.416 294.449 154.986L309.579 144.923C310.23 144.489 311.013 144.3 311.79 144.389C312.567 144.479 313.287 144.841 313.822 145.411L327.232 159.724C331.15 158.497 335.168 157.717 339.286 157.385L346.188 139.028C346.464 138.295 346.993 137.684 347.678 137.305C348.364 136.925 349.162 136.802 349.93 136.957L367.745 140.525C369.325 140.842 370.44 142.243 370.407 143.849L369.924 163.595C373.575 165.49 376.976 167.774 380.127 170.444L398.065 162.308C398.779 161.979 399.587 161.917 400.344 162.131C401.1 162.345 401.756 162.822 402.192 163.476L412.267 178.598C412.698 179.246 412.887 180.024 412.8 180.797C412.713 181.57 412.357 182.287 411.793 182.823L397.424 196.511C398.642 200.407 399.429 204.388 399.786 208.456L399.784 208.466ZM321.35 208.741C320.145 214.757 321.379 221.006 324.781 226.112C328.183 231.218 333.474 234.764 339.49 235.969C345.506 237.174 351.754 235.94 356.861 232.538C361.967 229.136 365.513 223.845 366.718 217.829C367.923 211.813 366.689 205.565 363.287 200.459C359.885 195.352 354.594 191.807 348.578 190.602C342.562 189.396 336.314 190.63 331.207 194.032C326.101 197.434 322.555 202.725 321.35 208.741Z" stroke="#8C8E8F" stroke-width="4.92973"/>
<path opacity="0.2" d="M84.36 -31.3264L105.942 -27.7984C106.797 -27.6576 107.574 -27.2176 108.134 -26.557C108.694 -25.8963 109.001 -25.0581 109 -24.192V-4.1104C109 -3.2511 108.696 -2.41948 108.143 -1.76187C107.59 -1.10426 106.823 -0.662806 105.976 -0.515196L84.36 3.2816C83.1131 7.6272 81.3995 11.7749 79.2192 15.7248L91.9984 33.4656C92.5079 34.1698 92.7494 35.0327 92.6796 35.899C92.6098 36.7654 92.2332 37.5784 91.6176 38.192L77.416 52.3936C76.8093 53.0028 76.0072 53.3784 75.1507 53.4542C74.2943 53.53 73.4386 53.3012 72.7344 52.808L54.8144 40.2304C50.8464 42.4335 46.647 44.1914 42.2928 45.472L38.4848 66.9872C38.3345 67.8336 37.8904 68.5998 37.2307 69.1509C36.571 69.702 35.738 70.0027 34.8784 70H14.808C13.9448 70.0009 13.1094 69.6951 12.4509 69.1371C11.7924 68.5791 11.3536 67.8052 11.2128 66.9536L7.64 45.5504C3.26793 44.2844 -0.950359 42.5377 -4.9376 40.3424L-22.7232 52.808C-23.4274 53.3012 -24.2831 53.53 -25.1395 53.4542C-25.9959 53.3784 -26.7981 53.0028 -27.4048 52.3936L-41.6176 38.192C-42.2212 37.5767 -42.5908 36.7697 -42.6623 35.9107C-42.7339 35.0518 -42.503 34.1947 -42.0096 33.488L-29.432 15.904C-31.6513 11.8979 -33.4168 7.65671 -34.696 3.2592L-55.9872 -0.515196C-56.8317 -0.66516 -57.5964 -1.10763 -58.1473 -1.76501C-58.6982 -2.42239 -59.0001 -3.25271 -59 -4.1104V-24.192C-59 -25.984 -57.712 -27.5072 -55.9424 -27.7984L-34.6512 -31.3488C-33.3595 -35.7541 -31.6048 -39.9653 -29.3872 -43.9824L-41.8192 -61.7456C-42.3094 -62.4489 -42.5365 -63.3022 -42.4607 -64.1561C-42.385 -65.01 -42.0112 -65.81 -41.4048 -66.416L-27.192 -80.6064C-26.5812 -81.218 -25.7732 -81.593 -24.9119 -81.6648C-24.0505 -81.7365 -23.1916 -81.5004 -22.488 -80.9984L-4.848 -68.3984C-0.868267 -70.5787 3.3168 -72.296 7.7072 -73.5504L11.2016 -94.9424C11.3424 -95.797 11.7824 -96.5737 12.443 -97.1338C13.1037 -97.6939 13.9419 -98.0009 14.808 -98H34.8896C36.6704 -98 38.1824 -96.7232 38.496 -94.976L42.2592 -73.472C46.6272 -72.2101 50.8085 -70.4741 54.8032 -68.264L72.4768 -80.976C73.1797 -81.4869 74.0418 -81.7304 74.9082 -81.6626C75.7745 -81.5949 76.5882 -81.2204 77.2032 -80.6064L91.4048 -66.4048C92.0123 -65.7967 92.3858 -64.9938 92.4596 -64.1375C92.5333 -63.2811 92.3026 -62.4262 91.808 -61.7232L79.208 -43.7696C81.3733 -39.8123 83.0907 -35.6683 84.36 -31.3376V-31.3264ZM-0.580805 -14C-0.580805 -7.21852 2.11313 -0.714797 6.90836 4.08043C11.7036 8.87566 18.2073 11.5696 24.9888 11.5696C31.7703 11.5696 38.274 8.87566 43.0692 4.08043C47.8645 -0.714797 50.5584 -7.21852 50.5584 -14C50.5584 -20.7815 47.8645 -27.2852 43.0692 -32.0804C38.274 -36.8757 31.7703 -39.5696 24.9888 -39.5696C18.2073 -39.5696 11.7036 -36.8757 6.90836 -32.0804C2.11313 -27.2852 -0.580805 -20.7815 -0.580805 -14Z" stroke="#8C8E8F" stroke-width="5.44865"/>
</svg>
