<svg width="41" height="40" viewBox="0 0 41 40" fill="none" xmlns="http://www.w3.org/2000/svg">
<path d="M30.8449 5C32.613 5 34.3087 5.70238 35.5589 6.95262C36.8092 8.20286 37.5116 9.89856 37.5116 11.6667V25C37.5116 26.7681 36.8092 28.4638 35.5589 29.714C34.3087 30.9643 32.613 31.6667 30.8449 31.6667H22.9716L15.0349 36.4283C14.7959 36.5718 14.5247 36.653 14.2462 36.6645C13.9677 36.676 13.6907 36.6175 13.4407 36.4943C13.1906 36.3711 12.9754 36.1871 12.8149 35.9593C12.6543 35.7314 12.5535 35.4669 12.5216 35.19L12.5116 35V31.6667H10.8449C9.13449 31.6667 7.48951 31.0093 6.2502 29.8305C5.0109 28.6516 4.27208 27.0416 4.18656 25.3333L4.17822 25V11.6667C4.17822 9.89856 4.8806 8.20286 6.13084 6.95262C7.38109 5.70238 9.07678 5 10.8449 5H30.8449ZM24.1782 20H14.1782C13.7362 20 13.3123 20.1756 12.9997 20.4882C12.6872 20.8007 12.5116 21.2246 12.5116 21.6667C12.5116 22.1087 12.6872 22.5326 12.9997 22.8452C13.3123 23.1577 13.7362 23.3333 14.1782 23.3333H24.1782C24.6202 23.3333 25.0442 23.1577 25.3567 22.8452C25.6693 22.5326 25.8449 22.1087 25.8449 21.6667C25.8449 21.2246 25.6693 20.8007 25.3567 20.4882C25.0442 20.1756 24.6202 20 24.1782 20ZM27.5116 13.3333H14.1782C13.7362 13.3333 13.3123 13.5089 12.9997 13.8215C12.6872 14.134 12.5116 14.558 12.5116 15C12.5116 15.442 12.6872 15.8659 12.9997 16.1785C13.3123 16.4911 13.7362 16.6667 14.1782 16.6667H27.5116C27.9536 16.6667 28.3775 16.4911 28.6901 16.1785C29.0026 15.8659 29.1782 15.442 29.1782 15C29.1782 14.558 29.0026 14.134 28.6901 13.8215C28.3775 13.5089 27.9536 13.3333 27.5116 13.3333Z" fill="#FCB034"/>
</svg>
