<svg width="14" height="14" viewBox="0 0 14 14" fill="none" xmlns="http://www.w3.org/2000/svg">
<path d="M6.99998 11.8996C7.77317 11.8996 8.39998 11.2728 8.39998 10.4996C8.39998 9.72641 7.77317 9.09961 6.99998 9.09961C6.22678 9.09961 5.59998 9.72641 5.59998 10.4996C5.59998 11.2728 6.22678 11.8996 6.99998 11.8996Z" fill="#FF9900"/>
<path d="M6.99998 8.39961C7.77317 8.39961 8.39998 7.77281 8.39998 6.99961C8.39998 6.22641 7.77317 5.59961 6.99998 5.59961C6.22678 5.59961 5.59998 6.22641 5.59998 6.99961C5.59998 7.77281 6.22678 8.39961 6.99998 8.39961Z" fill="#FF9900"/>
<path d="M6.99998 4.89961C7.77317 4.89961 8.39998 4.27281 8.39998 3.49961C8.39998 2.72641 7.77317 2.09961 6.99998 2.09961C6.22678 2.09961 5.59998 2.72641 5.59998 3.49961C5.59998 4.27281 6.22678 4.89961 6.99998 4.89961Z" fill="#FF9900"/>
</svg>
