<svg width="12" height="11" viewBox="0 0 12 11" fill="none" xmlns="http://www.w3.org/2000/svg">
<path d="M4.14812 3.29717H8.47204M4.14812 5.45913H7.39106M9.55301 0.594727C9.98305 0.594727 10.3955 0.765559 10.6996 1.06964C11.0036 1.37373 11.1745 1.78615 11.1745 2.21619V6.54011C11.1745 6.97014 11.0036 7.38257 10.6996 7.68666C10.3955 7.99074 9.98305 8.16157 9.55301 8.16157H6.85057L4.14812 9.78304V8.16157H3.06715C2.63711 8.16157 2.22468 7.99074 1.9206 7.68666C1.61651 7.38257 1.44568 6.97014 1.44568 6.54011V2.21619C1.44568 1.78615 1.61651 1.37373 1.9206 1.06964C2.22468 0.765559 2.63711 0.594727 3.06715 0.594727H9.55301Z" stroke="#666666" stroke-width="1.08098" stroke-linecap="round" stroke-linejoin="round"/>
</svg>
