<svg width="18" height="19" viewBox="0 0 18 19" fill="none" xmlns="http://www.w3.org/2000/svg">
<g clip-path="url(#clip0_508_3022)">
<path d="M9.04895 7.45215L7.6098 6.01299H9.62462C10.4162 6.01299 11.0638 6.66061 11.0638 7.45215V9.46698L9.62462 8.02782V7.45215H9.04895ZM16.8204 7.45215V6.01299H13.9421C13.1506 6.01299 12.5029 6.66061 12.5029 7.45215V8.89131C12.5029 9.68285 13.1506 10.3305 13.9421 10.3305H15.3813V11.7696H13.3664L14.8056 13.2088H15.3813C16.1728 13.2088 16.8204 12.5612 16.8204 11.7696V10.3305C16.8204 9.53893 16.1728 8.89131 15.3813 8.89131H13.9421V7.45215H16.8204ZM16.1728 16.4469L15.2373 17.3824L10.632 12.777C10.4162 12.9929 10.0564 13.2088 9.62462 13.2088H6.7463V8.81935L5.30714 7.38019V13.2088H3.86798V10.3305H2.42882V13.2088H0.98966V7.45215C0.98966 6.66061 1.63728 6.01299 2.42882 6.01299H3.93994L1.06162 3.13467L1.99707 2.19922L16.1728 16.4469ZM3.86798 7.45215H2.42882V8.89131H3.86798V7.45215ZM9.62462 11.6977L8.18546 10.2585V11.7696H9.62462V11.6977Z" fill="white"/>
</g>
<defs>
<clipPath id="clip0_508_3022">
<rect width="17.2699" height="17.2699" fill="white" transform="translate(0.26985 0.975586)"/>
</clipPath>
</defs>
</svg>
