<svg width="18" height="18" viewBox="0 0 18 18" fill="none" xmlns="http://www.w3.org/2000/svg">
<path d="M13.9776 4.17312C13.3178 3.50686 12.532 2.97859 11.666 2.61909C10.8 2.25958 9.87105 2.07603 8.93338 2.07914C5.00447 2.07914 1.80234 5.28127 1.80234 9.21018C1.80234 10.4694 2.13335 11.6927 2.75218 12.7721L1.74477 16.4707L5.52257 15.4777C6.56596 16.0462 7.73887 16.3484 8.93338 16.3484C12.8623 16.3484 16.0644 13.1463 16.0644 9.21737C16.0644 7.31049 15.3232 5.51873 13.9776 4.17312ZM8.93338 15.1395C7.8684 15.1395 6.82501 14.8517 5.91114 14.312L5.69527 14.1825L3.45018 14.7725L4.04743 12.585L3.90351 12.3619C3.31169 11.4172 2.99751 10.325 2.99684 9.21018C2.99684 5.94329 5.65929 3.28084 8.92618 3.28084C10.5093 3.28084 11.9988 3.89968 13.1141 5.02222C13.6665 5.57188 14.1042 6.22575 14.4019 6.9459C14.6996 7.66604 14.8513 8.43813 14.8483 9.21737C14.8627 12.4843 12.2003 15.1395 8.93338 15.1395ZM12.1859 10.7069C12.006 10.6206 11.1281 10.1888 10.9698 10.124C10.8043 10.0665 10.6892 10.0377 10.5668 10.2104C10.4445 10.3903 10.1063 10.7933 10.0055 10.9084C9.90481 11.0307 9.79687 11.0451 9.61698 10.9516C9.43708 10.8652 8.86142 10.6709 8.18501 10.0665C7.65252 9.59156 7.29993 9.0087 7.19199 8.8288C7.09125 8.64891 7.1776 8.55536 7.27115 8.46182C7.3503 8.38266 7.45104 8.25314 7.53739 8.1524C7.62374 8.05165 7.65972 7.9725 7.71729 7.85737C7.77485 7.73504 7.74607 7.6343 7.70289 7.54795C7.65972 7.4616 7.29993 6.58371 7.15601 6.22392C7.0121 5.87852 6.86099 5.9217 6.75305 5.9145H6.40765C6.28532 5.9145 6.09823 5.95768 5.93273 6.13757C5.77442 6.31747 5.31389 6.74921 5.31389 7.6271C5.31389 8.50499 5.95431 9.35409 6.04066 9.46923C6.12701 9.59156 7.29993 11.3905 9.08449 12.1605C9.50904 12.3475 9.84005 12.4555 10.0991 12.5346C10.5236 12.6714 10.9122 12.6498 11.2216 12.6066C11.567 12.5562 12.2794 12.1748 12.4233 11.7575C12.5744 11.3401 12.5745 10.9875 12.5241 10.9084C12.4737 10.8292 12.3658 10.7933 12.1859 10.7069Z" fill="white"/>
</svg>
