<svg width="280" height="280" viewBox="0 0 280 280" fill="none" xmlns="http://www.w3.org/2000/svg">
<g filter="url(#filter0_d_114_1693)">
<circle cx="140" cy="136" r="120" fill="#F6F8FB"/>
</g>
<mask id="mask0_114_1693" style="mask-type:alpha" maskUnits="userSpaceOnUse" x="20" y="16" width="240" height="240">
<circle cx="140" cy="136" r="120" fill="#F6F8FB"/>
</mask>
<g mask="url(#mask0_114_1693)">
<g filter="url(#filter1_d_114_1693)">
<rect x="55" y="61" width="170" height="195" rx="20" fill="white"/>
</g>
<rect x="85" y="179" width="110" height="12" rx="6" fill="#636B81"/>
<circle cx="140" cy="129" r="38" fill="#6FCD38" fill-opacity="0.1"/>
<rect x="67" y="203" width="146" height="35" rx="8" fill="#F4F6FA"/>
<circle cx="140" cy="129" r="20" fill="#6FCD38"/>
<path d="M134.75 129.75L137.75 132.75L145.25 125.25" stroke="white" stroke-width="2" stroke-linecap="round" stroke-linejoin="round"/>
</g>
<circle cx="25.4913" cy="243.491" r="2.49116" transform="rotate(180 25.4913 243.491)" fill="#F1F3F7"/>
<circle cx="58.4913" cy="248.491" r="2.49116" transform="rotate(180 58.4913 248.491)" fill="#C1CBD4"/>
<path d="M35.267 229.678L33.4211 231.524L32.0866 230.189L33.9325 228.343L31.8462 226.257L33.2524 224.851L35.3386 226.937L37.1896 225.086L38.5242 226.421L36.6732 228.272L38.6724 230.271L37.2663 231.677L35.267 229.678Z" fill="#85C0F9"/>
<circle cx="2.49116" cy="2.49116" r="2.49116" transform="matrix(1 0 0 -1 64.5405 24.9824)" fill="#C1CBD4"/>
<circle cx="2.49116" cy="2.49116" r="2.49116" transform="matrix(1 0 0 -1 37.541 29.9824)" fill="#F1F3F7"/>
<path d="M35.2564 56.6778L37.1023 58.5237L38.4369 57.1891L36.591 55.3432L38.6772 53.257L37.271 51.8509L35.1848 53.9371L33.3338 52.0861L31.9993 53.4206L33.8503 55.2716L31.851 57.2709L33.2571 58.6771L35.2564 56.6778Z" fill="#85C0F9"/>
<path d="M38.5 171.781C37.2956 171.685 34.5977 172.417 33.4414 176.117C31.9961 180.742 31.9961 189.992 20 190.137" stroke="#FE5284" stroke-width="4" stroke-linecap="round"/>
<path d="M261.341 213.298C258.351 213.264 252.153 211.276 251.282 203.594C250.477 196.492 259.707 196.75 257.552 202.449C255.73 207.269 241.944 212.286 236.81 193.962" stroke="#F39958" stroke-width="4" stroke-linecap="round"/>
<path d="M190.283 27.9282C194.093 25.0029 203 19.8658 213.273 25.2971" stroke="#85C0F9" stroke-width="4" stroke-linecap="round"/>
<defs>
<filter id="filter0_d_114_1693" x="0" y="0" width="280" height="280" filterUnits="userSpaceOnUse" color-interpolation-filters="sRGB">
<feFlood flood-opacity="0" result="BackgroundImageFix"/>
<feColorMatrix in="SourceAlpha" type="matrix" values="0 0 0 0 0 0 0 0 0 0 0 0 0 0 0 0 0 0 127 0" result="hardAlpha"/>
<feOffset dy="4"/>
<feGaussianBlur stdDeviation="10"/>
<feComposite in2="hardAlpha" operator="out"/>
<feColorMatrix type="matrix" values="0 0 0 0 0.905882 0 0 0 0 0.933333 0 0 0 0 0.984314 0 0 0 0.15 0"/>
<feBlend mode="normal" in2="BackgroundImageFix" result="effect1_dropShadow_114_1693"/>
<feBlend mode="normal" in="SourceGraphic" in2="effect1_dropShadow_114_1693" result="shape"/>
</filter>
<filter id="filter1_d_114_1693" x="-45" y="-35" width="370" height="395" filterUnits="userSpaceOnUse" color-interpolation-filters="sRGB">
<feFlood flood-opacity="0" result="BackgroundImageFix"/>
<feColorMatrix in="SourceAlpha" type="matrix" values="0 0 0 0 0 0 0 0 0 0 0 0 0 0 0 0 0 0 127 0" result="hardAlpha"/>
<feOffset dy="4"/>
<feGaussianBlur stdDeviation="50"/>
<feComposite in2="hardAlpha" operator="out"/>
<feColorMatrix type="matrix" values="0 0 0 0 0.388235 0 0 0 0 0.419608 0 0 0 0 0.505882 0 0 0 0.15 0"/>
<feBlend mode="normal" in2="BackgroundImageFix" result="effect1_dropShadow_114_1693"/>
<feBlend mode="normal" in="SourceGraphic" in2="effect1_dropShadow_114_1693" result="shape"/>
</filter>
</defs>
</svg>
