<svg width="15" height="15" viewBox="0 0 15 15" fill="none" xmlns="http://www.w3.org/2000/svg">
<g id="fluent:person-16-regular">
<path id="Vector" d="M11.6605 7.9716C11.4047 7.71581 11.0578 7.57211 10.6961 7.57211H4.68711C4.32537 7.57211 3.97845 7.71581 3.72266 7.9716C3.46687 8.22739 3.32317 8.57431 3.32317 8.93605V9.36527C3.32317 11.1083 4.96356 12.8753 7.69159 12.8753C10.4196 12.8753 12.06 11.1083 12.06 9.36527V8.93605C12.06 8.57431 11.9163 8.22739 11.6605 7.9716ZM4.43757 8.68651C4.50375 8.62033 4.59351 8.58315 4.68711 8.58315H10.6961C10.7897 8.58315 10.8794 8.62033 10.9456 8.68651C11.0118 8.75269 11.049 8.84246 11.049 8.93605V9.36527C11.049 10.5456 9.8669 11.8642 7.69159 11.8642C5.51628 11.8642 4.3342 10.5456 4.3342 9.36527V8.93605C4.3342 8.84246 4.37138 8.75269 4.43757 8.68651ZM9.41479 2.70613C8.95777 2.24911 8.33792 1.99236 7.69159 1.99236C7.04527 1.99236 6.42542 2.24911 5.9684 2.70613C5.51138 3.16315 5.25462 3.78301 5.25462 4.42933C5.25462 5.07565 5.51138 5.69551 5.9684 6.15253C6.42542 6.60955 7.04527 6.8663 7.69159 6.8663C8.33792 6.8663 8.95777 6.60955 9.41479 6.15253C9.87181 5.69551 10.1286 5.07565 10.1286 4.42933C10.1286 3.78301 9.87181 3.16315 9.41479 2.70613ZM6.6833 3.42104C6.95072 3.15362 7.31341 3.00339 7.69159 3.00339C8.06978 3.00339 8.43247 3.15362 8.69988 3.42104C8.9673 3.68845 9.11753 4.05115 9.11753 4.42933C9.11753 4.80751 8.9673 5.1702 8.69988 5.43762C8.43247 5.70503 8.06978 5.85527 7.69159 5.85527C7.31341 5.85527 6.95072 5.70503 6.6833 5.43762C6.41589 5.1702 6.26566 4.80751 6.26566 4.42933C6.26566 4.05115 6.41589 3.68845 6.6833 3.42104Z" fill="#666666" stroke="#666666" stroke-width="0.152609"/>
</g>
</svg>
