<svg width="24" height="25" viewBox="0 0 24 25" fill="none" xmlns="http://www.w3.org/2000/svg">
<path d="M19.23 15.5383L16.69 15.2483C16.3914 15.2133 16.0886 15.2463 15.8046 15.345C15.5206 15.4438 15.2626 15.6056 15.05 15.8183L13.21 17.6583C10.3714 16.2143 8.0641 13.9069 6.62004 11.0683L8.47004 9.21833C8.90004 8.78833 9.11004 8.18833 9.04004 7.57833L8.75004 5.05833C8.69356 4.57042 8.45951 4.12036 8.0925 3.79393C7.7255 3.4675 7.25121 3.28753 6.76004 3.28833H5.03004C3.90004 3.28833 2.96004 4.22833 3.03004 5.35833C3.56004 13.8983 10.39 20.7183 18.92 21.2483C20.05 21.3183 20.99 20.3783 20.99 19.2483V17.5183C21 16.5083 20.24 15.6583 19.23 15.5383Z" fill="white"/>
</svg>
