<svg width="24" height="25" viewBox="0 0 24 25" fill="none" xmlns="http://www.w3.org/2000/svg">
<path d="M13.5 1.02832L0 14.5283L8.25 22.7783L21.75 9.27832V1.02832H13.5ZM17.25 7.02832C16.9533 7.02832 16.6633 6.94035 16.4166 6.77552C16.17 6.6107 15.9777 6.37643 15.8642 6.10235C15.7506 5.82826 15.7209 5.52666 15.7788 5.23568C15.8367 4.94471 15.9796 4.67744 16.1893 4.46766C16.3991 4.25788 16.6664 4.11502 16.9574 4.05714C17.2483 3.99926 17.5499 4.02897 17.824 4.1425C18.0981 4.25603 18.3324 4.44829 18.4972 4.69497C18.662 4.94164 18.75 5.23165 18.75 5.52832C18.75 5.92615 18.592 6.30768 18.3107 6.58898C18.0294 6.87028 17.6478 7.02832 17.25 7.02832Z" fill="white"/>
<path d="M22.5 3.27832V10.0283L10.1672 22.3611L11.3438 23.5283L24 10.7783V3.27832H22.5Z" fill="white"/>
</svg>
