<svg width="21" height="22" viewBox="0 0 21 22" fill="none" xmlns="http://www.w3.org/2000/svg">
<g id="material-symbols:privacy-tip-outline-rounded">
<path id="Vector" d="M10.4054 14.9621C10.6511 14.9621 10.8572 14.8789 11.0237 14.7124C11.1901 14.5459 11.2731 14.3401 11.2725 14.095V10.6266C11.2725 10.3809 11.1893 10.1751 11.0228 10.0092C10.8563 9.84326 10.6505 9.76001 10.4054 9.75944C10.1603 9.75886 9.95451 9.8421 9.78802 10.0092C9.62153 10.1762 9.53829 10.382 9.53829 10.6266V14.095C9.53829 14.3407 9.62153 14.5468 9.78802 14.7133C9.95451 14.8798 10.1603 14.9627 10.4054 14.9621ZM10.4054 8.0252C10.6511 8.0252 10.8572 7.94196 11.0237 7.77547C11.1901 7.60898 11.2731 7.40319 11.2725 7.15808C11.2719 6.91298 11.1887 6.70718 11.0228 6.5407C10.8569 6.37421 10.6511 6.29097 10.4054 6.29097C10.1597 6.29097 9.95393 6.37421 9.78802 6.5407C9.62211 6.70718 9.53887 6.91298 9.53829 7.15808C9.53771 7.40319 9.62096 7.60927 9.78802 7.77634C9.95509 7.9434 10.1609 8.02636 10.4054 8.0252ZM10.4054 19.211C10.3042 19.211 10.2103 19.2038 10.1236 19.1893C10.0369 19.1749 9.95017 19.1532 9.86346 19.1243C7.91245 18.474 6.35886 17.2707 5.20271 15.5145C4.04655 13.7583 3.46847 11.8688 3.46847 9.84615V5.74902C3.46847 5.38772 3.57339 5.06255 3.78323 4.77351C3.99308 4.48447 4.26391 4.27492 4.59572 4.14485L9.79843 2.19384C10.0008 2.12158 10.2031 2.08545 10.4054 2.08545C10.6077 2.08545 10.8101 2.12158 11.0124 2.19384L16.2151 4.14485C16.5475 4.27492 16.8186 4.48447 17.0284 4.77351C17.2383 5.06255 17.3429 5.38772 17.3423 5.74902V9.84615C17.3423 11.8694 16.7643 13.7592 15.6081 15.5154C14.452 17.2716 12.8984 18.4745 10.9474 19.1243C10.8606 19.1532 10.7739 19.1749 10.6872 19.1893C10.6005 19.2038 10.5066 19.211 10.4054 19.211ZM10.4054 17.4768C11.9084 16.9999 13.1513 16.046 14.134 14.6153C15.1167 13.1845 15.6081 11.5948 15.6081 9.84615V5.74902L10.4054 3.79801L5.20271 5.74902V9.84615C5.20271 11.5948 5.69407 13.1845 6.6768 14.6153C7.65954 16.046 8.90241 16.9999 10.4054 17.4768Z" fill="#FCB034"/>
</g>
</svg>
