<svg width="20" height="20" viewBox="0 0 20 20" fill="none" xmlns="http://www.w3.org/2000/svg">
<g id="icon/linear/profile-circle">
<g id="icon/linear/profile-circle_2">
<g id="profile-circle">
<path id="Vector" d="M10.2202 10.6434C10.1648 10.6355 10.0935 10.6355 10.0302 10.6434C8.63684 10.5959 7.5285 9.45592 7.5285 8.05467C7.5285 6.62176 8.68434 5.45801 10.1252 5.45801C11.5581 5.45801 12.7218 6.62176 12.7218 8.05467C12.7139 9.45592 11.6135 10.5959 10.2202 10.6434Z" stroke="#3A3F45" stroke-width="1.1875" stroke-linecap="round" stroke-linejoin="round"/>
<path id="Vector_2" d="M15.4606 15.8687C14.0515 17.1591 12.1831 17.9429 10.1248 17.9429C8.06647 17.9429 6.19814 17.1591 4.78897 15.8687C4.86814 15.1246 5.34314 14.3962 6.19022 13.8262C8.35939 12.3854 11.9061 12.3854 14.0594 13.8262C14.9065 14.3962 15.3815 15.1246 15.4606 15.8687Z" stroke="#3A3F45" stroke-width="1.1875" stroke-linecap="round" stroke-linejoin="round"/>
<path id="Vector_3" d="M10.125 17.9427C14.4973 17.9427 18.0417 14.3983 18.0417 10.026C18.0417 5.65379 14.4973 2.10938 10.125 2.10938C5.75276 2.10938 2.20834 5.65379 2.20834 10.026C2.20834 14.3983 5.75276 17.9427 10.125 17.9427Z" stroke="#3A3F45" stroke-width="1.1875" stroke-linecap="round" stroke-linejoin="round"/>
</g>
</g>
</g>
</svg>
