<svg width="18" height="18" viewBox="0 0 18 18" fill="none" xmlns="http://www.w3.org/2000/svg">
<path d="M8.32032 3.95417V15.4763C8.32007 15.8338 8.19365 16.1798 7.96335 16.4532C7.73304 16.7266 7.41362 16.91 7.06136 16.9711C6.70911 17.0321 6.34661 16.9668 6.03774 16.7868C5.72887 16.6068 5.49345 16.3235 5.37294 15.9869L3.52101 10.6822M3.52101 10.6822C2.78889 10.3709 2.18679 9.81707 1.81661 9.11288C1.44644 8.40869 1.33093 7.59823 1.48962 6.81866C1.64831 6.03909 2.07147 5.33829 2.68748 4.83485C3.30348 4.33141 4.07451 4.05626 4.87007 4.05595H6.45028C9.9868 4.05595 13.0273 2.99155 14.3583 1.46826V13.5442C13.0273 12.0209 9.98766 10.9565 6.45028 10.9565H4.87007C4.40658 10.9569 3.94777 10.863 3.52101 10.6822ZM14.3583 10.0939C15.0446 10.0939 15.7028 9.82127 16.188 9.33599C16.6733 8.8507 16.946 8.19251 16.946 7.50621C16.946 6.81991 16.6733 6.16172 16.188 5.67644C15.7028 5.19115 15.0446 4.91852 14.3583 4.91852" stroke="#3A3F45" stroke-width="1.29983" stroke-linecap="round" stroke-linejoin="round"/>
</svg>
