<svg width="7" height="7" viewBox="0 0 7 7" fill="none" xmlns="http://www.w3.org/2000/svg">
<g clip-path="url(#clip0_598_3394)">
<path fill-rule="evenodd" clip-rule="evenodd" d="M2.58354 0.122296C3.27184 -0.0645942 4.00082 -0.0367403 4.67285 0.202128C5.34489 0.440996 5.92791 0.879476 6.34385 1.45886V0.765421C6.34385 0.678396 6.37842 0.594937 6.43996 0.533401C6.50149 0.471866 6.58495 0.437296 6.67198 0.437296C6.759 0.437296 6.84246 0.471866 6.904 0.533401C6.96553 0.594937 7.0001 0.678396 7.0001 0.765421V2.6248H5.14073C5.0537 2.6248 4.97024 2.59023 4.90871 2.52869C4.84717 2.46715 4.8126 2.38369 4.8126 2.29667C4.8126 2.20965 4.84717 2.12619 4.90871 2.06465C4.97024 2.00312 5.0537 1.96855 5.14073 1.96855H5.89629C5.55358 1.43238 5.04095 1.02666 4.4404 0.816272C3.83986 0.605886 3.1861 0.603 2.58372 0.808075C1.98134 1.01315 1.46515 1.41433 1.11772 1.94745C0.770292 2.48056 0.611706 3.1148 0.667333 3.74869C0.72296 4.38259 0.989586 4.97951 1.42456 5.44397C1.85952 5.90842 2.4377 6.21357 3.06659 6.3106C3.69548 6.40762 4.33875 6.29092 4.89347 5.97915C5.44819 5.66739 5.88233 5.17858 6.12641 4.59092C6.14226 4.55018 6.16608 4.51301 6.19649 4.48161C6.2269 4.4502 6.26328 4.42519 6.30348 4.40804C6.34369 4.39089 6.38692 4.38194 6.43064 4.38173C6.47435 4.38152 6.51767 4.39004 6.55804 4.4068C6.59841 4.42357 6.63503 4.44823 6.66574 4.47934C6.69645 4.51045 6.72064 4.54738 6.73687 4.58796C6.75311 4.62855 6.76108 4.67197 6.7603 4.71568C6.75952 4.75939 6.75002 4.8025 6.73235 4.84248C6.50433 5.39134 6.1403 5.87309 5.67457 6.24233C5.20884 6.61156 4.65675 6.85612 4.07035 6.95294C3.48395 7.04976 2.88255 6.99566 2.32284 6.79573C1.76314 6.59581 1.26357 6.25664 0.871212 5.81021C0.478859 5.36379 0.206653 4.8248 0.0802522 4.24405C-0.0461485 3.66331 -0.0225799 3.05994 0.148737 2.49083C0.320053 1.92172 0.633474 1.4056 1.05945 0.991138C1.48544 0.576675 2.00994 0.277952 2.58354 0.122296Z" fill="#FCB034"/>
</g>
<defs>
<clipPath id="clip0_598_3394">
<rect width="7" height="7" fill="white"/>
</clipPath>
</defs>
</svg>
