<svg width="22" height="22" viewBox="0 0 22 22" fill="none" xmlns="http://www.w3.org/2000/svg">
<path d="M20.3826 1.93562C20.3746 1.89715 20.3558 1.86175 20.3284 1.8336C20.301 1.80545 20.2661 1.78571 20.2279 1.77671C17.6788 1.15327 11.7904 3.37468 8.5968 6.56593C8.02764 7.13044 7.50866 7.74337 7.0457 8.3978C6.06133 8.30874 5.07695 8.38374 4.23883 8.74937C1.87211 9.78999 1.18351 12.5078 0.991327 13.6745C0.980914 13.7385 0.985362 13.8039 1.00433 13.8659C1.02329 13.9278 1.05626 13.9845 1.10068 14.0317C1.1451 14.0788 1.19978 14.1151 1.26048 14.1377C1.32118 14.1603 1.38627 14.1686 1.4507 14.162L5.25086 13.7448C5.25346 14.0315 5.27067 14.3178 5.30242 14.6026C5.32225 14.7995 5.41011 14.9834 5.55086 15.1225L7.02226 16.5939C7.1615 16.7347 7.34551 16.8226 7.54258 16.8423C7.82574 16.8739 8.11033 16.8911 8.39523 16.8939L7.97851 20.6908C7.97201 20.7551 7.98039 20.8201 8.003 20.8807C8.02562 20.9413 8.06186 20.9959 8.10894 21.0402C8.15601 21.0846 8.21266 21.1175 8.27449 21.1365C8.33632 21.1555 8.40169 21.16 8.46555 21.1497C9.63273 20.9622 12.3562 20.2736 13.3907 17.9073C13.7563 17.0683 13.8313 16.0891 13.747 15.1094C14.4033 14.6468 15.018 14.1278 15.584 13.5583C18.7893 10.3708 20.9966 4.61171 20.3826 1.93562ZM12.7349 9.42905C12.455 9.14915 12.2643 8.7925 12.187 8.40423C12.1097 8.01595 12.1494 7.61348 12.3008 7.24771C12.4523 6.88195 12.7089 6.56932 13.038 6.34937C13.3672 6.12941 13.7542 6.01201 14.1501 6.01201C14.546 6.01201 14.933 6.12941 15.2621 6.34937C15.5913 6.56932 15.8478 6.88195 15.9993 7.24771C16.1508 7.61348 16.1904 8.01595 16.1131 8.40423C16.0359 8.7925 15.8452 9.14915 15.5652 9.42905C15.3795 9.61515 15.159 9.76279 14.9161 9.86352C14.6733 9.96426 14.413 10.0161 14.1501 10.0161C13.8872 10.0161 13.6269 9.96426 13.384 9.86352C13.1412 9.76279 12.9206 9.61515 12.7349 9.42905Z" stroke="white" stroke-width="1.5" stroke-linecap="round" stroke-linejoin="round"/>
</svg>
