<svg width="50" height="50" viewBox="0 0 50 50" fill="none" xmlns="http://www.w3.org/2000/svg">
<path d="M47.8214 0.00720422C47.9621 0.00341045 47.9621 0.00341045 48.1057 -0.00045996C48.6623 -0.00188878 48.9965 0.0495251 49.4311 0.432412C49.7622 0.775268 49.7601 1.0505 49.7614 1.51783C49.7618 1.58617 49.7622 1.6545 49.7626 1.72491C49.7632 1.94813 49.7614 2.17123 49.7591 2.39444C49.7585 2.50933 49.7585 2.50933 49.7578 2.62653C49.7491 3.98567 49.6457 5.30956 49.4311 6.6526C49.4144 6.76142 49.3977 6.87025 49.3805 6.98237C48.699 11.3891 47.4893 15.7103 45.6407 19.7733C45.6031 19.8565 45.5656 19.9397 45.5269 20.0254C44.756 21.724 43.8693 23.3787 42.8221 24.9244C42.7826 24.9829 42.7432 25.0413 42.7025 25.1016C41.5918 26.7373 40.3479 28.3013 38.9345 29.6867C38.6846 29.9358 38.4356 30.1858 38.1877 30.4369C38.0994 30.5261 38.0111 30.6153 37.9201 30.7072C37.8736 30.755 37.8272 30.8027 37.7793 30.8519C37.5387 31.0962 37.3098 31.2932 37.015 31.4665C36.7383 31.797 36.7766 31.9074 36.8085 32.3291C36.83 32.5153 36.8516 32.7014 36.8737 32.8875C37.2762 36.9734 35.6903 41.1 33.2064 44.2835C32.8203 44.7532 32.4085 45.1988 31.9945 45.6438C31.7892 45.8667 31.5914 46.0929 31.3962 46.3245C30.4408 47.4163 28.1904 49.6729 26.654 49.8283C26.0225 49.8448 25.6301 49.8218 25.1335 49.4164C24.7767 48.8915 24.6794 48.3791 24.6471 47.7565C24.6413 47.6721 24.6356 47.5876 24.6296 47.5005C24.6112 47.224 24.5952 46.9474 24.5792 46.6707C24.5668 46.4779 24.5543 46.2851 24.5416 46.0923C24.5088 45.5868 24.4781 45.0813 24.4477 44.5757C24.4163 44.059 24.383 43.5423 24.3499 43.0257C24.2852 42.0136 24.2227 41.0013 24.1616 39.9889C24.0905 40.0615 24.0195 40.1341 23.9462 40.2089C23.6816 40.4788 23.416 40.7477 23.1502 41.0163C23.0354 41.1326 22.9208 41.2491 22.8066 41.3659C22.642 41.534 22.4765 41.7012 22.3108 41.8682C22.2601 41.9203 22.2095 41.9725 22.1573 42.0262C21.7589 42.4248 21.3984 42.6365 20.8328 42.6616C19.9555 42.637 19.3539 41.9182 18.7823 41.326C18.7293 41.2697 18.6763 41.2133 18.6217 41.1552C18.3258 41.2864 18.1349 41.4305 17.9152 41.667C17.5721 42.0195 17.2084 42.3077 16.8055 42.5887C16.7345 42.6383 16.6636 42.6878 16.5905 42.7388C13.4262 44.9029 8.62664 46.7658 4.72349 46.3063C4.21024 46.0941 3.97452 45.8706 3.6544 45.4316C2.75734 42.7404 4.45628 38.3149 5.61529 35.92C5.7659 35.6208 5.92431 35.3266 6.08416 35.0322C6.15538 34.8916 6.15538 34.8916 6.22805 34.7482C6.78244 33.6736 7.50355 32.7062 8.33776 31.8333C8.50354 31.6425 8.60811 31.4724 8.7083 31.2418C8.63564 31.1725 8.56297 31.1032 8.4881 31.0318C7.24433 29.8303 7.24433 29.8303 7.20792 29.0489C7.20901 28.4542 7.52151 28.0218 7.93068 27.6128C8.00496 27.5408 8.00496 27.5408 8.08074 27.4673C8.1321 27.4163 8.18346 27.3654 8.23638 27.3129C8.39908 27.1518 8.56278 26.9918 8.72652 26.8318C8.83764 26.7221 8.94869 26.6124 9.05967 26.5026C9.33054 26.2349 9.60231 25.9682 9.87459 25.7019C9.76794 25.6955 9.6613 25.689 9.55143 25.6824C8.54465 25.6214 7.53799 25.5585 6.53143 25.494C6.01399 25.4608 5.49652 25.4283 4.97895 25.3972C4.47912 25.3672 3.97942 25.3355 3.47977 25.3027C3.28948 25.2905 3.09915 25.2789 2.90878 25.2679C2.64138 25.2523 2.37419 25.2346 2.10695 25.2164C2.02886 25.2124 1.95077 25.2083 1.87032 25.2042C1.3362 25.1648 0.893791 25.0337 0.447116 24.73C0.0705937 24.2688 -0.0229578 23.8597 0.00444363 23.2657C0.275589 21.8317 1.79051 20.3553 2.7607 19.3211C2.95223 19.1163 3.13375 18.9065 3.31423 18.6921C3.71438 18.2331 4.1661 17.8381 4.6263 17.4407C4.71551 17.3624 4.80471 17.2841 4.89661 17.2035C7.9877 14.5486 11.8522 12.9841 15.9368 12.9578C16.0074 12.9569 16.078 12.9559 16.1507 12.9549C16.4959 12.9541 16.7947 12.974 17.1354 13.0432C17.5113 13.1171 17.7598 13.1494 18.1358 13.0672C18.6823 12.6814 19.0887 12.1323 19.4964 11.6093C19.7633 11.2765 20.03 10.9658 20.359 10.6921C20.6074 10.4809 20.8398 10.2668 21.0636 10.03C21.5398 9.54621 22.0876 9.14465 22.6249 8.73213C22.7904 8.6045 22.9547 8.47548 23.1187 8.34584C29.1412 3.60403 37.0407 1.1352 44.5716 0.238031C44.6533 0.228024 44.7351 0.218017 44.8193 0.207707C45.8185 0.0885463 46.8151 0.0221509 47.8214 0.00720422Z" fill="#E0F0F9"/>
<path d="M18.1358 13.1634C18.0078 13.4383 17.8648 13.6635 17.6726 13.8976C15.5977 16.4692 13.9561 19.4258 12.6627 22.4633C12.634 22.529 12.6052 22.5947 12.5755 22.6624C12.4196 23.043 12.3657 23.2702 12.4987 23.6599C12.6728 23.8703 12.8439 24.0559 13.038 24.246C13.0949 24.3032 13.1517 24.3603 13.2103 24.4192C13.4011 24.6107 13.5933 24.8008 13.7856 24.9909C13.9226 25.1278 14.0595 25.2648 14.1964 25.4019C14.5684 25.774 14.9416 26.1449 15.315 26.5156C15.705 26.9032 16.0939 27.2918 16.4828 27.6803C17.2197 28.416 17.9576 29.1506 18.6958 29.8849C19.5361 30.7209 20.3753 31.558 21.2144 32.3952C22.9407 34.1174 24.6684 35.8382 26.397 37.5581C26.7085 37.4343 27.0199 37.3101 27.3313 37.186C27.419 37.1511 27.5067 37.1162 27.597 37.0803C28.221 36.8313 28.8356 36.5696 29.4402 36.2764C29.5315 36.2324 29.6228 36.1884 29.7169 36.1431C31.1902 35.4219 32.6395 34.6216 33.9778 33.6705C34.0903 33.5919 34.2028 33.5133 34.3153 33.4348C34.9307 33.0024 35.5293 32.5577 36.1076 32.076C36.2984 31.9303 36.481 31.8254 36.6991 31.7267C37.6145 33.5575 36.7131 37.0711 36.1288 38.8899C35.2499 41.4666 33.8423 43.6569 31.9945 45.6428C31.7892 45.8657 31.5914 46.0919 31.3962 46.3235C30.4408 47.4153 28.1904 49.6719 26.654 49.8273C26.0225 49.8438 25.6301 49.8208 25.1335 49.4154C24.7767 48.8905 24.6794 48.3781 24.6471 47.7555C24.6413 47.6711 24.6356 47.5866 24.6296 47.4995C24.6112 47.223 24.5952 46.9464 24.5792 46.6697C24.5668 46.4769 24.5543 46.2841 24.5416 46.0913C24.5088 45.5858 24.4781 45.0803 24.4477 44.5747C24.4163 44.058 24.383 43.5413 24.3499 43.0247C24.2852 42.0126 24.2227 41.0003 24.1616 39.9879C24.0905 40.0605 24.0195 40.1331 23.9462 40.2079C23.6816 40.4778 23.416 40.7467 23.1502 41.0153C23.0354 41.1316 22.9208 41.2481 22.8066 41.3649C22.642 41.533 22.4765 41.7002 22.3108 41.8672C22.2601 41.9193 22.2095 41.9715 22.1573 42.0252C21.7589 42.4238 21.3984 42.6355 20.8328 42.6606C19.9555 42.636 19.3539 41.9172 18.7823 41.325C18.7293 41.2687 18.6763 41.2123 18.6217 41.1542C18.3258 41.2854 18.1349 41.4295 17.9152 41.666C17.5721 42.0185 17.2084 42.3067 16.8055 42.5878C16.7345 42.6373 16.6636 42.6868 16.5905 42.7378C13.4262 44.9019 8.62664 46.7648 4.72349 46.3053C4.21024 46.0931 3.97452 45.8696 3.6544 45.4306C2.75734 42.7394 4.45628 38.3139 5.61529 35.919C5.7659 35.6198 5.92431 35.3256 6.08416 35.0312C6.13164 34.9375 6.17912 34.8438 6.22805 34.7472C6.78244 33.6726 7.50355 32.7052 8.33776 31.8323C8.50354 31.6415 8.60811 31.4714 8.7083 31.2408C8.63564 31.1715 8.56297 31.1022 8.4881 31.0308C7.24433 29.8293 7.24433 29.8293 7.20792 29.0479C7.20901 28.4532 7.52151 28.0208 7.93069 27.6118C8.00496 27.5398 8.00496 27.5398 8.08074 27.4663C8.1321 27.4153 8.18346 27.3644 8.23638 27.3119C8.39908 27.1508 8.56278 26.9908 8.72652 26.8308C8.83764 26.7211 8.94869 26.6114 9.05967 26.5016C9.33054 26.2339 9.60231 25.9672 9.87459 25.7009C9.76794 25.6945 9.6613 25.688 9.55143 25.6814C8.54465 25.6204 7.53799 25.5575 6.53143 25.493C6.01399 25.4598 5.49652 25.4273 4.97895 25.3962C4.47912 25.3662 3.97942 25.3345 3.47977 25.3017C3.28948 25.2895 3.09915 25.2779 2.90878 25.2669C2.64138 25.2513 2.37419 25.2336 2.10695 25.2154C2.02886 25.2114 1.95077 25.2073 1.87032 25.2032C1.3362 25.1638 0.893791 25.0327 0.447116 24.729C0.0705937 24.2678 -0.0229578 23.8587 0.00444363 23.2647C0.275589 21.8307 1.79051 20.3543 2.7607 19.3201C2.95223 19.1153 3.13375 18.9055 3.31423 18.6911C3.71438 18.2321 4.1661 17.8371 4.6263 17.4397C4.71551 17.3614 4.80471 17.2831 4.89661 17.2025C7.73094 14.7681 14.2773 11.2341 18.1358 13.1634Z" fill="#1B3B6A"/>
<path d="M41.8504 8.01147C42.237 8.16807 42.502 8.43724 42.7934 8.72567C42.8748 8.80512 42.8748 8.80512 42.9578 8.88618C43.1366 9.06114 43.3146 9.23686 43.4924 9.41276C43.5837 9.5029 43.5837 9.5029 43.6769 9.59486C43.9988 9.91267 44.32 10.2311 44.6407 10.55C44.9722 10.8794 45.306 11.2064 45.6402 11.533C45.8969 11.7846 46.1518 12.0379 46.4063 12.2917C46.5286 12.413 46.6516 12.5337 46.7752 12.6538C46.9479 12.8217 47.118 12.992 47.2877 13.163C47.3392 13.2121 47.3908 13.2611 47.4439 13.3117C47.583 13.4549 47.583 13.4549 47.779 13.7457C47.763 14.2008 47.6405 14.5977 47.4939 15.027C47.4361 15.1965 47.4361 15.1965 47.3772 15.3694C47.3354 15.4891 47.2936 15.6087 47.2506 15.732C47.2182 15.8251 47.2182 15.8251 47.1852 15.92C46.0884 19.0672 44.6963 22.1564 42.8223 24.9226C42.7828 24.9811 42.7434 25.0396 42.7027 25.0998C41.5919 26.7356 40.3481 28.2995 38.9347 29.6849C38.6862 29.9322 38.4393 30.1806 38.1948 30.4317C38.1082 30.52 38.0216 30.6084 37.9324 30.6994C37.8466 30.7874 37.7608 30.8755 37.6724 30.9663C37.4022 31.2293 37.1092 31.4514 36.8053 31.6741C36.6041 31.8217 36.4064 31.9729 36.2092 32.1257C33.2579 34.4065 29.9544 36.4688 26.3971 37.6546C24.0558 35.3132 21.7145 32.9719 19.3022 30.5597C22.0884 27.7735 24.8745 24.9874 27.6606 22.2013C27.6987 22.2414 27.7368 22.2815 27.776 22.3228C28.9575 23.4635 30.5681 23.9774 32.1815 23.9885C32.9609 23.9734 33.6457 23.7443 34.3668 23.4647C34.4567 23.4308 34.5467 23.3968 34.6393 23.3619C35.9842 22.7754 37.0203 21.4882 37.574 20.1603C38.1914 18.5737 38.1393 16.9568 37.4769 15.3979C37.1586 14.7578 36.7939 14.1758 36.3106 13.6485C36.8448 12.9978 37.4389 12.4106 38.0349 11.8175C38.1453 11.7073 38.2556 11.5972 38.3658 11.487C38.6542 11.199 38.9428 10.9113 39.2315 10.6237C39.5268 10.3294 39.8219 10.0348 40.1169 9.74021C40.6945 9.16369 41.2724 8.58749 41.8504 8.01147Z" fill="#CCEAFB"/>
<path d="M8.64137 31.3379C8.97293 31.4796 9.1899 31.659 9.44443 31.91C9.52481 31.9887 9.60518 32.0675 9.68799 32.1487C9.77529 32.2353 9.86259 32.3218 9.95253 32.411C10.046 32.503 10.1396 32.595 10.2331 32.6869C10.4867 32.9363 10.7397 33.1863 10.9926 33.4364C11.2572 33.6978 11.5222 33.9586 11.7872 34.2195C12.2888 34.7134 12.7899 35.2079 13.2909 35.7025C13.8612 36.2657 14.4322 36.8283 15.0032 37.3909C16.1776 38.548 17.3513 39.7058 18.5245 40.8641C17.4771 42.9931 14.0302 44.3093 11.9028 45.044C6.18139 46.9951 6.18139 46.9951 4.17195 46.1782C3.7393 45.9226 3.46691 45.6205 3.30447 45.1412C3.0295 41.7502 4.24869 37.9757 5.87409 35.0317C5.92237 34.938 5.97066 34.8443 6.02041 34.7477C6.69058 33.47 7.60386 32.3455 8.64137 31.3379Z" fill="#FEF160"/>
<path d="M18.1358 13.1634C18.0078 13.4383 17.8648 13.6635 17.6726 13.8976C16.3449 15.5431 15.2287 17.3172 14.2482 19.1892C14.1779 19.3233 14.1779 19.3233 14.1062 19.4602C13.9535 19.7538 13.8027 20.0483 13.6529 20.3433C13.6023 20.4426 13.5517 20.5419 13.4996 20.6443C13.2732 21.0985 13.0649 21.5435 12.9103 22.0274C12.5675 23.0944 12.0452 23.8529 11.2778 24.6561C11.1911 24.7506 11.1044 24.8451 11.0151 24.9424C10.6571 25.2946 10.3621 25.5774 9.85194 25.646C9.7392 25.6422 9.62646 25.6384 9.51031 25.6345C9.44751 25.6328 9.3847 25.6312 9.32 25.6295C9.11593 25.6233 8.91221 25.6138 8.7083 25.6037C8.64042 25.6008 8.57254 25.5979 8.5026 25.5949C7.98677 25.5727 7.47153 25.5428 6.95621 25.5111C6.83583 25.5038 6.83583 25.5038 6.71301 25.4963C6.28986 25.4706 5.86675 25.4442 5.44367 25.4175C5.00926 25.3901 4.57476 25.3647 4.14021 25.3398C3.80303 25.3201 3.46595 25.2988 3.12889 25.2772C2.9687 25.2672 2.80848 25.2577 2.64823 25.2489C1.08325 25.1614 1.08325 25.1614 0.447116 24.729C0.0705937 24.2678 -0.0229578 23.8587 0.00444363 23.2647C0.275589 21.8307 1.79051 20.3543 2.7607 19.3201C2.95222 19.1153 3.13374 18.9055 3.31423 18.6911C3.71438 18.2321 4.1661 17.8371 4.6263 17.4397C4.71551 17.3614 4.80471 17.2831 4.89661 17.2025C7.73094 14.7681 14.2773 11.2341 18.1358 13.1634Z" fill="#FE5B5B"/>
<path d="M36.7397 31.5322C37.2312 32.0146 37.0561 33.1118 37.0617 33.7751C37.0485 38.3418 35.0817 42.4242 31.9505 45.7265C31.7371 45.9539 31.5315 46.1845 31.3286 46.4208C30.3356 47.5344 27.9963 49.8361 26.3993 49.9946C25.7429 50.0115 25.3351 49.988 24.8189 49.5745C24.295 48.8182 24.3146 47.97 24.2648 47.0865C24.2542 46.92 24.2435 46.7536 24.2326 46.5871C24.2102 46.2388 24.1889 45.8904 24.1685 45.542C24.1426 45.0995 24.1148 44.6572 24.0863 44.215C24.0589 43.7884 24.0324 43.3618 24.006 42.9353C24.001 42.8559 23.996 42.7765 23.9909 42.6948C23.9589 42.1794 23.9317 41.664 23.9097 41.1482C23.9064 41.0781 23.903 41.008 23.8996 40.9357C23.8909 40.7332 23.8851 40.5308 23.8802 40.3281C23.8767 40.2127 23.8732 40.0974 23.8696 39.9785C23.9473 39.3627 24.3647 38.9998 24.8126 38.5955C24.9544 38.4621 24.9544 38.4621 25.099 38.326C26.027 37.4843 27.0884 37.0273 28.2624 36.599C28.6944 36.4374 29.1119 36.2503 29.5291 36.0552C29.6044 36.0201 29.6797 35.9851 29.7573 35.949C31.2316 35.2494 32.6765 34.4462 34.012 33.5149C34.1289 33.4347 34.2459 33.3545 34.3629 33.2744C35.0043 32.8322 35.6293 32.3766 36.2357 31.8885C36.4366 31.7305 36.4366 31.7305 36.7397 31.5322Z" fill="#FE193D"/>
<path d="M35.865 13.141C36.7199 13.8399 37.4026 14.8434 37.7682 15.8848C37.797 15.9594 37.8259 16.0341 37.8555 16.111C38.3741 17.6619 38.0719 19.3002 37.422 20.7564C36.6094 22.2934 35.1576 23.3558 33.5283 23.8848C32.5102 24.159 31.3922 24.1794 30.3818 23.8544C30.2996 23.8295 30.2174 23.8045 30.1327 23.7788C28.5214 23.2456 27.2477 22.2503 26.4676 20.7249C25.8184 19.3522 25.5414 17.8492 26.0082 16.3707C26.0391 16.2659 26.0701 16.161 26.102 16.053C26.6518 14.344 27.8245 13.1054 29.4098 12.2887C31.654 11.3666 33.9277 11.7232 35.865 13.141Z" fill="#1C3C6C"/>
<path d="M47.8216 0.00722609C47.9154 0.00468908 48.0093 0.00215207 48.106 -0.000461821C48.6626 -0.00184196 48.9967 0.0495861 49.4313 0.432434C49.7624 0.77529 49.7604 1.05052 49.7616 1.51785C49.762 1.58619 49.7624 1.65453 49.7628 1.72493C49.7634 1.94815 49.7616 2.17126 49.7593 2.39447C49.7589 2.47106 49.7585 2.54765 49.758 2.62656C49.7493 3.98569 49.646 5.30958 49.4313 6.65262C49.4063 6.81586 49.4063 6.81586 49.3808 6.98239C49.0267 9.27129 48.5288 11.5252 47.8762 13.7475C47.5148 13.5963 47.2848 13.3748 47.009 13.0994C46.9623 13.0529 46.9155 13.0064 46.8673 12.9586C46.7109 12.8029 46.5552 12.6466 46.3995 12.4903C46.2875 12.3785 46.1754 12.2668 46.0632 12.1551C45.759 11.8517 45.4554 11.5477 45.1519 11.2436C44.8345 10.9258 44.5167 10.6084 44.1989 10.2909C43.6655 9.7579 43.1326 9.22447 42.5998 8.69082C41.9832 8.07312 41.3658 7.45612 40.7481 6.83948C40.2183 6.31051 39.6888 5.78116 39.1596 5.25149C38.8434 4.93492 38.527 4.61848 38.2102 4.30239C37.9127 4.00543 37.6157 3.70801 37.319 3.41021C37.2098 3.30073 37.1004 3.19141 36.9908 3.08227C36.8419 2.93383 36.6935 2.78482 36.5453 2.63563C36.4619 2.5522 36.3786 2.46878 36.2927 2.38283C36.1162 2.18186 36.1162 2.18186 36.1162 1.98748C38.8901 1.18934 41.7066 0.596254 44.5718 0.238053C44.6622 0.226668 44.7527 0.215283 44.8458 0.203553C45.8361 0.0833668 46.8242 0.0226871 47.8216 0.00722609Z" fill="#FE5A5A"/>
<path d="M19.3019 30.5603C19.7728 30.9528 20.2162 31.3638 20.6483 31.7985C20.711 31.8611 20.7736 31.9238 20.8382 31.9883C21.043 32.1932 21.2474 32.3984 21.4519 32.6036C21.5947 32.7466 21.7375 32.8896 21.8804 33.0325C22.2546 33.4071 22.6286 33.7821 23.0025 34.157C23.3848 34.5403 23.7673 34.9233 24.1498 35.3063C24.8991 36.0566 25.6481 36.8072 26.3968 37.558C26.3036 37.6673 26.2104 37.7766 26.1171 37.8858C26.0651 37.9466 26.0132 38.0074 25.9597 38.0701C25.8006 38.2534 25.6351 38.4266 25.4617 38.5964C25.4009 38.6564 25.3401 38.7165 25.2774 38.7784C25.1534 38.8999 25.0294 39.0214 24.9053 39.1429C24.6021 39.4423 24.3092 39.7447 24.0312 40.0679C23.6061 40.5605 23.15 41.0208 22.6914 41.4821C22.6058 41.5696 22.5203 41.6572 22.4321 41.7474C22.3075 41.8728 22.3075 41.8728 22.1804 42.0007C22.1059 42.0761 22.0313 42.1516 21.9545 42.2294C21.5441 42.576 21.1289 42.6693 20.603 42.6537C19.6251 42.4776 18.8374 41.4239 18.2275 40.7097C17.8091 40.2308 17.3574 39.7893 16.9025 39.3454C16.7226 39.1682 16.5428 38.9909 16.363 38.8135C16.0817 38.5362 15.7999 38.2594 15.517 37.9836C15.2426 37.716 14.97 37.4465 14.6975 37.1768C14.612 37.0941 14.5264 37.0114 14.4383 36.9262C14.3607 36.8489 14.2831 36.7717 14.2032 36.6921C14.1343 36.6245 14.0653 36.557 13.9943 36.4873C13.8592 36.2945 13.8592 36.2945 13.855 36.1087C14.0032 35.8121 14.224 35.6002 14.4582 35.3709C14.5103 35.3187 14.5625 35.2666 14.6162 35.2128C14.7885 35.0406 14.9619 34.8696 15.1352 34.6985C15.255 34.5793 15.3747 34.46 15.4944 34.3406C15.8093 34.0268 16.1251 33.7139 16.4411 33.4011C16.7634 33.0818 17.0849 32.7616 17.4065 32.4415C18.0375 31.8136 18.6694 31.1867 19.3019 30.5603Z" fill="#001035"/>
<path d="M13.825 36.3918C14.1861 36.5403 14.416 36.749 14.6911 37.018C14.829 37.1521 14.829 37.1521 14.9696 37.2889C15.069 37.3866 15.1683 37.4843 15.2677 37.5819C15.37 37.6818 15.4724 37.7817 15.5748 37.8815C15.8437 38.1438 16.112 38.4067 16.3802 38.6697C16.6542 38.9381 16.9287 39.206 17.2032 39.474C17.7413 39.9995 18.1816 40.6763 18.7187 41.2028C17.6609 43.3292 14.2767 44.4931 12.1281 45.2269C6.27696 47.2001 6.27696 47.2001 4.30263 46.3415C4.21694 46.2941 4.17984 46.2084 4.09154 46.1595C4.09154 45.7711 4.04295 45.8094 4.20052 45.6088C4.31128 45.5019 4.31128 45.5019 4.42428 45.3929C4.50764 45.3115 4.59099 45.2302 4.67687 45.1463C4.76825 45.0591 4.85963 44.972 4.95378 44.8821C5.04818 44.7908 5.1425 44.6994 5.23674 44.6079C5.43486 44.4159 5.63361 44.2246 5.83289 44.0338C6.08631 43.7911 6.33867 43.5474 6.59063 43.3033C6.83281 43.0687 7.07547 42.8346 7.3182 42.6006C7.40797 42.514 7.49773 42.4274 7.59021 42.3382C7.96161 41.9823 8.33306 41.6311 8.7289 41.301C9.25832 40.8575 9.74546 40.3719 10.2379 39.8904C10.3419 39.7891 10.4459 39.6877 10.55 39.5864C10.8213 39.3222 11.0923 39.0576 11.3632 38.793C11.6408 38.5221 11.9186 38.2514 12.1964 37.9807C12.7395 37.4514 13.2824 36.9217 13.825 36.3918Z" fill="#FCBF01"/>
<path d="M49.3342 0.527588C49.6258 0.624778 49.6258 0.624778 49.723 0.819159C49.7505 1.33882 49.7469 1.85994 49.7473 2.38028C49.7473 2.45736 49.7474 2.53443 49.7475 2.61384C49.7456 3.97847 49.647 5.30188 49.4314 6.65058C49.4147 6.75941 49.3981 6.86823 49.3809 6.98036C49.0269 9.26926 48.529 11.5232 47.8764 13.7455C47.4861 13.5891 47.2247 13.3143 46.9349 13.0205C46.8808 12.9664 46.8268 12.9124 46.771 12.8567C46.5928 12.6783 46.4153 12.4993 46.2378 12.3203C46.1142 12.1963 45.9905 12.0724 45.8669 11.9485C45.5418 11.6227 45.2172 11.2962 44.8928 10.9697C44.5616 10.6364 44.2298 10.3037 43.898 9.971C43.2474 9.31829 42.5974 8.66496 41.9478 8.01125C42.3529 7.52801 42.7746 7.07363 43.2216 6.62916C43.2881 6.5627 43.3545 6.49624 43.423 6.42777C43.6404 6.21037 43.8582 5.99331 44.0761 5.77625C44.2278 5.62471 44.3795 5.47315 44.5312 5.32157C44.9288 4.92431 45.3267 4.52734 45.7247 4.13044C46.1314 3.72472 46.5379 3.31872 46.9443 2.91274C47.7407 2.11742 48.5374 1.3224 49.3342 0.527588Z" fill="#FE193D"/>
<path d="M36.2129 13.6487C36.5935 13.7755 36.721 14.01 36.9358 14.329C36.9942 14.4152 36.9942 14.4152 37.0539 14.503C37.348 14.9451 37.5915 15.3816 37.768 15.8841C37.7968 15.9587 37.8256 16.0334 37.8553 16.1103C38.3738 17.6612 38.0717 19.2995 37.4217 20.7557C36.6091 22.2927 35.1574 23.3551 33.528 23.884C32.5099 24.1583 31.3919 24.1787 30.3815 23.8537C30.2993 23.8287 30.2171 23.8038 30.1324 23.7781C29.1319 23.447 28.3385 23.0154 27.6602 22.2014C28.3337 21.5279 29.0072 20.8544 29.7012 20.1604C30.1871 20.3548 30.1871 20.3548 30.4848 20.5553C31.1177 20.9728 31.8852 20.893 32.6169 20.8408C33.3216 20.6846 33.8929 20.3139 34.3663 19.7717C34.8971 18.9347 34.9662 18.0193 34.8522 17.0503C34.7343 16.6896 34.5724 16.3951 34.3663 16.0784C34.2701 15.886 34.2701 15.886 34.1719 15.6897C34.8454 15.0162 35.519 14.3426 36.2129 13.6487Z" fill="#011136"/>
<path d="M33.6963 15.3095C34.3047 15.6962 34.7365 16.3719 34.9496 17.0528C35.0487 18.2008 34.9853 19.069 34.251 19.9928C33.7168 20.5697 33.0682 20.9137 32.284 20.9602C31.0123 20.9755 31.0123 20.9755 30.4788 20.6489C30.4165 20.6109 30.3543 20.5729 30.2901 20.5338C29.7025 20.1402 29.1546 19.5582 28.9553 18.8656C28.8563 18.0563 28.7875 17.1878 29.2153 16.4697C29.2965 16.3253 29.2965 16.3253 29.3793 16.1781C30.5253 14.6915 32.0549 14.4811 33.6963 15.3095Z" fill="#1CACB4"/>
<path d="M33.4917 15.206C33.7162 15.3539 33.8837 15.5008 34.0748 15.692C33.6192 16.2397 33.1321 16.7446 32.6268 17.2466C32.5457 17.3276 32.4645 17.4086 32.3809 17.4921C32.1237 17.7488 31.8662 18.0051 31.6086 18.2614C31.4333 18.4362 31.258 18.6111 31.0828 18.7859C30.6549 19.2127 30.2268 19.6392 29.7984 20.0655C29.0855 19.3666 28.9115 18.883 28.8994 17.8909C28.8992 17.3447 28.9331 16.9431 29.2153 16.4695C29.2965 16.3251 29.2965 16.3251 29.3793 16.1779C30.4638 14.771 31.8924 14.4868 33.4917 15.206Z" fill="#06CAAA"/>
</svg>
