<svg width="41" height="40" viewBox="0 0 41 40" fill="none" xmlns="http://www.w3.org/2000/svg">
<path d="M29.1782 36.6663C27.7893 36.6663 26.6088 36.1802 25.6366 35.208C24.6643 34.2358 24.1782 33.0552 24.1782 31.6663C24.1782 31.4997 24.2199 31.1108 24.3032 30.4997L12.5949 23.6663C12.1504 24.083 11.6366 24.4097 11.0532 24.6463C10.4699 24.883 9.84489 25.0008 9.17822 24.9997C7.78933 24.9997 6.60878 24.5136 5.63656 23.5413C4.66433 22.5691 4.17822 21.3886 4.17822 19.9997C4.17822 18.6108 4.66433 17.4302 5.63656 16.458C6.60878 15.4858 7.78933 14.9997 9.17822 14.9997C9.84489 14.9997 10.4699 15.118 11.0532 15.3547C11.6366 15.5913 12.1504 15.9175 12.5949 16.333L24.3032 9.49967C24.2477 9.30523 24.2132 9.11801 24.1999 8.93801C24.1866 8.75801 24.1793 8.55634 24.1782 8.33301C24.1782 6.94412 24.6643 5.76356 25.6366 4.79134C26.6088 3.81912 27.7893 3.33301 29.1782 3.33301C30.5671 3.33301 31.7477 3.81912 32.7199 4.79134C33.6921 5.76356 34.1782 6.94412 34.1782 8.33301C34.1782 9.7219 33.6921 10.9025 32.7199 11.8747C31.7477 12.8469 30.5671 13.333 29.1782 13.333C28.5116 13.333 27.8866 13.2147 27.3032 12.978C26.7199 12.7413 26.206 12.4152 25.7616 11.9997L14.0532 18.833C14.1088 19.0275 14.1438 19.2152 14.1582 19.3963C14.1727 19.5775 14.1793 19.7786 14.1782 19.9997C14.1771 20.2208 14.1704 20.4225 14.1582 20.6047C14.146 20.7869 14.111 20.9741 14.0532 21.1663L25.7616 27.9997C26.206 27.583 26.7199 27.2569 27.3032 27.0213C27.8866 26.7858 28.5116 26.6675 29.1782 26.6663C30.5671 26.6663 31.7477 27.1525 32.7199 28.1247C33.6921 29.0969 34.1782 30.2775 34.1782 31.6663C34.1782 33.0552 33.6921 34.2358 32.7199 35.208C31.7477 36.1802 30.5671 36.6663 29.1782 36.6663Z" fill="#FCB034"/>
</svg>
