<svg width="14" height="14" viewBox="0 0 14 14" fill="none" xmlns="http://www.w3.org/2000/svg">
<path d="M3.52666 7.70616V3.38225C3.52666 3.09555 3.64054 2.8206 3.84327 2.61788C4.04599 2.41516 4.32094 2.30127 4.60763 2.30127H11.0935C11.3802 2.30127 11.6551 2.41516 11.8579 2.61788C12.0606 2.8206 12.1745 3.09555 12.1745 3.38225V10.4086C12.1745 10.9491 11.8502 12.0301 10.553 12.0301M10.553 12.0301H4.06715C3.52666 12.0301 2.44568 11.7058 2.44568 10.4086V9.32763H8.93155V10.4086C8.93155 11.7058 10.0125 12.0301 10.553 12.0301ZM5.68861 4.46323H10.0125M5.68861 6.62518H7.85057" stroke="#666666" stroke-width="1.08098" stroke-linecap="round" stroke-linejoin="round"/>
</svg>
