<svg width="21" height="22" viewBox="0 0 21 22" fill="none" xmlns="http://www.w3.org/2000/svg">
<g id="iconoir:privacy-policy" clip-path="url(#clip0_618_5638)">
<g id="Group">
<path id="Vector" d="M17.3423 10.6267V5.20639C17.3424 5.13794 17.3289 5.07016 17.3028 5.00692C17.2766 4.94368 17.2382 4.88623 17.1897 4.83786L14.46 2.10818C14.3626 2.01058 14.2303 1.95569 14.0924 1.95557H3.98874C3.85076 1.95557 3.71842 2.01038 3.62086 2.10795C3.52329 2.20552 3.46847 2.33785 3.46847 2.47584V18.7776C3.46847 18.9156 3.52329 19.048 3.62086 19.1455C3.71842 19.2431 3.85076 19.2979 3.98874 19.2979H11.2725M6.93694 8.8925H13.8739M6.93694 5.42403H10.4054M6.93694 12.361H9.53829" stroke="#FCB034" stroke-width="1.30068" stroke-linecap="round" stroke-linejoin="round"/>
<path id="Vector_2" d="M13.8739 1.95557V4.90376C13.8739 5.04175 13.9287 5.17408 14.0263 5.27165C14.1238 5.36922 14.2562 5.42403 14.3941 5.42403H17.3423M17.3354 13.3365L19.5518 13.8992C19.7824 13.9582 19.9446 14.168 19.9376 14.4056C19.7885 19.3985 16.9088 20.165 16.9088 20.165C16.9088 20.165 14.0291 19.3985 13.8799 14.4056C13.8776 14.29 13.9144 14.1771 13.9845 14.0851C14.0546 13.9931 14.1537 13.9276 14.2658 13.8992L16.4822 13.3365C16.7622 13.2654 17.0553 13.2654 17.3354 13.3365Z" stroke="#FCB034" stroke-width="1.30068" stroke-linecap="round" stroke-linejoin="round"/>
</g>
</g>
<defs>
<clipPath id="clip0_618_5638">
<rect width="20.8108" height="20.8108" fill="white" transform="translate(0 0.221191)"/>
</clipPath>
</defs>
</svg>
