<svg width="25" height="24" viewBox="0 0 25 24" fill="none" xmlns="http://www.w3.org/2000/svg">
<g id="twitter (1)" clip-path="url(#clip0_618_5690)">
<path id="Vector" d="M13.3106 11.4876L18.5954 19.0467H16.4265L12.114 12.8785V12.8781L11.4809 11.9726L6.44319 4.7666H8.61207L12.6775 10.5821L13.3106 11.4876Z" fill="#FCB034"/>
<path id="Vector_2" d="M21.7298 0.146484H3.32078C1.91939 0.146484 0.783279 1.2826 0.783279 2.68399V21.093C0.783279 22.4944 1.91939 23.6305 3.32078 23.6305H21.7298C23.1312 23.6305 24.2673 22.4944 24.2673 21.093V2.68399C24.2673 1.2826 23.1312 0.146484 21.7298 0.146484ZM15.7622 20.0614L11.3982 13.7102L5.93446 20.0614H4.52235L10.7712 12.798L4.52235 3.70354H9.28845L13.4208 9.71772L18.5946 3.70354H20.0067L14.048 10.6301H14.0477L20.5283 20.0614H15.7622Z" fill="#FCB034"/>
</g>
<defs>
<clipPath id="clip0_618_5690">
<rect width="23.4841" height="23.4841" fill="white" transform="translate(0.783325 0.146484)"/>
</clipPath>
</defs>
</svg>
