<svg width="18" height="18" viewBox="0 0 18 18" fill="none" xmlns="http://www.w3.org/2000/svg">
<g clip-path="url(#clip0_508_3039)">
<path d="M5.20433 11.7889C4.32294 12.4799 3.3121 12.9874 2.23143 13.2815C2.11236 13.3247 2.00949 13.4036 1.93678 13.5073C1.86408 13.611 1.82508 13.7346 1.82508 13.8613C1.82508 13.988 1.86408 14.1116 1.93678 14.2153C2.00949 14.319 2.11236 14.3979 2.23143 14.4411C10.7677 17.9444 16.1954 12.529 15.3689 6.52158L16.7505 3.65971H15.1469C13.1485 1.20492 7.84416 1.32827 8.71999 6.55859C8.71999 6.55859 5.88279 7.06435 2.2561 3.49935C2.17221 3.41652 2.06634 3.35947 1.95103 3.33496C1.83571 3.31045 1.71579 3.31949 1.60546 3.36103C1.49513 3.40256 1.39902 3.47485 1.3285 3.56932C1.25798 3.6638 1.21602 3.7765 1.20757 3.89409C0.824097 5.4704 1.016 7.13183 1.74874 8.57921C2.48148 10.0266 3.70689 11.1648 5.20433 11.7889Z" stroke="white" stroke-width="1.23357" stroke-linecap="round" stroke-linejoin="round"/>
</g>
<defs>
<clipPath id="clip0_508_3039">
<rect width="17.2699" height="17.2699" fill="white" transform="translate(0.26985 0.193359)"/>
</clipPath>
</defs>
</svg>
