<svg width="18" height="18" viewBox="0 0 18 18" fill="none" xmlns="http://www.w3.org/2000/svg">
<g clip-path="url(#clip0_508_3026)">
<path d="M6.45847 16.7206L5.09127 14.4179L2.50078 13.8422L2.75263 11.1798L0.98966 9.16496L2.75263 7.15014L2.50078 4.48769L5.09127 3.91203L6.45847 1.60938L8.90504 2.65277L11.3516 1.60938L12.7188 3.91203L15.3093 4.48769L15.0574 7.15014L16.8204 9.16496L15.0574 11.1798L15.3093 13.8422L12.7188 14.4179L11.3516 16.7206L8.90504 15.6772L6.45847 16.7206ZM7.07011 14.8856L8.90504 14.0941L10.7759 14.8856L11.7834 13.1586L13.7622 12.6909L13.5823 10.6761L14.9135 9.16496L13.5823 7.61787L13.7622 5.60304L11.7834 5.1713L10.74 3.4443L8.90504 4.23584L7.03413 3.4443L6.02672 5.1713L4.04787 5.60304L4.22777 7.61787L2.89655 9.16496L4.22777 10.6761L4.04787 12.7269L6.02672 13.1586L7.07011 14.8856ZM8.14948 11.7195L12.2151 7.65385L11.2077 6.61046L8.14948 9.66867L6.60238 8.15755L5.59497 9.16496L8.14948 11.7195Z" fill="white"/>
</g>
<defs>
<clipPath id="clip0_508_3026">
<rect width="17.2699" height="17.2699" fill="white" transform="translate(0.26985 0.530273)"/>
</clipPath>
</defs>
</svg>
