<svg width="9" height="9" viewBox="0 0 9 9" fill="none" xmlns="http://www.w3.org/2000/svg">
<g clip-path="url(#clip0_598_3432)">
<path d="M3.225 8.4375L2.5125 7.2375L1.1625 6.9375L1.29375 5.55L0.375 4.5L1.29375 3.45L1.1625 2.0625L2.5125 1.7625L3.225 0.5625L4.5 1.10625L5.775 0.5625L6.4875 1.7625L7.8375 2.0625L7.70625 3.45L8.625 4.5L7.70625 5.55L7.8375 6.9375L6.4875 7.2375L5.775 8.4375L4.5 7.89375L3.225 8.4375ZM4.10625 5.83125L6.225 3.7125L5.7 3.16875L4.10625 4.7625L3.3 3.975L2.775 4.5L4.10625 5.83125Z" fill="#04B75C"/>
</g>
<defs>
<clipPath id="clip0_598_3432">
<rect width="9" height="9" fill="white"/>
</clipPath>
</defs>
</svg>
