<svg width="24" height="24" viewBox="0 0 24 24" fill="none" xmlns="http://www.w3.org/2000/svg">
<g id="ri:whatsapp-fill">
<path id="Vector" d="M12.9148 2.14844C18.8467 2.14844 23.6551 6.95688 23.6551 12.8888C23.6551 18.8206 18.8467 23.6291 12.9148 23.6291C11.0167 23.6324 9.15204 23.13 7.51244 22.1738L2.1788 23.6291L3.63089 18.2933C2.67388 16.6532 2.17117 14.7877 2.1745 12.8888C2.1745 6.95688 6.98294 2.14844 12.9148 2.14844ZM9.25452 7.84081L9.03972 7.8494C8.90083 7.85897 8.76514 7.89545 8.64018 7.9568C8.52372 8.02287 8.41738 8.10534 8.32441 8.20168C8.19553 8.32305 8.12249 8.42831 8.04409 8.53034C7.64683 9.04684 7.43293 9.68096 7.43619 10.3326C7.43833 10.8588 7.57581 11.3712 7.79062 11.8502C8.2299 12.8189 8.95272 13.8447 9.90646 14.7952C10.1363 15.0239 10.3619 15.2538 10.6046 15.4675C11.7897 16.5108 13.2019 17.2633 14.7289 17.665L15.3389 17.7584C15.5376 17.7692 15.7363 17.7541 15.9361 17.7445C16.2488 17.728 16.5542 17.6433 16.8307 17.4964C16.9713 17.4237 17.1085 17.3449 17.2421 17.2601C17.2421 17.2601 17.2876 17.2293 17.3764 17.1634C17.5214 17.056 17.6105 16.9798 17.7308 16.8541C17.821 16.761 17.8962 16.6529 17.9563 16.5297C18.0401 16.3547 18.1239 16.0206 18.1583 15.7425C18.184 15.5298 18.1765 15.4138 18.1733 15.3419C18.169 15.2269 18.0734 15.1077 17.9692 15.0572L17.3441 14.7769C17.3441 14.7769 16.4097 14.3699 15.8383 14.1099C15.7785 14.0839 15.7145 14.069 15.6493 14.0659C15.5758 14.0582 15.5015 14.0664 15.4315 14.0899C15.3614 14.1135 15.2973 14.1518 15.2433 14.2023C15.238 14.2002 15.166 14.2614 14.3895 15.2022C14.3449 15.2621 14.2835 15.3074 14.2131 15.3322C14.1427 15.3571 14.0665 15.3605 13.9942 15.3419C13.9242 15.3232 13.8557 15.2995 13.7891 15.271C13.6559 15.2151 13.6097 15.1936 13.5184 15.155C12.9018 14.8864 12.331 14.5229 11.8268 14.0777C11.6915 13.9596 11.5658 13.8307 11.437 13.7061C11.0144 13.3014 10.6462 12.8436 10.3414 12.3442L10.2781 12.2422C10.2332 12.1732 10.1965 12.0994 10.1685 12.022C10.1277 11.8641 10.234 11.7374 10.234 11.7374C10.234 11.7374 10.495 11.4517 10.6164 11.297C10.7345 11.1467 10.8344 11.0006 10.8989 10.8964C11.0256 10.6924 11.0653 10.4829 10.9988 10.3208C10.698 9.58611 10.3873 8.85541 10.0665 8.12865C10.0031 7.98473 9.81517 7.88162 9.6444 7.86122C9.5864 7.85406 9.5284 7.84833 9.4704 7.84403C9.32619 7.83576 9.18159 7.8372 9.03757 7.84833L9.25452 7.84081Z" fill="#FCB034"/>
</g>
</svg>
